<?xml version="1.0" encoding="utf-8" standalone="no"?>
<!DOCTYPE svg PUBLIC "-//W3C//DTD SVG 1.1//EN"
  "http://www.w3.org/Graphics/SVG/1.1/DTD/svg11.dtd">
<svg xmlns:xlink="http://www.w3.org/1999/xlink" width="567.01886pt" height="303.231562pt" viewBox="0 0 567.01886 303.231562" xmlns="http://www.w3.org/2000/svg" version="1.1">
 <metadata>
  <rdf:RDF xmlns:dc="http://purl.org/dc/elements/1.1/" xmlns:cc="http://creativecommons.org/ns#" xmlns:rdf="http://www.w3.org/1999/02/22-rdf-syntax-ns#">
   <cc:Work>
    <dc:type rdf:resource="http://purl.org/dc/dcmitype/StillImage"/>
    <dc:date>2026-05-22T20:08:58.854327</dc:date>
    <dc:format>image/svg+xml</dc:format>
    <dc:creator>
     <cc:Agent>
      <dc:title>Matplotlib v3.10.9, https://matplotlib.org/</dc:title>
     </cc:Agent>
    </dc:creator>
   </cc:Work>
  </rdf:RDF>
 </metadata>
 <defs>
  <style type="text/css">*{stroke-linejoin: round; stroke-linecap: butt}</style>
 </defs>
 <g id="figure_1">
  <g id="patch_1">
   <path d="M 0 303.231562 
L 567.01886 303.231562 
L 567.01886 0 
L 0 0 
z
" style="fill: #ffffff"/>
  </g>
  <g id="axes_1">
   <g id="patch_2">
    <path d="M 52.345938 264.7075 
L 559.603502 264.7075 
L 559.603502 35.7555 
L 52.345938 35.7555 
z
" style="fill: #ffffff"/>
   </g>
   <g id="PathCollection_1">
    <path d="M 367.25558 81.171467 
C 370.759091 81.171467 374.119579 79.779507 376.596936 77.302151 
C 379.074293 74.824794 380.466252 71.464306 380.466252 67.960795 
C 380.466252 64.457283 379.074293 61.096795 376.596936 58.619438 
C 374.119579 56.142082 370.759091 54.750122 367.25558 54.750122 
C 363.752068 54.750122 360.39158 56.142082 357.914223 58.619438 
C 355.436867 61.096795 354.044907 64.457283 354.044907 67.960795 
C 354.044907 71.464306 355.436867 74.824794 357.914223 77.302151 
C 360.39158 79.779507 363.752068 81.171467 367.25558 81.171467 
z
" clip-path="url(#p6a40f5d8b1)" style="fill: #332288; fill-opacity: 0.8; stroke: #222222; stroke-opacity: 0.8; stroke-width: 0.5"/>
    <path d="M 300.605357 100.190135 
C 302.714305 100.190135 304.73716 99.352241 306.228412 97.86099 
C 307.719664 96.369738 308.557558 94.346883 308.557558 92.237934 
C 308.557558 90.128986 307.719664 88.106131 306.228412 86.614879 
C 304.73716 85.123628 302.714305 84.285733 300.605357 84.285733 
C 298.496408 84.285733 296.473553 85.123628 294.982301 86.614879 
C 293.49105 88.106131 292.653156 90.128986 292.653156 92.237934 
C 292.653156 94.346883 293.49105 96.369738 294.982301 97.86099 
C 296.473553 99.352241 298.496408 100.190135 300.605357 100.190135 
z
" clip-path="url(#p6a40f5d8b1)" style="fill: #332288; fill-opacity: 0.8; stroke: #222222; stroke-opacity: 0.8; stroke-width: 0.5"/>
    <path d="M 536.54634 104.837023 
C 538.425707 104.837023 540.228353 104.090343 541.557266 102.76143 
C 542.886179 101.432517 543.632859 99.629871 543.632859 97.750504 
C 543.632859 95.871137 542.886179 94.068492 541.557266 92.739579 
C 540.228353 91.410666 538.425707 90.663985 536.54634 90.663985 
C 534.666973 90.663985 532.864327 91.410666 531.535414 92.739579 
C 530.206501 94.068492 529.459821 95.871137 529.459821 97.750504 
C 529.459821 99.629871 530.206501 101.432517 531.535414 102.76143 
C 532.864327 104.090343 534.666973 104.837023 536.54634 104.837023 
z
" clip-path="url(#p6a40f5d8b1)" style="fill: #332288; fill-opacity: 0.8; stroke: #222222; stroke-opacity: 0.8; stroke-width: 0.5"/>
    <path d="M 372.504223 108.573069 
C 374.22012 108.573069 375.865969 107.891335 377.079291 106.678013 
C 378.292613 105.464691 378.974346 103.818842 378.974346 102.102945 
C 378.974346 100.387048 378.292613 98.741199 377.079291 97.527877 
C 375.865969 96.314554 374.22012 95.632821 372.504223 95.632821 
C 370.788326 95.632821 369.142477 96.314554 367.929154 97.527877 
C 366.715832 98.741199 366.034099 100.387048 366.034099 102.102945 
C 366.034099 103.818842 366.715832 105.464691 367.929154 106.678013 
C 369.142477 107.891335 370.788326 108.573069 372.504223 108.573069 
z
" clip-path="url(#p6a40f5d8b1)" style="fill: #332288; fill-opacity: 0.8; stroke: #222222; stroke-opacity: 0.8; stroke-width: 0.5"/>
    <path d="M 340.451411 109.721257 
C 342.120426 109.721257 343.721308 109.05815 344.901481 107.877977 
C 346.081653 106.697805 346.74476 105.096923 346.74476 103.427907 
C 346.74476 101.758891 346.081653 100.158009 344.901481 98.977837 
C 343.721308 97.797664 342.120426 97.134557 340.451411 97.134557 
C 338.782395 97.134557 337.181513 97.797664 336.00134 98.977837 
C 334.821168 100.158009 334.158061 101.758891 334.158061 103.427907 
C 334.158061 105.096923 334.821168 106.697805 336.00134 107.877977 
C 337.181513 109.05815 338.782395 109.721257 340.451411 109.721257 
z
" clip-path="url(#p6a40f5d8b1)" style="fill: #332288; fill-opacity: 0.8; stroke: #222222; stroke-opacity: 0.8; stroke-width: 0.5"/>
    <path d="M 229.061352 119.460824 
C 230.386456 119.460824 231.657465 118.934355 232.594455 117.997365 
C 233.531444 117.060376 234.057913 115.789367 234.057913 114.464263 
C 234.057913 113.13916 233.531444 111.86815 232.594455 110.931161 
C 231.657465 109.994171 230.386456 109.467702 229.061352 109.467702 
C 227.736249 109.467702 226.465239 109.994171 225.52825 110.931161 
C 224.59126 111.86815 224.064791 113.13916 224.064791 114.464263 
C 224.064791 115.789367 224.59126 117.060376 225.52825 117.997365 
C 226.465239 118.934355 227.736249 119.460824 229.061352 119.460824 
z
" clip-path="url(#p6a40f5d8b1)" style="fill: #332288; fill-opacity: 0.8; stroke: #222222; stroke-opacity: 0.8; stroke-width: 0.5"/>
    <path d="M 467.162735 120.980025 
C 468.441756 120.980025 469.668563 120.471865 470.572968 119.567461 
C 471.477372 118.663056 471.985532 117.436249 471.985532 116.157228 
C 471.985532 114.878207 471.477372 113.651399 470.572968 112.746995 
C 469.668563 111.842591 468.441756 111.33443 467.162735 111.33443 
C 465.883714 111.33443 464.656906 111.842591 463.752502 112.746995 
C 462.848098 113.651399 462.339937 114.878207 462.339937 116.157228 
C 462.339937 117.436249 462.848098 118.663056 463.752502 119.567461 
C 464.656906 120.471865 465.883714 120.980025 467.162735 120.980025 
z
" clip-path="url(#p6a40f5d8b1)" style="fill: #332288; fill-opacity: 0.8; stroke: #222222; stroke-opacity: 0.8; stroke-width: 0.5"/>
    <path d="M 349.680592 122.819967 
C 350.90617 122.819967 352.081717 122.333039 352.948332 121.466424 
C 353.814947 120.59981 354.301874 119.424263 354.301874 118.198684 
C 354.301874 116.973106 353.814947 115.797559 352.948332 114.930944 
C 352.081717 114.064329 350.90617 113.577402 349.680592 113.577402 
C 348.455014 113.577402 347.279467 114.064329 346.412852 114.930944 
C 345.546237 115.797559 345.05931 116.973106 345.05931 118.198684 
C 345.05931 119.424263 345.546237 120.59981 346.412852 121.466424 
C 347.279467 122.333039 348.455014 122.819967 349.680592 122.819967 
z
" clip-path="url(#p6a40f5d8b1)" style="fill: #332288; fill-opacity: 0.8; stroke: #222222; stroke-opacity: 0.8; stroke-width: 0.5"/>
    <path d="M 225.026289 128.331097 
C 226.105995 128.331097 227.141624 127.902125 227.905091 127.138658 
C 228.668558 126.375191 229.09753 125.339562 229.09753 124.259856 
C 229.09753 123.180151 228.668558 122.144521 227.905091 121.381054 
C 227.141624 120.617587 226.105995 120.188616 225.026289 120.188616 
C 223.946583 120.188616 222.910954 120.617587 222.147487 121.381054 
C 221.38402 122.144521 220.955049 123.180151 220.955049 124.259856 
C 220.955049 125.339562 221.38402 126.375191 222.147487 127.138658 
C 222.910954 127.902125 223.946583 128.331097 225.026289 128.331097 
z
" clip-path="url(#p6a40f5d8b1)" style="fill: #332288; fill-opacity: 0.8; stroke: #222222; stroke-opacity: 0.8; stroke-width: 0.5"/>
    <path d="M 388.769301 140.55293 
C 389.607947 140.55293 390.412357 140.219733 391.005369 139.626721 
C 391.598382 139.033709 391.931579 138.229299 391.931579 137.390653 
C 391.931579 136.552007 391.598382 135.747597 391.005369 135.154585 
C 390.412357 134.561573 389.607947 134.228375 388.769301 134.228375 
C 387.930656 134.228375 387.126246 134.561573 386.533233 135.154585 
C 385.940221 135.747597 385.607024 136.552007 385.607024 137.390653 
C 385.607024 138.229299 385.940221 139.033709 386.533233 139.626721 
C 387.126246 140.219733 387.930656 140.55293 388.769301 140.55293 
z
" clip-path="url(#p6a40f5d8b1)" style="fill: #332288; fill-opacity: 0.8; stroke: #222222; stroke-opacity: 0.8; stroke-width: 0.5"/>
    <path d="M 499.680087 145.805572 
C 500.518732 145.805572 501.323142 145.472374 501.916155 144.879362 
C 502.509167 144.28635 502.842364 143.48194 502.842364 142.643294 
C 502.842364 141.804648 502.509167 141.000238 501.916155 140.407226 
C 501.323142 139.814214 500.518732 139.481016 499.680087 139.481016 
C 498.841441 139.481016 498.037031 139.814214 497.444019 140.407226 
C 496.851006 141.000238 496.517809 141.804648 496.517809 142.643294 
C 496.517809 143.48194 496.851006 144.28635 497.444019 144.879362 
C 498.037031 145.472374 498.841441 145.805572 499.680087 145.805572 
z
" clip-path="url(#p6a40f5d8b1)" style="fill: #332288; fill-opacity: 0.8; stroke: #222222; stroke-opacity: 0.8; stroke-width: 0.5"/>
    <path d="M 75.4031 151.229687 
C 76.241745 151.229687 77.046155 150.89649 77.639168 150.303478 
C 78.23218 149.710465 78.565377 148.906055 78.565377 148.06741 
C 78.565377 147.228764 78.23218 146.424354 77.639168 145.831342 
C 77.046155 145.23833 76.241745 144.905132 75.4031 144.905132 
C 74.564454 144.905132 73.760044 145.23833 73.167032 145.831342 
C 72.574019 146.424354 72.240822 147.228764 72.240822 148.06741 
C 72.240822 148.906055 72.574019 149.710465 73.167032 150.303478 
C 73.760044 150.89649 74.564454 151.229687 75.4031 151.229687 
z
" clip-path="url(#p6a40f5d8b1)" style="fill: #332288; fill-opacity: 0.8; stroke: #222222; stroke-opacity: 0.8; stroke-width: 0.5"/>
    <path d="M 471.740361 156.263007 
C 472.579007 156.263007 473.383417 155.92981 473.976429 155.336798 
C 474.569441 154.743786 474.902639 153.939376 474.902639 153.10073 
C 474.902639 152.262084 474.569441 151.457674 473.976429 150.864662 
C 473.383417 150.27165 472.579007 149.938452 471.740361 149.938452 
C 470.901715 149.938452 470.097305 150.27165 469.504293 150.864662 
C 468.911281 151.457674 468.578083 152.262084 468.578083 153.10073 
C 468.578083 153.939376 468.911281 154.743786 469.504293 155.336798 
C 470.097305 155.92981 470.901715 156.263007 471.740361 156.263007 
z
" clip-path="url(#p6a40f5d8b1)" style="fill: #332288; fill-opacity: 0.8; stroke: #222222; stroke-opacity: 0.8; stroke-width: 0.5"/>
    <path d="M 336.503658 168.98149 
C 337.342304 168.98149 338.146714 168.648292 338.739726 168.05528 
C 339.332738 167.462268 339.665936 166.657858 339.665936 165.819212 
C 339.665936 164.980566 339.332738 164.176156 338.739726 163.583144 
C 338.146714 162.990132 337.342304 162.656934 336.503658 162.656934 
C 335.665012 162.656934 334.860602 162.990132 334.26759 163.583144 
C 333.674578 164.176156 333.341381 164.980566 333.341381 165.819212 
C 333.341381 166.657858 333.674578 167.462268 334.26759 168.05528 
C 334.860602 168.648292 335.665012 168.98149 336.503658 168.98149 
z
" clip-path="url(#p6a40f5d8b1)" style="fill: #332288; fill-opacity: 0.8; stroke: #222222; stroke-opacity: 0.8; stroke-width: 0.5"/>
   </g>
   <g id="matplotlib.axis_1">
    <g id="xtick_1">
     <g id="line2d_1">
      <path d="M 90.92851 264.7075 
L 90.92851 35.7555 
" clip-path="url(#p6a40f5d8b1)" style="fill: none; stroke: #dddddd; stroke-opacity: 0.6; stroke-width: 0.6; stroke-linecap: square"/>
     </g>
     <g id="line2d_2">
      <defs>
       <path id="m7a147d5eb8" d="M 0 0 
L 0 3.5 
" style="stroke: #000000; stroke-width: 0.8"/>
      </defs>
      <g>
       <use xlink:href="#m7a147d5eb8" x="90.92851" y="264.7075" style="stroke: #000000; stroke-width: 0.8"/>
      </g>
     </g>
     <g id="text_1">
      <!-- $\mathdefault{10^{-5}}$ -->
      <g transform="translate(79.17851 279.305937) scale(0.1 -0.1)">
       <defs>
        <path id="DejaVuSans-31" d="M 794 531 
L 1825 531 
L 1825 4091 
L 703 3866 
L 703 4441 
L 1819 4666 
L 2450 4666 
L 2450 531 
L 3481 531 
L 3481 0 
L 794 0 
L 794 531 
z
" transform="scale(0.015625)"/>
        <path id="DejaVuSans-30" d="M 2034 4250 
Q 1547 4250 1301 3770 
Q 1056 3291 1056 2328 
Q 1056 1369 1301 889 
Q 1547 409 2034 409 
Q 2525 409 2770 889 
Q 3016 1369 3016 2328 
Q 3016 3291 2770 3770 
Q 2525 4250 2034 4250 
z
M 2034 4750 
Q 2819 4750 3233 4129 
Q 3647 3509 3647 2328 
Q 3647 1150 3233 529 
Q 2819 -91 2034 -91 
Q 1250 -91 836 529 
Q 422 1150 422 2328 
Q 422 3509 836 4129 
Q 1250 4750 2034 4750 
z
" transform="scale(0.015625)"/>
        <path id="DejaVuSans-2212" d="M 678 2272 
L 4684 2272 
L 4684 1741 
L 678 1741 
L 678 2272 
z
" transform="scale(0.015625)"/>
        <path id="DejaVuSans-35" d="M 691 4666 
L 3169 4666 
L 3169 4134 
L 1269 4134 
L 1269 2991 
Q 1406 3038 1543 3061 
Q 1681 3084 1819 3084 
Q 2600 3084 3056 2656 
Q 3513 2228 3513 1497 
Q 3513 744 3044 326 
Q 2575 -91 1722 -91 
Q 1428 -91 1123 -41 
Q 819 9 494 109 
L 494 744 
Q 775 591 1075 516 
Q 1375 441 1709 441 
Q 2250 441 2565 725 
Q 2881 1009 2881 1497 
Q 2881 1984 2565 2268 
Q 2250 2553 1709 2553 
Q 1456 2553 1204 2497 
Q 953 2441 691 2322 
L 691 4666 
z
" transform="scale(0.015625)"/>
       </defs>
       <use xlink:href="#DejaVuSans-31" transform="translate(0 0.684375)"/>
       <use xlink:href="#DejaVuSans-30" transform="translate(63.623047 0.684375)"/>
       <use xlink:href="#DejaVuSans-2212" transform="translate(128.203125 38.965625) scale(0.7)"/>
       <use xlink:href="#DejaVuSans-35" transform="translate(186.855469 38.965625) scale(0.7)"/>
      </g>
     </g>
    </g>
    <g id="xtick_2">
     <g id="line2d_3">
      <path d="M 156.655703 264.7075 
L 156.655703 35.7555 
" clip-path="url(#p6a40f5d8b1)" style="fill: none; stroke: #dddddd; stroke-opacity: 0.6; stroke-width: 0.6; stroke-linecap: square"/>
     </g>
     <g id="line2d_4">
      <g>
       <use xlink:href="#m7a147d5eb8" x="156.655703" y="264.7075" style="stroke: #000000; stroke-width: 0.8"/>
      </g>
     </g>
     <g id="text_2">
      <!-- $\mathdefault{10^{-4}}$ -->
      <g transform="translate(144.905703 279.305937) scale(0.1 -0.1)">
       <defs>
        <path id="DejaVuSans-34" d="M 2419 4116 
L 825 1625 
L 2419 1625 
L 2419 4116 
z
M 2253 4666 
L 3047 4666 
L 3047 1625 
L 3713 1625 
L 3713 1100 
L 3047 1100 
L 3047 0 
L 2419 0 
L 2419 1100 
L 313 1100 
L 313 1709 
L 2253 4666 
z
" transform="scale(0.015625)"/>
       </defs>
       <use xlink:href="#DejaVuSans-31" transform="translate(0 0.684375)"/>
       <use xlink:href="#DejaVuSans-30" transform="translate(63.623047 0.684375)"/>
       <use xlink:href="#DejaVuSans-2212" transform="translate(128.203125 38.965625) scale(0.7)"/>
       <use xlink:href="#DejaVuSans-34" transform="translate(186.855469 38.965625) scale(0.7)"/>
      </g>
     </g>
    </g>
    <g id="xtick_3">
     <g id="line2d_5">
      <path d="M 222.382896 264.7075 
L 222.382896 35.7555 
" clip-path="url(#p6a40f5d8b1)" style="fill: none; stroke: #dddddd; stroke-opacity: 0.6; stroke-width: 0.6; stroke-linecap: square"/>
     </g>
     <g id="line2d_6">
      <g>
       <use xlink:href="#m7a147d5eb8" x="222.382896" y="264.7075" style="stroke: #000000; stroke-width: 0.8"/>
      </g>
     </g>
     <g id="text_3">
      <!-- $\mathdefault{10^{-3}}$ -->
      <g transform="translate(210.632896 279.305937) scale(0.1 -0.1)">
       <defs>
        <path id="DejaVuSans-33" d="M 2597 2516 
Q 3050 2419 3304 2112 
Q 3559 1806 3559 1356 
Q 3559 666 3084 287 
Q 2609 -91 1734 -91 
Q 1441 -91 1130 -33 
Q 819 25 488 141 
L 488 750 
Q 750 597 1062 519 
Q 1375 441 1716 441 
Q 2309 441 2620 675 
Q 2931 909 2931 1356 
Q 2931 1769 2642 2001 
Q 2353 2234 1838 2234 
L 1294 2234 
L 1294 2753 
L 1863 2753 
Q 2328 2753 2575 2939 
Q 2822 3125 2822 3475 
Q 2822 3834 2567 4026 
Q 2313 4219 1838 4219 
Q 1578 4219 1281 4162 
Q 984 4106 628 3988 
L 628 4550 
Q 988 4650 1302 4700 
Q 1616 4750 1894 4750 
Q 2613 4750 3031 4423 
Q 3450 4097 3450 3541 
Q 3450 3153 3228 2886 
Q 3006 2619 2597 2516 
z
" transform="scale(0.015625)"/>
       </defs>
       <use xlink:href="#DejaVuSans-31" transform="translate(0 0.765625)"/>
       <use xlink:href="#DejaVuSans-30" transform="translate(63.623047 0.765625)"/>
       <use xlink:href="#DejaVuSans-2212" transform="translate(128.203125 39.046875) scale(0.7)"/>
       <use xlink:href="#DejaVuSans-33" transform="translate(186.855469 39.046875) scale(0.7)"/>
      </g>
     </g>
    </g>
    <g id="xtick_4">
     <g id="line2d_7">
      <path d="M 288.110089 264.7075 
L 288.110089 35.7555 
" clip-path="url(#p6a40f5d8b1)" style="fill: none; stroke: #dddddd; stroke-opacity: 0.6; stroke-width: 0.6; stroke-linecap: square"/>
     </g>
     <g id="line2d_8">
      <g>
       <use xlink:href="#m7a147d5eb8" x="288.110089" y="264.7075" style="stroke: #000000; stroke-width: 0.8"/>
      </g>
     </g>
     <g id="text_4">
      <!-- $\mathdefault{10^{-2}}$ -->
      <g transform="translate(276.360089 279.305937) scale(0.1 -0.1)">
       <defs>
        <path id="DejaVuSans-32" d="M 1228 531 
L 3431 531 
L 3431 0 
L 469 0 
L 469 531 
Q 828 903 1448 1529 
Q 2069 2156 2228 2338 
Q 2531 2678 2651 2914 
Q 2772 3150 2772 3378 
Q 2772 3750 2511 3984 
Q 2250 4219 1831 4219 
Q 1534 4219 1204 4116 
Q 875 4013 500 3803 
L 500 4441 
Q 881 4594 1212 4672 
Q 1544 4750 1819 4750 
Q 2544 4750 2975 4387 
Q 3406 4025 3406 3419 
Q 3406 3131 3298 2873 
Q 3191 2616 2906 2266 
Q 2828 2175 2409 1742 
Q 1991 1309 1228 531 
z
" transform="scale(0.015625)"/>
       </defs>
       <use xlink:href="#DejaVuSans-31" transform="translate(0 0.765625)"/>
       <use xlink:href="#DejaVuSans-30" transform="translate(63.623047 0.765625)"/>
       <use xlink:href="#DejaVuSans-2212" transform="translate(128.203125 39.046875) scale(0.7)"/>
       <use xlink:href="#DejaVuSans-32" transform="translate(186.855469 39.046875) scale(0.7)"/>
      </g>
     </g>
    </g>
    <g id="xtick_5">
     <g id="line2d_9">
      <path d="M 353.837281 264.7075 
L 353.837281 35.7555 
" clip-path="url(#p6a40f5d8b1)" style="fill: none; stroke: #dddddd; stroke-opacity: 0.6; stroke-width: 0.6; stroke-linecap: square"/>
     </g>
     <g id="line2d_10">
      <g>
       <use xlink:href="#m7a147d5eb8" x="353.837281" y="264.7075" style="stroke: #000000; stroke-width: 0.8"/>
      </g>
     </g>
     <g id="text_5">
      <!-- $\mathdefault{10^{-1}}$ -->
      <g transform="translate(342.087281 279.305937) scale(0.1 -0.1)">
       <use xlink:href="#DejaVuSans-31" transform="translate(0 0.684375)"/>
       <use xlink:href="#DejaVuSans-30" transform="translate(63.623047 0.684375)"/>
       <use xlink:href="#DejaVuSans-2212" transform="translate(128.203125 38.965625) scale(0.7)"/>
       <use xlink:href="#DejaVuSans-31" transform="translate(186.855469 38.965625) scale(0.7)"/>
      </g>
     </g>
    </g>
    <g id="xtick_6">
     <g id="line2d_11">
      <path d="M 419.564474 264.7075 
L 419.564474 35.7555 
" clip-path="url(#p6a40f5d8b1)" style="fill: none; stroke: #dddddd; stroke-opacity: 0.6; stroke-width: 0.6; stroke-linecap: square"/>
     </g>
     <g id="line2d_12">
      <g>
       <use xlink:href="#m7a147d5eb8" x="419.564474" y="264.7075" style="stroke: #000000; stroke-width: 0.8"/>
      </g>
     </g>
     <g id="text_6">
      <!-- $\mathdefault{10^{0}}$ -->
      <g transform="translate(410.764474 279.305937) scale(0.1 -0.1)">
       <use xlink:href="#DejaVuSans-31" transform="translate(0 0.765625)"/>
       <use xlink:href="#DejaVuSans-30" transform="translate(63.623047 0.765625)"/>
       <use xlink:href="#DejaVuSans-30" transform="translate(128.203125 39.046875) scale(0.7)"/>
      </g>
     </g>
    </g>
    <g id="xtick_7">
     <g id="line2d_13">
      <path d="M 485.291667 264.7075 
L 485.291667 35.7555 
" clip-path="url(#p6a40f5d8b1)" style="fill: none; stroke: #dddddd; stroke-opacity: 0.6; stroke-width: 0.6; stroke-linecap: square"/>
     </g>
     <g id="line2d_14">
      <g>
       <use xlink:href="#m7a147d5eb8" x="485.291667" y="264.7075" style="stroke: #000000; stroke-width: 0.8"/>
      </g>
     </g>
     <g id="text_7">
      <!-- $\mathdefault{10^{1}}$ -->
      <g transform="translate(476.491667 279.305937) scale(0.1 -0.1)">
       <use xlink:href="#DejaVuSans-31" transform="translate(0 0.684375)"/>
       <use xlink:href="#DejaVuSans-30" transform="translate(63.623047 0.684375)"/>
       <use xlink:href="#DejaVuSans-31" transform="translate(128.203125 38.965625) scale(0.7)"/>
      </g>
     </g>
    </g>
    <g id="xtick_8">
     <g id="line2d_15">
      <path d="M 551.01886 264.7075 
L 551.01886 35.7555 
" clip-path="url(#p6a40f5d8b1)" style="fill: none; stroke: #dddddd; stroke-opacity: 0.6; stroke-width: 0.6; stroke-linecap: square"/>
     </g>
     <g id="line2d_16">
      <g>
       <use xlink:href="#m7a147d5eb8" x="551.01886" y="264.7075" style="stroke: #000000; stroke-width: 0.8"/>
      </g>
     </g>
     <g id="text_8">
      <!-- $\mathdefault{10^{2}}$ -->
      <g transform="translate(542.21886 279.305937) scale(0.1 -0.1)">
       <use xlink:href="#DejaVuSans-31" transform="translate(0 0.765625)"/>
       <use xlink:href="#DejaVuSans-30" transform="translate(63.623047 0.765625)"/>
       <use xlink:href="#DejaVuSans-32" transform="translate(128.203125 39.046875) scale(0.7)"/>
      </g>
     </g>
    </g>
    <g id="xtick_9">
     <g id="line2d_17">
      <defs>
       <path id="mdff2bbc5d6" d="M 0 0 
L 0 2 
" style="stroke: #000000; stroke-width: 0.6"/>
      </defs>
      <g>
       <use xlink:href="#mdff2bbc5d6" x="56.561158" y="264.7075" style="stroke: #000000; stroke-width: 0.6"/>
      </g>
     </g>
    </g>
    <g id="xtick_10">
     <g id="line2d_18">
      <g>
       <use xlink:href="#mdff2bbc5d6" x="64.77303" y="264.7075" style="stroke: #000000; stroke-width: 0.6"/>
      </g>
     </g>
    </g>
    <g id="xtick_11">
     <g id="line2d_19">
      <g>
       <use xlink:href="#mdff2bbc5d6" x="71.142654" y="264.7075" style="stroke: #000000; stroke-width: 0.6"/>
      </g>
     </g>
    </g>
    <g id="xtick_12">
     <g id="line2d_20">
      <g>
       <use xlink:href="#mdff2bbc5d6" x="76.347015" y="264.7075" style="stroke: #000000; stroke-width: 0.6"/>
      </g>
     </g>
    </g>
    <g id="xtick_13">
     <g id="line2d_21">
      <g>
       <use xlink:href="#mdff2bbc5d6" x="80.747239" y="264.7075" style="stroke: #000000; stroke-width: 0.6"/>
      </g>
     </g>
    </g>
    <g id="xtick_14">
     <g id="line2d_22">
      <g>
       <use xlink:href="#mdff2bbc5d6" x="84.558887" y="264.7075" style="stroke: #000000; stroke-width: 0.6"/>
      </g>
     </g>
    </g>
    <g id="xtick_15">
     <g id="line2d_23">
      <g>
       <use xlink:href="#mdff2bbc5d6" x="87.920999" y="264.7075" style="stroke: #000000; stroke-width: 0.6"/>
      </g>
     </g>
    </g>
    <g id="xtick_16">
     <g id="line2d_24">
      <g>
       <use xlink:href="#mdff2bbc5d6" x="110.714367" y="264.7075" style="stroke: #000000; stroke-width: 0.6"/>
      </g>
     </g>
    </g>
    <g id="xtick_17">
     <g id="line2d_25">
      <g>
       <use xlink:href="#mdff2bbc5d6" x="122.288351" y="264.7075" style="stroke: #000000; stroke-width: 0.6"/>
      </g>
     </g>
    </g>
    <g id="xtick_18">
     <g id="line2d_26">
      <g>
       <use xlink:href="#mdff2bbc5d6" x="130.500223" y="264.7075" style="stroke: #000000; stroke-width: 0.6"/>
      </g>
     </g>
    </g>
    <g id="xtick_19">
     <g id="line2d_27">
      <g>
       <use xlink:href="#mdff2bbc5d6" x="136.869846" y="264.7075" style="stroke: #000000; stroke-width: 0.6"/>
      </g>
     </g>
    </g>
    <g id="xtick_20">
     <g id="line2d_28">
      <g>
       <use xlink:href="#mdff2bbc5d6" x="142.074207" y="264.7075" style="stroke: #000000; stroke-width: 0.6"/>
      </g>
     </g>
    </g>
    <g id="xtick_21">
     <g id="line2d_29">
      <g>
       <use xlink:href="#mdff2bbc5d6" x="146.474432" y="264.7075" style="stroke: #000000; stroke-width: 0.6"/>
      </g>
     </g>
    </g>
    <g id="xtick_22">
     <g id="line2d_30">
      <g>
       <use xlink:href="#mdff2bbc5d6" x="150.28608" y="264.7075" style="stroke: #000000; stroke-width: 0.6"/>
      </g>
     </g>
    </g>
    <g id="xtick_23">
     <g id="line2d_31">
      <g>
       <use xlink:href="#mdff2bbc5d6" x="153.648192" y="264.7075" style="stroke: #000000; stroke-width: 0.6"/>
      </g>
     </g>
    </g>
    <g id="xtick_24">
     <g id="line2d_32">
      <g>
       <use xlink:href="#mdff2bbc5d6" x="176.44156" y="264.7075" style="stroke: #000000; stroke-width: 0.6"/>
      </g>
     </g>
    </g>
    <g id="xtick_25">
     <g id="line2d_33">
      <g>
       <use xlink:href="#mdff2bbc5d6" x="188.015544" y="264.7075" style="stroke: #000000; stroke-width: 0.6"/>
      </g>
     </g>
    </g>
    <g id="xtick_26">
     <g id="line2d_34">
      <g>
       <use xlink:href="#mdff2bbc5d6" x="196.227416" y="264.7075" style="stroke: #000000; stroke-width: 0.6"/>
      </g>
     </g>
    </g>
    <g id="xtick_27">
     <g id="line2d_35">
      <g>
       <use xlink:href="#mdff2bbc5d6" x="202.597039" y="264.7075" style="stroke: #000000; stroke-width: 0.6"/>
      </g>
     </g>
    </g>
    <g id="xtick_28">
     <g id="line2d_36">
      <g>
       <use xlink:href="#mdff2bbc5d6" x="207.8014" y="264.7075" style="stroke: #000000; stroke-width: 0.6"/>
      </g>
     </g>
    </g>
    <g id="xtick_29">
     <g id="line2d_37">
      <g>
       <use xlink:href="#mdff2bbc5d6" x="212.201625" y="264.7075" style="stroke: #000000; stroke-width: 0.6"/>
      </g>
     </g>
    </g>
    <g id="xtick_30">
     <g id="line2d_38">
      <g>
       <use xlink:href="#mdff2bbc5d6" x="216.013273" y="264.7075" style="stroke: #000000; stroke-width: 0.6"/>
      </g>
     </g>
    </g>
    <g id="xtick_31">
     <g id="line2d_39">
      <g>
       <use xlink:href="#mdff2bbc5d6" x="219.375384" y="264.7075" style="stroke: #000000; stroke-width: 0.6"/>
      </g>
     </g>
    </g>
    <g id="xtick_32">
     <g id="line2d_40">
      <g>
       <use xlink:href="#mdff2bbc5d6" x="242.168752" y="264.7075" style="stroke: #000000; stroke-width: 0.6"/>
      </g>
     </g>
    </g>
    <g id="xtick_33">
     <g id="line2d_41">
      <g>
       <use xlink:href="#mdff2bbc5d6" x="253.742737" y="264.7075" style="stroke: #000000; stroke-width: 0.6"/>
      </g>
     </g>
    </g>
    <g id="xtick_34">
     <g id="line2d_42">
      <g>
       <use xlink:href="#mdff2bbc5d6" x="261.954609" y="264.7075" style="stroke: #000000; stroke-width: 0.6"/>
      </g>
     </g>
    </g>
    <g id="xtick_35">
     <g id="line2d_43">
      <g>
       <use xlink:href="#mdff2bbc5d6" x="268.324232" y="264.7075" style="stroke: #000000; stroke-width: 0.6"/>
      </g>
     </g>
    </g>
    <g id="xtick_36">
     <g id="line2d_44">
      <g>
       <use xlink:href="#mdff2bbc5d6" x="273.528593" y="264.7075" style="stroke: #000000; stroke-width: 0.6"/>
      </g>
     </g>
    </g>
    <g id="xtick_37">
     <g id="line2d_45">
      <g>
       <use xlink:href="#mdff2bbc5d6" x="277.928818" y="264.7075" style="stroke: #000000; stroke-width: 0.6"/>
      </g>
     </g>
    </g>
    <g id="xtick_38">
     <g id="line2d_46">
      <g>
       <use xlink:href="#mdff2bbc5d6" x="281.740466" y="264.7075" style="stroke: #000000; stroke-width: 0.6"/>
      </g>
     </g>
    </g>
    <g id="xtick_39">
     <g id="line2d_47">
      <g>
       <use xlink:href="#mdff2bbc5d6" x="285.102577" y="264.7075" style="stroke: #000000; stroke-width: 0.6"/>
      </g>
     </g>
    </g>
    <g id="xtick_40">
     <g id="line2d_48">
      <g>
       <use xlink:href="#mdff2bbc5d6" x="307.895945" y="264.7075" style="stroke: #000000; stroke-width: 0.6"/>
      </g>
     </g>
    </g>
    <g id="xtick_41">
     <g id="line2d_49">
      <g>
       <use xlink:href="#mdff2bbc5d6" x="319.469929" y="264.7075" style="stroke: #000000; stroke-width: 0.6"/>
      </g>
     </g>
    </g>
    <g id="xtick_42">
     <g id="line2d_50">
      <g>
       <use xlink:href="#mdff2bbc5d6" x="327.681802" y="264.7075" style="stroke: #000000; stroke-width: 0.6"/>
      </g>
     </g>
    </g>
    <g id="xtick_43">
     <g id="line2d_51">
      <g>
       <use xlink:href="#mdff2bbc5d6" x="334.051425" y="264.7075" style="stroke: #000000; stroke-width: 0.6"/>
      </g>
     </g>
    </g>
    <g id="xtick_44">
     <g id="line2d_52">
      <g>
       <use xlink:href="#mdff2bbc5d6" x="339.255786" y="264.7075" style="stroke: #000000; stroke-width: 0.6"/>
      </g>
     </g>
    </g>
    <g id="xtick_45">
     <g id="line2d_53">
      <g>
       <use xlink:href="#mdff2bbc5d6" x="343.65601" y="264.7075" style="stroke: #000000; stroke-width: 0.6"/>
      </g>
     </g>
    </g>
    <g id="xtick_46">
     <g id="line2d_54">
      <g>
       <use xlink:href="#mdff2bbc5d6" x="347.467658" y="264.7075" style="stroke: #000000; stroke-width: 0.6"/>
      </g>
     </g>
    </g>
    <g id="xtick_47">
     <g id="line2d_55">
      <g>
       <use xlink:href="#mdff2bbc5d6" x="350.82977" y="264.7075" style="stroke: #000000; stroke-width: 0.6"/>
      </g>
     </g>
    </g>
    <g id="xtick_48">
     <g id="line2d_56">
      <g>
       <use xlink:href="#mdff2bbc5d6" x="373.623138" y="264.7075" style="stroke: #000000; stroke-width: 0.6"/>
      </g>
     </g>
    </g>
    <g id="xtick_49">
     <g id="line2d_57">
      <g>
       <use xlink:href="#mdff2bbc5d6" x="385.197122" y="264.7075" style="stroke: #000000; stroke-width: 0.6"/>
      </g>
     </g>
    </g>
    <g id="xtick_50">
     <g id="line2d_58">
      <g>
       <use xlink:href="#mdff2bbc5d6" x="393.408995" y="264.7075" style="stroke: #000000; stroke-width: 0.6"/>
      </g>
     </g>
    </g>
    <g id="xtick_51">
     <g id="line2d_59">
      <g>
       <use xlink:href="#mdff2bbc5d6" x="399.778618" y="264.7075" style="stroke: #000000; stroke-width: 0.6"/>
      </g>
     </g>
    </g>
    <g id="xtick_52">
     <g id="line2d_60">
      <g>
       <use xlink:href="#mdff2bbc5d6" x="404.982979" y="264.7075" style="stroke: #000000; stroke-width: 0.6"/>
      </g>
     </g>
    </g>
    <g id="xtick_53">
     <g id="line2d_61">
      <g>
       <use xlink:href="#mdff2bbc5d6" x="409.383203" y="264.7075" style="stroke: #000000; stroke-width: 0.6"/>
      </g>
     </g>
    </g>
    <g id="xtick_54">
     <g id="line2d_62">
      <g>
       <use xlink:href="#mdff2bbc5d6" x="413.194851" y="264.7075" style="stroke: #000000; stroke-width: 0.6"/>
      </g>
     </g>
    </g>
    <g id="xtick_55">
     <g id="line2d_63">
      <g>
       <use xlink:href="#mdff2bbc5d6" x="416.556963" y="264.7075" style="stroke: #000000; stroke-width: 0.6"/>
      </g>
     </g>
    </g>
    <g id="xtick_56">
     <g id="line2d_64">
      <g>
       <use xlink:href="#mdff2bbc5d6" x="439.350331" y="264.7075" style="stroke: #000000; stroke-width: 0.6"/>
      </g>
     </g>
    </g>
    <g id="xtick_57">
     <g id="line2d_65">
      <g>
       <use xlink:href="#mdff2bbc5d6" x="450.924315" y="264.7075" style="stroke: #000000; stroke-width: 0.6"/>
      </g>
     </g>
    </g>
    <g id="xtick_58">
     <g id="line2d_66">
      <g>
       <use xlink:href="#mdff2bbc5d6" x="459.136187" y="264.7075" style="stroke: #000000; stroke-width: 0.6"/>
      </g>
     </g>
    </g>
    <g id="xtick_59">
     <g id="line2d_67">
      <g>
       <use xlink:href="#mdff2bbc5d6" x="465.505811" y="264.7075" style="stroke: #000000; stroke-width: 0.6"/>
      </g>
     </g>
    </g>
    <g id="xtick_60">
     <g id="line2d_68">
      <g>
       <use xlink:href="#mdff2bbc5d6" x="470.710172" y="264.7075" style="stroke: #000000; stroke-width: 0.6"/>
      </g>
     </g>
    </g>
    <g id="xtick_61">
     <g id="line2d_69">
      <g>
       <use xlink:href="#mdff2bbc5d6" x="475.110396" y="264.7075" style="stroke: #000000; stroke-width: 0.6"/>
      </g>
     </g>
    </g>
    <g id="xtick_62">
     <g id="line2d_70">
      <g>
       <use xlink:href="#mdff2bbc5d6" x="478.922044" y="264.7075" style="stroke: #000000; stroke-width: 0.6"/>
      </g>
     </g>
    </g>
    <g id="xtick_63">
     <g id="line2d_71">
      <g>
       <use xlink:href="#mdff2bbc5d6" x="482.284156" y="264.7075" style="stroke: #000000; stroke-width: 0.6"/>
      </g>
     </g>
    </g>
    <g id="xtick_64">
     <g id="line2d_72">
      <g>
       <use xlink:href="#mdff2bbc5d6" x="505.077524" y="264.7075" style="stroke: #000000; stroke-width: 0.6"/>
      </g>
     </g>
    </g>
    <g id="xtick_65">
     <g id="line2d_73">
      <g>
       <use xlink:href="#mdff2bbc5d6" x="516.651508" y="264.7075" style="stroke: #000000; stroke-width: 0.6"/>
      </g>
     </g>
    </g>
    <g id="xtick_66">
     <g id="line2d_74">
      <g>
       <use xlink:href="#mdff2bbc5d6" x="524.86338" y="264.7075" style="stroke: #000000; stroke-width: 0.6"/>
      </g>
     </g>
    </g>
    <g id="xtick_67">
     <g id="line2d_75">
      <g>
       <use xlink:href="#mdff2bbc5d6" x="531.233003" y="264.7075" style="stroke: #000000; stroke-width: 0.6"/>
      </g>
     </g>
    </g>
    <g id="xtick_68">
     <g id="line2d_76">
      <g>
       <use xlink:href="#mdff2bbc5d6" x="536.437364" y="264.7075" style="stroke: #000000; stroke-width: 0.6"/>
      </g>
     </g>
    </g>
    <g id="xtick_69">
     <g id="line2d_77">
      <g>
       <use xlink:href="#mdff2bbc5d6" x="540.837589" y="264.7075" style="stroke: #000000; stroke-width: 0.6"/>
      </g>
     </g>
    </g>
    <g id="xtick_70">
     <g id="line2d_78">
      <g>
       <use xlink:href="#mdff2bbc5d6" x="544.649237" y="264.7075" style="stroke: #000000; stroke-width: 0.6"/>
      </g>
     </g>
    </g>
    <g id="xtick_71">
     <g id="line2d_79">
      <g>
       <use xlink:href="#mdff2bbc5d6" x="548.011349" y="264.7075" style="stroke: #000000; stroke-width: 0.6"/>
      </g>
     </g>
    </g>
    <g id="text_9">
     <!-- share of total fidelity-bond value (%, live snapshot) -->
     <g transform="translate(165.019173 293.743906) scale(0.11 -0.11)">
      <defs>
       <path id="DejaVuSans-73" d="M 2834 3397 
L 2834 2853 
Q 2591 2978 2328 3040 
Q 2066 3103 1784 3103 
Q 1356 3103 1142 2972 
Q 928 2841 928 2578 
Q 928 2378 1081 2264 
Q 1234 2150 1697 2047 
L 1894 2003 
Q 2506 1872 2764 1633 
Q 3022 1394 3022 966 
Q 3022 478 2636 193 
Q 2250 -91 1575 -91 
Q 1294 -91 989 -36 
Q 684 19 347 128 
L 347 722 
Q 666 556 975 473 
Q 1284 391 1588 391 
Q 1994 391 2212 530 
Q 2431 669 2431 922 
Q 2431 1156 2273 1281 
Q 2116 1406 1581 1522 
L 1381 1569 
Q 847 1681 609 1914 
Q 372 2147 372 2553 
Q 372 3047 722 3315 
Q 1072 3584 1716 3584 
Q 2034 3584 2315 3537 
Q 2597 3491 2834 3397 
z
" transform="scale(0.015625)"/>
       <path id="DejaVuSans-68" d="M 3513 2113 
L 3513 0 
L 2938 0 
L 2938 2094 
Q 2938 2591 2744 2837 
Q 2550 3084 2163 3084 
Q 1697 3084 1428 2787 
Q 1159 2491 1159 1978 
L 1159 0 
L 581 0 
L 581 4863 
L 1159 4863 
L 1159 2956 
Q 1366 3272 1645 3428 
Q 1925 3584 2291 3584 
Q 2894 3584 3203 3211 
Q 3513 2838 3513 2113 
z
" transform="scale(0.015625)"/>
       <path id="DejaVuSans-61" d="M 2194 1759 
Q 1497 1759 1228 1600 
Q 959 1441 959 1056 
Q 959 750 1161 570 
Q 1363 391 1709 391 
Q 2188 391 2477 730 
Q 2766 1069 2766 1631 
L 2766 1759 
L 2194 1759 
z
M 3341 1997 
L 3341 0 
L 2766 0 
L 2766 531 
Q 2569 213 2275 61 
Q 1981 -91 1556 -91 
Q 1019 -91 701 211 
Q 384 513 384 1019 
Q 384 1609 779 1909 
Q 1175 2209 1959 2209 
L 2766 2209 
L 2766 2266 
Q 2766 2663 2505 2880 
Q 2244 3097 1772 3097 
Q 1472 3097 1187 3025 
Q 903 2953 641 2809 
L 641 3341 
Q 956 3463 1253 3523 
Q 1550 3584 1831 3584 
Q 2591 3584 2966 3190 
Q 3341 2797 3341 1997 
z
" transform="scale(0.015625)"/>
       <path id="DejaVuSans-72" d="M 2631 2963 
Q 2534 3019 2420 3045 
Q 2306 3072 2169 3072 
Q 1681 3072 1420 2755 
Q 1159 2438 1159 1844 
L 1159 0 
L 581 0 
L 581 3500 
L 1159 3500 
L 1159 2956 
Q 1341 3275 1631 3429 
Q 1922 3584 2338 3584 
Q 2397 3584 2469 3576 
Q 2541 3569 2628 3553 
L 2631 2963 
z
" transform="scale(0.015625)"/>
       <path id="DejaVuSans-65" d="M 3597 1894 
L 3597 1613 
L 953 1613 
Q 991 1019 1311 708 
Q 1631 397 2203 397 
Q 2534 397 2845 478 
Q 3156 559 3463 722 
L 3463 178 
Q 3153 47 2828 -22 
Q 2503 -91 2169 -91 
Q 1331 -91 842 396 
Q 353 884 353 1716 
Q 353 2575 817 3079 
Q 1281 3584 2069 3584 
Q 2775 3584 3186 3129 
Q 3597 2675 3597 1894 
z
M 3022 2063 
Q 3016 2534 2758 2815 
Q 2500 3097 2075 3097 
Q 1594 3097 1305 2825 
Q 1016 2553 972 2059 
L 3022 2063 
z
" transform="scale(0.015625)"/>
       <path id="DejaVuSans-20" transform="scale(0.015625)"/>
       <path id="DejaVuSans-6f" d="M 1959 3097 
Q 1497 3097 1228 2736 
Q 959 2375 959 1747 
Q 959 1119 1226 758 
Q 1494 397 1959 397 
Q 2419 397 2687 759 
Q 2956 1122 2956 1747 
Q 2956 2369 2687 2733 
Q 2419 3097 1959 3097 
z
M 1959 3584 
Q 2709 3584 3137 3096 
Q 3566 2609 3566 1747 
Q 3566 888 3137 398 
Q 2709 -91 1959 -91 
Q 1206 -91 779 398 
Q 353 888 353 1747 
Q 353 2609 779 3096 
Q 1206 3584 1959 3584 
z
" transform="scale(0.015625)"/>
       <path id="DejaVuSans-66" d="M 2375 4863 
L 2375 4384 
L 1825 4384 
Q 1516 4384 1395 4259 
Q 1275 4134 1275 3809 
L 1275 3500 
L 2222 3500 
L 2222 3053 
L 1275 3053 
L 1275 0 
L 697 0 
L 697 3053 
L 147 3053 
L 147 3500 
L 697 3500 
L 697 3744 
Q 697 4328 969 4595 
Q 1241 4863 1831 4863 
L 2375 4863 
z
" transform="scale(0.015625)"/>
       <path id="DejaVuSans-74" d="M 1172 4494 
L 1172 3500 
L 2356 3500 
L 2356 3053 
L 1172 3053 
L 1172 1153 
Q 1172 725 1289 603 
Q 1406 481 1766 481 
L 2356 481 
L 2356 0 
L 1766 0 
Q 1100 0 847 248 
Q 594 497 594 1153 
L 594 3053 
L 172 3053 
L 172 3500 
L 594 3500 
L 594 4494 
L 1172 4494 
z
" transform="scale(0.015625)"/>
       <path id="DejaVuSans-6c" d="M 603 4863 
L 1178 4863 
L 1178 0 
L 603 0 
L 603 4863 
z
" transform="scale(0.015625)"/>
       <path id="DejaVuSans-69" d="M 603 3500 
L 1178 3500 
L 1178 0 
L 603 0 
L 603 3500 
z
M 603 4863 
L 1178 4863 
L 1178 4134 
L 603 4134 
L 603 4863 
z
" transform="scale(0.015625)"/>
       <path id="DejaVuSans-64" d="M 2906 2969 
L 2906 4863 
L 3481 4863 
L 3481 0 
L 2906 0 
L 2906 525 
Q 2725 213 2448 61 
Q 2172 -91 1784 -91 
Q 1150 -91 751 415 
Q 353 922 353 1747 
Q 353 2572 751 3078 
Q 1150 3584 1784 3584 
Q 2172 3584 2448 3432 
Q 2725 3281 2906 2969 
z
M 947 1747 
Q 947 1113 1208 752 
Q 1469 391 1925 391 
Q 2381 391 2643 752 
Q 2906 1113 2906 1747 
Q 2906 2381 2643 2742 
Q 2381 3103 1925 3103 
Q 1469 3103 1208 2742 
Q 947 2381 947 1747 
z
" transform="scale(0.015625)"/>
       <path id="DejaVuSans-79" d="M 2059 -325 
Q 1816 -950 1584 -1140 
Q 1353 -1331 966 -1331 
L 506 -1331 
L 506 -850 
L 844 -850 
Q 1081 -850 1212 -737 
Q 1344 -625 1503 -206 
L 1606 56 
L 191 3500 
L 800 3500 
L 1894 763 
L 2988 3500 
L 3597 3500 
L 2059 -325 
z
" transform="scale(0.015625)"/>
       <path id="DejaVuSans-2d" d="M 313 2009 
L 1997 2009 
L 1997 1497 
L 313 1497 
L 313 2009 
z
" transform="scale(0.015625)"/>
       <path id="DejaVuSans-62" d="M 3116 1747 
Q 3116 2381 2855 2742 
Q 2594 3103 2138 3103 
Q 1681 3103 1420 2742 
Q 1159 2381 1159 1747 
Q 1159 1113 1420 752 
Q 1681 391 2138 391 
Q 2594 391 2855 752 
Q 3116 1113 3116 1747 
z
M 1159 2969 
Q 1341 3281 1617 3432 
Q 1894 3584 2278 3584 
Q 2916 3584 3314 3078 
Q 3713 2572 3713 1747 
Q 3713 922 3314 415 
Q 2916 -91 2278 -91 
Q 1894 -91 1617 61 
Q 1341 213 1159 525 
L 1159 0 
L 581 0 
L 581 4863 
L 1159 4863 
L 1159 2969 
z
" transform="scale(0.015625)"/>
       <path id="DejaVuSans-6e" d="M 3513 2113 
L 3513 0 
L 2938 0 
L 2938 2094 
Q 2938 2591 2744 2837 
Q 2550 3084 2163 3084 
Q 1697 3084 1428 2787 
Q 1159 2491 1159 1978 
L 1159 0 
L 581 0 
L 581 3500 
L 1159 3500 
L 1159 2956 
Q 1366 3272 1645 3428 
Q 1925 3584 2291 3584 
Q 2894 3584 3203 3211 
Q 3513 2838 3513 2113 
z
" transform="scale(0.015625)"/>
       <path id="DejaVuSans-76" d="M 191 3500 
L 800 3500 
L 1894 563 
L 2988 3500 
L 3597 3500 
L 2284 0 
L 1503 0 
L 191 3500 
z
" transform="scale(0.015625)"/>
       <path id="DejaVuSans-75" d="M 544 1381 
L 544 3500 
L 1119 3500 
L 1119 1403 
Q 1119 906 1312 657 
Q 1506 409 1894 409 
Q 2359 409 2629 706 
Q 2900 1003 2900 1516 
L 2900 3500 
L 3475 3500 
L 3475 0 
L 2900 0 
L 2900 538 
Q 2691 219 2414 64 
Q 2138 -91 1772 -91 
Q 1169 -91 856 284 
Q 544 659 544 1381 
z
M 1991 3584 
L 1991 3584 
z
" transform="scale(0.015625)"/>
       <path id="DejaVuSans-28" d="M 1984 4856 
Q 1566 4138 1362 3434 
Q 1159 2731 1159 2009 
Q 1159 1288 1364 580 
Q 1569 -128 1984 -844 
L 1484 -844 
Q 1016 -109 783 600 
Q 550 1309 550 2009 
Q 550 2706 781 3412 
Q 1013 4119 1484 4856 
L 1984 4856 
z
" transform="scale(0.015625)"/>
       <path id="DejaVuSans-25" d="M 4653 2053 
Q 4381 2053 4226 1822 
Q 4072 1591 4072 1178 
Q 4072 772 4226 539 
Q 4381 306 4653 306 
Q 4919 306 5073 539 
Q 5228 772 5228 1178 
Q 5228 1588 5073 1820 
Q 4919 2053 4653 2053 
z
M 4653 2450 
Q 5147 2450 5437 2106 
Q 5728 1763 5728 1178 
Q 5728 594 5436 251 
Q 5144 -91 4653 -91 
Q 4153 -91 3862 251 
Q 3572 594 3572 1178 
Q 3572 1766 3864 2108 
Q 4156 2450 4653 2450 
z
M 1428 4353 
Q 1159 4353 1004 4120 
Q 850 3888 850 3481 
Q 850 3069 1003 2837 
Q 1156 2606 1428 2606 
Q 1700 2606 1854 2837 
Q 2009 3069 2009 3481 
Q 2009 3884 1853 4118 
Q 1697 4353 1428 4353 
z
M 4250 4750 
L 4750 4750 
L 1831 -91 
L 1331 -91 
L 4250 4750 
z
M 1428 4750 
Q 1922 4750 2215 4408 
Q 2509 4066 2509 3481 
Q 2509 2891 2217 2550 
Q 1925 2209 1428 2209 
Q 931 2209 642 2551 
Q 353 2894 353 3481 
Q 353 4063 643 4406 
Q 934 4750 1428 4750 
z
" transform="scale(0.015625)"/>
       <path id="DejaVuSans-2c" d="M 750 794 
L 1409 794 
L 1409 256 
L 897 -744 
L 494 -744 
L 750 256 
L 750 794 
z
" transform="scale(0.015625)"/>
       <path id="DejaVuSans-70" d="M 1159 525 
L 1159 -1331 
L 581 -1331 
L 581 3500 
L 1159 3500 
L 1159 2969 
Q 1341 3281 1617 3432 
Q 1894 3584 2278 3584 
Q 2916 3584 3314 3078 
Q 3713 2572 3713 1747 
Q 3713 922 3314 415 
Q 2916 -91 2278 -91 
Q 1894 -91 1617 61 
Q 1341 213 1159 525 
z
M 3116 1747 
Q 3116 2381 2855 2742 
Q 2594 3103 2138 3103 
Q 1681 3103 1420 2742 
Q 1159 2381 1159 1747 
Q 1159 1113 1420 752 
Q 1681 391 2138 391 
Q 2594 391 2855 752 
Q 3116 1113 3116 1747 
z
" transform="scale(0.015625)"/>
       <path id="DejaVuSans-29" d="M 513 4856 
L 1013 4856 
Q 1481 4119 1714 3412 
Q 1947 2706 1947 2009 
Q 1947 1309 1714 600 
Q 1481 -109 1013 -844 
L 513 -844 
Q 928 -128 1133 580 
Q 1338 1288 1338 2009 
Q 1338 2731 1133 3434 
Q 928 4138 513 4856 
z
" transform="scale(0.015625)"/>
      </defs>
      <use xlink:href="#DejaVuSans-73"/>
      <use xlink:href="#DejaVuSans-68" transform="translate(52.099609 0)"/>
      <use xlink:href="#DejaVuSans-61" transform="translate(115.478516 0)"/>
      <use xlink:href="#DejaVuSans-72" transform="translate(176.757812 0)"/>
      <use xlink:href="#DejaVuSans-65" transform="translate(215.621094 0)"/>
      <use xlink:href="#DejaVuSans-20" transform="translate(277.144531 0)"/>
      <use xlink:href="#DejaVuSans-6f" transform="translate(308.931641 0)"/>
      <use xlink:href="#DejaVuSans-66" transform="translate(370.113281 0)"/>
      <use xlink:href="#DejaVuSans-20" transform="translate(405.318359 0)"/>
      <use xlink:href="#DejaVuSans-74" transform="translate(437.105469 0)"/>
      <use xlink:href="#DejaVuSans-6f" transform="translate(476.314453 0)"/>
      <use xlink:href="#DejaVuSans-74" transform="translate(537.496094 0)"/>
      <use xlink:href="#DejaVuSans-61" transform="translate(576.705078 0)"/>
      <use xlink:href="#DejaVuSans-6c" transform="translate(637.984375 0)"/>
      <use xlink:href="#DejaVuSans-20" transform="translate(665.767578 0)"/>
      <use xlink:href="#DejaVuSans-66" transform="translate(697.554688 0)"/>
      <use xlink:href="#DejaVuSans-69" transform="translate(732.759766 0)"/>
      <use xlink:href="#DejaVuSans-64" transform="translate(760.542969 0)"/>
      <use xlink:href="#DejaVuSans-65" transform="translate(824.019531 0)"/>
      <use xlink:href="#DejaVuSans-6c" transform="translate(885.542969 0)"/>
      <use xlink:href="#DejaVuSans-69" transform="translate(913.326172 0)"/>
      <use xlink:href="#DejaVuSans-74" transform="translate(941.109375 0)"/>
      <use xlink:href="#DejaVuSans-79" transform="translate(980.318359 0)"/>
      <use xlink:href="#DejaVuSans-2d" transform="translate(1037.748047 0)"/>
      <use xlink:href="#DejaVuSans-62" transform="translate(1073.832031 0)"/>
      <use xlink:href="#DejaVuSans-6f" transform="translate(1137.308594 0)"/>
      <use xlink:href="#DejaVuSans-6e" transform="translate(1198.490234 0)"/>
      <use xlink:href="#DejaVuSans-64" transform="translate(1261.869141 0)"/>
      <use xlink:href="#DejaVuSans-20" transform="translate(1325.345703 0)"/>
      <use xlink:href="#DejaVuSans-76" transform="translate(1357.132812 0)"/>
      <use xlink:href="#DejaVuSans-61" transform="translate(1416.3125 0)"/>
      <use xlink:href="#DejaVuSans-6c" transform="translate(1477.591797 0)"/>
      <use xlink:href="#DejaVuSans-75" transform="translate(1505.375 0)"/>
      <use xlink:href="#DejaVuSans-65" transform="translate(1568.753906 0)"/>
      <use xlink:href="#DejaVuSans-20" transform="translate(1630.277344 0)"/>
      <use xlink:href="#DejaVuSans-28" transform="translate(1662.064453 0)"/>
      <use xlink:href="#DejaVuSans-25" transform="translate(1701.078125 0)"/>
      <use xlink:href="#DejaVuSans-2c" transform="translate(1796.097656 0)"/>
      <use xlink:href="#DejaVuSans-20" transform="translate(1827.884766 0)"/>
      <use xlink:href="#DejaVuSans-6c" transform="translate(1859.671875 0)"/>
      <use xlink:href="#DejaVuSans-69" transform="translate(1887.455078 0)"/>
      <use xlink:href="#DejaVuSans-76" transform="translate(1915.238281 0)"/>
      <use xlink:href="#DejaVuSans-65" transform="translate(1974.417969 0)"/>
      <use xlink:href="#DejaVuSans-20" transform="translate(2035.941406 0)"/>
      <use xlink:href="#DejaVuSans-73" transform="translate(2067.728516 0)"/>
      <use xlink:href="#DejaVuSans-6e" transform="translate(2119.828125 0)"/>
      <use xlink:href="#DejaVuSans-61" transform="translate(2183.207031 0)"/>
      <use xlink:href="#DejaVuSans-70" transform="translate(2244.486328 0)"/>
      <use xlink:href="#DejaVuSans-73" transform="translate(2307.962891 0)"/>
      <use xlink:href="#DejaVuSans-68" transform="translate(2360.0625 0)"/>
      <use xlink:href="#DejaVuSans-6f" transform="translate(2423.441406 0)"/>
      <use xlink:href="#DejaVuSans-74" transform="translate(2484.623047 0)"/>
      <use xlink:href="#DejaVuSans-29" transform="translate(2523.832031 0)"/>
     </g>
    </g>
   </g>
   <g id="matplotlib.axis_2">
    <g id="ytick_1">
     <g id="line2d_80">
      <path d="M 52.345938 254.300591 
L 559.603502 254.300591 
" clip-path="url(#p6a40f5d8b1)" style="fill: none; stroke: #dddddd; stroke-opacity: 0.6; stroke-width: 0.6; stroke-linecap: square"/>
     </g>
     <g id="line2d_81">
      <defs>
       <path id="m1c93c6b7e7" d="M 0 0 
L -3.5 0 
" style="stroke: #000000; stroke-width: 0.8"/>
      </defs>
      <g>
       <use xlink:href="#m1c93c6b7e7" x="52.345938" y="254.300591" style="stroke: #000000; stroke-width: 0.8"/>
      </g>
     </g>
     <g id="text_10">
      <!-- $\mathdefault{10^{-2}}$ -->
      <g transform="translate(21.845938 258.09981) scale(0.1 -0.1)">
       <use xlink:href="#DejaVuSans-31" transform="translate(0 0.765625)"/>
       <use xlink:href="#DejaVuSans-30" transform="translate(63.623047 0.765625)"/>
       <use xlink:href="#DejaVuSans-2212" transform="translate(128.203125 39.046875) scale(0.7)"/>
       <use xlink:href="#DejaVuSans-32" transform="translate(186.855469 39.046875) scale(0.7)"/>
      </g>
     </g>
    </g>
    <g id="ytick_2">
     <g id="line2d_82">
      <path d="M 52.345938 199.234801 
L 559.603502 199.234801 
" clip-path="url(#p6a40f5d8b1)" style="fill: none; stroke: #dddddd; stroke-opacity: 0.6; stroke-width: 0.6; stroke-linecap: square"/>
     </g>
     <g id="line2d_83">
      <g>
       <use xlink:href="#m1c93c6b7e7" x="52.345938" y="199.234801" style="stroke: #000000; stroke-width: 0.8"/>
      </g>
     </g>
     <g id="text_11">
      <!-- $\mathdefault{10^{-1}}$ -->
      <g transform="translate(21.845938 203.03402) scale(0.1 -0.1)">
       <use xlink:href="#DejaVuSans-31" transform="translate(0 0.684375)"/>
       <use xlink:href="#DejaVuSans-30" transform="translate(63.623047 0.684375)"/>
       <use xlink:href="#DejaVuSans-2212" transform="translate(128.203125 38.965625) scale(0.7)"/>
       <use xlink:href="#DejaVuSans-31" transform="translate(186.855469 38.965625) scale(0.7)"/>
      </g>
     </g>
    </g>
    <g id="ytick_3">
     <g id="line2d_84">
      <path d="M 52.345938 144.169011 
L 559.603502 144.169011 
" clip-path="url(#p6a40f5d8b1)" style="fill: none; stroke: #dddddd; stroke-opacity: 0.6; stroke-width: 0.6; stroke-linecap: square"/>
     </g>
     <g id="line2d_85">
      <g>
       <use xlink:href="#m1c93c6b7e7" x="52.345938" y="144.169011" style="stroke: #000000; stroke-width: 0.8"/>
      </g>
     </g>
     <g id="text_12">
      <!-- $\mathdefault{10^{0}}$ -->
      <g transform="translate(27.745938 147.96823) scale(0.1 -0.1)">
       <use xlink:href="#DejaVuSans-31" transform="translate(0 0.765625)"/>
       <use xlink:href="#DejaVuSans-30" transform="translate(63.623047 0.765625)"/>
       <use xlink:href="#DejaVuSans-30" transform="translate(128.203125 39.046875) scale(0.7)"/>
      </g>
     </g>
    </g>
    <g id="ytick_4">
     <g id="line2d_86">
      <path d="M 52.345938 89.103221 
L 559.603502 89.103221 
" clip-path="url(#p6a40f5d8b1)" style="fill: none; stroke: #dddddd; stroke-opacity: 0.6; stroke-width: 0.6; stroke-linecap: square"/>
     </g>
     <g id="line2d_87">
      <g>
       <use xlink:href="#m1c93c6b7e7" x="52.345938" y="89.103221" style="stroke: #000000; stroke-width: 0.8"/>
      </g>
     </g>
     <g id="text_13">
      <!-- $\mathdefault{10^{1}}$ -->
      <g transform="translate(27.745938 92.90244) scale(0.1 -0.1)">
       <use xlink:href="#DejaVuSans-31" transform="translate(0 0.684375)"/>
       <use xlink:href="#DejaVuSans-30" transform="translate(63.623047 0.684375)"/>
       <use xlink:href="#DejaVuSans-31" transform="translate(128.203125 38.965625) scale(0.7)"/>
      </g>
     </g>
    </g>
    <g id="ytick_5">
     <g id="line2d_88">
      <defs>
       <path id="m3ae7ee7fec" d="M 0 0 
L -2 0 
" style="stroke: #000000; stroke-width: 0.6"/>
      </defs>
      <g>
       <use xlink:href="#m3ae7ee7fec" x="52.345938" y="262.83039" style="stroke: #000000; stroke-width: 0.6"/>
      </g>
     </g>
    </g>
    <g id="ytick_6">
     <g id="line2d_89">
      <g>
       <use xlink:href="#m3ae7ee7fec" x="52.345938" y="259.637017" style="stroke: #000000; stroke-width: 0.6"/>
      </g>
     </g>
    </g>
    <g id="ytick_7">
     <g id="line2d_90">
      <g>
       <use xlink:href="#m3ae7ee7fec" x="52.345938" y="256.820263" style="stroke: #000000; stroke-width: 0.6"/>
      </g>
     </g>
    </g>
    <g id="ytick_8">
     <g id="line2d_91">
      <g>
       <use xlink:href="#m3ae7ee7fec" x="52.345938" y="237.724136" style="stroke: #000000; stroke-width: 0.6"/>
      </g>
     </g>
    </g>
    <g id="ytick_9">
     <g id="line2d_92">
      <g>
       <use xlink:href="#m3ae7ee7fec" x="52.345938" y="228.027532" style="stroke: #000000; stroke-width: 0.6"/>
      </g>
     </g>
    </g>
    <g id="ytick_10">
     <g id="line2d_93">
      <g>
       <use xlink:href="#m3ae7ee7fec" x="52.345938" y="221.147682" style="stroke: #000000; stroke-width: 0.6"/>
      </g>
     </g>
    </g>
    <g id="ytick_11">
     <g id="line2d_94">
      <g>
       <use xlink:href="#m3ae7ee7fec" x="52.345938" y="215.811256" style="stroke: #000000; stroke-width: 0.6"/>
      </g>
     </g>
    </g>
    <g id="ytick_12">
     <g id="line2d_95">
      <g>
       <use xlink:href="#m3ae7ee7fec" x="52.345938" y="211.451078" style="stroke: #000000; stroke-width: 0.6"/>
      </g>
     </g>
    </g>
    <g id="ytick_13">
     <g id="line2d_96">
      <g>
       <use xlink:href="#m3ae7ee7fec" x="52.345938" y="207.7646" style="stroke: #000000; stroke-width: 0.6"/>
      </g>
     </g>
    </g>
    <g id="ytick_14">
     <g id="line2d_97">
      <g>
       <use xlink:href="#m3ae7ee7fec" x="52.345938" y="204.571227" style="stroke: #000000; stroke-width: 0.6"/>
      </g>
     </g>
    </g>
    <g id="ytick_15">
     <g id="line2d_98">
      <g>
       <use xlink:href="#m3ae7ee7fec" x="52.345938" y="201.754473" style="stroke: #000000; stroke-width: 0.6"/>
      </g>
     </g>
    </g>
    <g id="ytick_16">
     <g id="line2d_99">
      <g>
       <use xlink:href="#m3ae7ee7fec" x="52.345938" y="182.658347" style="stroke: #000000; stroke-width: 0.6"/>
      </g>
     </g>
    </g>
    <g id="ytick_17">
     <g id="line2d_100">
      <g>
       <use xlink:href="#m3ae7ee7fec" x="52.345938" y="172.961742" style="stroke: #000000; stroke-width: 0.6"/>
      </g>
     </g>
    </g>
    <g id="ytick_18">
     <g id="line2d_101">
      <g>
       <use xlink:href="#m3ae7ee7fec" x="52.345938" y="166.081892" style="stroke: #000000; stroke-width: 0.6"/>
      </g>
     </g>
    </g>
    <g id="ytick_19">
     <g id="line2d_102">
      <g>
       <use xlink:href="#m3ae7ee7fec" x="52.345938" y="160.745466" style="stroke: #000000; stroke-width: 0.6"/>
      </g>
     </g>
    </g>
    <g id="ytick_20">
     <g id="line2d_103">
      <g>
       <use xlink:href="#m3ae7ee7fec" x="52.345938" y="156.385288" style="stroke: #000000; stroke-width: 0.6"/>
      </g>
     </g>
    </g>
    <g id="ytick_21">
     <g id="line2d_104">
      <g>
       <use xlink:href="#m3ae7ee7fec" x="52.345938" y="152.69881" style="stroke: #000000; stroke-width: 0.6"/>
      </g>
     </g>
    </g>
    <g id="ytick_22">
     <g id="line2d_105">
      <g>
       <use xlink:href="#m3ae7ee7fec" x="52.345938" y="149.505438" style="stroke: #000000; stroke-width: 0.6"/>
      </g>
     </g>
    </g>
    <g id="ytick_23">
     <g id="line2d_106">
      <g>
       <use xlink:href="#m3ae7ee7fec" x="52.345938" y="146.688684" style="stroke: #000000; stroke-width: 0.6"/>
      </g>
     </g>
    </g>
    <g id="ytick_24">
     <g id="line2d_107">
      <g>
       <use xlink:href="#m3ae7ee7fec" x="52.345938" y="127.592557" style="stroke: #000000; stroke-width: 0.6"/>
      </g>
     </g>
    </g>
    <g id="ytick_25">
     <g id="line2d_108">
      <g>
       <use xlink:href="#m3ae7ee7fec" x="52.345938" y="117.895952" style="stroke: #000000; stroke-width: 0.6"/>
      </g>
     </g>
    </g>
    <g id="ytick_26">
     <g id="line2d_109">
      <g>
       <use xlink:href="#m3ae7ee7fec" x="52.345938" y="111.016102" style="stroke: #000000; stroke-width: 0.6"/>
      </g>
     </g>
    </g>
    <g id="ytick_27">
     <g id="line2d_110">
      <g>
       <use xlink:href="#m3ae7ee7fec" x="52.345938" y="105.679676" style="stroke: #000000; stroke-width: 0.6"/>
      </g>
     </g>
    </g>
    <g id="ytick_28">
     <g id="line2d_111">
      <g>
       <use xlink:href="#m3ae7ee7fec" x="52.345938" y="101.319498" style="stroke: #000000; stroke-width: 0.6"/>
      </g>
     </g>
    </g>
    <g id="ytick_29">
     <g id="line2d_112">
      <g>
       <use xlink:href="#m3ae7ee7fec" x="52.345938" y="97.63302" style="stroke: #000000; stroke-width: 0.6"/>
      </g>
     </g>
    </g>
    <g id="ytick_30">
     <g id="line2d_113">
      <g>
       <use xlink:href="#m3ae7ee7fec" x="52.345938" y="94.439648" style="stroke: #000000; stroke-width: 0.6"/>
      </g>
     </g>
    </g>
    <g id="ytick_31">
     <g id="line2d_114">
      <g>
       <use xlink:href="#m3ae7ee7fec" x="52.345938" y="91.622894" style="stroke: #000000; stroke-width: 0.6"/>
      </g>
     </g>
    </g>
    <g id="ytick_32">
     <g id="line2d_115">
      <g>
       <use xlink:href="#m3ae7ee7fec" x="52.345938" y="72.526767" style="stroke: #000000; stroke-width: 0.6"/>
      </g>
     </g>
    </g>
    <g id="ytick_33">
     <g id="line2d_116">
      <g>
       <use xlink:href="#m3ae7ee7fec" x="52.345938" y="62.830163" style="stroke: #000000; stroke-width: 0.6"/>
      </g>
     </g>
    </g>
    <g id="ytick_34">
     <g id="line2d_117">
      <g>
       <use xlink:href="#m3ae7ee7fec" x="52.345938" y="55.950312" style="stroke: #000000; stroke-width: 0.6"/>
      </g>
     </g>
    </g>
    <g id="ytick_35">
     <g id="line2d_118">
      <g>
       <use xlink:href="#m3ae7ee7fec" x="52.345938" y="50.613886" style="stroke: #000000; stroke-width: 0.6"/>
      </g>
     </g>
    </g>
    <g id="ytick_36">
     <g id="line2d_119">
      <g>
       <use xlink:href="#m3ae7ee7fec" x="52.345938" y="46.253708" style="stroke: #000000; stroke-width: 0.6"/>
      </g>
     </g>
    </g>
    <g id="ytick_37">
     <g id="line2d_120">
      <g>
       <use xlink:href="#m3ae7ee7fec" x="52.345938" y="42.56723" style="stroke: #000000; stroke-width: 0.6"/>
      </g>
     </g>
    </g>
    <g id="ytick_38">
     <g id="line2d_121">
      <g>
       <use xlink:href="#m3ae7ee7fec" x="52.345938" y="39.373858" style="stroke: #000000; stroke-width: 0.6"/>
      </g>
     </g>
    </g>
    <g id="ytick_39">
     <g id="line2d_122">
      <g>
       <use xlink:href="#m3ae7ee7fec" x="52.345938" y="36.557104" style="stroke: #000000; stroke-width: 0.6"/>
      </g>
     </g>
    </g>
    <g id="text_14">
     <!-- share of v5 maker change outputs (%) -->
     <g transform="translate(15.558281 256.141734) rotate(-90) scale(0.11 -0.11)">
      <defs>
       <path id="DejaVuSans-6d" d="M 3328 2828 
Q 3544 3216 3844 3400 
Q 4144 3584 4550 3584 
Q 5097 3584 5394 3201 
Q 5691 2819 5691 2113 
L 5691 0 
L 5113 0 
L 5113 2094 
Q 5113 2597 4934 2840 
Q 4756 3084 4391 3084 
Q 3944 3084 3684 2787 
Q 3425 2491 3425 1978 
L 3425 0 
L 2847 0 
L 2847 2094 
Q 2847 2600 2669 2842 
Q 2491 3084 2119 3084 
Q 1678 3084 1418 2786 
Q 1159 2488 1159 1978 
L 1159 0 
L 581 0 
L 581 3500 
L 1159 3500 
L 1159 2956 
Q 1356 3278 1631 3431 
Q 1906 3584 2284 3584 
Q 2666 3584 2933 3390 
Q 3200 3197 3328 2828 
z
" transform="scale(0.015625)"/>
       <path id="DejaVuSans-6b" d="M 581 4863 
L 1159 4863 
L 1159 1991 
L 2875 3500 
L 3609 3500 
L 1753 1863 
L 3688 0 
L 2938 0 
L 1159 1709 
L 1159 0 
L 581 0 
L 581 4863 
z
" transform="scale(0.015625)"/>
       <path id="DejaVuSans-63" d="M 3122 3366 
L 3122 2828 
Q 2878 2963 2633 3030 
Q 2388 3097 2138 3097 
Q 1578 3097 1268 2742 
Q 959 2388 959 1747 
Q 959 1106 1268 751 
Q 1578 397 2138 397 
Q 2388 397 2633 464 
Q 2878 531 3122 666 
L 3122 134 
Q 2881 22 2623 -34 
Q 2366 -91 2075 -91 
Q 1284 -91 818 406 
Q 353 903 353 1747 
Q 353 2603 823 3093 
Q 1294 3584 2113 3584 
Q 2378 3584 2631 3529 
Q 2884 3475 3122 3366 
z
" transform="scale(0.015625)"/>
       <path id="DejaVuSans-67" d="M 2906 1791 
Q 2906 2416 2648 2759 
Q 2391 3103 1925 3103 
Q 1463 3103 1205 2759 
Q 947 2416 947 1791 
Q 947 1169 1205 825 
Q 1463 481 1925 481 
Q 2391 481 2648 825 
Q 2906 1169 2906 1791 
z
M 3481 434 
Q 3481 -459 3084 -895 
Q 2688 -1331 1869 -1331 
Q 1566 -1331 1297 -1286 
Q 1028 -1241 775 -1147 
L 775 -588 
Q 1028 -725 1275 -790 
Q 1522 -856 1778 -856 
Q 2344 -856 2625 -561 
Q 2906 -266 2906 331 
L 2906 616 
Q 2728 306 2450 153 
Q 2172 0 1784 0 
Q 1141 0 747 490 
Q 353 981 353 1791 
Q 353 2603 747 3093 
Q 1141 3584 1784 3584 
Q 2172 3584 2450 3431 
Q 2728 3278 2906 2969 
L 2906 3500 
L 3481 3500 
L 3481 434 
z
" transform="scale(0.015625)"/>
      </defs>
      <use xlink:href="#DejaVuSans-73"/>
      <use xlink:href="#DejaVuSans-68" transform="translate(52.099609 0)"/>
      <use xlink:href="#DejaVuSans-61" transform="translate(115.478516 0)"/>
      <use xlink:href="#DejaVuSans-72" transform="translate(176.757812 0)"/>
      <use xlink:href="#DejaVuSans-65" transform="translate(215.621094 0)"/>
      <use xlink:href="#DejaVuSans-20" transform="translate(277.144531 0)"/>
      <use xlink:href="#DejaVuSans-6f" transform="translate(308.931641 0)"/>
      <use xlink:href="#DejaVuSans-66" transform="translate(370.113281 0)"/>
      <use xlink:href="#DejaVuSans-20" transform="translate(405.318359 0)"/>
      <use xlink:href="#DejaVuSans-76" transform="translate(437.105469 0)"/>
      <use xlink:href="#DejaVuSans-35" transform="translate(496.285156 0)"/>
      <use xlink:href="#DejaVuSans-20" transform="translate(559.908203 0)"/>
      <use xlink:href="#DejaVuSans-6d" transform="translate(591.695312 0)"/>
      <use xlink:href="#DejaVuSans-61" transform="translate(689.107422 0)"/>
      <use xlink:href="#DejaVuSans-6b" transform="translate(750.386719 0)"/>
      <use xlink:href="#DejaVuSans-65" transform="translate(804.671875 0)"/>
      <use xlink:href="#DejaVuSans-72" transform="translate(866.195312 0)"/>
      <use xlink:href="#DejaVuSans-20" transform="translate(907.308594 0)"/>
      <use xlink:href="#DejaVuSans-63" transform="translate(939.095703 0)"/>
      <use xlink:href="#DejaVuSans-68" transform="translate(994.076172 0)"/>
      <use xlink:href="#DejaVuSans-61" transform="translate(1057.455078 0)"/>
      <use xlink:href="#DejaVuSans-6e" transform="translate(1118.734375 0)"/>
      <use xlink:href="#DejaVuSans-67" transform="translate(1182.113281 0)"/>
      <use xlink:href="#DejaVuSans-65" transform="translate(1245.589844 0)"/>
      <use xlink:href="#DejaVuSans-20" transform="translate(1307.113281 0)"/>
      <use xlink:href="#DejaVuSans-6f" transform="translate(1338.900391 0)"/>
      <use xlink:href="#DejaVuSans-75" transform="translate(1400.082031 0)"/>
      <use xlink:href="#DejaVuSans-74" transform="translate(1463.460938 0)"/>
      <use xlink:href="#DejaVuSans-70" transform="translate(1502.669922 0)"/>
      <use xlink:href="#DejaVuSans-75" transform="translate(1566.146484 0)"/>
      <use xlink:href="#DejaVuSans-74" transform="translate(1629.525391 0)"/>
      <use xlink:href="#DejaVuSans-73" transform="translate(1668.734375 0)"/>
      <use xlink:href="#DejaVuSans-20" transform="translate(1720.833984 0)"/>
      <use xlink:href="#DejaVuSans-28" transform="translate(1752.621094 0)"/>
      <use xlink:href="#DejaVuSans-25" transform="translate(1791.634766 0)"/>
      <use xlink:href="#DejaVuSans-29" transform="translate(1886.654297 0)"/>
     </g>
    </g>
   </g>
   <g id="line2d_123">
    <path d="M 288.110089 254.300591 
L 536.54634 46.162409 
" clip-path="url(#p6a40f5d8b1)" style="fill: none; stroke-dasharray: 3.33,1.44; stroke-dashoffset: 0; stroke: #bbbbbb; stroke-width: 0.9"/>
   </g>
   <g id="patch_3">
    <path d="M 52.345938 264.7075 
L 52.345938 35.7555 
" style="fill: none; stroke: #444444; stroke-width: 0.8; stroke-linejoin: miter; stroke-linecap: square"/>
   </g>
   <g id="patch_4">
    <path d="M 52.345937 264.7075 
L 559.603502 264.7075 
" style="fill: none; stroke: #444444; stroke-width: 0.8; stroke-linejoin: miter; stroke-linecap: square"/>
   </g>
   <g id="text_15">
    <!-- c27 -->
    <g transform="translate(372.25558 64.960795) scale(0.08 -0.08)">
     <defs>
      <path id="DejaVuSans-37" d="M 525 4666 
L 3525 4666 
L 3525 4397 
L 1831 0 
L 1172 0 
L 2766 4134 
L 525 4134 
L 525 4666 
z
" transform="scale(0.015625)"/>
     </defs>
     <use xlink:href="#DejaVuSans-63"/>
     <use xlink:href="#DejaVuSans-32" transform="translate(54.980469 0)"/>
     <use xlink:href="#DejaVuSans-37" transform="translate(118.603516 0)"/>
    </g>
   </g>
   <g id="text_16">
    <!-- c28 -->
    <g transform="translate(305.605357 89.237934) scale(0.08 -0.08)">
     <defs>
      <path id="DejaVuSans-38" d="M 2034 2216 
Q 1584 2216 1326 1975 
Q 1069 1734 1069 1313 
Q 1069 891 1326 650 
Q 1584 409 2034 409 
Q 2484 409 2743 651 
Q 3003 894 3003 1313 
Q 3003 1734 2745 1975 
Q 2488 2216 2034 2216 
z
M 1403 2484 
Q 997 2584 770 2862 
Q 544 3141 544 3541 
Q 544 4100 942 4425 
Q 1341 4750 2034 4750 
Q 2731 4750 3128 4425 
Q 3525 4100 3525 3541 
Q 3525 3141 3298 2862 
Q 3072 2584 2669 2484 
Q 3125 2378 3379 2068 
Q 3634 1759 3634 1313 
Q 3634 634 3220 271 
Q 2806 -91 2034 -91 
Q 1263 -91 848 271 
Q 434 634 434 1313 
Q 434 1759 690 2068 
Q 947 2378 1403 2484 
z
M 1172 3481 
Q 1172 3119 1398 2916 
Q 1625 2713 2034 2713 
Q 2441 2713 2670 2916 
Q 2900 3119 2900 3481 
Q 2900 3844 2670 4047 
Q 2441 4250 2034 4250 
Q 1625 4250 1398 4047 
Q 1172 3844 1172 3481 
z
" transform="scale(0.015625)"/>
     </defs>
     <use xlink:href="#DejaVuSans-63"/>
     <use xlink:href="#DejaVuSans-32" transform="translate(54.980469 0)"/>
     <use xlink:href="#DejaVuSans-38" transform="translate(118.603516 0)"/>
    </g>
   </g>
   <g id="text_17">
    <!-- c22 -->
    <g transform="translate(541.54634 94.750504) scale(0.08 -0.08)">
     <use xlink:href="#DejaVuSans-63"/>
     <use xlink:href="#DejaVuSans-32" transform="translate(54.980469 0)"/>
     <use xlink:href="#DejaVuSans-32" transform="translate(118.603516 0)"/>
    </g>
   </g>
   <g id="text_18">
    <!-- c25 -->
    <g transform="translate(377.504223 99.102945) scale(0.08 -0.08)">
     <use xlink:href="#DejaVuSans-63"/>
     <use xlink:href="#DejaVuSans-32" transform="translate(54.980469 0)"/>
     <use xlink:href="#DejaVuSans-35" transform="translate(118.603516 0)"/>
    </g>
   </g>
   <g id="text_19">
    <!-- c34 -->
    <g transform="translate(345.451411 100.427907) scale(0.08 -0.08)">
     <use xlink:href="#DejaVuSans-63"/>
     <use xlink:href="#DejaVuSans-33" transform="translate(54.980469 0)"/>
     <use xlink:href="#DejaVuSans-34" transform="translate(118.603516 0)"/>
    </g>
   </g>
   <g id="text_20">
    <!-- c32 -->
    <g transform="translate(234.061352 111.464263) scale(0.08 -0.08)">
     <use xlink:href="#DejaVuSans-63"/>
     <use xlink:href="#DejaVuSans-33" transform="translate(54.980469 0)"/>
     <use xlink:href="#DejaVuSans-32" transform="translate(118.603516 0)"/>
    </g>
   </g>
   <g id="text_21">
    <!-- c35 -->
    <g transform="translate(472.162735 113.157228) scale(0.08 -0.08)">
     <use xlink:href="#DejaVuSans-63"/>
     <use xlink:href="#DejaVuSans-33" transform="translate(54.980469 0)"/>
     <use xlink:href="#DejaVuSans-35" transform="translate(118.603516 0)"/>
    </g>
   </g>
   <g id="text_22">
    <!-- c7 -->
    <g transform="translate(354.680592 115.198684) scale(0.08 -0.08)">
     <use xlink:href="#DejaVuSans-63"/>
     <use xlink:href="#DejaVuSans-37" transform="translate(54.980469 0)"/>
    </g>
   </g>
   <g id="text_23">
    <!-- c4 -->
    <g transform="translate(230.026289 121.259856) scale(0.08 -0.08)">
     <use xlink:href="#DejaVuSans-63"/>
     <use xlink:href="#DejaVuSans-34" transform="translate(54.980469 0)"/>
    </g>
   </g>
   <g id="text_24">
    <!-- c9 -->
    <g transform="translate(393.769301 134.390653) scale(0.08 -0.08)">
     <defs>
      <path id="DejaVuSans-39" d="M 703 97 
L 703 672 
Q 941 559 1184 500 
Q 1428 441 1663 441 
Q 2288 441 2617 861 
Q 2947 1281 2994 2138 
Q 2813 1869 2534 1725 
Q 2256 1581 1919 1581 
Q 1219 1581 811 2004 
Q 403 2428 403 3163 
Q 403 3881 828 4315 
Q 1253 4750 1959 4750 
Q 2769 4750 3195 4129 
Q 3622 3509 3622 2328 
Q 3622 1225 3098 567 
Q 2575 -91 1691 -91 
Q 1453 -91 1209 -44 
Q 966 3 703 97 
z
M 1959 2075 
Q 2384 2075 2632 2365 
Q 2881 2656 2881 3163 
Q 2881 3666 2632 3958 
Q 2384 4250 1959 4250 
Q 1534 4250 1286 3958 
Q 1038 3666 1038 3163 
Q 1038 2656 1286 2365 
Q 1534 2075 1959 2075 
z
" transform="scale(0.015625)"/>
     </defs>
     <use xlink:href="#DejaVuSans-63"/>
     <use xlink:href="#DejaVuSans-39" transform="translate(54.980469 0)"/>
    </g>
   </g>
   <g id="text_25">
    <!-- c40 -->
    <g transform="translate(504.680087 139.643294) scale(0.08 -0.08)">
     <use xlink:href="#DejaVuSans-63"/>
     <use xlink:href="#DejaVuSans-34" transform="translate(54.980469 0)"/>
     <use xlink:href="#DejaVuSans-30" transform="translate(118.603516 0)"/>
    </g>
   </g>
   <g id="text_26">
    <!-- c10 -->
    <g transform="translate(80.4031 145.06741) scale(0.08 -0.08)">
     <use xlink:href="#DejaVuSans-63"/>
     <use xlink:href="#DejaVuSans-31" transform="translate(54.980469 0)"/>
     <use xlink:href="#DejaVuSans-30" transform="translate(118.603516 0)"/>
    </g>
   </g>
   <g id="text_27">
    <!-- c37 -->
    <g transform="translate(476.740361 150.10073) scale(0.08 -0.08)">
     <use xlink:href="#DejaVuSans-63"/>
     <use xlink:href="#DejaVuSans-33" transform="translate(54.980469 0)"/>
     <use xlink:href="#DejaVuSans-37" transform="translate(118.603516 0)"/>
    </g>
   </g>
   <g id="text_28">
    <!-- c11 -->
    <g transform="translate(341.503658 162.819212) scale(0.08 -0.08)">
     <use xlink:href="#DejaVuSans-63"/>
     <use xlink:href="#DejaVuSans-31" transform="translate(54.980469 0)"/>
     <use xlink:href="#DejaVuSans-31" transform="translate(118.603516 0)"/>
    </g>
   </g>
   <g id="text_29">
    <!-- bond share vs CJ share per fee band -->
    <g transform="translate(197.080345 16.318125) scale(0.12 -0.12)">
     <defs>
      <path id="DejaVuSans-43" d="M 4122 4306 
L 4122 3641 
Q 3803 3938 3442 4084 
Q 3081 4231 2675 4231 
Q 1875 4231 1450 3742 
Q 1025 3253 1025 2328 
Q 1025 1406 1450 917 
Q 1875 428 2675 428 
Q 3081 428 3442 575 
Q 3803 722 4122 1019 
L 4122 359 
Q 3791 134 3420 21 
Q 3050 -91 2638 -91 
Q 1578 -91 968 557 
Q 359 1206 359 2328 
Q 359 3453 968 4101 
Q 1578 4750 2638 4750 
Q 3056 4750 3426 4639 
Q 3797 4528 4122 4306 
z
" transform="scale(0.015625)"/>
      <path id="DejaVuSans-4a" d="M 628 4666 
L 1259 4666 
L 1259 325 
Q 1259 -519 939 -900 
Q 619 -1281 -91 -1281 
L -331 -1281 
L -331 -750 
L -134 -750 
Q 284 -750 456 -515 
Q 628 -281 628 325 
L 628 4666 
z
" transform="scale(0.015625)"/>
     </defs>
     <use xlink:href="#DejaVuSans-62"/>
     <use xlink:href="#DejaVuSans-6f" transform="translate(63.476562 0)"/>
     <use xlink:href="#DejaVuSans-6e" transform="translate(124.658203 0)"/>
     <use xlink:href="#DejaVuSans-64" transform="translate(188.037109 0)"/>
     <use xlink:href="#DejaVuSans-20" transform="translate(251.513672 0)"/>
     <use xlink:href="#DejaVuSans-73" transform="translate(283.300781 0)"/>
     <use xlink:href="#DejaVuSans-68" transform="translate(335.400391 0)"/>
     <use xlink:href="#DejaVuSans-61" transform="translate(398.779297 0)"/>
     <use xlink:href="#DejaVuSans-72" transform="translate(460.058594 0)"/>
     <use xlink:href="#DejaVuSans-65" transform="translate(498.921875 0)"/>
     <use xlink:href="#DejaVuSans-20" transform="translate(560.445312 0)"/>
     <use xlink:href="#DejaVuSans-76" transform="translate(592.232422 0)"/>
     <use xlink:href="#DejaVuSans-73" transform="translate(651.412109 0)"/>
     <use xlink:href="#DejaVuSans-20" transform="translate(703.511719 0)"/>
     <use xlink:href="#DejaVuSans-43" transform="translate(735.298828 0)"/>
     <use xlink:href="#DejaVuSans-4a" transform="translate(805.123047 0)"/>
     <use xlink:href="#DejaVuSans-20" transform="translate(834.615234 0)"/>
     <use xlink:href="#DejaVuSans-73" transform="translate(866.402344 0)"/>
     <use xlink:href="#DejaVuSans-68" transform="translate(918.501953 0)"/>
     <use xlink:href="#DejaVuSans-61" transform="translate(981.880859 0)"/>
     <use xlink:href="#DejaVuSans-72" transform="translate(1043.160156 0)"/>
     <use xlink:href="#DejaVuSans-65" transform="translate(1082.023438 0)"/>
     <use xlink:href="#DejaVuSans-20" transform="translate(1143.546875 0)"/>
     <use xlink:href="#DejaVuSans-70" transform="translate(1175.333984 0)"/>
     <use xlink:href="#DejaVuSans-65" transform="translate(1238.810547 0)"/>
     <use xlink:href="#DejaVuSans-72" transform="translate(1300.333984 0)"/>
     <use xlink:href="#DejaVuSans-20" transform="translate(1341.447266 0)"/>
     <use xlink:href="#DejaVuSans-66" transform="translate(1373.234375 0)"/>
     <use xlink:href="#DejaVuSans-65" transform="translate(1408.439453 0)"/>
     <use xlink:href="#DejaVuSans-65" transform="translate(1469.962891 0)"/>
     <use xlink:href="#DejaVuSans-20" transform="translate(1531.486328 0)"/>
     <use xlink:href="#DejaVuSans-62" transform="translate(1563.273438 0)"/>
     <use xlink:href="#DejaVuSans-61" transform="translate(1626.75 0)"/>
     <use xlink:href="#DejaVuSans-6e" transform="translate(1688.029297 0)"/>
     <use xlink:href="#DejaVuSans-64" transform="translate(1751.408203 0)"/>
    </g>
    <!-- (14/48 clusters matched; snapshot 2026-05-22) -->
    <g transform="translate(162.111595 29.7555) scale(0.12 -0.12)">
     <defs>
      <path id="DejaVuSans-2f" d="M 1625 4666 
L 2156 4666 
L 531 -594 
L 0 -594 
L 1625 4666 
z
" transform="scale(0.015625)"/>
      <path id="DejaVuSans-3b" d="M 750 3309 
L 1409 3309 
L 1409 2516 
L 750 2516 
L 750 3309 
z
M 750 794 
L 1409 794 
L 1409 256 
L 897 -744 
L 494 -744 
L 750 256 
L 750 794 
z
" transform="scale(0.015625)"/>
      <path id="DejaVuSans-36" d="M 2113 2584 
Q 1688 2584 1439 2293 
Q 1191 2003 1191 1497 
Q 1191 994 1439 701 
Q 1688 409 2113 409 
Q 2538 409 2786 701 
Q 3034 994 3034 1497 
Q 3034 2003 2786 2293 
Q 2538 2584 2113 2584 
z
M 3366 4563 
L 3366 3988 
Q 3128 4100 2886 4159 
Q 2644 4219 2406 4219 
Q 1781 4219 1451 3797 
Q 1122 3375 1075 2522 
Q 1259 2794 1537 2939 
Q 1816 3084 2150 3084 
Q 2853 3084 3261 2657 
Q 3669 2231 3669 1497 
Q 3669 778 3244 343 
Q 2819 -91 2113 -91 
Q 1303 -91 875 529 
Q 447 1150 447 2328 
Q 447 3434 972 4092 
Q 1497 4750 2381 4750 
Q 2619 4750 2861 4703 
Q 3103 4656 3366 4563 
z
" transform="scale(0.015625)"/>
     </defs>
     <use xlink:href="#DejaVuSans-28"/>
     <use xlink:href="#DejaVuSans-31" transform="translate(39.013672 0)"/>
     <use xlink:href="#DejaVuSans-34" transform="translate(102.636719 0)"/>
     <use xlink:href="#DejaVuSans-2f" transform="translate(166.259766 0)"/>
     <use xlink:href="#DejaVuSans-34" transform="translate(199.951172 0)"/>
     <use xlink:href="#DejaVuSans-38" transform="translate(263.574219 0)"/>
     <use xlink:href="#DejaVuSans-20" transform="translate(327.197266 0)"/>
     <use xlink:href="#DejaVuSans-63" transform="translate(358.984375 0)"/>
     <use xlink:href="#DejaVuSans-6c" transform="translate(413.964844 0)"/>
     <use xlink:href="#DejaVuSans-75" transform="translate(441.748047 0)"/>
     <use xlink:href="#DejaVuSans-73" transform="translate(505.126953 0)"/>
     <use xlink:href="#DejaVuSans-74" transform="translate(557.226562 0)"/>
     <use xlink:href="#DejaVuSans-65" transform="translate(596.435547 0)"/>
     <use xlink:href="#DejaVuSans-72" transform="translate(657.958984 0)"/>
     <use xlink:href="#DejaVuSans-73" transform="translate(699.072266 0)"/>
     <use xlink:href="#DejaVuSans-20" transform="translate(751.171875 0)"/>
     <use xlink:href="#DejaVuSans-6d" transform="translate(782.958984 0)"/>
     <use xlink:href="#DejaVuSans-61" transform="translate(880.371094 0)"/>
     <use xlink:href="#DejaVuSans-74" transform="translate(941.650391 0)"/>
     <use xlink:href="#DejaVuSans-63" transform="translate(980.859375 0)"/>
     <use xlink:href="#DejaVuSans-68" transform="translate(1035.839844 0)"/>
     <use xlink:href="#DejaVuSans-65" transform="translate(1099.21875 0)"/>
     <use xlink:href="#DejaVuSans-64" transform="translate(1160.742188 0)"/>
     <use xlink:href="#DejaVuSans-3b" transform="translate(1224.21875 0)"/>
     <use xlink:href="#DejaVuSans-20" transform="translate(1257.910156 0)"/>
     <use xlink:href="#DejaVuSans-73" transform="translate(1289.697266 0)"/>
     <use xlink:href="#DejaVuSans-6e" transform="translate(1341.796875 0)"/>
     <use xlink:href="#DejaVuSans-61" transform="translate(1405.175781 0)"/>
     <use xlink:href="#DejaVuSans-70" transform="translate(1466.455078 0)"/>
     <use xlink:href="#DejaVuSans-73" transform="translate(1529.931641 0)"/>
     <use xlink:href="#DejaVuSans-68" transform="translate(1582.03125 0)"/>
     <use xlink:href="#DejaVuSans-6f" transform="translate(1645.410156 0)"/>
     <use xlink:href="#DejaVuSans-74" transform="translate(1706.591797 0)"/>
     <use xlink:href="#DejaVuSans-20" transform="translate(1745.800781 0)"/>
     <use xlink:href="#DejaVuSans-32" transform="translate(1777.587891 0)"/>
     <use xlink:href="#DejaVuSans-30" transform="translate(1841.210938 0)"/>
     <use xlink:href="#DejaVuSans-32" transform="translate(1904.833984 0)"/>
     <use xlink:href="#DejaVuSans-36" transform="translate(1968.457031 0)"/>
     <use xlink:href="#DejaVuSans-2d" transform="translate(2032.080078 0)"/>
     <use xlink:href="#DejaVuSans-30" transform="translate(2068.164062 0)"/>
     <use xlink:href="#DejaVuSans-35" transform="translate(2131.787109 0)"/>
     <use xlink:href="#DejaVuSans-2d" transform="translate(2195.410156 0)"/>
     <use xlink:href="#DejaVuSans-32" transform="translate(2231.494141 0)"/>
     <use xlink:href="#DejaVuSans-32" transform="translate(2295.117188 0)"/>
     <use xlink:href="#DejaVuSans-29" transform="translate(2358.740234 0)"/>
    </g>
   </g>
   <g id="legend_1">
    <g id="line2d_124">
     <path d="M 424.069127 251.335469 
L 433.069127 251.335469 
L 442.069127 251.335469 
" style="fill: none; stroke-dasharray: 3.33,1.44; stroke-dashoffset: 0; stroke: #bbbbbb; stroke-width: 0.9"/>
    </g>
    <g id="text_30">
     <!-- bond_share = cj_share -->
     <g transform="translate(449.269127 254.485469) scale(0.09 -0.09)">
      <defs>
       <path id="DejaVuSans-5f" d="M 3263 -1063 
L 3263 -1509 
L -63 -1509 
L -63 -1063 
L 3263 -1063 
z
" transform="scale(0.015625)"/>
       <path id="DejaVuSans-3d" d="M 678 2906 
L 4684 2906 
L 4684 2381 
L 678 2381 
L 678 2906 
z
M 678 1631 
L 4684 1631 
L 4684 1100 
L 678 1100 
L 678 1631 
z
" transform="scale(0.015625)"/>
       <path id="DejaVuSans-6a" d="M 603 3500 
L 1178 3500 
L 1178 -63 
Q 1178 -731 923 -1031 
Q 669 -1331 103 -1331 
L -116 -1331 
L -116 -844 
L 38 -844 
Q 366 -844 484 -692 
Q 603 -541 603 -63 
L 603 3500 
z
M 603 4863 
L 1178 4863 
L 1178 4134 
L 603 4134 
L 603 4863 
z
" transform="scale(0.015625)"/>
      </defs>
      <use xlink:href="#DejaVuSans-62"/>
      <use xlink:href="#DejaVuSans-6f" transform="translate(63.476562 0)"/>
      <use xlink:href="#DejaVuSans-6e" transform="translate(124.658203 0)"/>
      <use xlink:href="#DejaVuSans-64" transform="translate(188.037109 0)"/>
      <use xlink:href="#DejaVuSans-5f" transform="translate(251.513672 0)"/>
      <use xlink:href="#DejaVuSans-73" transform="translate(301.513672 0)"/>
      <use xlink:href="#DejaVuSans-68" transform="translate(353.613281 0)"/>
      <use xlink:href="#DejaVuSans-61" transform="translate(416.992188 0)"/>
      <use xlink:href="#DejaVuSans-72" transform="translate(478.271484 0)"/>
      <use xlink:href="#DejaVuSans-65" transform="translate(517.134766 0)"/>
      <use xlink:href="#DejaVuSans-20" transform="translate(578.658203 0)"/>
      <use xlink:href="#DejaVuSans-3d" transform="translate(610.445312 0)"/>
      <use xlink:href="#DejaVuSans-20" transform="translate(694.234375 0)"/>
      <use xlink:href="#DejaVuSans-63" transform="translate(726.021484 0)"/>
      <use xlink:href="#DejaVuSans-6a" transform="translate(781.001953 0)"/>
      <use xlink:href="#DejaVuSans-5f" transform="translate(808.785156 0)"/>
      <use xlink:href="#DejaVuSans-73" transform="translate(858.785156 0)"/>
      <use xlink:href="#DejaVuSans-68" transform="translate(910.884766 0)"/>
      <use xlink:href="#DejaVuSans-61" transform="translate(974.263672 0)"/>
      <use xlink:href="#DejaVuSans-72" transform="translate(1035.542969 0)"/>
      <use xlink:href="#DejaVuSans-65" transform="translate(1074.40625 0)"/>
     </g>
    </g>
   </g>
  </g>
 </g>
 <defs>
  <clipPath id="p6a40f5d8b1">
   <rect x="52.345938" y="35.7555" width="507.257565" height="228.952"/>
  </clipPath>
 </defs>
</svg>
