<?xml version="1.0" encoding="utf-8" standalone="no"?>
<!DOCTYPE svg PUBLIC "-//W3C//DTD SVG 1.1//EN"
  "http://www.w3.org/Graphics/SVG/1.1/DTD/svg11.dtd">
<svg xmlns:xlink="http://www.w3.org/1999/xlink" width="568.033253pt" height="304.770187pt" viewBox="0 0 568.033253 304.770187" xmlns="http://www.w3.org/2000/svg" version="1.1">
 <metadata>
  <rdf:RDF xmlns:dc="http://purl.org/dc/elements/1.1/" xmlns:cc="http://creativecommons.org/ns#" xmlns:rdf="http://www.w3.org/1999/02/22-rdf-syntax-ns#">
   <cc:Work>
    <dc:type rdf:resource="http://purl.org/dc/dcmitype/StillImage"/>
    <dc:date>2026-05-22T20:08:59.167367</dc:date>
    <dc:format>image/svg+xml</dc:format>
    <dc:creator>
     <cc:Agent>
      <dc:title>Matplotlib v3.10.9, https://matplotlib.org/</dc:title>
     </cc:Agent>
    </dc:creator>
   </cc:Work>
  </rdf:RDF>
 </metadata>
 <defs>
  <style type="text/css">*{stroke-linejoin: round; stroke-linecap: butt}</style>
 </defs>
 <g id="figure_1">
  <g id="patch_1">
   <path d="M 0 304.770187 
L 568.033253 304.770187 
L 568.033253 0 
L 0 0 
z
" style="fill: #ffffff"/>
  </g>
  <g id="axes_1">
   <g id="patch_2">
    <path d="M 46.445938 266.246125 
L 560.833253 266.246125 
L 560.833253 22.318125 
L 46.445938 22.318125 
z
" style="fill: #ffffff"/>
   </g>
   <g id="PathCollection_1">
    <path d="M 221.553395 165.134198 
C 222.633101 165.134198 223.66873 164.705226 224.432197 163.941759 
C 225.195664 163.178292 225.624636 162.142663 225.624636 161.062957 
C 225.624636 159.983252 225.195664 158.947623 224.432197 158.184155 
C 223.66873 157.420688 222.633101 156.991717 221.553395 156.991717 
C 220.473689 156.991717 219.43806 157.420688 218.674593 158.184155 
C 217.911126 158.947623 217.482154 159.983252 217.482154 161.062957 
C 217.482154 162.142663 217.911126 163.178292 218.674593 163.941759 
C 219.43806 164.705226 220.473689 165.134198 221.553395 165.134198 
z
" clip-path="url(#p8bb1453b62)" style="fill: #aa3377; fill-opacity: 0.8; stroke: #222222; stroke-opacity: 0.8; stroke-width: 0.5"/>
    <path d="M 347.959774 148.678615 
C 349.185353 148.678615 350.3609 148.191687 351.227514 147.325073 
C 352.094129 146.458458 352.581057 145.282911 352.581057 144.057333 
C 352.581057 142.831754 352.094129 141.656207 351.227514 140.789593 
C 350.3609 139.922978 349.185353 139.43605 347.959774 139.43605 
C 346.734196 139.43605 345.558649 139.922978 344.692034 140.789593 
C 343.82542 141.656207 343.338492 142.831754 343.338492 144.057333 
C 343.338492 145.282911 343.82542 146.458458 344.692034 147.325073 
C 345.558649 148.191687 346.734196 148.678615 347.959774 148.678615 
z
" clip-path="url(#p8bb1453b62)" style="fill: #aa3377; fill-opacity: 0.8; stroke: #222222; stroke-opacity: 0.8; stroke-width: 0.5"/>
    <path d="M 387.597895 194.151999 
C 388.436541 194.151999 389.24095 193.818801 389.833963 193.225789 
C 390.426975 192.632777 390.760172 191.828367 390.760172 190.989721 
C 390.760172 190.151075 390.426975 189.346665 389.833963 188.753653 
C 389.24095 188.160641 388.436541 187.827444 387.597895 187.827444 
C 386.759249 187.827444 385.954839 188.160641 385.361827 188.753653 
C 384.768815 189.346665 384.435617 190.151075 384.435617 190.989721 
C 384.435617 191.828367 384.768815 192.632777 385.361827 193.225789 
C 385.954839 193.818801 386.759249 194.151999 387.597895 194.151999 
z
" clip-path="url(#p8bb1453b62)" style="fill: #aa3377; fill-opacity: 0.8; stroke: #222222; stroke-opacity: 0.8; stroke-width: 0.5"/>
    <path d="M 69.827179 211.534346 
C 70.665825 211.534346 71.470235 211.201148 72.063247 210.608136 
C 72.656259 210.015124 72.989457 209.210714 72.989457 208.372068 
C 72.989457 207.533422 72.656259 206.729012 72.063247 206.136 
C 71.470235 205.542988 70.665825 205.209791 69.827179 205.209791 
C 68.988533 205.209791 68.184123 205.542988 67.591111 206.136 
C 66.998099 206.729012 66.664901 207.533422 66.664901 208.372068 
C 66.664901 209.210714 66.998099 210.015124 67.591111 210.608136 
C 68.184123 211.201148 68.988533 211.534346 69.827179 211.534346 
z
" clip-path="url(#p8bb1453b62)" style="fill: #aa3377; fill-opacity: 0.8; stroke: #222222; stroke-opacity: 0.8; stroke-width: 0.5"/>
    <path d="M 334.597633 258.320766 
C 335.436278 258.320766 336.240688 257.987569 336.833701 257.394557 
C 337.426713 256.801544 337.75991 255.997134 337.75991 255.158489 
C 337.75991 254.319843 337.426713 253.515433 336.833701 252.922421 
C 336.240688 252.329408 335.436278 251.996211 334.597633 251.996211 
C 333.758987 251.996211 332.954577 252.329408 332.361565 252.922421 
C 331.768552 253.515433 331.435355 254.319843 331.435355 255.158489 
C 331.435355 255.997134 331.768552 256.801544 332.361565 257.394557 
C 332.954577 257.987569 333.758987 258.320766 334.597633 258.320766 
z
" clip-path="url(#p8bb1453b62)" style="fill: #aa3377; fill-opacity: 0.8; stroke: #222222; stroke-opacity: 0.8; stroke-width: 0.5"/>
    <path d="M 537.452011 102.193797 
C 539.331378 102.193797 541.134024 101.447117 542.462937 100.118204 
C 543.79185 98.789291 544.53853 96.986645 544.53853 95.107278 
C 544.53853 93.227911 543.79185 91.425266 542.462937 90.096353 
C 541.134024 88.76744 539.331378 88.020759 537.452011 88.020759 
C 535.572644 88.020759 533.769999 88.76744 532.441086 90.096353 
C 531.112173 91.425266 530.365492 93.227911 530.365492 95.107278 
C 530.365492 96.986645 531.112173 98.789291 532.441086 100.118204 
C 533.769999 101.447117 535.572644 102.193797 537.452011 102.193797 
z
" clip-path="url(#p8bb1453b62)" style="fill: #aa3377; fill-opacity: 0.8; stroke: #222222; stroke-opacity: 0.8; stroke-width: 0.5"/>
    <path d="M 371.104202 117.368321 
C 372.820099 117.368321 374.465948 116.686588 375.679271 115.473266 
C 376.892593 114.259944 377.574326 112.614095 377.574326 110.898198 
C 377.574326 109.182301 376.892593 107.536452 375.679271 106.323129 
C 374.465948 105.109807 372.820099 104.428074 371.104202 104.428074 
C 369.388306 104.428074 367.742456 105.109807 366.529134 106.323129 
C 365.315812 107.536452 364.634079 109.182301 364.634079 110.898198 
C 364.634079 112.614095 365.315812 114.259944 366.529134 115.473266 
C 367.742456 116.686588 369.388306 117.368321 371.104202 117.368321 
z
" clip-path="url(#p8bb1453b62)" style="fill: #aa3377; fill-opacity: 0.8; stroke: #222222; stroke-opacity: 0.8; stroke-width: 0.5"/>
    <path d="M 365.781787 46.616434 
C 369.285299 46.616434 372.645787 45.224474 375.123143 42.747118 
C 377.6005 40.269761 378.99246 36.909273 378.99246 33.405761 
C 378.99246 29.90225 377.6005 26.541762 375.123143 24.064405 
C 372.645787 21.587048 369.285299 20.195089 365.781787 20.195089 
C 362.278276 20.195089 358.917788 21.587048 356.440431 24.064405 
C 353.963074 26.541762 352.571114 29.90225 352.571114 33.405761 
C 352.571114 36.909273 353.963074 40.269761 356.440431 42.747118 
C 358.917788 45.224474 362.278276 46.616434 365.781787 46.616434 
z
" clip-path="url(#p8bb1453b62)" style="fill: #aa3377; fill-opacity: 0.8; stroke: #222222; stroke-opacity: 0.8; stroke-width: 0.5"/>
    <path d="M 298.194763 90.865891 
C 300.303711 90.865891 302.326567 90.027997 303.817818 88.536745 
C 305.30907 87.045493 306.146964 85.022638 306.146964 82.91369 
C 306.146964 80.804742 305.30907 78.781886 303.817818 77.290635 
C 302.326567 75.799383 300.303711 74.961489 298.194763 74.961489 
C 296.085815 74.961489 294.062959 75.799383 292.571708 77.290635 
C 291.080456 78.781886 290.242562 80.804742 290.242562 82.91369 
C 290.242562 85.022638 291.080456 87.045493 292.571708 88.536745 
C 294.062959 90.027997 296.085815 90.865891 298.194763 90.865891 
z
" clip-path="url(#p8bb1453b62)" style="fill: #aa3377; fill-opacity: 0.8; stroke: #222222; stroke-opacity: 0.8; stroke-width: 0.5"/>
    <path d="M 225.645173 142.301241 
C 226.970276 142.301241 228.241286 141.774772 229.178275 140.837782 
C 230.115265 139.900792 230.641734 138.629783 230.641734 137.30468 
C 230.641734 135.979576 230.115265 134.708567 229.178275 133.771577 
C 228.241286 132.834587 226.970276 132.308118 225.645173 132.308118 
C 224.320069 132.308118 223.04906 132.834587 222.11207 133.771577 
C 221.175081 134.708567 220.648612 135.979576 220.648612 137.30468 
C 220.648612 138.629783 221.175081 139.900792 222.11207 140.837782 
C 223.04906 141.774772 224.320069 142.301241 225.645173 142.301241 
z
" clip-path="url(#p8bb1453b62)" style="fill: #aa3377; fill-opacity: 0.8; stroke: #222222; stroke-opacity: 0.8; stroke-width: 0.5"/>
    <path d="M 338.600872 118.212651 
C 340.269888 118.212651 341.87077 117.549544 343.050943 116.369372 
C 344.231115 115.1892 344.894222 113.588318 344.894222 111.919302 
C 344.894222 110.250286 344.231115 108.649404 343.050943 107.469231 
C 341.87077 106.289059 340.269888 105.625952 338.600872 105.625952 
C 336.931857 105.625952 335.330975 106.289059 334.150802 107.469231 
C 332.97063 108.649404 332.307523 110.250286 332.307523 111.919302 
C 332.307523 113.588318 332.97063 115.1892 334.150802 116.369372 
C 335.330975 117.549544 336.931857 118.212651 338.600872 118.212651 
z
" clip-path="url(#p8bb1453b62)" style="fill: #aa3377; fill-opacity: 0.8; stroke: #222222; stroke-opacity: 0.8; stroke-width: 0.5"/>
    <path d="M 467.093186 143.987199 
C 468.372207 143.987199 469.599014 143.479038 470.503419 142.574634 
C 471.407823 141.67023 471.915983 140.443422 471.915983 139.164401 
C 471.915983 137.88538 471.407823 136.658573 470.503419 135.754168 
C 469.599014 134.849764 468.372207 134.341604 467.093186 134.341604 
C 465.814165 134.341604 464.587357 134.849764 463.682953 135.754168 
C 462.778549 136.658573 462.270388 137.88538 462.270388 139.164401 
C 462.270388 140.443422 462.778549 141.67023 463.682953 142.574634 
C 464.587357 143.479038 465.814165 143.987199 467.093186 143.987199 
z
" clip-path="url(#p8bb1453b62)" style="fill: #aa3377; fill-opacity: 0.8; stroke: #222222; stroke-opacity: 0.8; stroke-width: 0.5"/>
    <path d="M 471.735153 226.218867 
C 472.573799 226.218867 473.378209 225.88567 473.971221 225.292657 
C 474.564233 224.699645 474.89743 223.895235 474.89743 223.056589 
C 474.89743 222.217944 474.564233 221.413534 473.971221 220.820521 
C 473.378209 220.227509 472.573799 219.894312 471.735153 219.894312 
C 470.896507 219.894312 470.092097 220.227509 469.499085 220.820521 
C 468.906073 221.413534 468.572875 222.217944 468.572875 223.056589 
C 468.572875 223.895235 468.906073 224.699645 469.499085 225.292657 
C 470.092097 225.88567 470.896507 226.218867 471.735153 226.218867 
z
" clip-path="url(#p8bb1453b62)" style="fill: #aa3377; fill-opacity: 0.8; stroke: #222222; stroke-opacity: 0.8; stroke-width: 0.5"/>
    <path d="M 500.067585 205.718074 
C 500.90623 205.718074 501.71064 205.384877 502.303653 204.791865 
C 502.896665 204.198853 503.229862 203.394443 503.229862 202.555797 
C 503.229862 201.717151 502.896665 200.912741 502.303653 200.319729 
C 501.71064 199.726717 500.90623 199.393519 500.067585 199.393519 
C 499.228939 199.393519 498.424529 199.726717 497.831517 200.319729 
C 497.238504 200.912741 496.905307 201.717151 496.905307 202.555797 
C 496.905307 203.394443 497.238504 204.198853 497.831517 204.791865 
C 498.424529 205.384877 499.228939 205.718074 500.067585 205.718074 
z
" clip-path="url(#p8bb1453b62)" style="fill: #aa3377; fill-opacity: 0.8; stroke: #222222; stroke-opacity: 0.8; stroke-width: 0.5"/>
   </g>
   <g id="matplotlib.axis_1">
    <g id="xtick_1">
     <g id="line2d_1">
      <path d="M 47.125659 266.246125 
L 47.125659 22.318125 
" clip-path="url(#p8bb1453b62)" style="fill: none; stroke: #dddddd; stroke-opacity: 0.6; stroke-width: 0.6; stroke-linecap: square"/>
     </g>
     <g id="line2d_2">
      <defs>
       <path id="m04420e685e" d="M 0 0 
L 0 3.5 
" style="stroke: #000000; stroke-width: 0.8"/>
      </defs>
      <g>
       <use xlink:href="#m04420e685e" x="47.125659" y="266.246125" style="stroke: #000000; stroke-width: 0.8"/>
      </g>
     </g>
     <g id="text_1">
      <!-- $\mathdefault{10^{-4}}$ -->
      <g transform="translate(35.375659 280.844562) scale(0.1 -0.1)">
       <defs>
        <path id="DejaVuSans-31" d="M 794 531 
L 1825 531 
L 1825 4091 
L 703 3866 
L 703 4441 
L 1819 4666 
L 2450 4666 
L 2450 531 
L 3481 531 
L 3481 0 
L 794 0 
L 794 531 
z
" transform="scale(0.015625)"/>
        <path id="DejaVuSans-30" d="M 2034 4250 
Q 1547 4250 1301 3770 
Q 1056 3291 1056 2328 
Q 1056 1369 1301 889 
Q 1547 409 2034 409 
Q 2525 409 2770 889 
Q 3016 1369 3016 2328 
Q 3016 3291 2770 3770 
Q 2525 4250 2034 4250 
z
M 2034 4750 
Q 2819 4750 3233 4129 
Q 3647 3509 3647 2328 
Q 3647 1150 3233 529 
Q 2819 -91 2034 -91 
Q 1250 -91 836 529 
Q 422 1150 422 2328 
Q 422 3509 836 4129 
Q 1250 4750 2034 4750 
z
" transform="scale(0.015625)"/>
        <path id="DejaVuSans-2212" d="M 678 2272 
L 4684 2272 
L 4684 1741 
L 678 1741 
L 678 2272 
z
" transform="scale(0.015625)"/>
        <path id="DejaVuSans-34" d="M 2419 4116 
L 825 1625 
L 2419 1625 
L 2419 4116 
z
M 2253 4666 
L 3047 4666 
L 3047 1625 
L 3713 1625 
L 3713 1100 
L 3047 1100 
L 3047 0 
L 2419 0 
L 2419 1100 
L 313 1100 
L 313 1709 
L 2253 4666 
z
" transform="scale(0.015625)"/>
       </defs>
       <use xlink:href="#DejaVuSans-31" transform="translate(0 0.684375)"/>
       <use xlink:href="#DejaVuSans-30" transform="translate(63.623047 0.684375)"/>
       <use xlink:href="#DejaVuSans-2212" transform="translate(128.203125 38.965625) scale(0.7)"/>
       <use xlink:href="#DejaVuSans-34" transform="translate(186.855469 38.965625) scale(0.7)"/>
      </g>
     </g>
    </g>
    <g id="xtick_2">
     <g id="line2d_3">
      <path d="M 113.77668 266.246125 
L 113.77668 22.318125 
" clip-path="url(#p8bb1453b62)" style="fill: none; stroke: #dddddd; stroke-opacity: 0.6; stroke-width: 0.6; stroke-linecap: square"/>
     </g>
     <g id="line2d_4">
      <g>
       <use xlink:href="#m04420e685e" x="113.77668" y="266.246125" style="stroke: #000000; stroke-width: 0.8"/>
      </g>
     </g>
     <g id="text_2">
      <!-- $\mathdefault{10^{-3}}$ -->
      <g transform="translate(102.02668 280.844562) scale(0.1 -0.1)">
       <defs>
        <path id="DejaVuSans-33" d="M 2597 2516 
Q 3050 2419 3304 2112 
Q 3559 1806 3559 1356 
Q 3559 666 3084 287 
Q 2609 -91 1734 -91 
Q 1441 -91 1130 -33 
Q 819 25 488 141 
L 488 750 
Q 750 597 1062 519 
Q 1375 441 1716 441 
Q 2309 441 2620 675 
Q 2931 909 2931 1356 
Q 2931 1769 2642 2001 
Q 2353 2234 1838 2234 
L 1294 2234 
L 1294 2753 
L 1863 2753 
Q 2328 2753 2575 2939 
Q 2822 3125 2822 3475 
Q 2822 3834 2567 4026 
Q 2313 4219 1838 4219 
Q 1578 4219 1281 4162 
Q 984 4106 628 3988 
L 628 4550 
Q 988 4650 1302 4700 
Q 1616 4750 1894 4750 
Q 2613 4750 3031 4423 
Q 3450 4097 3450 3541 
Q 3450 3153 3228 2886 
Q 3006 2619 2597 2516 
z
" transform="scale(0.015625)"/>
       </defs>
       <use xlink:href="#DejaVuSans-31" transform="translate(0 0.765625)"/>
       <use xlink:href="#DejaVuSans-30" transform="translate(63.623047 0.765625)"/>
       <use xlink:href="#DejaVuSans-2212" transform="translate(128.203125 39.046875) scale(0.7)"/>
       <use xlink:href="#DejaVuSans-33" transform="translate(186.855469 39.046875) scale(0.7)"/>
      </g>
     </g>
    </g>
    <g id="xtick_3">
     <g id="line2d_5">
      <path d="M 180.4277 266.246125 
L 180.4277 22.318125 
" clip-path="url(#p8bb1453b62)" style="fill: none; stroke: #dddddd; stroke-opacity: 0.6; stroke-width: 0.6; stroke-linecap: square"/>
     </g>
     <g id="line2d_6">
      <g>
       <use xlink:href="#m04420e685e" x="180.4277" y="266.246125" style="stroke: #000000; stroke-width: 0.8"/>
      </g>
     </g>
     <g id="text_3">
      <!-- $\mathdefault{10^{-2}}$ -->
      <g transform="translate(168.6777 280.844562) scale(0.1 -0.1)">
       <defs>
        <path id="DejaVuSans-32" d="M 1228 531 
L 3431 531 
L 3431 0 
L 469 0 
L 469 531 
Q 828 903 1448 1529 
Q 2069 2156 2228 2338 
Q 2531 2678 2651 2914 
Q 2772 3150 2772 3378 
Q 2772 3750 2511 3984 
Q 2250 4219 1831 4219 
Q 1534 4219 1204 4116 
Q 875 4013 500 3803 
L 500 4441 
Q 881 4594 1212 4672 
Q 1544 4750 1819 4750 
Q 2544 4750 2975 4387 
Q 3406 4025 3406 3419 
Q 3406 3131 3298 2873 
Q 3191 2616 2906 2266 
Q 2828 2175 2409 1742 
Q 1991 1309 1228 531 
z
" transform="scale(0.015625)"/>
       </defs>
       <use xlink:href="#DejaVuSans-31" transform="translate(0 0.765625)"/>
       <use xlink:href="#DejaVuSans-30" transform="translate(63.623047 0.765625)"/>
       <use xlink:href="#DejaVuSans-2212" transform="translate(128.203125 39.046875) scale(0.7)"/>
       <use xlink:href="#DejaVuSans-32" transform="translate(186.855469 39.046875) scale(0.7)"/>
      </g>
     </g>
    </g>
    <g id="xtick_4">
     <g id="line2d_7">
      <path d="M 247.078721 266.246125 
L 247.078721 22.318125 
" clip-path="url(#p8bb1453b62)" style="fill: none; stroke: #dddddd; stroke-opacity: 0.6; stroke-width: 0.6; stroke-linecap: square"/>
     </g>
     <g id="line2d_8">
      <g>
       <use xlink:href="#m04420e685e" x="247.078721" y="266.246125" style="stroke: #000000; stroke-width: 0.8"/>
      </g>
     </g>
     <g id="text_4">
      <!-- $\mathdefault{10^{-1}}$ -->
      <g transform="translate(235.328721 280.844562) scale(0.1 -0.1)">
       <use xlink:href="#DejaVuSans-31" transform="translate(0 0.684375)"/>
       <use xlink:href="#DejaVuSans-30" transform="translate(63.623047 0.684375)"/>
       <use xlink:href="#DejaVuSans-2212" transform="translate(128.203125 38.965625) scale(0.7)"/>
       <use xlink:href="#DejaVuSans-31" transform="translate(186.855469 38.965625) scale(0.7)"/>
      </g>
     </g>
    </g>
    <g id="xtick_5">
     <g id="line2d_9">
      <path d="M 313.729741 266.246125 
L 313.729741 22.318125 
" clip-path="url(#p8bb1453b62)" style="fill: none; stroke: #dddddd; stroke-opacity: 0.6; stroke-width: 0.6; stroke-linecap: square"/>
     </g>
     <g id="line2d_10">
      <g>
       <use xlink:href="#m04420e685e" x="313.729741" y="266.246125" style="stroke: #000000; stroke-width: 0.8"/>
      </g>
     </g>
     <g id="text_5">
      <!-- $\mathdefault{10^{0}}$ -->
      <g transform="translate(304.929741 280.844562) scale(0.1 -0.1)">
       <use xlink:href="#DejaVuSans-31" transform="translate(0 0.765625)"/>
       <use xlink:href="#DejaVuSans-30" transform="translate(63.623047 0.765625)"/>
       <use xlink:href="#DejaVuSans-30" transform="translate(128.203125 39.046875) scale(0.7)"/>
      </g>
     </g>
    </g>
    <g id="xtick_6">
     <g id="line2d_11">
      <path d="M 380.380761 266.246125 
L 380.380761 22.318125 
" clip-path="url(#p8bb1453b62)" style="fill: none; stroke: #dddddd; stroke-opacity: 0.6; stroke-width: 0.6; stroke-linecap: square"/>
     </g>
     <g id="line2d_12">
      <g>
       <use xlink:href="#m04420e685e" x="380.380761" y="266.246125" style="stroke: #000000; stroke-width: 0.8"/>
      </g>
     </g>
     <g id="text_6">
      <!-- $\mathdefault{10^{1}}$ -->
      <g transform="translate(371.580761 280.844562) scale(0.1 -0.1)">
       <use xlink:href="#DejaVuSans-31" transform="translate(0 0.684375)"/>
       <use xlink:href="#DejaVuSans-30" transform="translate(63.623047 0.684375)"/>
       <use xlink:href="#DejaVuSans-31" transform="translate(128.203125 38.965625) scale(0.7)"/>
      </g>
     </g>
    </g>
    <g id="xtick_7">
     <g id="line2d_13">
      <path d="M 447.031782 266.246125 
L 447.031782 22.318125 
" clip-path="url(#p8bb1453b62)" style="fill: none; stroke: #dddddd; stroke-opacity: 0.6; stroke-width: 0.6; stroke-linecap: square"/>
     </g>
     <g id="line2d_14">
      <g>
       <use xlink:href="#m04420e685e" x="447.031782" y="266.246125" style="stroke: #000000; stroke-width: 0.8"/>
      </g>
     </g>
     <g id="text_7">
      <!-- $\mathdefault{10^{2}}$ -->
      <g transform="translate(438.231782 280.844562) scale(0.1 -0.1)">
       <use xlink:href="#DejaVuSans-31" transform="translate(0 0.765625)"/>
       <use xlink:href="#DejaVuSans-30" transform="translate(63.623047 0.765625)"/>
       <use xlink:href="#DejaVuSans-32" transform="translate(128.203125 39.046875) scale(0.7)"/>
      </g>
     </g>
    </g>
    <g id="xtick_8">
     <g id="line2d_15">
      <path d="M 513.682802 266.246125 
L 513.682802 22.318125 
" clip-path="url(#p8bb1453b62)" style="fill: none; stroke: #dddddd; stroke-opacity: 0.6; stroke-width: 0.6; stroke-linecap: square"/>
     </g>
     <g id="line2d_16">
      <g>
       <use xlink:href="#m04420e685e" x="513.682802" y="266.246125" style="stroke: #000000; stroke-width: 0.8"/>
      </g>
     </g>
     <g id="text_8">
      <!-- $\mathdefault{10^{3}}$ -->
      <g transform="translate(504.882802 280.844562) scale(0.1 -0.1)">
       <use xlink:href="#DejaVuSans-31" transform="translate(0 0.765625)"/>
       <use xlink:href="#DejaVuSans-30" transform="translate(63.623047 0.765625)"/>
       <use xlink:href="#DejaVuSans-33" transform="translate(128.203125 39.046875) scale(0.7)"/>
      </g>
     </g>
    </g>
    <g id="xtick_9">
     <g id="line2d_17">
      <defs>
       <path id="m6a4a937174" d="M 0 0 
L 0 2 
" style="stroke: #000000; stroke-width: 0.6"/>
      </defs>
      <g>
       <use xlink:href="#m6a4a937174" x="67.189616" y="266.246125" style="stroke: #000000; stroke-width: 0.6"/>
      </g>
     </g>
    </g>
    <g id="xtick_10">
     <g id="line2d_18">
      <g>
       <use xlink:href="#m6a4a937174" x="78.926278" y="266.246125" style="stroke: #000000; stroke-width: 0.6"/>
      </g>
     </g>
    </g>
    <g id="xtick_11">
     <g id="line2d_19">
      <g>
       <use xlink:href="#m6a4a937174" x="87.253572" y="266.246125" style="stroke: #000000; stroke-width: 0.6"/>
      </g>
     </g>
    </g>
    <g id="xtick_12">
     <g id="line2d_20">
      <g>
       <use xlink:href="#m6a4a937174" x="93.712723" y="266.246125" style="stroke: #000000; stroke-width: 0.6"/>
      </g>
     </g>
    </g>
    <g id="xtick_13">
     <g id="line2d_21">
      <g>
       <use xlink:href="#m6a4a937174" x="98.990234" y="266.246125" style="stroke: #000000; stroke-width: 0.6"/>
      </g>
     </g>
    </g>
    <g id="xtick_14">
     <g id="line2d_22">
      <g>
       <use xlink:href="#m6a4a937174" x="103.452306" y="266.246125" style="stroke: #000000; stroke-width: 0.6"/>
      </g>
     </g>
    </g>
    <g id="xtick_15">
     <g id="line2d_23">
      <g>
       <use xlink:href="#m6a4a937174" x="107.317529" y="266.246125" style="stroke: #000000; stroke-width: 0.6"/>
      </g>
     </g>
    </g>
    <g id="xtick_16">
     <g id="line2d_24">
      <g>
       <use xlink:href="#m6a4a937174" x="110.726896" y="266.246125" style="stroke: #000000; stroke-width: 0.6"/>
      </g>
     </g>
    </g>
    <g id="xtick_17">
     <g id="line2d_25">
      <g>
       <use xlink:href="#m6a4a937174" x="133.840636" y="266.246125" style="stroke: #000000; stroke-width: 0.6"/>
      </g>
     </g>
    </g>
    <g id="xtick_18">
     <g id="line2d_26">
      <g>
       <use xlink:href="#m6a4a937174" x="145.577298" y="266.246125" style="stroke: #000000; stroke-width: 0.6"/>
      </g>
     </g>
    </g>
    <g id="xtick_19">
     <g id="line2d_27">
      <g>
       <use xlink:href="#m6a4a937174" x="153.904593" y="266.246125" style="stroke: #000000; stroke-width: 0.6"/>
      </g>
     </g>
    </g>
    <g id="xtick_20">
     <g id="line2d_28">
      <g>
       <use xlink:href="#m6a4a937174" x="160.363744" y="266.246125" style="stroke: #000000; stroke-width: 0.6"/>
      </g>
     </g>
    </g>
    <g id="xtick_21">
     <g id="line2d_29">
      <g>
       <use xlink:href="#m6a4a937174" x="165.641255" y="266.246125" style="stroke: #000000; stroke-width: 0.6"/>
      </g>
     </g>
    </g>
    <g id="xtick_22">
     <g id="line2d_30">
      <g>
       <use xlink:href="#m6a4a937174" x="170.103326" y="266.246125" style="stroke: #000000; stroke-width: 0.6"/>
      </g>
     </g>
    </g>
    <g id="xtick_23">
     <g id="line2d_31">
      <g>
       <use xlink:href="#m6a4a937174" x="173.968549" y="266.246125" style="stroke: #000000; stroke-width: 0.6"/>
      </g>
     </g>
    </g>
    <g id="xtick_24">
     <g id="line2d_32">
      <g>
       <use xlink:href="#m6a4a937174" x="177.377917" y="266.246125" style="stroke: #000000; stroke-width: 0.6"/>
      </g>
     </g>
    </g>
    <g id="xtick_25">
     <g id="line2d_33">
      <g>
       <use xlink:href="#m6a4a937174" x="200.491657" y="266.246125" style="stroke: #000000; stroke-width: 0.6"/>
      </g>
     </g>
    </g>
    <g id="xtick_26">
     <g id="line2d_34">
      <g>
       <use xlink:href="#m6a4a937174" x="212.228319" y="266.246125" style="stroke: #000000; stroke-width: 0.6"/>
      </g>
     </g>
    </g>
    <g id="xtick_27">
     <g id="line2d_35">
      <g>
       <use xlink:href="#m6a4a937174" x="220.555613" y="266.246125" style="stroke: #000000; stroke-width: 0.6"/>
      </g>
     </g>
    </g>
    <g id="xtick_28">
     <g id="line2d_36">
      <g>
       <use xlink:href="#m6a4a937174" x="227.014764" y="266.246125" style="stroke: #000000; stroke-width: 0.6"/>
      </g>
     </g>
    </g>
    <g id="xtick_29">
     <g id="line2d_37">
      <g>
       <use xlink:href="#m6a4a937174" x="232.292275" y="266.246125" style="stroke: #000000; stroke-width: 0.6"/>
      </g>
     </g>
    </g>
    <g id="xtick_30">
     <g id="line2d_38">
      <g>
       <use xlink:href="#m6a4a937174" x="236.754347" y="266.246125" style="stroke: #000000; stroke-width: 0.6"/>
      </g>
     </g>
    </g>
    <g id="xtick_31">
     <g id="line2d_39">
      <g>
       <use xlink:href="#m6a4a937174" x="240.619569" y="266.246125" style="stroke: #000000; stroke-width: 0.6"/>
      </g>
     </g>
    </g>
    <g id="xtick_32">
     <g id="line2d_40">
      <g>
       <use xlink:href="#m6a4a937174" x="244.028937" y="266.246125" style="stroke: #000000; stroke-width: 0.6"/>
      </g>
     </g>
    </g>
    <g id="xtick_33">
     <g id="line2d_41">
      <g>
       <use xlink:href="#m6a4a937174" x="267.142677" y="266.246125" style="stroke: #000000; stroke-width: 0.6"/>
      </g>
     </g>
    </g>
    <g id="xtick_34">
     <g id="line2d_42">
      <g>
       <use xlink:href="#m6a4a937174" x="278.879339" y="266.246125" style="stroke: #000000; stroke-width: 0.6"/>
      </g>
     </g>
    </g>
    <g id="xtick_35">
     <g id="line2d_43">
      <g>
       <use xlink:href="#m6a4a937174" x="287.206633" y="266.246125" style="stroke: #000000; stroke-width: 0.6"/>
      </g>
     </g>
    </g>
    <g id="xtick_36">
     <g id="line2d_44">
      <g>
       <use xlink:href="#m6a4a937174" x="293.665784" y="266.246125" style="stroke: #000000; stroke-width: 0.6"/>
      </g>
     </g>
    </g>
    <g id="xtick_37">
     <g id="line2d_45">
      <g>
       <use xlink:href="#m6a4a937174" x="298.943295" y="266.246125" style="stroke: #000000; stroke-width: 0.6"/>
      </g>
     </g>
    </g>
    <g id="xtick_38">
     <g id="line2d_46">
      <g>
       <use xlink:href="#m6a4a937174" x="303.405367" y="266.246125" style="stroke: #000000; stroke-width: 0.6"/>
      </g>
     </g>
    </g>
    <g id="xtick_39">
     <g id="line2d_47">
      <g>
       <use xlink:href="#m6a4a937174" x="307.27059" y="266.246125" style="stroke: #000000; stroke-width: 0.6"/>
      </g>
     </g>
    </g>
    <g id="xtick_40">
     <g id="line2d_48">
      <g>
       <use xlink:href="#m6a4a937174" x="310.679957" y="266.246125" style="stroke: #000000; stroke-width: 0.6"/>
      </g>
     </g>
    </g>
    <g id="xtick_41">
     <g id="line2d_49">
      <g>
       <use xlink:href="#m6a4a937174" x="333.793697" y="266.246125" style="stroke: #000000; stroke-width: 0.6"/>
      </g>
     </g>
    </g>
    <g id="xtick_42">
     <g id="line2d_50">
      <g>
       <use xlink:href="#m6a4a937174" x="345.530359" y="266.246125" style="stroke: #000000; stroke-width: 0.6"/>
      </g>
     </g>
    </g>
    <g id="xtick_43">
     <g id="line2d_51">
      <g>
       <use xlink:href="#m6a4a937174" x="353.857654" y="266.246125" style="stroke: #000000; stroke-width: 0.6"/>
      </g>
     </g>
    </g>
    <g id="xtick_44">
     <g id="line2d_52">
      <g>
       <use xlink:href="#m6a4a937174" x="360.316805" y="266.246125" style="stroke: #000000; stroke-width: 0.6"/>
      </g>
     </g>
    </g>
    <g id="xtick_45">
     <g id="line2d_53">
      <g>
       <use xlink:href="#m6a4a937174" x="365.594316" y="266.246125" style="stroke: #000000; stroke-width: 0.6"/>
      </g>
     </g>
    </g>
    <g id="xtick_46">
     <g id="line2d_54">
      <g>
       <use xlink:href="#m6a4a937174" x="370.056388" y="266.246125" style="stroke: #000000; stroke-width: 0.6"/>
      </g>
     </g>
    </g>
    <g id="xtick_47">
     <g id="line2d_55">
      <g>
       <use xlink:href="#m6a4a937174" x="373.92161" y="266.246125" style="stroke: #000000; stroke-width: 0.6"/>
      </g>
     </g>
    </g>
    <g id="xtick_48">
     <g id="line2d_56">
      <g>
       <use xlink:href="#m6a4a937174" x="377.330978" y="266.246125" style="stroke: #000000; stroke-width: 0.6"/>
      </g>
     </g>
    </g>
    <g id="xtick_49">
     <g id="line2d_57">
      <g>
       <use xlink:href="#m6a4a937174" x="400.444718" y="266.246125" style="stroke: #000000; stroke-width: 0.6"/>
      </g>
     </g>
    </g>
    <g id="xtick_50">
     <g id="line2d_58">
      <g>
       <use xlink:href="#m6a4a937174" x="412.18138" y="266.246125" style="stroke: #000000; stroke-width: 0.6"/>
      </g>
     </g>
    </g>
    <g id="xtick_51">
     <g id="line2d_59">
      <g>
       <use xlink:href="#m6a4a937174" x="420.508674" y="266.246125" style="stroke: #000000; stroke-width: 0.6"/>
      </g>
     </g>
    </g>
    <g id="xtick_52">
     <g id="line2d_60">
      <g>
       <use xlink:href="#m6a4a937174" x="426.967825" y="266.246125" style="stroke: #000000; stroke-width: 0.6"/>
      </g>
     </g>
    </g>
    <g id="xtick_53">
     <g id="line2d_61">
      <g>
       <use xlink:href="#m6a4a937174" x="432.245336" y="266.246125" style="stroke: #000000; stroke-width: 0.6"/>
      </g>
     </g>
    </g>
    <g id="xtick_54">
     <g id="line2d_62">
      <g>
       <use xlink:href="#m6a4a937174" x="436.707408" y="266.246125" style="stroke: #000000; stroke-width: 0.6"/>
      </g>
     </g>
    </g>
    <g id="xtick_55">
     <g id="line2d_63">
      <g>
       <use xlink:href="#m6a4a937174" x="440.57263" y="266.246125" style="stroke: #000000; stroke-width: 0.6"/>
      </g>
     </g>
    </g>
    <g id="xtick_56">
     <g id="line2d_64">
      <g>
       <use xlink:href="#m6a4a937174" x="443.981998" y="266.246125" style="stroke: #000000; stroke-width: 0.6"/>
      </g>
     </g>
    </g>
    <g id="xtick_57">
     <g id="line2d_65">
      <g>
       <use xlink:href="#m6a4a937174" x="467.095738" y="266.246125" style="stroke: #000000; stroke-width: 0.6"/>
      </g>
     </g>
    </g>
    <g id="xtick_58">
     <g id="line2d_66">
      <g>
       <use xlink:href="#m6a4a937174" x="478.8324" y="266.246125" style="stroke: #000000; stroke-width: 0.6"/>
      </g>
     </g>
    </g>
    <g id="xtick_59">
     <g id="line2d_67">
      <g>
       <use xlink:href="#m6a4a937174" x="487.159694" y="266.246125" style="stroke: #000000; stroke-width: 0.6"/>
      </g>
     </g>
    </g>
    <g id="xtick_60">
     <g id="line2d_68">
      <g>
       <use xlink:href="#m6a4a937174" x="493.618846" y="266.246125" style="stroke: #000000; stroke-width: 0.6"/>
      </g>
     </g>
    </g>
    <g id="xtick_61">
     <g id="line2d_69">
      <g>
       <use xlink:href="#m6a4a937174" x="498.896356" y="266.246125" style="stroke: #000000; stroke-width: 0.6"/>
      </g>
     </g>
    </g>
    <g id="xtick_62">
     <g id="line2d_70">
      <g>
       <use xlink:href="#m6a4a937174" x="503.358428" y="266.246125" style="stroke: #000000; stroke-width: 0.6"/>
      </g>
     </g>
    </g>
    <g id="xtick_63">
     <g id="line2d_71">
      <g>
       <use xlink:href="#m6a4a937174" x="507.223651" y="266.246125" style="stroke: #000000; stroke-width: 0.6"/>
      </g>
     </g>
    </g>
    <g id="xtick_64">
     <g id="line2d_72">
      <g>
       <use xlink:href="#m6a4a937174" x="510.633018" y="266.246125" style="stroke: #000000; stroke-width: 0.6"/>
      </g>
     </g>
    </g>
    <g id="xtick_65">
     <g id="line2d_73">
      <g>
       <use xlink:href="#m6a4a937174" x="533.746758" y="266.246125" style="stroke: #000000; stroke-width: 0.6"/>
      </g>
     </g>
    </g>
    <g id="xtick_66">
     <g id="line2d_74">
      <g>
       <use xlink:href="#m6a4a937174" x="545.48342" y="266.246125" style="stroke: #000000; stroke-width: 0.6"/>
      </g>
     </g>
    </g>
    <g id="xtick_67">
     <g id="line2d_75">
      <g>
       <use xlink:href="#m6a4a937174" x="553.810715" y="266.246125" style="stroke: #000000; stroke-width: 0.6"/>
      </g>
     </g>
    </g>
    <g id="xtick_68">
     <g id="line2d_76">
      <g>
       <use xlink:href="#m6a4a937174" x="560.269866" y="266.246125" style="stroke: #000000; stroke-width: 0.6"/>
      </g>
     </g>
    </g>
    <g id="text_9">
     <!-- fidelity bond (BTC, live snapshot, log) -->
     <g transform="translate(200.654673 295.282531) scale(0.11 -0.11)">
      <defs>
       <path id="DejaVuSans-66" d="M 2375 4863 
L 2375 4384 
L 1825 4384 
Q 1516 4384 1395 4259 
Q 1275 4134 1275 3809 
L 1275 3500 
L 2222 3500 
L 2222 3053 
L 1275 3053 
L 1275 0 
L 697 0 
L 697 3053 
L 147 3053 
L 147 3500 
L 697 3500 
L 697 3744 
Q 697 4328 969 4595 
Q 1241 4863 1831 4863 
L 2375 4863 
z
" transform="scale(0.015625)"/>
       <path id="DejaVuSans-69" d="M 603 3500 
L 1178 3500 
L 1178 0 
L 603 0 
L 603 3500 
z
M 603 4863 
L 1178 4863 
L 1178 4134 
L 603 4134 
L 603 4863 
z
" transform="scale(0.015625)"/>
       <path id="DejaVuSans-64" d="M 2906 2969 
L 2906 4863 
L 3481 4863 
L 3481 0 
L 2906 0 
L 2906 525 
Q 2725 213 2448 61 
Q 2172 -91 1784 -91 
Q 1150 -91 751 415 
Q 353 922 353 1747 
Q 353 2572 751 3078 
Q 1150 3584 1784 3584 
Q 2172 3584 2448 3432 
Q 2725 3281 2906 2969 
z
M 947 1747 
Q 947 1113 1208 752 
Q 1469 391 1925 391 
Q 2381 391 2643 752 
Q 2906 1113 2906 1747 
Q 2906 2381 2643 2742 
Q 2381 3103 1925 3103 
Q 1469 3103 1208 2742 
Q 947 2381 947 1747 
z
" transform="scale(0.015625)"/>
       <path id="DejaVuSans-65" d="M 3597 1894 
L 3597 1613 
L 953 1613 
Q 991 1019 1311 708 
Q 1631 397 2203 397 
Q 2534 397 2845 478 
Q 3156 559 3463 722 
L 3463 178 
Q 3153 47 2828 -22 
Q 2503 -91 2169 -91 
Q 1331 -91 842 396 
Q 353 884 353 1716 
Q 353 2575 817 3079 
Q 1281 3584 2069 3584 
Q 2775 3584 3186 3129 
Q 3597 2675 3597 1894 
z
M 3022 2063 
Q 3016 2534 2758 2815 
Q 2500 3097 2075 3097 
Q 1594 3097 1305 2825 
Q 1016 2553 972 2059 
L 3022 2063 
z
" transform="scale(0.015625)"/>
       <path id="DejaVuSans-6c" d="M 603 4863 
L 1178 4863 
L 1178 0 
L 603 0 
L 603 4863 
z
" transform="scale(0.015625)"/>
       <path id="DejaVuSans-74" d="M 1172 4494 
L 1172 3500 
L 2356 3500 
L 2356 3053 
L 1172 3053 
L 1172 1153 
Q 1172 725 1289 603 
Q 1406 481 1766 481 
L 2356 481 
L 2356 0 
L 1766 0 
Q 1100 0 847 248 
Q 594 497 594 1153 
L 594 3053 
L 172 3053 
L 172 3500 
L 594 3500 
L 594 4494 
L 1172 4494 
z
" transform="scale(0.015625)"/>
       <path id="DejaVuSans-79" d="M 2059 -325 
Q 1816 -950 1584 -1140 
Q 1353 -1331 966 -1331 
L 506 -1331 
L 506 -850 
L 844 -850 
Q 1081 -850 1212 -737 
Q 1344 -625 1503 -206 
L 1606 56 
L 191 3500 
L 800 3500 
L 1894 763 
L 2988 3500 
L 3597 3500 
L 2059 -325 
z
" transform="scale(0.015625)"/>
       <path id="DejaVuSans-20" transform="scale(0.015625)"/>
       <path id="DejaVuSans-62" d="M 3116 1747 
Q 3116 2381 2855 2742 
Q 2594 3103 2138 3103 
Q 1681 3103 1420 2742 
Q 1159 2381 1159 1747 
Q 1159 1113 1420 752 
Q 1681 391 2138 391 
Q 2594 391 2855 752 
Q 3116 1113 3116 1747 
z
M 1159 2969 
Q 1341 3281 1617 3432 
Q 1894 3584 2278 3584 
Q 2916 3584 3314 3078 
Q 3713 2572 3713 1747 
Q 3713 922 3314 415 
Q 2916 -91 2278 -91 
Q 1894 -91 1617 61 
Q 1341 213 1159 525 
L 1159 0 
L 581 0 
L 581 4863 
L 1159 4863 
L 1159 2969 
z
" transform="scale(0.015625)"/>
       <path id="DejaVuSans-6f" d="M 1959 3097 
Q 1497 3097 1228 2736 
Q 959 2375 959 1747 
Q 959 1119 1226 758 
Q 1494 397 1959 397 
Q 2419 397 2687 759 
Q 2956 1122 2956 1747 
Q 2956 2369 2687 2733 
Q 2419 3097 1959 3097 
z
M 1959 3584 
Q 2709 3584 3137 3096 
Q 3566 2609 3566 1747 
Q 3566 888 3137 398 
Q 2709 -91 1959 -91 
Q 1206 -91 779 398 
Q 353 888 353 1747 
Q 353 2609 779 3096 
Q 1206 3584 1959 3584 
z
" transform="scale(0.015625)"/>
       <path id="DejaVuSans-6e" d="M 3513 2113 
L 3513 0 
L 2938 0 
L 2938 2094 
Q 2938 2591 2744 2837 
Q 2550 3084 2163 3084 
Q 1697 3084 1428 2787 
Q 1159 2491 1159 1978 
L 1159 0 
L 581 0 
L 581 3500 
L 1159 3500 
L 1159 2956 
Q 1366 3272 1645 3428 
Q 1925 3584 2291 3584 
Q 2894 3584 3203 3211 
Q 3513 2838 3513 2113 
z
" transform="scale(0.015625)"/>
       <path id="DejaVuSans-28" d="M 1984 4856 
Q 1566 4138 1362 3434 
Q 1159 2731 1159 2009 
Q 1159 1288 1364 580 
Q 1569 -128 1984 -844 
L 1484 -844 
Q 1016 -109 783 600 
Q 550 1309 550 2009 
Q 550 2706 781 3412 
Q 1013 4119 1484 4856 
L 1984 4856 
z
" transform="scale(0.015625)"/>
       <path id="DejaVuSans-42" d="M 1259 2228 
L 1259 519 
L 2272 519 
Q 2781 519 3026 730 
Q 3272 941 3272 1375 
Q 3272 1813 3026 2020 
Q 2781 2228 2272 2228 
L 1259 2228 
z
M 1259 4147 
L 1259 2741 
L 2194 2741 
Q 2656 2741 2882 2914 
Q 3109 3088 3109 3444 
Q 3109 3797 2882 3972 
Q 2656 4147 2194 4147 
L 1259 4147 
z
M 628 4666 
L 2241 4666 
Q 2963 4666 3353 4366 
Q 3744 4066 3744 3513 
Q 3744 3084 3544 2831 
Q 3344 2578 2956 2516 
Q 3422 2416 3680 2098 
Q 3938 1781 3938 1306 
Q 3938 681 3513 340 
Q 3088 0 2303 0 
L 628 0 
L 628 4666 
z
" transform="scale(0.015625)"/>
       <path id="DejaVuSans-54" d="M -19 4666 
L 3928 4666 
L 3928 4134 
L 2272 4134 
L 2272 0 
L 1638 0 
L 1638 4134 
L -19 4134 
L -19 4666 
z
" transform="scale(0.015625)"/>
       <path id="DejaVuSans-43" d="M 4122 4306 
L 4122 3641 
Q 3803 3938 3442 4084 
Q 3081 4231 2675 4231 
Q 1875 4231 1450 3742 
Q 1025 3253 1025 2328 
Q 1025 1406 1450 917 
Q 1875 428 2675 428 
Q 3081 428 3442 575 
Q 3803 722 4122 1019 
L 4122 359 
Q 3791 134 3420 21 
Q 3050 -91 2638 -91 
Q 1578 -91 968 557 
Q 359 1206 359 2328 
Q 359 3453 968 4101 
Q 1578 4750 2638 4750 
Q 3056 4750 3426 4639 
Q 3797 4528 4122 4306 
z
" transform="scale(0.015625)"/>
       <path id="DejaVuSans-2c" d="M 750 794 
L 1409 794 
L 1409 256 
L 897 -744 
L 494 -744 
L 750 256 
L 750 794 
z
" transform="scale(0.015625)"/>
       <path id="DejaVuSans-76" d="M 191 3500 
L 800 3500 
L 1894 563 
L 2988 3500 
L 3597 3500 
L 2284 0 
L 1503 0 
L 191 3500 
z
" transform="scale(0.015625)"/>
       <path id="DejaVuSans-73" d="M 2834 3397 
L 2834 2853 
Q 2591 2978 2328 3040 
Q 2066 3103 1784 3103 
Q 1356 3103 1142 2972 
Q 928 2841 928 2578 
Q 928 2378 1081 2264 
Q 1234 2150 1697 2047 
L 1894 2003 
Q 2506 1872 2764 1633 
Q 3022 1394 3022 966 
Q 3022 478 2636 193 
Q 2250 -91 1575 -91 
Q 1294 -91 989 -36 
Q 684 19 347 128 
L 347 722 
Q 666 556 975 473 
Q 1284 391 1588 391 
Q 1994 391 2212 530 
Q 2431 669 2431 922 
Q 2431 1156 2273 1281 
Q 2116 1406 1581 1522 
L 1381 1569 
Q 847 1681 609 1914 
Q 372 2147 372 2553 
Q 372 3047 722 3315 
Q 1072 3584 1716 3584 
Q 2034 3584 2315 3537 
Q 2597 3491 2834 3397 
z
" transform="scale(0.015625)"/>
       <path id="DejaVuSans-61" d="M 2194 1759 
Q 1497 1759 1228 1600 
Q 959 1441 959 1056 
Q 959 750 1161 570 
Q 1363 391 1709 391 
Q 2188 391 2477 730 
Q 2766 1069 2766 1631 
L 2766 1759 
L 2194 1759 
z
M 3341 1997 
L 3341 0 
L 2766 0 
L 2766 531 
Q 2569 213 2275 61 
Q 1981 -91 1556 -91 
Q 1019 -91 701 211 
Q 384 513 384 1019 
Q 384 1609 779 1909 
Q 1175 2209 1959 2209 
L 2766 2209 
L 2766 2266 
Q 2766 2663 2505 2880 
Q 2244 3097 1772 3097 
Q 1472 3097 1187 3025 
Q 903 2953 641 2809 
L 641 3341 
Q 956 3463 1253 3523 
Q 1550 3584 1831 3584 
Q 2591 3584 2966 3190 
Q 3341 2797 3341 1997 
z
" transform="scale(0.015625)"/>
       <path id="DejaVuSans-70" d="M 1159 525 
L 1159 -1331 
L 581 -1331 
L 581 3500 
L 1159 3500 
L 1159 2969 
Q 1341 3281 1617 3432 
Q 1894 3584 2278 3584 
Q 2916 3584 3314 3078 
Q 3713 2572 3713 1747 
Q 3713 922 3314 415 
Q 2916 -91 2278 -91 
Q 1894 -91 1617 61 
Q 1341 213 1159 525 
z
M 3116 1747 
Q 3116 2381 2855 2742 
Q 2594 3103 2138 3103 
Q 1681 3103 1420 2742 
Q 1159 2381 1159 1747 
Q 1159 1113 1420 752 
Q 1681 391 2138 391 
Q 2594 391 2855 752 
Q 3116 1113 3116 1747 
z
" transform="scale(0.015625)"/>
       <path id="DejaVuSans-68" d="M 3513 2113 
L 3513 0 
L 2938 0 
L 2938 2094 
Q 2938 2591 2744 2837 
Q 2550 3084 2163 3084 
Q 1697 3084 1428 2787 
Q 1159 2491 1159 1978 
L 1159 0 
L 581 0 
L 581 4863 
L 1159 4863 
L 1159 2956 
Q 1366 3272 1645 3428 
Q 1925 3584 2291 3584 
Q 2894 3584 3203 3211 
Q 3513 2838 3513 2113 
z
" transform="scale(0.015625)"/>
       <path id="DejaVuSans-67" d="M 2906 1791 
Q 2906 2416 2648 2759 
Q 2391 3103 1925 3103 
Q 1463 3103 1205 2759 
Q 947 2416 947 1791 
Q 947 1169 1205 825 
Q 1463 481 1925 481 
Q 2391 481 2648 825 
Q 2906 1169 2906 1791 
z
M 3481 434 
Q 3481 -459 3084 -895 
Q 2688 -1331 1869 -1331 
Q 1566 -1331 1297 -1286 
Q 1028 -1241 775 -1147 
L 775 -588 
Q 1028 -725 1275 -790 
Q 1522 -856 1778 -856 
Q 2344 -856 2625 -561 
Q 2906 -266 2906 331 
L 2906 616 
Q 2728 306 2450 153 
Q 2172 0 1784 0 
Q 1141 0 747 490 
Q 353 981 353 1791 
Q 353 2603 747 3093 
Q 1141 3584 1784 3584 
Q 2172 3584 2450 3431 
Q 2728 3278 2906 2969 
L 2906 3500 
L 3481 3500 
L 3481 434 
z
" transform="scale(0.015625)"/>
       <path id="DejaVuSans-29" d="M 513 4856 
L 1013 4856 
Q 1481 4119 1714 3412 
Q 1947 2706 1947 2009 
Q 1947 1309 1714 600 
Q 1481 -109 1013 -844 
L 513 -844 
Q 928 -128 1133 580 
Q 1338 1288 1338 2009 
Q 1338 2731 1133 3434 
Q 928 4138 513 4856 
z
" transform="scale(0.015625)"/>
      </defs>
      <use xlink:href="#DejaVuSans-66"/>
      <use xlink:href="#DejaVuSans-69" transform="translate(35.205078 0)"/>
      <use xlink:href="#DejaVuSans-64" transform="translate(62.988281 0)"/>
      <use xlink:href="#DejaVuSans-65" transform="translate(126.464844 0)"/>
      <use xlink:href="#DejaVuSans-6c" transform="translate(187.988281 0)"/>
      <use xlink:href="#DejaVuSans-69" transform="translate(215.771484 0)"/>
      <use xlink:href="#DejaVuSans-74" transform="translate(243.554688 0)"/>
      <use xlink:href="#DejaVuSans-79" transform="translate(282.763672 0)"/>
      <use xlink:href="#DejaVuSans-20" transform="translate(341.943359 0)"/>
      <use xlink:href="#DejaVuSans-62" transform="translate(373.730469 0)"/>
      <use xlink:href="#DejaVuSans-6f" transform="translate(437.207031 0)"/>
      <use xlink:href="#DejaVuSans-6e" transform="translate(498.388672 0)"/>
      <use xlink:href="#DejaVuSans-64" transform="translate(561.767578 0)"/>
      <use xlink:href="#DejaVuSans-20" transform="translate(625.244141 0)"/>
      <use xlink:href="#DejaVuSans-28" transform="translate(657.03125 0)"/>
      <use xlink:href="#DejaVuSans-42" transform="translate(696.044922 0)"/>
      <use xlink:href="#DejaVuSans-54" transform="translate(764.648438 0)"/>
      <use xlink:href="#DejaVuSans-43" transform="translate(819.857422 0)"/>
      <use xlink:href="#DejaVuSans-2c" transform="translate(889.681641 0)"/>
      <use xlink:href="#DejaVuSans-20" transform="translate(921.46875 0)"/>
      <use xlink:href="#DejaVuSans-6c" transform="translate(953.255859 0)"/>
      <use xlink:href="#DejaVuSans-69" transform="translate(981.039062 0)"/>
      <use xlink:href="#DejaVuSans-76" transform="translate(1008.822266 0)"/>
      <use xlink:href="#DejaVuSans-65" transform="translate(1068.001953 0)"/>
      <use xlink:href="#DejaVuSans-20" transform="translate(1129.525391 0)"/>
      <use xlink:href="#DejaVuSans-73" transform="translate(1161.3125 0)"/>
      <use xlink:href="#DejaVuSans-6e" transform="translate(1213.412109 0)"/>
      <use xlink:href="#DejaVuSans-61" transform="translate(1276.791016 0)"/>
      <use xlink:href="#DejaVuSans-70" transform="translate(1338.070312 0)"/>
      <use xlink:href="#DejaVuSans-73" transform="translate(1401.546875 0)"/>
      <use xlink:href="#DejaVuSans-68" transform="translate(1453.646484 0)"/>
      <use xlink:href="#DejaVuSans-6f" transform="translate(1517.025391 0)"/>
      <use xlink:href="#DejaVuSans-74" transform="translate(1578.207031 0)"/>
      <use xlink:href="#DejaVuSans-2c" transform="translate(1617.416016 0)"/>
      <use xlink:href="#DejaVuSans-20" transform="translate(1649.203125 0)"/>
      <use xlink:href="#DejaVuSans-6c" transform="translate(1680.990234 0)"/>
      <use xlink:href="#DejaVuSans-6f" transform="translate(1708.773438 0)"/>
      <use xlink:href="#DejaVuSans-67" transform="translate(1769.955078 0)"/>
      <use xlink:href="#DejaVuSans-29" transform="translate(1833.431641 0)"/>
     </g>
    </g>
   </g>
   <g id="matplotlib.axis_2">
    <g id="ytick_1">
     <g id="line2d_77">
      <path d="M 46.445938 214.71025 
L 560.833253 214.71025 
" clip-path="url(#p8bb1453b62)" style="fill: none; stroke: #dddddd; stroke-opacity: 0.6; stroke-width: 0.6; stroke-linecap: square"/>
     </g>
     <g id="line2d_78">
      <defs>
       <path id="md0d4453217" d="M 0 0 
L -3.5 0 
" style="stroke: #000000; stroke-width: 0.8"/>
      </defs>
      <g>
       <use xlink:href="#md0d4453217" x="46.445938" y="214.71025" style="stroke: #000000; stroke-width: 0.8"/>
      </g>
     </g>
     <g id="text_10">
      <!-- $\mathdefault{10^{0}}$ -->
      <g transform="translate(21.845938 218.509469) scale(0.1 -0.1)">
       <use xlink:href="#DejaVuSans-31" transform="translate(0 0.765625)"/>
       <use xlink:href="#DejaVuSans-30" transform="translate(63.623047 0.765625)"/>
       <use xlink:href="#DejaVuSans-30" transform="translate(128.203125 39.046875) scale(0.7)"/>
      </g>
     </g>
    </g>
    <g id="ytick_2">
     <g id="line2d_79">
      <path d="M 46.445938 89.728967 
L 560.833253 89.728967 
" clip-path="url(#p8bb1453b62)" style="fill: none; stroke: #dddddd; stroke-opacity: 0.6; stroke-width: 0.6; stroke-linecap: square"/>
     </g>
     <g id="line2d_80">
      <g>
       <use xlink:href="#md0d4453217" x="46.445938" y="89.728967" style="stroke: #000000; stroke-width: 0.8"/>
      </g>
     </g>
     <g id="text_11">
      <!-- $\mathdefault{10^{1}}$ -->
      <g transform="translate(21.845938 93.528186) scale(0.1 -0.1)">
       <use xlink:href="#DejaVuSans-31" transform="translate(0 0.684375)"/>
       <use xlink:href="#DejaVuSans-30" transform="translate(63.623047 0.684375)"/>
       <use xlink:href="#DejaVuSans-31" transform="translate(128.203125 38.965625) scale(0.7)"/>
      </g>
     </g>
    </g>
    <g id="ytick_3">
     <g id="line2d_81">
      <defs>
       <path id="md95eb86a21" d="M 0 0 
L -2 0 
" style="stroke: #000000; stroke-width: 0.6"/>
      </defs>
      <g>
       <use xlink:href="#md95eb86a21" x="46.445938" y="264.445303" style="stroke: #000000; stroke-width: 0.6"/>
      </g>
     </g>
    </g>
    <g id="ytick_4">
     <g id="line2d_82">
      <g>
       <use xlink:href="#md95eb86a21" x="46.445938" y="252.333365" style="stroke: #000000; stroke-width: 0.6"/>
      </g>
     </g>
    </g>
    <g id="ytick_5">
     <g id="line2d_83">
      <g>
       <use xlink:href="#md95eb86a21" x="46.445938" y="242.437192" style="stroke: #000000; stroke-width: 0.6"/>
      </g>
     </g>
    </g>
    <g id="ytick_6">
     <g id="line2d_84">
      <g>
       <use xlink:href="#md95eb86a21" x="46.445938" y="234.070096" style="stroke: #000000; stroke-width: 0.6"/>
      </g>
     </g>
    </g>
    <g id="ytick_7">
     <g id="line2d_85">
      <g>
       <use xlink:href="#md95eb86a21" x="46.445938" y="226.822188" style="stroke: #000000; stroke-width: 0.6"/>
      </g>
     </g>
    </g>
    <g id="ytick_8">
     <g id="line2d_86">
      <g>
       <use xlink:href="#md95eb86a21" x="46.445938" y="220.42908" style="stroke: #000000; stroke-width: 0.6"/>
      </g>
     </g>
    </g>
    <g id="ytick_9">
     <g id="line2d_87">
      <g>
       <use xlink:href="#md95eb86a21" x="46.445938" y="177.087135" style="stroke: #000000; stroke-width: 0.6"/>
      </g>
     </g>
    </g>
    <g id="ytick_10">
     <g id="line2d_88">
      <g>
       <use xlink:href="#md95eb86a21" x="46.445938" y="155.079024" style="stroke: #000000; stroke-width: 0.6"/>
      </g>
     </g>
    </g>
    <g id="ytick_11">
     <g id="line2d_89">
      <g>
       <use xlink:href="#md95eb86a21" x="46.445938" y="139.46402" style="stroke: #000000; stroke-width: 0.6"/>
      </g>
     </g>
    </g>
    <g id="ytick_12">
     <g id="line2d_90">
      <g>
       <use xlink:href="#md95eb86a21" x="46.445938" y="127.352082" style="stroke: #000000; stroke-width: 0.6"/>
      </g>
     </g>
    </g>
    <g id="ytick_13">
     <g id="line2d_91">
      <g>
       <use xlink:href="#md95eb86a21" x="46.445938" y="117.455908" style="stroke: #000000; stroke-width: 0.6"/>
      </g>
     </g>
    </g>
    <g id="ytick_14">
     <g id="line2d_92">
      <g>
       <use xlink:href="#md95eb86a21" x="46.445938" y="109.088813" style="stroke: #000000; stroke-width: 0.6"/>
      </g>
     </g>
    </g>
    <g id="ytick_15">
     <g id="line2d_93">
      <g>
       <use xlink:href="#md95eb86a21" x="46.445938" y="101.840905" style="stroke: #000000; stroke-width: 0.6"/>
      </g>
     </g>
    </g>
    <g id="ytick_16">
     <g id="line2d_94">
      <g>
       <use xlink:href="#md95eb86a21" x="46.445938" y="95.447797" style="stroke: #000000; stroke-width: 0.6"/>
      </g>
     </g>
    </g>
    <g id="ytick_17">
     <g id="line2d_95">
      <g>
       <use xlink:href="#md95eb86a21" x="46.445938" y="52.105852" style="stroke: #000000; stroke-width: 0.6"/>
      </g>
     </g>
    </g>
    <g id="ytick_18">
     <g id="line2d_96">
      <g>
       <use xlink:href="#md95eb86a21" x="46.445938" y="30.09774" style="stroke: #000000; stroke-width: 0.6"/>
      </g>
     </g>
    </g>
    <g id="text_12">
     <!-- change outputs per active day (log) -->
     <g transform="translate(15.558281 242.918609) rotate(-90) scale(0.11 -0.11)">
      <defs>
       <path id="DejaVuSans-63" d="M 3122 3366 
L 3122 2828 
Q 2878 2963 2633 3030 
Q 2388 3097 2138 3097 
Q 1578 3097 1268 2742 
Q 959 2388 959 1747 
Q 959 1106 1268 751 
Q 1578 397 2138 397 
Q 2388 397 2633 464 
Q 2878 531 3122 666 
L 3122 134 
Q 2881 22 2623 -34 
Q 2366 -91 2075 -91 
Q 1284 -91 818 406 
Q 353 903 353 1747 
Q 353 2603 823 3093 
Q 1294 3584 2113 3584 
Q 2378 3584 2631 3529 
Q 2884 3475 3122 3366 
z
" transform="scale(0.015625)"/>
       <path id="DejaVuSans-75" d="M 544 1381 
L 544 3500 
L 1119 3500 
L 1119 1403 
Q 1119 906 1312 657 
Q 1506 409 1894 409 
Q 2359 409 2629 706 
Q 2900 1003 2900 1516 
L 2900 3500 
L 3475 3500 
L 3475 0 
L 2900 0 
L 2900 538 
Q 2691 219 2414 64 
Q 2138 -91 1772 -91 
Q 1169 -91 856 284 
Q 544 659 544 1381 
z
M 1991 3584 
L 1991 3584 
z
" transform="scale(0.015625)"/>
       <path id="DejaVuSans-72" d="M 2631 2963 
Q 2534 3019 2420 3045 
Q 2306 3072 2169 3072 
Q 1681 3072 1420 2755 
Q 1159 2438 1159 1844 
L 1159 0 
L 581 0 
L 581 3500 
L 1159 3500 
L 1159 2956 
Q 1341 3275 1631 3429 
Q 1922 3584 2338 3584 
Q 2397 3584 2469 3576 
Q 2541 3569 2628 3553 
L 2631 2963 
z
" transform="scale(0.015625)"/>
      </defs>
      <use xlink:href="#DejaVuSans-63"/>
      <use xlink:href="#DejaVuSans-68" transform="translate(54.980469 0)"/>
      <use xlink:href="#DejaVuSans-61" transform="translate(118.359375 0)"/>
      <use xlink:href="#DejaVuSans-6e" transform="translate(179.638672 0)"/>
      <use xlink:href="#DejaVuSans-67" transform="translate(243.017578 0)"/>
      <use xlink:href="#DejaVuSans-65" transform="translate(306.494141 0)"/>
      <use xlink:href="#DejaVuSans-20" transform="translate(368.017578 0)"/>
      <use xlink:href="#DejaVuSans-6f" transform="translate(399.804688 0)"/>
      <use xlink:href="#DejaVuSans-75" transform="translate(460.986328 0)"/>
      <use xlink:href="#DejaVuSans-74" transform="translate(524.365234 0)"/>
      <use xlink:href="#DejaVuSans-70" transform="translate(563.574219 0)"/>
      <use xlink:href="#DejaVuSans-75" transform="translate(627.050781 0)"/>
      <use xlink:href="#DejaVuSans-74" transform="translate(690.429688 0)"/>
      <use xlink:href="#DejaVuSans-73" transform="translate(729.638672 0)"/>
      <use xlink:href="#DejaVuSans-20" transform="translate(781.738281 0)"/>
      <use xlink:href="#DejaVuSans-70" transform="translate(813.525391 0)"/>
      <use xlink:href="#DejaVuSans-65" transform="translate(877.001953 0)"/>
      <use xlink:href="#DejaVuSans-72" transform="translate(938.525391 0)"/>
      <use xlink:href="#DejaVuSans-20" transform="translate(979.638672 0)"/>
      <use xlink:href="#DejaVuSans-61" transform="translate(1011.425781 0)"/>
      <use xlink:href="#DejaVuSans-63" transform="translate(1072.705078 0)"/>
      <use xlink:href="#DejaVuSans-74" transform="translate(1127.685547 0)"/>
      <use xlink:href="#DejaVuSans-69" transform="translate(1166.894531 0)"/>
      <use xlink:href="#DejaVuSans-76" transform="translate(1194.677734 0)"/>
      <use xlink:href="#DejaVuSans-65" transform="translate(1253.857422 0)"/>
      <use xlink:href="#DejaVuSans-20" transform="translate(1315.380859 0)"/>
      <use xlink:href="#DejaVuSans-64" transform="translate(1347.167969 0)"/>
      <use xlink:href="#DejaVuSans-61" transform="translate(1410.644531 0)"/>
      <use xlink:href="#DejaVuSans-79" transform="translate(1471.923828 0)"/>
      <use xlink:href="#DejaVuSans-20" transform="translate(1531.103516 0)"/>
      <use xlink:href="#DejaVuSans-28" transform="translate(1562.890625 0)"/>
      <use xlink:href="#DejaVuSans-6c" transform="translate(1601.904297 0)"/>
      <use xlink:href="#DejaVuSans-6f" transform="translate(1629.6875 0)"/>
      <use xlink:href="#DejaVuSans-67" transform="translate(1690.869141 0)"/>
      <use xlink:href="#DejaVuSans-29" transform="translate(1754.345703 0)"/>
     </g>
    </g>
   </g>
   <g id="patch_3">
    <path d="M 46.445938 266.246125 
L 46.445938 22.318125 
" style="fill: none; stroke: #444444; stroke-width: 0.8; stroke-linejoin: miter; stroke-linecap: square"/>
   </g>
   <g id="patch_4">
    <path d="M 46.445938 266.246125 
L 560.833253 266.246125 
" style="fill: none; stroke: #444444; stroke-width: 0.8; stroke-linejoin: miter; stroke-linecap: square"/>
   </g>
   <g id="text_13">
    <!-- c4 -->
    <g transform="translate(226.553395 158.062957) scale(0.08 -0.08)">
     <use xlink:href="#DejaVuSans-63"/>
     <use xlink:href="#DejaVuSans-34" transform="translate(54.980469 0)"/>
    </g>
   </g>
   <g id="text_14">
    <!-- c7 -->
    <g transform="translate(352.959774 141.057333) scale(0.08 -0.08)">
     <defs>
      <path id="DejaVuSans-37" d="M 525 4666 
L 3525 4666 
L 3525 4397 
L 1831 0 
L 1172 0 
L 2766 4134 
L 525 4134 
L 525 4666 
z
" transform="scale(0.015625)"/>
     </defs>
     <use xlink:href="#DejaVuSans-63"/>
     <use xlink:href="#DejaVuSans-37" transform="translate(54.980469 0)"/>
    </g>
   </g>
   <g id="text_15">
    <!-- c9 -->
    <g transform="translate(392.597895 187.989721) scale(0.08 -0.08)">
     <defs>
      <path id="DejaVuSans-39" d="M 703 97 
L 703 672 
Q 941 559 1184 500 
Q 1428 441 1663 441 
Q 2288 441 2617 861 
Q 2947 1281 2994 2138 
Q 2813 1869 2534 1725 
Q 2256 1581 1919 1581 
Q 1219 1581 811 2004 
Q 403 2428 403 3163 
Q 403 3881 828 4315 
Q 1253 4750 1959 4750 
Q 2769 4750 3195 4129 
Q 3622 3509 3622 2328 
Q 3622 1225 3098 567 
Q 2575 -91 1691 -91 
Q 1453 -91 1209 -44 
Q 966 3 703 97 
z
M 1959 2075 
Q 2384 2075 2632 2365 
Q 2881 2656 2881 3163 
Q 2881 3666 2632 3958 
Q 2384 4250 1959 4250 
Q 1534 4250 1286 3958 
Q 1038 3666 1038 3163 
Q 1038 2656 1286 2365 
Q 1534 2075 1959 2075 
z
" transform="scale(0.015625)"/>
     </defs>
     <use xlink:href="#DejaVuSans-63"/>
     <use xlink:href="#DejaVuSans-39" transform="translate(54.980469 0)"/>
    </g>
   </g>
   <g id="text_16">
    <!-- c10 -->
    <g transform="translate(74.827179 205.372068) scale(0.08 -0.08)">
     <use xlink:href="#DejaVuSans-63"/>
     <use xlink:href="#DejaVuSans-31" transform="translate(54.980469 0)"/>
     <use xlink:href="#DejaVuSans-30" transform="translate(118.603516 0)"/>
    </g>
   </g>
   <g id="text_17">
    <!-- c11 -->
    <g transform="translate(339.597633 252.158489) scale(0.08 -0.08)">
     <use xlink:href="#DejaVuSans-63"/>
     <use xlink:href="#DejaVuSans-31" transform="translate(54.980469 0)"/>
     <use xlink:href="#DejaVuSans-31" transform="translate(118.603516 0)"/>
    </g>
   </g>
   <g id="text_18">
    <!-- c22 -->
    <g transform="translate(542.452011 92.107278) scale(0.08 -0.08)">
     <use xlink:href="#DejaVuSans-63"/>
     <use xlink:href="#DejaVuSans-32" transform="translate(54.980469 0)"/>
     <use xlink:href="#DejaVuSans-32" transform="translate(118.603516 0)"/>
    </g>
   </g>
   <g id="text_19">
    <!-- c25 -->
    <g transform="translate(376.104202 107.898198) scale(0.08 -0.08)">
     <defs>
      <path id="DejaVuSans-35" d="M 691 4666 
L 3169 4666 
L 3169 4134 
L 1269 4134 
L 1269 2991 
Q 1406 3038 1543 3061 
Q 1681 3084 1819 3084 
Q 2600 3084 3056 2656 
Q 3513 2228 3513 1497 
Q 3513 744 3044 326 
Q 2575 -91 1722 -91 
Q 1428 -91 1123 -41 
Q 819 9 494 109 
L 494 744 
Q 775 591 1075 516 
Q 1375 441 1709 441 
Q 2250 441 2565 725 
Q 2881 1009 2881 1497 
Q 2881 1984 2565 2268 
Q 2250 2553 1709 2553 
Q 1456 2553 1204 2497 
Q 953 2441 691 2322 
L 691 4666 
z
" transform="scale(0.015625)"/>
     </defs>
     <use xlink:href="#DejaVuSans-63"/>
     <use xlink:href="#DejaVuSans-32" transform="translate(54.980469 0)"/>
     <use xlink:href="#DejaVuSans-35" transform="translate(118.603516 0)"/>
    </g>
   </g>
   <g id="text_20">
    <!-- c27 -->
    <g transform="translate(370.781787 30.405761) scale(0.08 -0.08)">
     <use xlink:href="#DejaVuSans-63"/>
     <use xlink:href="#DejaVuSans-32" transform="translate(54.980469 0)"/>
     <use xlink:href="#DejaVuSans-37" transform="translate(118.603516 0)"/>
    </g>
   </g>
   <g id="text_21">
    <!-- c28 -->
    <g transform="translate(303.194763 79.91369) scale(0.08 -0.08)">
     <defs>
      <path id="DejaVuSans-38" d="M 2034 2216 
Q 1584 2216 1326 1975 
Q 1069 1734 1069 1313 
Q 1069 891 1326 650 
Q 1584 409 2034 409 
Q 2484 409 2743 651 
Q 3003 894 3003 1313 
Q 3003 1734 2745 1975 
Q 2488 2216 2034 2216 
z
M 1403 2484 
Q 997 2584 770 2862 
Q 544 3141 544 3541 
Q 544 4100 942 4425 
Q 1341 4750 2034 4750 
Q 2731 4750 3128 4425 
Q 3525 4100 3525 3541 
Q 3525 3141 3298 2862 
Q 3072 2584 2669 2484 
Q 3125 2378 3379 2068 
Q 3634 1759 3634 1313 
Q 3634 634 3220 271 
Q 2806 -91 2034 -91 
Q 1263 -91 848 271 
Q 434 634 434 1313 
Q 434 1759 690 2068 
Q 947 2378 1403 2484 
z
M 1172 3481 
Q 1172 3119 1398 2916 
Q 1625 2713 2034 2713 
Q 2441 2713 2670 2916 
Q 2900 3119 2900 3481 
Q 2900 3844 2670 4047 
Q 2441 4250 2034 4250 
Q 1625 4250 1398 4047 
Q 1172 3844 1172 3481 
z
" transform="scale(0.015625)"/>
     </defs>
     <use xlink:href="#DejaVuSans-63"/>
     <use xlink:href="#DejaVuSans-32" transform="translate(54.980469 0)"/>
     <use xlink:href="#DejaVuSans-38" transform="translate(118.603516 0)"/>
    </g>
   </g>
   <g id="text_22">
    <!-- c32 -->
    <g transform="translate(230.645173 134.30468) scale(0.08 -0.08)">
     <use xlink:href="#DejaVuSans-63"/>
     <use xlink:href="#DejaVuSans-33" transform="translate(54.980469 0)"/>
     <use xlink:href="#DejaVuSans-32" transform="translate(118.603516 0)"/>
    </g>
   </g>
   <g id="text_23">
    <!-- c34 -->
    <g transform="translate(343.600872 108.919302) scale(0.08 -0.08)">
     <use xlink:href="#DejaVuSans-63"/>
     <use xlink:href="#DejaVuSans-33" transform="translate(54.980469 0)"/>
     <use xlink:href="#DejaVuSans-34" transform="translate(118.603516 0)"/>
    </g>
   </g>
   <g id="text_24">
    <!-- c35 -->
    <g transform="translate(472.093186 136.164401) scale(0.08 -0.08)">
     <use xlink:href="#DejaVuSans-63"/>
     <use xlink:href="#DejaVuSans-33" transform="translate(54.980469 0)"/>
     <use xlink:href="#DejaVuSans-35" transform="translate(118.603516 0)"/>
    </g>
   </g>
   <g id="text_25">
    <!-- c37 -->
    <g transform="translate(476.735153 220.056589) scale(0.08 -0.08)">
     <use xlink:href="#DejaVuSans-63"/>
     <use xlink:href="#DejaVuSans-33" transform="translate(54.980469 0)"/>
     <use xlink:href="#DejaVuSans-37" transform="translate(118.603516 0)"/>
    </g>
   </g>
   <g id="text_26">
    <!-- c40 -->
    <g transform="translate(505.067585 199.555797) scale(0.08 -0.08)">
     <use xlink:href="#DejaVuSans-63"/>
     <use xlink:href="#DejaVuSans-34" transform="translate(54.980469 0)"/>
     <use xlink:href="#DejaVuSans-30" transform="translate(118.603516 0)"/>
    </g>
   </g>
   <g id="text_27">
    <!-- time-normalized participation rate vs fidelity-bond size -->
    <g transform="translate(138.962095 16.318125) scale(0.12 -0.12)">
     <defs>
      <path id="DejaVuSans-6d" d="M 3328 2828 
Q 3544 3216 3844 3400 
Q 4144 3584 4550 3584 
Q 5097 3584 5394 3201 
Q 5691 2819 5691 2113 
L 5691 0 
L 5113 0 
L 5113 2094 
Q 5113 2597 4934 2840 
Q 4756 3084 4391 3084 
Q 3944 3084 3684 2787 
Q 3425 2491 3425 1978 
L 3425 0 
L 2847 0 
L 2847 2094 
Q 2847 2600 2669 2842 
Q 2491 3084 2119 3084 
Q 1678 3084 1418 2786 
Q 1159 2488 1159 1978 
L 1159 0 
L 581 0 
L 581 3500 
L 1159 3500 
L 1159 2956 
Q 1356 3278 1631 3431 
Q 1906 3584 2284 3584 
Q 2666 3584 2933 3390 
Q 3200 3197 3328 2828 
z
" transform="scale(0.015625)"/>
      <path id="DejaVuSans-2d" d="M 313 2009 
L 1997 2009 
L 1997 1497 
L 313 1497 
L 313 2009 
z
" transform="scale(0.015625)"/>
      <path id="DejaVuSans-7a" d="M 353 3500 
L 3084 3500 
L 3084 2975 
L 922 459 
L 3084 459 
L 3084 0 
L 275 0 
L 275 525 
L 2438 3041 
L 353 3041 
L 353 3500 
z
" transform="scale(0.015625)"/>
     </defs>
     <use xlink:href="#DejaVuSans-74"/>
     <use xlink:href="#DejaVuSans-69" transform="translate(39.208984 0)"/>
     <use xlink:href="#DejaVuSans-6d" transform="translate(66.992188 0)"/>
     <use xlink:href="#DejaVuSans-65" transform="translate(164.404297 0)"/>
     <use xlink:href="#DejaVuSans-2d" transform="translate(225.927734 0)"/>
     <use xlink:href="#DejaVuSans-6e" transform="translate(262.011719 0)"/>
     <use xlink:href="#DejaVuSans-6f" transform="translate(325.390625 0)"/>
     <use xlink:href="#DejaVuSans-72" transform="translate(386.572266 0)"/>
     <use xlink:href="#DejaVuSans-6d" transform="translate(425.935547 0)"/>
     <use xlink:href="#DejaVuSans-61" transform="translate(523.347656 0)"/>
     <use xlink:href="#DejaVuSans-6c" transform="translate(584.626953 0)"/>
     <use xlink:href="#DejaVuSans-69" transform="translate(612.410156 0)"/>
     <use xlink:href="#DejaVuSans-7a" transform="translate(640.193359 0)"/>
     <use xlink:href="#DejaVuSans-65" transform="translate(692.683594 0)"/>
     <use xlink:href="#DejaVuSans-64" transform="translate(754.207031 0)"/>
     <use xlink:href="#DejaVuSans-20" transform="translate(817.683594 0)"/>
     <use xlink:href="#DejaVuSans-70" transform="translate(849.470703 0)"/>
     <use xlink:href="#DejaVuSans-61" transform="translate(912.947266 0)"/>
     <use xlink:href="#DejaVuSans-72" transform="translate(974.226562 0)"/>
     <use xlink:href="#DejaVuSans-74" transform="translate(1015.339844 0)"/>
     <use xlink:href="#DejaVuSans-69" transform="translate(1054.548828 0)"/>
     <use xlink:href="#DejaVuSans-63" transform="translate(1082.332031 0)"/>
     <use xlink:href="#DejaVuSans-69" transform="translate(1137.3125 0)"/>
     <use xlink:href="#DejaVuSans-70" transform="translate(1165.095703 0)"/>
     <use xlink:href="#DejaVuSans-61" transform="translate(1228.572266 0)"/>
     <use xlink:href="#DejaVuSans-74" transform="translate(1289.851562 0)"/>
     <use xlink:href="#DejaVuSans-69" transform="translate(1329.060547 0)"/>
     <use xlink:href="#DejaVuSans-6f" transform="translate(1356.84375 0)"/>
     <use xlink:href="#DejaVuSans-6e" transform="translate(1418.025391 0)"/>
     <use xlink:href="#DejaVuSans-20" transform="translate(1481.404297 0)"/>
     <use xlink:href="#DejaVuSans-72" transform="translate(1513.191406 0)"/>
     <use xlink:href="#DejaVuSans-61" transform="translate(1554.304688 0)"/>
     <use xlink:href="#DejaVuSans-74" transform="translate(1615.583984 0)"/>
     <use xlink:href="#DejaVuSans-65" transform="translate(1654.792969 0)"/>
     <use xlink:href="#DejaVuSans-20" transform="translate(1716.316406 0)"/>
     <use xlink:href="#DejaVuSans-76" transform="translate(1748.103516 0)"/>
     <use xlink:href="#DejaVuSans-73" transform="translate(1807.283203 0)"/>
     <use xlink:href="#DejaVuSans-20" transform="translate(1859.382812 0)"/>
     <use xlink:href="#DejaVuSans-66" transform="translate(1891.169922 0)"/>
     <use xlink:href="#DejaVuSans-69" transform="translate(1926.375 0)"/>
     <use xlink:href="#DejaVuSans-64" transform="translate(1954.158203 0)"/>
     <use xlink:href="#DejaVuSans-65" transform="translate(2017.634766 0)"/>
     <use xlink:href="#DejaVuSans-6c" transform="translate(2079.158203 0)"/>
     <use xlink:href="#DejaVuSans-69" transform="translate(2106.941406 0)"/>
     <use xlink:href="#DejaVuSans-74" transform="translate(2134.724609 0)"/>
     <use xlink:href="#DejaVuSans-79" transform="translate(2173.933594 0)"/>
     <use xlink:href="#DejaVuSans-2d" transform="translate(2231.363281 0)"/>
     <use xlink:href="#DejaVuSans-62" transform="translate(2267.447266 0)"/>
     <use xlink:href="#DejaVuSans-6f" transform="translate(2330.923828 0)"/>
     <use xlink:href="#DejaVuSans-6e" transform="translate(2392.105469 0)"/>
     <use xlink:href="#DejaVuSans-64" transform="translate(2455.484375 0)"/>
     <use xlink:href="#DejaVuSans-20" transform="translate(2518.960938 0)"/>
     <use xlink:href="#DejaVuSans-73" transform="translate(2550.748047 0)"/>
     <use xlink:href="#DejaVuSans-69" transform="translate(2602.847656 0)"/>
     <use xlink:href="#DejaVuSans-7a" transform="translate(2630.630859 0)"/>
     <use xlink:href="#DejaVuSans-65" transform="translate(2683.121094 0)"/>
    </g>
   </g>
  </g>
 </g>
 <defs>
  <clipPath id="p8bb1453b62">
   <rect x="46.445938" y="22.318125" width="514.387315" height="243.928"/>
  </clipPath>
 </defs>
</svg>
