<?xml version="1.0" encoding="utf-8" standalone="no"?>
<!DOCTYPE svg PUBLIC "-//W3C//DTD SVG 1.1//EN"
  "http://www.w3.org/Graphics/SVG/1.1/DTD/svg11.dtd">
<svg xmlns:xlink="http://www.w3.org/1999/xlink" width="530.215937pt" height="282.602188pt" viewBox="0 0 530.215937 282.602188" xmlns="http://www.w3.org/2000/svg" version="1.1">
 <metadata>
  <rdf:RDF xmlns:dc="http://purl.org/dc/elements/1.1/" xmlns:cc="http://creativecommons.org/ns#" xmlns:rdf="http://www.w3.org/1999/02/22-rdf-syntax-ns#">
   <cc:Work>
    <dc:type rdf:resource="http://purl.org/dc/dcmitype/StillImage"/>
    <dc:date>2026-05-23T11:05:22.107734</dc:date>
    <dc:format>image/svg+xml</dc:format>
    <dc:creator>
     <cc:Agent>
      <dc:title>Matplotlib v3.10.9, https://matplotlib.org/</dc:title>
     </cc:Agent>
    </dc:creator>
   </cc:Work>
  </rdf:RDF>
 </metadata>
 <defs>
  <style type="text/css">*{stroke-linejoin: round; stroke-linecap: butt}</style>
 </defs>
 <g id="figure_1">
  <g id="patch_1">
   <path d="M 0 282.602188 
L 530.215937 282.602188 
L 530.215937 0 
L 0 0 
z
" style="fill: #ffffff"/>
  </g>
  <g id="axes_1">
   <g id="patch_2">
    <path d="M 54.295938 244.078125 
L 523.015938 244.078125 
L 523.015938 22.318125 
L 54.295938 22.318125 
z
" style="fill: #ffffff"/>
   </g>
   <g id="patch_3">
    <path d="M 75.601392 244.078125 
L 79.659574 244.078125 
L 79.659574 166.077146 
L 75.601392 166.077146 
z
" clip-path="url(#p4485e5346a)" style="fill: #bbbbbb; stroke: #222222; stroke-width: 0.3; stroke-linejoin: miter"/>
   </g>
   <g id="patch_4">
    <path d="M 100.965028 244.078125 
L 105.02321 244.078125 
L 105.02321 62.975705 
L 100.965028 62.975705 
z
" clip-path="url(#p4485e5346a)" style="fill: #bbbbbb; stroke: #222222; stroke-width: 0.3; stroke-linejoin: miter"/>
   </g>
   <g id="patch_5">
    <path d="M 126.328665 244.078125 
L 130.386847 244.078125 
L 130.386847 35.922346 
L 126.328665 35.922346 
z
" clip-path="url(#p4485e5346a)" style="fill: #bbbbbb; stroke: #222222; stroke-width: 0.3; stroke-linejoin: miter"/>
   </g>
   <g id="patch_6">
    <path d="M 151.692301 244.078125 
L 155.750483 244.078125 
L 155.750483 69.810842 
L 151.692301 69.810842 
z
" clip-path="url(#p4485e5346a)" style="fill: #bbbbbb; stroke: #222222; stroke-width: 0.3; stroke-linejoin: miter"/>
   </g>
   <g id="patch_7">
    <path d="M 177.055937 244.078125 
L 181.114119 244.078125 
L 181.114119 115.474154 
L 177.055937 115.474154 
z
" clip-path="url(#p4485e5346a)" style="fill: #bbbbbb; stroke: #222222; stroke-width: 0.3; stroke-linejoin: miter"/>
   </g>
   <g id="patch_8">
    <path d="M 202.419574 244.078125 
L 206.477756 244.078125 
L 206.477756 161.884163 
L 202.419574 161.884163 
z
" clip-path="url(#p4485e5346a)" style="fill: #bbbbbb; stroke: #222222; stroke-width: 0.3; stroke-linejoin: miter"/>
   </g>
   <g id="patch_9">
    <path d="M 227.78321 244.078125 
L 231.841392 244.078125 
L 231.841392 192.671 
L 227.78321 192.671 
z
" clip-path="url(#p4485e5346a)" style="fill: #bbbbbb; stroke: #222222; stroke-width: 0.3; stroke-linejoin: miter"/>
   </g>
   <g id="patch_10">
    <path d="M 253.146847 244.078125 
L 257.205028 244.078125 
L 257.205028 209.787562 
L 253.146847 209.787562 
z
" clip-path="url(#p4485e5346a)" style="fill: #bbbbbb; stroke: #222222; stroke-width: 0.3; stroke-linejoin: miter"/>
   </g>
   <g id="patch_11">
    <path d="M 278.510483 244.078125 
L 282.568665 244.078125 
L 282.568665 226.214867 
L 278.510483 226.214867 
z
" clip-path="url(#p4485e5346a)" style="fill: #bbbbbb; stroke: #222222; stroke-width: 0.3; stroke-linejoin: miter"/>
   </g>
   <g id="patch_12">
    <path d="M 303.874119 244.078125 
L 307.932301 244.078125 
L 307.932301 236.151663 
L 303.874119 236.151663 
z
" clip-path="url(#p4485e5346a)" style="fill: #bbbbbb; stroke: #222222; stroke-width: 0.3; stroke-linejoin: miter"/>
   </g>
   <g id="patch_13">
    <path d="M 329.237756 244.078125 
L 333.295937 244.078125 
L 333.295937 241.435971 
L 329.237756 241.435971 
z
" clip-path="url(#p4485e5346a)" style="fill: #bbbbbb; stroke: #222222; stroke-width: 0.3; stroke-linejoin: miter"/>
   </g>
   <g id="patch_14">
    <path d="M 354.601392 244.078125 
L 358.659574 244.078125 
L 358.659574 242.412419 
L 354.601392 242.412419 
z
" clip-path="url(#p4485e5346a)" style="fill: #bbbbbb; stroke: #222222; stroke-width: 0.3; stroke-linejoin: miter"/>
   </g>
   <g id="patch_15">
    <path d="M 379.965028 244.078125 
L 384.02321 244.078125 
L 384.02321 243.101677 
L 379.965028 243.101677 
z
" clip-path="url(#p4485e5346a)" style="fill: #bbbbbb; stroke: #222222; stroke-width: 0.3; stroke-linejoin: miter"/>
   </g>
   <g id="patch_16">
    <path d="M 405.328665 244.078125 
L 409.386847 244.078125 
L 409.386847 243.676058 
L 405.328665 243.676058 
z
" clip-path="url(#p4485e5346a)" style="fill: #bbbbbb; stroke: #222222; stroke-width: 0.3; stroke-linejoin: miter"/>
   </g>
   <g id="patch_17">
    <path d="M 430.692301 244.078125 
L 434.750483 244.078125 
L 434.750483 243.676058 
L 430.692301 243.676058 
z
" clip-path="url(#p4485e5346a)" style="fill: #bbbbbb; stroke: #222222; stroke-width: 0.3; stroke-linejoin: miter"/>
   </g>
   <g id="patch_18">
    <path d="M 456.055937 244.078125 
L 460.114119 244.078125 
L 460.114119 243.905811 
L 456.055937 243.905811 
z
" clip-path="url(#p4485e5346a)" style="fill: #bbbbbb; stroke: #222222; stroke-width: 0.3; stroke-linejoin: miter"/>
   </g>
   <g id="patch_19">
    <path d="M 481.419574 244.078125 
L 485.477756 244.078125 
L 485.477756 244.020687 
L 481.419574 244.020687 
z
" clip-path="url(#p4485e5346a)" style="fill: #bbbbbb; stroke: #222222; stroke-width: 0.3; stroke-linejoin: miter"/>
   </g>
   <g id="patch_20">
    <path d="M 79.659574 244.078125 
L 83.717756 244.078125 
L 83.717756 141.378751 
L 79.659574 141.378751 
z
" clip-path="url(#p4485e5346a)" style="fill: #66ccee; stroke: #222222; stroke-width: 0.3; stroke-linejoin: miter"/>
   </g>
   <g id="patch_21">
    <path d="M 105.02321 244.078125 
L 109.081392 244.078125 
L 109.081392 36.324413 
L 105.02321 36.324413 
z
" clip-path="url(#p4485e5346a)" style="fill: #66ccee; stroke: #222222; stroke-width: 0.3; stroke-linejoin: miter"/>
   </g>
   <g id="patch_22">
    <path d="M 130.386847 244.078125 
L 134.445028 244.078125 
L 134.445028 32.878125 
L 130.386847 32.878125 
z
" clip-path="url(#p4485e5346a)" style="fill: #66ccee; stroke: #222222; stroke-width: 0.3; stroke-linejoin: miter"/>
   </g>
   <g id="patch_23">
    <path d="M 155.750483 244.078125 
L 159.808665 244.078125 
L 159.808665 76.186474 
L 155.750483 76.186474 
z
" clip-path="url(#p4485e5346a)" style="fill: #66ccee; stroke: #222222; stroke-width: 0.3; stroke-linejoin: miter"/>
   </g>
   <g id="patch_24">
    <path d="M 181.114119 244.078125 
L 185.172301 244.078125 
L 185.172301 133.337412 
L 181.114119 133.337412 
z
" clip-path="url(#p4485e5346a)" style="fill: #66ccee; stroke: #222222; stroke-width: 0.3; stroke-linejoin: miter"/>
   </g>
   <g id="patch_25">
    <path d="M 206.477756 244.078125 
L 210.535937 244.078125 
L 210.535937 175.439561 
L 206.477756 175.439561 
z
" clip-path="url(#p4485e5346a)" style="fill: #66ccee; stroke: #222222; stroke-width: 0.3; stroke-linejoin: miter"/>
   </g>
   <g id="patch_26">
    <path d="M 231.841392 244.078125 
L 235.899574 244.078125 
L 235.899574 199.506137 
L 231.841392 199.506137 
z
" clip-path="url(#p4485e5346a)" style="fill: #66ccee; stroke: #222222; stroke-width: 0.3; stroke-linejoin: miter"/>
   </g>
   <g id="patch_27">
    <path d="M 257.205028 244.078125 
L 261.26321 244.078125 
L 261.26321 214.784679 
L 257.205028 214.784679 
z
" clip-path="url(#p4485e5346a)" style="fill: #66ccee; stroke: #222222; stroke-width: 0.3; stroke-linejoin: miter"/>
   </g>
   <g id="patch_28">
    <path d="M 282.568665 244.078125 
L 286.626847 244.078125 
L 286.626847 228.28264 
L 282.568665 228.28264 
z
" clip-path="url(#p4485e5346a)" style="fill: #66ccee; stroke: #222222; stroke-width: 0.3; stroke-linejoin: miter"/>
   </g>
   <g id="patch_29">
    <path d="M 307.932301 244.078125 
L 311.990483 244.078125 
L 311.990483 237.989683 
L 307.932301 237.989683 
z
" clip-path="url(#p4485e5346a)" style="fill: #66ccee; stroke: #222222; stroke-width: 0.3; stroke-linejoin: miter"/>
   </g>
   <g id="patch_30">
    <path d="M 333.295937 244.078125 
L 337.354119 244.078125 
L 337.354119 241.838038 
L 333.295937 241.838038 
z
" clip-path="url(#p4485e5346a)" style="fill: #66ccee; stroke: #222222; stroke-width: 0.3; stroke-linejoin: miter"/>
   </g>
   <g id="patch_31">
    <path d="M 358.659574 244.078125 
L 362.717756 244.078125 
L 362.717756 242.69961 
L 358.659574 242.69961 
z
" clip-path="url(#p4485e5346a)" style="fill: #66ccee; stroke: #222222; stroke-width: 0.3; stroke-linejoin: miter"/>
   </g>
   <g id="patch_32">
    <path d="M 384.02321 244.078125 
L 388.081392 244.078125 
L 388.081392 243.044239 
L 384.02321 243.044239 
z
" clip-path="url(#p4485e5346a)" style="fill: #66ccee; stroke: #222222; stroke-width: 0.3; stroke-linejoin: miter"/>
   </g>
   <g id="patch_33">
    <path d="M 409.386847 244.078125 
L 413.445028 244.078125 
L 413.445028 243.733496 
L 409.386847 243.733496 
z
" clip-path="url(#p4485e5346a)" style="fill: #66ccee; stroke: #222222; stroke-width: 0.3; stroke-linejoin: miter"/>
   </g>
   <g id="patch_34">
    <path d="M 434.750483 244.078125 
L 438.808665 244.078125 
L 438.808665 243.790934 
L 434.750483 243.790934 
z
" clip-path="url(#p4485e5346a)" style="fill: #66ccee; stroke: #222222; stroke-width: 0.3; stroke-linejoin: miter"/>
   </g>
   <g id="patch_35">
    <path d="M 460.114119 244.078125 
L 464.172301 244.078125 
L 464.172301 243.963249 
L 460.114119 243.963249 
z
" clip-path="url(#p4485e5346a)" style="fill: #66ccee; stroke: #222222; stroke-width: 0.3; stroke-linejoin: miter"/>
   </g>
   <g id="patch_36">
    <path d="M 485.477756 244.078125 
L 489.535937 244.078125 
L 489.535937 244.020687 
L 485.477756 244.020687 
z
" clip-path="url(#p4485e5346a)" style="fill: #66ccee; stroke: #222222; stroke-width: 0.3; stroke-linejoin: miter"/>
   </g>
   <g id="patch_37">
    <path d="M 83.717756 244.078125 
L 87.775938 244.078125 
L 87.775938 140.45974 
L 83.717756 140.45974 
z
" clip-path="url(#p4485e5346a)" style="fill: #44aa99; stroke: #222222; stroke-width: 0.3; stroke-linejoin: miter"/>
   </g>
   <g id="patch_38">
    <path d="M 109.081392 244.078125 
L 113.139574 244.078125 
L 113.139574 35.750031 
L 109.081392 35.750031 
z
" clip-path="url(#p4485e5346a)" style="fill: #44aa99; stroke: #222222; stroke-width: 0.3; stroke-linejoin: miter"/>
   </g>
   <g id="patch_39">
    <path d="M 134.445028 244.078125 
L 138.50321 244.078125 
L 138.50321 33.050439 
L 134.445028 33.050439 
z
" clip-path="url(#p4485e5346a)" style="fill: #44aa99; stroke: #222222; stroke-width: 0.3; stroke-linejoin: miter"/>
   </g>
   <g id="patch_40">
    <path d="M 159.808665 244.078125 
L 163.866847 244.078125 
L 163.866847 76.818294 
L 159.808665 76.818294 
z
" clip-path="url(#p4485e5346a)" style="fill: #44aa99; stroke: #222222; stroke-width: 0.3; stroke-linejoin: miter"/>
   </g>
   <g id="patch_41">
    <path d="M 185.172301 244.078125 
L 189.230483 244.078125 
L 189.230483 133.796917 
L 185.172301 133.796917 
z
" clip-path="url(#p4485e5346a)" style="fill: #44aa99; stroke: #222222; stroke-width: 0.3; stroke-linejoin: miter"/>
   </g>
   <g id="patch_42">
    <path d="M 210.535937 244.078125 
L 214.594119 244.078125 
L 214.594119 175.611875 
L 210.535937 175.611875 
z
" clip-path="url(#p4485e5346a)" style="fill: #44aa99; stroke: #222222; stroke-width: 0.3; stroke-linejoin: miter"/>
   </g>
   <g id="patch_43">
    <path d="M 235.899574 244.078125 
L 239.957756 244.078125 
L 239.957756 199.563575 
L 235.899574 199.563575 
z
" clip-path="url(#p4485e5346a)" style="fill: #44aa99; stroke: #222222; stroke-width: 0.3; stroke-linejoin: miter"/>
   </g>
   <g id="patch_44">
    <path d="M 261.26321 244.078125 
L 265.321392 244.078125 
L 265.321392 214.784679 
L 261.26321 214.784679 
z
" clip-path="url(#p4485e5346a)" style="fill: #44aa99; stroke: #222222; stroke-width: 0.3; stroke-linejoin: miter"/>
   </g>
   <g id="patch_45">
    <path d="M 286.626847 244.078125 
L 290.685028 244.078125 
L 290.685028 228.28264 
L 286.626847 228.28264 
z
" clip-path="url(#p4485e5346a)" style="fill: #44aa99; stroke: #222222; stroke-width: 0.3; stroke-linejoin: miter"/>
   </g>
   <g id="patch_46">
    <path d="M 311.990483 244.078125 
L 316.048665 244.078125 
L 316.048665 237.989683 
L 311.990483 237.989683 
z
" clip-path="url(#p4485e5346a)" style="fill: #44aa99; stroke: #222222; stroke-width: 0.3; stroke-linejoin: miter"/>
   </g>
   <g id="patch_47">
    <path d="M 337.354119 244.078125 
L 341.412301 244.078125 
L 341.412301 241.838038 
L 337.354119 241.838038 
z
" clip-path="url(#p4485e5346a)" style="fill: #44aa99; stroke: #222222; stroke-width: 0.3; stroke-linejoin: miter"/>
   </g>
   <g id="patch_48">
    <path d="M 362.717756 244.078125 
L 366.775937 244.078125 
L 366.775937 242.69961 
L 362.717756 242.69961 
z
" clip-path="url(#p4485e5346a)" style="fill: #44aa99; stroke: #222222; stroke-width: 0.3; stroke-linejoin: miter"/>
   </g>
   <g id="patch_49">
    <path d="M 388.081392 244.078125 
L 392.139574 244.078125 
L 392.139574 243.044239 
L 388.081392 243.044239 
z
" clip-path="url(#p4485e5346a)" style="fill: #44aa99; stroke: #222222; stroke-width: 0.3; stroke-linejoin: miter"/>
   </g>
   <g id="patch_50">
    <path d="M 413.445028 244.078125 
L 417.50321 244.078125 
L 417.50321 243.733496 
L 413.445028 243.733496 
z
" clip-path="url(#p4485e5346a)" style="fill: #44aa99; stroke: #222222; stroke-width: 0.3; stroke-linejoin: miter"/>
   </g>
   <g id="patch_51">
    <path d="M 438.808665 244.078125 
L 442.866847 244.078125 
L 442.866847 243.790934 
L 438.808665 243.790934 
z
" clip-path="url(#p4485e5346a)" style="fill: #44aa99; stroke: #222222; stroke-width: 0.3; stroke-linejoin: miter"/>
   </g>
   <g id="patch_52">
    <path d="M 464.172301 244.078125 
L 468.230483 244.078125 
L 468.230483 243.963249 
L 464.172301 243.963249 
z
" clip-path="url(#p4485e5346a)" style="fill: #44aa99; stroke: #222222; stroke-width: 0.3; stroke-linejoin: miter"/>
   </g>
   <g id="patch_53">
    <path d="M 489.535937 244.078125 
L 493.594119 244.078125 
L 493.594119 244.020687 
L 489.535937 244.020687 
z
" clip-path="url(#p4485e5346a)" style="fill: #44aa99; stroke: #222222; stroke-width: 0.3; stroke-linejoin: miter"/>
   </g>
   <g id="patch_54">
    <path d="M 87.775938 244.078125 
L 91.834119 244.078125 
L 91.834119 139.425854 
L 87.775938 139.425854 
z
" clip-path="url(#p4485e5346a)" style="fill: #4477aa; stroke: #222222; stroke-width: 0.3; stroke-linejoin: miter"/>
   </g>
   <g id="patch_55">
    <path d="M 113.139574 244.078125 
L 117.197756 244.078125 
L 117.197756 35.922346 
L 113.139574 35.922346 
z
" clip-path="url(#p4485e5346a)" style="fill: #4477aa; stroke: #222222; stroke-width: 0.3; stroke-linejoin: miter"/>
   </g>
   <g id="patch_56">
    <path d="M 138.50321 244.078125 
L 142.561392 244.078125 
L 142.561392 32.935563 
L 138.50321 32.935563 
z
" clip-path="url(#p4485e5346a)" style="fill: #4477aa; stroke: #222222; stroke-width: 0.3; stroke-linejoin: miter"/>
   </g>
   <g id="patch_57">
    <path d="M 163.866847 244.078125 
L 167.925028 244.078125 
L 167.925028 76.818294 
L 163.866847 76.818294 
z
" clip-path="url(#p4485e5346a)" style="fill: #4477aa; stroke: #222222; stroke-width: 0.3; stroke-linejoin: miter"/>
   </g>
   <g id="patch_58">
    <path d="M 189.230483 244.078125 
L 193.288665 244.078125 
L 193.288665 134.256423 
L 189.230483 134.256423 
z
" clip-path="url(#p4485e5346a)" style="fill: #4477aa; stroke: #222222; stroke-width: 0.3; stroke-linejoin: miter"/>
   </g>
   <g id="patch_59">
    <path d="M 214.594119 244.078125 
L 218.652301 244.078125 
L 218.652301 175.841628 
L 214.594119 175.841628 
z
" clip-path="url(#p4485e5346a)" style="fill: #4477aa; stroke: #222222; stroke-width: 0.3; stroke-linejoin: miter"/>
   </g>
   <g id="patch_60">
    <path d="M 239.957756 244.078125 
L 244.015938 244.078125 
L 244.015938 199.793328 
L 239.957756 199.793328 
z
" clip-path="url(#p4485e5346a)" style="fill: #4477aa; stroke: #222222; stroke-width: 0.3; stroke-linejoin: miter"/>
   </g>
   <g id="patch_61">
    <path d="M 265.321392 244.078125 
L 269.379574 244.078125 
L 269.379574 214.842117 
L 265.321392 214.842117 
z
" clip-path="url(#p4485e5346a)" style="fill: #4477aa; stroke: #222222; stroke-width: 0.3; stroke-linejoin: miter"/>
   </g>
   <g id="patch_62">
    <path d="M 290.685028 244.078125 
L 294.74321 244.078125 
L 294.74321 228.225201 
L 290.685028 228.225201 
z
" clip-path="url(#p4485e5346a)" style="fill: #4477aa; stroke: #222222; stroke-width: 0.3; stroke-linejoin: miter"/>
   </g>
   <g id="patch_63">
    <path d="M 316.048665 244.078125 
L 320.106847 244.078125 
L 320.106847 238.047121 
L 316.048665 238.047121 
z
" clip-path="url(#p4485e5346a)" style="fill: #4477aa; stroke: #222222; stroke-width: 0.3; stroke-linejoin: miter"/>
   </g>
   <g id="patch_64">
    <path d="M 341.412301 244.078125 
L 345.470483 244.078125 
L 345.470483 241.838038 
L 341.412301 241.838038 
z
" clip-path="url(#p4485e5346a)" style="fill: #4477aa; stroke: #222222; stroke-width: 0.3; stroke-linejoin: miter"/>
   </g>
   <g id="patch_65">
    <path d="M 366.775937 244.078125 
L 370.834119 244.078125 
L 370.834119 242.69961 
L 366.775937 242.69961 
z
" clip-path="url(#p4485e5346a)" style="fill: #4477aa; stroke: #222222; stroke-width: 0.3; stroke-linejoin: miter"/>
   </g>
   <g id="patch_66">
    <path d="M 392.139574 244.078125 
L 396.197756 244.078125 
L 396.197756 243.044239 
L 392.139574 243.044239 
z
" clip-path="url(#p4485e5346a)" style="fill: #4477aa; stroke: #222222; stroke-width: 0.3; stroke-linejoin: miter"/>
   </g>
   <g id="patch_67">
    <path d="M 417.50321 244.078125 
L 421.561392 244.078125 
L 421.561392 243.733496 
L 417.50321 243.733496 
z
" clip-path="url(#p4485e5346a)" style="fill: #4477aa; stroke: #222222; stroke-width: 0.3; stroke-linejoin: miter"/>
   </g>
   <g id="patch_68">
    <path d="M 442.866847 244.078125 
L 446.925028 244.078125 
L 446.925028 243.790934 
L 442.866847 243.790934 
z
" clip-path="url(#p4485e5346a)" style="fill: #4477aa; stroke: #222222; stroke-width: 0.3; stroke-linejoin: miter"/>
   </g>
   <g id="patch_69">
    <path d="M 468.230483 244.078125 
L 472.288665 244.078125 
L 472.288665 243.963249 
L 468.230483 243.963249 
z
" clip-path="url(#p4485e5346a)" style="fill: #4477aa; stroke: #222222; stroke-width: 0.3; stroke-linejoin: miter"/>
   </g>
   <g id="patch_70">
    <path d="M 493.594119 244.078125 
L 497.652301 244.078125 
L 497.652301 244.020687 
L 493.594119 244.020687 
z
" clip-path="url(#p4485e5346a)" style="fill: #4477aa; stroke: #222222; stroke-width: 0.3; stroke-linejoin: miter"/>
   </g>
   <g id="patch_71">
    <path d="M 91.834119 244.078125 
L 95.892301 244.078125 
L 95.892301 139.425854 
L 91.834119 139.425854 
z
" clip-path="url(#p4485e5346a)" style="fill: #aa3377; stroke: #222222; stroke-width: 0.3; stroke-linejoin: miter"/>
   </g>
   <g id="patch_72">
    <path d="M 117.197756 244.078125 
L 121.255938 244.078125 
L 121.255938 35.922346 
L 117.197756 35.922346 
z
" clip-path="url(#p4485e5346a)" style="fill: #aa3377; stroke: #222222; stroke-width: 0.3; stroke-linejoin: miter"/>
   </g>
   <g id="patch_73">
    <path d="M 142.561392 244.078125 
L 146.619574 244.078125 
L 146.619574 32.878125 
L 142.561392 32.878125 
z
" clip-path="url(#p4485e5346a)" style="fill: #aa3377; stroke: #222222; stroke-width: 0.3; stroke-linejoin: miter"/>
   </g>
   <g id="patch_74">
    <path d="M 167.925028 244.078125 
L 171.98321 244.078125 
L 171.98321 76.875732 
L 167.925028 76.875732 
z
" clip-path="url(#p4485e5346a)" style="fill: #aa3377; stroke: #222222; stroke-width: 0.3; stroke-linejoin: miter"/>
   </g>
   <g id="patch_75">
    <path d="M 193.288665 244.078125 
L 197.346847 244.078125 
L 197.346847 134.141546 
L 193.288665 134.141546 
z
" clip-path="url(#p4485e5346a)" style="fill: #aa3377; stroke: #222222; stroke-width: 0.3; stroke-linejoin: miter"/>
   </g>
   <g id="patch_76">
    <path d="M 218.652301 244.078125 
L 222.710483 244.078125 
L 222.710483 175.899066 
L 218.652301 175.899066 
z
" clip-path="url(#p4485e5346a)" style="fill: #aa3377; stroke: #222222; stroke-width: 0.3; stroke-linejoin: miter"/>
   </g>
   <g id="patch_77">
    <path d="M 244.015938 244.078125 
L 248.074119 244.078125 
L 248.074119 199.850766 
L 244.015938 199.850766 
z
" clip-path="url(#p4485e5346a)" style="fill: #aa3377; stroke: #222222; stroke-width: 0.3; stroke-linejoin: miter"/>
   </g>
   <g id="patch_78">
    <path d="M 269.379574 244.078125 
L 273.437756 244.078125 
L 273.437756 214.842117 
L 269.379574 214.842117 
z
" clip-path="url(#p4485e5346a)" style="fill: #aa3377; stroke: #222222; stroke-width: 0.3; stroke-linejoin: miter"/>
   </g>
   <g id="patch_79">
    <path d="M 294.74321 244.078125 
L 298.801392 244.078125 
L 298.801392 228.225201 
L 294.74321 228.225201 
z
" clip-path="url(#p4485e5346a)" style="fill: #aa3377; stroke: #222222; stroke-width: 0.3; stroke-linejoin: miter"/>
   </g>
   <g id="patch_80">
    <path d="M 320.106847 244.078125 
L 324.165028 244.078125 
L 324.165028 238.047121 
L 320.106847 238.047121 
z
" clip-path="url(#p4485e5346a)" style="fill: #aa3377; stroke: #222222; stroke-width: 0.3; stroke-linejoin: miter"/>
   </g>
   <g id="patch_81">
    <path d="M 345.470483 244.078125 
L 349.528665 244.078125 
L 349.528665 241.838038 
L 345.470483 241.838038 
z
" clip-path="url(#p4485e5346a)" style="fill: #aa3377; stroke: #222222; stroke-width: 0.3; stroke-linejoin: miter"/>
   </g>
   <g id="patch_82">
    <path d="M 370.834119 244.078125 
L 374.892301 244.078125 
L 374.892301 242.69961 
L 370.834119 242.69961 
z
" clip-path="url(#p4485e5346a)" style="fill: #aa3377; stroke: #222222; stroke-width: 0.3; stroke-linejoin: miter"/>
   </g>
   <g id="patch_83">
    <path d="M 396.197756 244.078125 
L 400.255937 244.078125 
L 400.255937 243.044239 
L 396.197756 243.044239 
z
" clip-path="url(#p4485e5346a)" style="fill: #aa3377; stroke: #222222; stroke-width: 0.3; stroke-linejoin: miter"/>
   </g>
   <g id="patch_84">
    <path d="M 421.561392 244.078125 
L 425.619574 244.078125 
L 425.619574 243.733496 
L 421.561392 243.733496 
z
" clip-path="url(#p4485e5346a)" style="fill: #aa3377; stroke: #222222; stroke-width: 0.3; stroke-linejoin: miter"/>
   </g>
   <g id="patch_85">
    <path d="M 446.925028 244.078125 
L 450.98321 244.078125 
L 450.98321 243.790934 
L 446.925028 243.790934 
z
" clip-path="url(#p4485e5346a)" style="fill: #aa3377; stroke: #222222; stroke-width: 0.3; stroke-linejoin: miter"/>
   </g>
   <g id="patch_86">
    <path d="M 472.288665 244.078125 
L 476.346847 244.078125 
L 476.346847 243.963249 
L 472.288665 243.963249 
z
" clip-path="url(#p4485e5346a)" style="fill: #aa3377; stroke: #222222; stroke-width: 0.3; stroke-linejoin: miter"/>
   </g>
   <g id="patch_87">
    <path d="M 497.652301 244.078125 
L 501.710483 244.078125 
L 501.710483 244.020687 
L 497.652301 244.020687 
z
" clip-path="url(#p4485e5346a)" style="fill: #aa3377; stroke: #222222; stroke-width: 0.3; stroke-linejoin: miter"/>
   </g>
   <g id="matplotlib.axis_1">
    <g id="xtick_1">
     <g id="line2d_1">
      <path d="M 85.746847 244.078125 
L 85.746847 22.318125 
" clip-path="url(#p4485e5346a)" style="fill: none; stroke-dasharray: 2.96,1.28; stroke-dashoffset: 0; stroke: #b0b0b0; stroke-opacity: 0.3; stroke-width: 0.8"/>
     </g>
     <g id="line2d_2">
      <defs>
       <path id="mc41d17f381" d="M 0 0 
L 0 3.5 
" style="stroke: #000000; stroke-width: 0.8"/>
      </defs>
      <g>
       <use xlink:href="#mc41d17f381" x="85.746847" y="244.078125" style="stroke: #000000; stroke-width: 0.8"/>
      </g>
     </g>
     <g id="text_1">
      <!-- 1 -->
      <g transform="translate(82.565597 258.676563) scale(0.1 -0.1)">
       <defs>
        <path id="DejaVuSans-31" d="M 794 531 
L 1825 531 
L 1825 4091 
L 703 3866 
L 703 4441 
L 1819 4666 
L 2450 4666 
L 2450 531 
L 3481 531 
L 3481 0 
L 794 0 
L 794 531 
z
" transform="scale(0.015625)"/>
       </defs>
       <use xlink:href="#DejaVuSans-31"/>
      </g>
     </g>
    </g>
    <g id="xtick_2">
     <g id="line2d_3">
      <path d="M 111.110483 244.078125 
L 111.110483 22.318125 
" clip-path="url(#p4485e5346a)" style="fill: none; stroke-dasharray: 2.96,1.28; stroke-dashoffset: 0; stroke: #b0b0b0; stroke-opacity: 0.3; stroke-width: 0.8"/>
     </g>
     <g id="line2d_4">
      <g>
       <use xlink:href="#mc41d17f381" x="111.110483" y="244.078125" style="stroke: #000000; stroke-width: 0.8"/>
      </g>
     </g>
     <g id="text_2">
      <!-- 2 -->
      <g transform="translate(107.929233 258.676563) scale(0.1 -0.1)">
       <defs>
        <path id="DejaVuSans-32" d="M 1228 531 
L 3431 531 
L 3431 0 
L 469 0 
L 469 531 
Q 828 903 1448 1529 
Q 2069 2156 2228 2338 
Q 2531 2678 2651 2914 
Q 2772 3150 2772 3378 
Q 2772 3750 2511 3984 
Q 2250 4219 1831 4219 
Q 1534 4219 1204 4116 
Q 875 4013 500 3803 
L 500 4441 
Q 881 4594 1212 4672 
Q 1544 4750 1819 4750 
Q 2544 4750 2975 4387 
Q 3406 4025 3406 3419 
Q 3406 3131 3298 2873 
Q 3191 2616 2906 2266 
Q 2828 2175 2409 1742 
Q 1991 1309 1228 531 
z
" transform="scale(0.015625)"/>
       </defs>
       <use xlink:href="#DejaVuSans-32"/>
      </g>
     </g>
    </g>
    <g id="xtick_3">
     <g id="line2d_5">
      <path d="M 136.474119 244.078125 
L 136.474119 22.318125 
" clip-path="url(#p4485e5346a)" style="fill: none; stroke-dasharray: 2.96,1.28; stroke-dashoffset: 0; stroke: #b0b0b0; stroke-opacity: 0.3; stroke-width: 0.8"/>
     </g>
     <g id="line2d_6">
      <g>
       <use xlink:href="#mc41d17f381" x="136.474119" y="244.078125" style="stroke: #000000; stroke-width: 0.8"/>
      </g>
     </g>
     <g id="text_3">
      <!-- 3 -->
      <g transform="translate(133.292869 258.676563) scale(0.1 -0.1)">
       <defs>
        <path id="DejaVuSans-33" d="M 2597 2516 
Q 3050 2419 3304 2112 
Q 3559 1806 3559 1356 
Q 3559 666 3084 287 
Q 2609 -91 1734 -91 
Q 1441 -91 1130 -33 
Q 819 25 488 141 
L 488 750 
Q 750 597 1062 519 
Q 1375 441 1716 441 
Q 2309 441 2620 675 
Q 2931 909 2931 1356 
Q 2931 1769 2642 2001 
Q 2353 2234 1838 2234 
L 1294 2234 
L 1294 2753 
L 1863 2753 
Q 2328 2753 2575 2939 
Q 2822 3125 2822 3475 
Q 2822 3834 2567 4026 
Q 2313 4219 1838 4219 
Q 1578 4219 1281 4162 
Q 984 4106 628 3988 
L 628 4550 
Q 988 4650 1302 4700 
Q 1616 4750 1894 4750 
Q 2613 4750 3031 4423 
Q 3450 4097 3450 3541 
Q 3450 3153 3228 2886 
Q 3006 2619 2597 2516 
z
" transform="scale(0.015625)"/>
       </defs>
       <use xlink:href="#DejaVuSans-33"/>
      </g>
     </g>
    </g>
    <g id="xtick_4">
     <g id="line2d_7">
      <path d="M 161.837756 244.078125 
L 161.837756 22.318125 
" clip-path="url(#p4485e5346a)" style="fill: none; stroke-dasharray: 2.96,1.28; stroke-dashoffset: 0; stroke: #b0b0b0; stroke-opacity: 0.3; stroke-width: 0.8"/>
     </g>
     <g id="line2d_8">
      <g>
       <use xlink:href="#mc41d17f381" x="161.837756" y="244.078125" style="stroke: #000000; stroke-width: 0.8"/>
      </g>
     </g>
     <g id="text_4">
      <!-- 4 -->
      <g transform="translate(158.656506 258.676563) scale(0.1 -0.1)">
       <defs>
        <path id="DejaVuSans-34" d="M 2419 4116 
L 825 1625 
L 2419 1625 
L 2419 4116 
z
M 2253 4666 
L 3047 4666 
L 3047 1625 
L 3713 1625 
L 3713 1100 
L 3047 1100 
L 3047 0 
L 2419 0 
L 2419 1100 
L 313 1100 
L 313 1709 
L 2253 4666 
z
" transform="scale(0.015625)"/>
       </defs>
       <use xlink:href="#DejaVuSans-34"/>
      </g>
     </g>
    </g>
    <g id="xtick_5">
     <g id="line2d_9">
      <path d="M 187.201392 244.078125 
L 187.201392 22.318125 
" clip-path="url(#p4485e5346a)" style="fill: none; stroke-dasharray: 2.96,1.28; stroke-dashoffset: 0; stroke: #b0b0b0; stroke-opacity: 0.3; stroke-width: 0.8"/>
     </g>
     <g id="line2d_10">
      <g>
       <use xlink:href="#mc41d17f381" x="187.201392" y="244.078125" style="stroke: #000000; stroke-width: 0.8"/>
      </g>
     </g>
     <g id="text_5">
      <!-- 5 -->
      <g transform="translate(184.020142 258.676563) scale(0.1 -0.1)">
       <defs>
        <path id="DejaVuSans-35" d="M 691 4666 
L 3169 4666 
L 3169 4134 
L 1269 4134 
L 1269 2991 
Q 1406 3038 1543 3061 
Q 1681 3084 1819 3084 
Q 2600 3084 3056 2656 
Q 3513 2228 3513 1497 
Q 3513 744 3044 326 
Q 2575 -91 1722 -91 
Q 1428 -91 1123 -41 
Q 819 9 494 109 
L 494 744 
Q 775 591 1075 516 
Q 1375 441 1709 441 
Q 2250 441 2565 725 
Q 2881 1009 2881 1497 
Q 2881 1984 2565 2268 
Q 2250 2553 1709 2553 
Q 1456 2553 1204 2497 
Q 953 2441 691 2322 
L 691 4666 
z
" transform="scale(0.015625)"/>
       </defs>
       <use xlink:href="#DejaVuSans-35"/>
      </g>
     </g>
    </g>
    <g id="xtick_6">
     <g id="line2d_11">
      <path d="M 212.565028 244.078125 
L 212.565028 22.318125 
" clip-path="url(#p4485e5346a)" style="fill: none; stroke-dasharray: 2.96,1.28; stroke-dashoffset: 0; stroke: #b0b0b0; stroke-opacity: 0.3; stroke-width: 0.8"/>
     </g>
     <g id="line2d_12">
      <g>
       <use xlink:href="#mc41d17f381" x="212.565028" y="244.078125" style="stroke: #000000; stroke-width: 0.8"/>
      </g>
     </g>
     <g id="text_6">
      <!-- 6 -->
      <g transform="translate(209.383778 258.676563) scale(0.1 -0.1)">
       <defs>
        <path id="DejaVuSans-36" d="M 2113 2584 
Q 1688 2584 1439 2293 
Q 1191 2003 1191 1497 
Q 1191 994 1439 701 
Q 1688 409 2113 409 
Q 2538 409 2786 701 
Q 3034 994 3034 1497 
Q 3034 2003 2786 2293 
Q 2538 2584 2113 2584 
z
M 3366 4563 
L 3366 3988 
Q 3128 4100 2886 4159 
Q 2644 4219 2406 4219 
Q 1781 4219 1451 3797 
Q 1122 3375 1075 2522 
Q 1259 2794 1537 2939 
Q 1816 3084 2150 3084 
Q 2853 3084 3261 2657 
Q 3669 2231 3669 1497 
Q 3669 778 3244 343 
Q 2819 -91 2113 -91 
Q 1303 -91 875 529 
Q 447 1150 447 2328 
Q 447 3434 972 4092 
Q 1497 4750 2381 4750 
Q 2619 4750 2861 4703 
Q 3103 4656 3366 4563 
z
" transform="scale(0.015625)"/>
       </defs>
       <use xlink:href="#DejaVuSans-36"/>
      </g>
     </g>
    </g>
    <g id="xtick_7">
     <g id="line2d_13">
      <path d="M 237.928665 244.078125 
L 237.928665 22.318125 
" clip-path="url(#p4485e5346a)" style="fill: none; stroke-dasharray: 2.96,1.28; stroke-dashoffset: 0; stroke: #b0b0b0; stroke-opacity: 0.3; stroke-width: 0.8"/>
     </g>
     <g id="line2d_14">
      <g>
       <use xlink:href="#mc41d17f381" x="237.928665" y="244.078125" style="stroke: #000000; stroke-width: 0.8"/>
      </g>
     </g>
     <g id="text_7">
      <!-- 7 -->
      <g transform="translate(234.747415 258.676563) scale(0.1 -0.1)">
       <defs>
        <path id="DejaVuSans-37" d="M 525 4666 
L 3525 4666 
L 3525 4397 
L 1831 0 
L 1172 0 
L 2766 4134 
L 525 4134 
L 525 4666 
z
" transform="scale(0.015625)"/>
       </defs>
       <use xlink:href="#DejaVuSans-37"/>
      </g>
     </g>
    </g>
    <g id="xtick_8">
     <g id="line2d_15">
      <path d="M 263.292301 244.078125 
L 263.292301 22.318125 
" clip-path="url(#p4485e5346a)" style="fill: none; stroke-dasharray: 2.96,1.28; stroke-dashoffset: 0; stroke: #b0b0b0; stroke-opacity: 0.3; stroke-width: 0.8"/>
     </g>
     <g id="line2d_16">
      <g>
       <use xlink:href="#mc41d17f381" x="263.292301" y="244.078125" style="stroke: #000000; stroke-width: 0.8"/>
      </g>
     </g>
     <g id="text_8">
      <!-- 8 -->
      <g transform="translate(260.111051 258.676563) scale(0.1 -0.1)">
       <defs>
        <path id="DejaVuSans-38" d="M 2034 2216 
Q 1584 2216 1326 1975 
Q 1069 1734 1069 1313 
Q 1069 891 1326 650 
Q 1584 409 2034 409 
Q 2484 409 2743 651 
Q 3003 894 3003 1313 
Q 3003 1734 2745 1975 
Q 2488 2216 2034 2216 
z
M 1403 2484 
Q 997 2584 770 2862 
Q 544 3141 544 3541 
Q 544 4100 942 4425 
Q 1341 4750 2034 4750 
Q 2731 4750 3128 4425 
Q 3525 4100 3525 3541 
Q 3525 3141 3298 2862 
Q 3072 2584 2669 2484 
Q 3125 2378 3379 2068 
Q 3634 1759 3634 1313 
Q 3634 634 3220 271 
Q 2806 -91 2034 -91 
Q 1263 -91 848 271 
Q 434 634 434 1313 
Q 434 1759 690 2068 
Q 947 2378 1403 2484 
z
M 1172 3481 
Q 1172 3119 1398 2916 
Q 1625 2713 2034 2713 
Q 2441 2713 2670 2916 
Q 2900 3119 2900 3481 
Q 2900 3844 2670 4047 
Q 2441 4250 2034 4250 
Q 1625 4250 1398 4047 
Q 1172 3844 1172 3481 
z
" transform="scale(0.015625)"/>
       </defs>
       <use xlink:href="#DejaVuSans-38"/>
      </g>
     </g>
    </g>
    <g id="xtick_9">
     <g id="line2d_17">
      <path d="M 288.655937 244.078125 
L 288.655937 22.318125 
" clip-path="url(#p4485e5346a)" style="fill: none; stroke-dasharray: 2.96,1.28; stroke-dashoffset: 0; stroke: #b0b0b0; stroke-opacity: 0.3; stroke-width: 0.8"/>
     </g>
     <g id="line2d_18">
      <g>
       <use xlink:href="#mc41d17f381" x="288.655937" y="244.078125" style="stroke: #000000; stroke-width: 0.8"/>
      </g>
     </g>
     <g id="text_9">
      <!-- 9 -->
      <g transform="translate(285.474688 258.676563) scale(0.1 -0.1)">
       <defs>
        <path id="DejaVuSans-39" d="M 703 97 
L 703 672 
Q 941 559 1184 500 
Q 1428 441 1663 441 
Q 2288 441 2617 861 
Q 2947 1281 2994 2138 
Q 2813 1869 2534 1725 
Q 2256 1581 1919 1581 
Q 1219 1581 811 2004 
Q 403 2428 403 3163 
Q 403 3881 828 4315 
Q 1253 4750 1959 4750 
Q 2769 4750 3195 4129 
Q 3622 3509 3622 2328 
Q 3622 1225 3098 567 
Q 2575 -91 1691 -91 
Q 1453 -91 1209 -44 
Q 966 3 703 97 
z
M 1959 2075 
Q 2384 2075 2632 2365 
Q 2881 2656 2881 3163 
Q 2881 3666 2632 3958 
Q 2384 4250 1959 4250 
Q 1534 4250 1286 3958 
Q 1038 3666 1038 3163 
Q 1038 2656 1286 2365 
Q 1534 2075 1959 2075 
z
" transform="scale(0.015625)"/>
       </defs>
       <use xlink:href="#DejaVuSans-39"/>
      </g>
     </g>
    </g>
    <g id="xtick_10">
     <g id="line2d_19">
      <path d="M 314.019574 244.078125 
L 314.019574 22.318125 
" clip-path="url(#p4485e5346a)" style="fill: none; stroke-dasharray: 2.96,1.28; stroke-dashoffset: 0; stroke: #b0b0b0; stroke-opacity: 0.3; stroke-width: 0.8"/>
     </g>
     <g id="line2d_20">
      <g>
       <use xlink:href="#mc41d17f381" x="314.019574" y="244.078125" style="stroke: #000000; stroke-width: 0.8"/>
      </g>
     </g>
     <g id="text_10">
      <!-- 10 -->
      <g transform="translate(307.657074 258.676563) scale(0.1 -0.1)">
       <defs>
        <path id="DejaVuSans-30" d="M 2034 4250 
Q 1547 4250 1301 3770 
Q 1056 3291 1056 2328 
Q 1056 1369 1301 889 
Q 1547 409 2034 409 
Q 2525 409 2770 889 
Q 3016 1369 3016 2328 
Q 3016 3291 2770 3770 
Q 2525 4250 2034 4250 
z
M 2034 4750 
Q 2819 4750 3233 4129 
Q 3647 3509 3647 2328 
Q 3647 1150 3233 529 
Q 2819 -91 2034 -91 
Q 1250 -91 836 529 
Q 422 1150 422 2328 
Q 422 3509 836 4129 
Q 1250 4750 2034 4750 
z
" transform="scale(0.015625)"/>
       </defs>
       <use xlink:href="#DejaVuSans-31"/>
       <use xlink:href="#DejaVuSans-30" transform="translate(63.623047 0)"/>
      </g>
     </g>
    </g>
    <g id="xtick_11">
     <g id="line2d_21">
      <path d="M 339.38321 244.078125 
L 339.38321 22.318125 
" clip-path="url(#p4485e5346a)" style="fill: none; stroke-dasharray: 2.96,1.28; stroke-dashoffset: 0; stroke: #b0b0b0; stroke-opacity: 0.3; stroke-width: 0.8"/>
     </g>
     <g id="line2d_22">
      <g>
       <use xlink:href="#mc41d17f381" x="339.38321" y="244.078125" style="stroke: #000000; stroke-width: 0.8"/>
      </g>
     </g>
     <g id="text_11">
      <!-- 11 -->
      <g transform="translate(333.02071 258.676563) scale(0.1 -0.1)">
       <use xlink:href="#DejaVuSans-31"/>
       <use xlink:href="#DejaVuSans-31" transform="translate(63.623047 0)"/>
      </g>
     </g>
    </g>
    <g id="xtick_12">
     <g id="line2d_23">
      <path d="M 364.746847 244.078125 
L 364.746847 22.318125 
" clip-path="url(#p4485e5346a)" style="fill: none; stroke-dasharray: 2.96,1.28; stroke-dashoffset: 0; stroke: #b0b0b0; stroke-opacity: 0.3; stroke-width: 0.8"/>
     </g>
     <g id="line2d_24">
      <g>
       <use xlink:href="#mc41d17f381" x="364.746847" y="244.078125" style="stroke: #000000; stroke-width: 0.8"/>
      </g>
     </g>
     <g id="text_12">
      <!-- 12 -->
      <g transform="translate(358.384347 258.676563) scale(0.1 -0.1)">
       <use xlink:href="#DejaVuSans-31"/>
       <use xlink:href="#DejaVuSans-32" transform="translate(63.623047 0)"/>
      </g>
     </g>
    </g>
    <g id="xtick_13">
     <g id="line2d_25">
      <path d="M 390.110483 244.078125 
L 390.110483 22.318125 
" clip-path="url(#p4485e5346a)" style="fill: none; stroke-dasharray: 2.96,1.28; stroke-dashoffset: 0; stroke: #b0b0b0; stroke-opacity: 0.3; stroke-width: 0.8"/>
     </g>
     <g id="line2d_26">
      <g>
       <use xlink:href="#mc41d17f381" x="390.110483" y="244.078125" style="stroke: #000000; stroke-width: 0.8"/>
      </g>
     </g>
     <g id="text_13">
      <!-- 13 -->
      <g transform="translate(383.747983 258.676563) scale(0.1 -0.1)">
       <use xlink:href="#DejaVuSans-31"/>
       <use xlink:href="#DejaVuSans-33" transform="translate(63.623047 0)"/>
      </g>
     </g>
    </g>
    <g id="xtick_14">
     <g id="line2d_27">
      <path d="M 415.474119 244.078125 
L 415.474119 22.318125 
" clip-path="url(#p4485e5346a)" style="fill: none; stroke-dasharray: 2.96,1.28; stroke-dashoffset: 0; stroke: #b0b0b0; stroke-opacity: 0.3; stroke-width: 0.8"/>
     </g>
     <g id="line2d_28">
      <g>
       <use xlink:href="#mc41d17f381" x="415.474119" y="244.078125" style="stroke: #000000; stroke-width: 0.8"/>
      </g>
     </g>
     <g id="text_14">
      <!-- 14 -->
      <g transform="translate(409.111619 258.676563) scale(0.1 -0.1)">
       <use xlink:href="#DejaVuSans-31"/>
       <use xlink:href="#DejaVuSans-34" transform="translate(63.623047 0)"/>
      </g>
     </g>
    </g>
    <g id="xtick_15">
     <g id="line2d_29">
      <path d="M 440.837756 244.078125 
L 440.837756 22.318125 
" clip-path="url(#p4485e5346a)" style="fill: none; stroke-dasharray: 2.96,1.28; stroke-dashoffset: 0; stroke: #b0b0b0; stroke-opacity: 0.3; stroke-width: 0.8"/>
     </g>
     <g id="line2d_30">
      <g>
       <use xlink:href="#mc41d17f381" x="440.837756" y="244.078125" style="stroke: #000000; stroke-width: 0.8"/>
      </g>
     </g>
     <g id="text_15">
      <!-- 15 -->
      <g transform="translate(434.475256 258.676563) scale(0.1 -0.1)">
       <use xlink:href="#DejaVuSans-31"/>
       <use xlink:href="#DejaVuSans-35" transform="translate(63.623047 0)"/>
      </g>
     </g>
    </g>
    <g id="xtick_16">
     <g id="line2d_31">
      <path d="M 466.201392 244.078125 
L 466.201392 22.318125 
" clip-path="url(#p4485e5346a)" style="fill: none; stroke-dasharray: 2.96,1.28; stroke-dashoffset: 0; stroke: #b0b0b0; stroke-opacity: 0.3; stroke-width: 0.8"/>
     </g>
     <g id="line2d_32">
      <g>
       <use xlink:href="#mc41d17f381" x="466.201392" y="244.078125" style="stroke: #000000; stroke-width: 0.8"/>
      </g>
     </g>
     <g id="text_16">
      <!-- 16 -->
      <g transform="translate(459.838892 258.676563) scale(0.1 -0.1)">
       <use xlink:href="#DejaVuSans-31"/>
       <use xlink:href="#DejaVuSans-36" transform="translate(63.623047 0)"/>
      </g>
     </g>
    </g>
    <g id="xtick_17">
     <g id="line2d_33">
      <path d="M 491.565028 244.078125 
L 491.565028 22.318125 
" clip-path="url(#p4485e5346a)" style="fill: none; stroke-dasharray: 2.96,1.28; stroke-dashoffset: 0; stroke: #b0b0b0; stroke-opacity: 0.3; stroke-width: 0.8"/>
     </g>
     <g id="line2d_34">
      <g>
       <use xlink:href="#mc41d17f381" x="491.565028" y="244.078125" style="stroke: #000000; stroke-width: 0.8"/>
      </g>
     </g>
     <g id="text_17">
      <!-- 17 -->
      <g transform="translate(485.202528 258.676563) scale(0.1 -0.1)">
       <use xlink:href="#DejaVuSans-31"/>
       <use xlink:href="#DejaVuSans-37" transform="translate(63.623047 0)"/>
      </g>
     </g>
    </g>
    <g id="text_18">
     <!-- residual anonymity-set size (lower bound) -->
     <g transform="translate(173.008984 273.114531) scale(0.11 -0.11)">
      <defs>
       <path id="DejaVuSans-72" d="M 2631 2963 
Q 2534 3019 2420 3045 
Q 2306 3072 2169 3072 
Q 1681 3072 1420 2755 
Q 1159 2438 1159 1844 
L 1159 0 
L 581 0 
L 581 3500 
L 1159 3500 
L 1159 2956 
Q 1341 3275 1631 3429 
Q 1922 3584 2338 3584 
Q 2397 3584 2469 3576 
Q 2541 3569 2628 3553 
L 2631 2963 
z
" transform="scale(0.015625)"/>
       <path id="DejaVuSans-65" d="M 3597 1894 
L 3597 1613 
L 953 1613 
Q 991 1019 1311 708 
Q 1631 397 2203 397 
Q 2534 397 2845 478 
Q 3156 559 3463 722 
L 3463 178 
Q 3153 47 2828 -22 
Q 2503 -91 2169 -91 
Q 1331 -91 842 396 
Q 353 884 353 1716 
Q 353 2575 817 3079 
Q 1281 3584 2069 3584 
Q 2775 3584 3186 3129 
Q 3597 2675 3597 1894 
z
M 3022 2063 
Q 3016 2534 2758 2815 
Q 2500 3097 2075 3097 
Q 1594 3097 1305 2825 
Q 1016 2553 972 2059 
L 3022 2063 
z
" transform="scale(0.015625)"/>
       <path id="DejaVuSans-73" d="M 2834 3397 
L 2834 2853 
Q 2591 2978 2328 3040 
Q 2066 3103 1784 3103 
Q 1356 3103 1142 2972 
Q 928 2841 928 2578 
Q 928 2378 1081 2264 
Q 1234 2150 1697 2047 
L 1894 2003 
Q 2506 1872 2764 1633 
Q 3022 1394 3022 966 
Q 3022 478 2636 193 
Q 2250 -91 1575 -91 
Q 1294 -91 989 -36 
Q 684 19 347 128 
L 347 722 
Q 666 556 975 473 
Q 1284 391 1588 391 
Q 1994 391 2212 530 
Q 2431 669 2431 922 
Q 2431 1156 2273 1281 
Q 2116 1406 1581 1522 
L 1381 1569 
Q 847 1681 609 1914 
Q 372 2147 372 2553 
Q 372 3047 722 3315 
Q 1072 3584 1716 3584 
Q 2034 3584 2315 3537 
Q 2597 3491 2834 3397 
z
" transform="scale(0.015625)"/>
       <path id="DejaVuSans-69" d="M 603 3500 
L 1178 3500 
L 1178 0 
L 603 0 
L 603 3500 
z
M 603 4863 
L 1178 4863 
L 1178 4134 
L 603 4134 
L 603 4863 
z
" transform="scale(0.015625)"/>
       <path id="DejaVuSans-64" d="M 2906 2969 
L 2906 4863 
L 3481 4863 
L 3481 0 
L 2906 0 
L 2906 525 
Q 2725 213 2448 61 
Q 2172 -91 1784 -91 
Q 1150 -91 751 415 
Q 353 922 353 1747 
Q 353 2572 751 3078 
Q 1150 3584 1784 3584 
Q 2172 3584 2448 3432 
Q 2725 3281 2906 2969 
z
M 947 1747 
Q 947 1113 1208 752 
Q 1469 391 1925 391 
Q 2381 391 2643 752 
Q 2906 1113 2906 1747 
Q 2906 2381 2643 2742 
Q 2381 3103 1925 3103 
Q 1469 3103 1208 2742 
Q 947 2381 947 1747 
z
" transform="scale(0.015625)"/>
       <path id="DejaVuSans-75" d="M 544 1381 
L 544 3500 
L 1119 3500 
L 1119 1403 
Q 1119 906 1312 657 
Q 1506 409 1894 409 
Q 2359 409 2629 706 
Q 2900 1003 2900 1516 
L 2900 3500 
L 3475 3500 
L 3475 0 
L 2900 0 
L 2900 538 
Q 2691 219 2414 64 
Q 2138 -91 1772 -91 
Q 1169 -91 856 284 
Q 544 659 544 1381 
z
M 1991 3584 
L 1991 3584 
z
" transform="scale(0.015625)"/>
       <path id="DejaVuSans-61" d="M 2194 1759 
Q 1497 1759 1228 1600 
Q 959 1441 959 1056 
Q 959 750 1161 570 
Q 1363 391 1709 391 
Q 2188 391 2477 730 
Q 2766 1069 2766 1631 
L 2766 1759 
L 2194 1759 
z
M 3341 1997 
L 3341 0 
L 2766 0 
L 2766 531 
Q 2569 213 2275 61 
Q 1981 -91 1556 -91 
Q 1019 -91 701 211 
Q 384 513 384 1019 
Q 384 1609 779 1909 
Q 1175 2209 1959 2209 
L 2766 2209 
L 2766 2266 
Q 2766 2663 2505 2880 
Q 2244 3097 1772 3097 
Q 1472 3097 1187 3025 
Q 903 2953 641 2809 
L 641 3341 
Q 956 3463 1253 3523 
Q 1550 3584 1831 3584 
Q 2591 3584 2966 3190 
Q 3341 2797 3341 1997 
z
" transform="scale(0.015625)"/>
       <path id="DejaVuSans-6c" d="M 603 4863 
L 1178 4863 
L 1178 0 
L 603 0 
L 603 4863 
z
" transform="scale(0.015625)"/>
       <path id="DejaVuSans-20" transform="scale(0.015625)"/>
       <path id="DejaVuSans-6e" d="M 3513 2113 
L 3513 0 
L 2938 0 
L 2938 2094 
Q 2938 2591 2744 2837 
Q 2550 3084 2163 3084 
Q 1697 3084 1428 2787 
Q 1159 2491 1159 1978 
L 1159 0 
L 581 0 
L 581 3500 
L 1159 3500 
L 1159 2956 
Q 1366 3272 1645 3428 
Q 1925 3584 2291 3584 
Q 2894 3584 3203 3211 
Q 3513 2838 3513 2113 
z
" transform="scale(0.015625)"/>
       <path id="DejaVuSans-6f" d="M 1959 3097 
Q 1497 3097 1228 2736 
Q 959 2375 959 1747 
Q 959 1119 1226 758 
Q 1494 397 1959 397 
Q 2419 397 2687 759 
Q 2956 1122 2956 1747 
Q 2956 2369 2687 2733 
Q 2419 3097 1959 3097 
z
M 1959 3584 
Q 2709 3584 3137 3096 
Q 3566 2609 3566 1747 
Q 3566 888 3137 398 
Q 2709 -91 1959 -91 
Q 1206 -91 779 398 
Q 353 888 353 1747 
Q 353 2609 779 3096 
Q 1206 3584 1959 3584 
z
" transform="scale(0.015625)"/>
       <path id="DejaVuSans-79" d="M 2059 -325 
Q 1816 -950 1584 -1140 
Q 1353 -1331 966 -1331 
L 506 -1331 
L 506 -850 
L 844 -850 
Q 1081 -850 1212 -737 
Q 1344 -625 1503 -206 
L 1606 56 
L 191 3500 
L 800 3500 
L 1894 763 
L 2988 3500 
L 3597 3500 
L 2059 -325 
z
" transform="scale(0.015625)"/>
       <path id="DejaVuSans-6d" d="M 3328 2828 
Q 3544 3216 3844 3400 
Q 4144 3584 4550 3584 
Q 5097 3584 5394 3201 
Q 5691 2819 5691 2113 
L 5691 0 
L 5113 0 
L 5113 2094 
Q 5113 2597 4934 2840 
Q 4756 3084 4391 3084 
Q 3944 3084 3684 2787 
Q 3425 2491 3425 1978 
L 3425 0 
L 2847 0 
L 2847 2094 
Q 2847 2600 2669 2842 
Q 2491 3084 2119 3084 
Q 1678 3084 1418 2786 
Q 1159 2488 1159 1978 
L 1159 0 
L 581 0 
L 581 3500 
L 1159 3500 
L 1159 2956 
Q 1356 3278 1631 3431 
Q 1906 3584 2284 3584 
Q 2666 3584 2933 3390 
Q 3200 3197 3328 2828 
z
" transform="scale(0.015625)"/>
       <path id="DejaVuSans-74" d="M 1172 4494 
L 1172 3500 
L 2356 3500 
L 2356 3053 
L 1172 3053 
L 1172 1153 
Q 1172 725 1289 603 
Q 1406 481 1766 481 
L 2356 481 
L 2356 0 
L 1766 0 
Q 1100 0 847 248 
Q 594 497 594 1153 
L 594 3053 
L 172 3053 
L 172 3500 
L 594 3500 
L 594 4494 
L 1172 4494 
z
" transform="scale(0.015625)"/>
       <path id="DejaVuSans-2d" d="M 313 2009 
L 1997 2009 
L 1997 1497 
L 313 1497 
L 313 2009 
z
" transform="scale(0.015625)"/>
       <path id="DejaVuSans-7a" d="M 353 3500 
L 3084 3500 
L 3084 2975 
L 922 459 
L 3084 459 
L 3084 0 
L 275 0 
L 275 525 
L 2438 3041 
L 353 3041 
L 353 3500 
z
" transform="scale(0.015625)"/>
       <path id="DejaVuSans-28" d="M 1984 4856 
Q 1566 4138 1362 3434 
Q 1159 2731 1159 2009 
Q 1159 1288 1364 580 
Q 1569 -128 1984 -844 
L 1484 -844 
Q 1016 -109 783 600 
Q 550 1309 550 2009 
Q 550 2706 781 3412 
Q 1013 4119 1484 4856 
L 1984 4856 
z
" transform="scale(0.015625)"/>
       <path id="DejaVuSans-77" d="M 269 3500 
L 844 3500 
L 1563 769 
L 2278 3500 
L 2956 3500 
L 3675 769 
L 4391 3500 
L 4966 3500 
L 4050 0 
L 3372 0 
L 2619 2869 
L 1863 0 
L 1184 0 
L 269 3500 
z
" transform="scale(0.015625)"/>
       <path id="DejaVuSans-62" d="M 3116 1747 
Q 3116 2381 2855 2742 
Q 2594 3103 2138 3103 
Q 1681 3103 1420 2742 
Q 1159 2381 1159 1747 
Q 1159 1113 1420 752 
Q 1681 391 2138 391 
Q 2594 391 2855 752 
Q 3116 1113 3116 1747 
z
M 1159 2969 
Q 1341 3281 1617 3432 
Q 1894 3584 2278 3584 
Q 2916 3584 3314 3078 
Q 3713 2572 3713 1747 
Q 3713 922 3314 415 
Q 2916 -91 2278 -91 
Q 1894 -91 1617 61 
Q 1341 213 1159 525 
L 1159 0 
L 581 0 
L 581 4863 
L 1159 4863 
L 1159 2969 
z
" transform="scale(0.015625)"/>
       <path id="DejaVuSans-29" d="M 513 4856 
L 1013 4856 
Q 1481 4119 1714 3412 
Q 1947 2706 1947 2009 
Q 1947 1309 1714 600 
Q 1481 -109 1013 -844 
L 513 -844 
Q 928 -128 1133 580 
Q 1338 1288 1338 2009 
Q 1338 2731 1133 3434 
Q 928 4138 513 4856 
z
" transform="scale(0.015625)"/>
      </defs>
      <use xlink:href="#DejaVuSans-72"/>
      <use xlink:href="#DejaVuSans-65" transform="translate(38.863281 0)"/>
      <use xlink:href="#DejaVuSans-73" transform="translate(100.386719 0)"/>
      <use xlink:href="#DejaVuSans-69" transform="translate(152.486328 0)"/>
      <use xlink:href="#DejaVuSans-64" transform="translate(180.269531 0)"/>
      <use xlink:href="#DejaVuSans-75" transform="translate(243.746094 0)"/>
      <use xlink:href="#DejaVuSans-61" transform="translate(307.125 0)"/>
      <use xlink:href="#DejaVuSans-6c" transform="translate(368.404297 0)"/>
      <use xlink:href="#DejaVuSans-20" transform="translate(396.1875 0)"/>
      <use xlink:href="#DejaVuSans-61" transform="translate(427.974609 0)"/>
      <use xlink:href="#DejaVuSans-6e" transform="translate(489.253906 0)"/>
      <use xlink:href="#DejaVuSans-6f" transform="translate(552.632812 0)"/>
      <use xlink:href="#DejaVuSans-6e" transform="translate(613.814453 0)"/>
      <use xlink:href="#DejaVuSans-79" transform="translate(677.193359 0)"/>
      <use xlink:href="#DejaVuSans-6d" transform="translate(736.373047 0)"/>
      <use xlink:href="#DejaVuSans-69" transform="translate(833.785156 0)"/>
      <use xlink:href="#DejaVuSans-74" transform="translate(861.568359 0)"/>
      <use xlink:href="#DejaVuSans-79" transform="translate(900.777344 0)"/>
      <use xlink:href="#DejaVuSans-2d" transform="translate(958.207031 0)"/>
      <use xlink:href="#DejaVuSans-73" transform="translate(994.291016 0)"/>
      <use xlink:href="#DejaVuSans-65" transform="translate(1046.390625 0)"/>
      <use xlink:href="#DejaVuSans-74" transform="translate(1107.914062 0)"/>
      <use xlink:href="#DejaVuSans-20" transform="translate(1147.123047 0)"/>
      <use xlink:href="#DejaVuSans-73" transform="translate(1178.910156 0)"/>
      <use xlink:href="#DejaVuSans-69" transform="translate(1231.009766 0)"/>
      <use xlink:href="#DejaVuSans-7a" transform="translate(1258.792969 0)"/>
      <use xlink:href="#DejaVuSans-65" transform="translate(1311.283203 0)"/>
      <use xlink:href="#DejaVuSans-20" transform="translate(1372.806641 0)"/>
      <use xlink:href="#DejaVuSans-28" transform="translate(1404.59375 0)"/>
      <use xlink:href="#DejaVuSans-6c" transform="translate(1443.607422 0)"/>
      <use xlink:href="#DejaVuSans-6f" transform="translate(1471.390625 0)"/>
      <use xlink:href="#DejaVuSans-77" transform="translate(1532.572266 0)"/>
      <use xlink:href="#DejaVuSans-65" transform="translate(1614.359375 0)"/>
      <use xlink:href="#DejaVuSans-72" transform="translate(1675.882812 0)"/>
      <use xlink:href="#DejaVuSans-20" transform="translate(1716.996094 0)"/>
      <use xlink:href="#DejaVuSans-62" transform="translate(1748.783203 0)"/>
      <use xlink:href="#DejaVuSans-6f" transform="translate(1812.259766 0)"/>
      <use xlink:href="#DejaVuSans-75" transform="translate(1873.441406 0)"/>
      <use xlink:href="#DejaVuSans-6e" transform="translate(1936.820312 0)"/>
      <use xlink:href="#DejaVuSans-64" transform="translate(2000.199219 0)"/>
      <use xlink:href="#DejaVuSans-29" transform="translate(2063.675781 0)"/>
     </g>
    </g>
   </g>
   <g id="matplotlib.axis_2">
    <g id="ytick_1">
     <g id="line2d_35">
      <path d="M 54.295938 244.078125 
L 523.015938 244.078125 
" clip-path="url(#p4485e5346a)" style="fill: none; stroke-dasharray: 2.96,1.28; stroke-dashoffset: 0; stroke: #b0b0b0; stroke-opacity: 0.3; stroke-width: 0.8"/>
     </g>
     <g id="line2d_36">
      <defs>
       <path id="m28666fa2b1" d="M 0 0 
L -3.5 0 
" style="stroke: #000000; stroke-width: 0.8"/>
      </defs>
      <g>
       <use xlink:href="#m28666fa2b1" x="54.295938" y="244.078125" style="stroke: #000000; stroke-width: 0.8"/>
      </g>
     </g>
     <g id="text_19">
      <!-- 0 -->
      <g transform="translate(40.933438 247.877344) scale(0.1 -0.1)">
       <use xlink:href="#DejaVuSans-30"/>
      </g>
     </g>
    </g>
    <g id="ytick_2">
     <g id="line2d_37">
      <path d="M 54.295938 215.359061 
L 523.015938 215.359061 
" clip-path="url(#p4485e5346a)" style="fill: none; stroke-dasharray: 2.96,1.28; stroke-dashoffset: 0; stroke: #b0b0b0; stroke-opacity: 0.3; stroke-width: 0.8"/>
     </g>
     <g id="line2d_38">
      <g>
       <use xlink:href="#m28666fa2b1" x="54.295938" y="215.359061" style="stroke: #000000; stroke-width: 0.8"/>
      </g>
     </g>
     <g id="text_20">
      <!-- 500 -->
      <g transform="translate(28.208438 219.158279) scale(0.1 -0.1)">
       <use xlink:href="#DejaVuSans-35"/>
       <use xlink:href="#DejaVuSans-30" transform="translate(63.623047 0)"/>
       <use xlink:href="#DejaVuSans-30" transform="translate(127.246094 0)"/>
      </g>
     </g>
    </g>
    <g id="ytick_3">
     <g id="line2d_39">
      <path d="M 54.295938 186.639996 
L 523.015938 186.639996 
" clip-path="url(#p4485e5346a)" style="fill: none; stroke-dasharray: 2.96,1.28; stroke-dashoffset: 0; stroke: #b0b0b0; stroke-opacity: 0.3; stroke-width: 0.8"/>
     </g>
     <g id="line2d_40">
      <g>
       <use xlink:href="#m28666fa2b1" x="54.295938" y="186.639996" style="stroke: #000000; stroke-width: 0.8"/>
      </g>
     </g>
     <g id="text_21">
      <!-- 1000 -->
      <g transform="translate(21.845938 190.439215) scale(0.1 -0.1)">
       <use xlink:href="#DejaVuSans-31"/>
       <use xlink:href="#DejaVuSans-30" transform="translate(63.623047 0)"/>
       <use xlink:href="#DejaVuSans-30" transform="translate(127.246094 0)"/>
       <use xlink:href="#DejaVuSans-30" transform="translate(190.869141 0)"/>
      </g>
     </g>
    </g>
    <g id="ytick_4">
     <g id="line2d_41">
      <path d="M 54.295938 157.920932 
L 523.015938 157.920932 
" clip-path="url(#p4485e5346a)" style="fill: none; stroke-dasharray: 2.96,1.28; stroke-dashoffset: 0; stroke: #b0b0b0; stroke-opacity: 0.3; stroke-width: 0.8"/>
     </g>
     <g id="line2d_42">
      <g>
       <use xlink:href="#m28666fa2b1" x="54.295938" y="157.920932" style="stroke: #000000; stroke-width: 0.8"/>
      </g>
     </g>
     <g id="text_22">
      <!-- 1500 -->
      <g transform="translate(21.845938 161.72015) scale(0.1 -0.1)">
       <use xlink:href="#DejaVuSans-31"/>
       <use xlink:href="#DejaVuSans-35" transform="translate(63.623047 0)"/>
       <use xlink:href="#DejaVuSans-30" transform="translate(127.246094 0)"/>
       <use xlink:href="#DejaVuSans-30" transform="translate(190.869141 0)"/>
      </g>
     </g>
    </g>
    <g id="ytick_5">
     <g id="line2d_43">
      <path d="M 54.295938 129.201867 
L 523.015938 129.201867 
" clip-path="url(#p4485e5346a)" style="fill: none; stroke-dasharray: 2.96,1.28; stroke-dashoffset: 0; stroke: #b0b0b0; stroke-opacity: 0.3; stroke-width: 0.8"/>
     </g>
     <g id="line2d_44">
      <g>
       <use xlink:href="#m28666fa2b1" x="54.295938" y="129.201867" style="stroke: #000000; stroke-width: 0.8"/>
      </g>
     </g>
     <g id="text_23">
      <!-- 2000 -->
      <g transform="translate(21.845938 133.001086) scale(0.1 -0.1)">
       <use xlink:href="#DejaVuSans-32"/>
       <use xlink:href="#DejaVuSans-30" transform="translate(63.623047 0)"/>
       <use xlink:href="#DejaVuSans-30" transform="translate(127.246094 0)"/>
       <use xlink:href="#DejaVuSans-30" transform="translate(190.869141 0)"/>
      </g>
     </g>
    </g>
    <g id="ytick_6">
     <g id="line2d_45">
      <path d="M 54.295938 100.482803 
L 523.015938 100.482803 
" clip-path="url(#p4485e5346a)" style="fill: none; stroke-dasharray: 2.96,1.28; stroke-dashoffset: 0; stroke: #b0b0b0; stroke-opacity: 0.3; stroke-width: 0.8"/>
     </g>
     <g id="line2d_46">
      <g>
       <use xlink:href="#m28666fa2b1" x="54.295938" y="100.482803" style="stroke: #000000; stroke-width: 0.8"/>
      </g>
     </g>
     <g id="text_24">
      <!-- 2500 -->
      <g transform="translate(21.845938 104.282021) scale(0.1 -0.1)">
       <use xlink:href="#DejaVuSans-32"/>
       <use xlink:href="#DejaVuSans-35" transform="translate(63.623047 0)"/>
       <use xlink:href="#DejaVuSans-30" transform="translate(127.246094 0)"/>
       <use xlink:href="#DejaVuSans-30" transform="translate(190.869141 0)"/>
      </g>
     </g>
    </g>
    <g id="ytick_7">
     <g id="line2d_47">
      <path d="M 54.295938 71.763738 
L 523.015938 71.763738 
" clip-path="url(#p4485e5346a)" style="fill: none; stroke-dasharray: 2.96,1.28; stroke-dashoffset: 0; stroke: #b0b0b0; stroke-opacity: 0.3; stroke-width: 0.8"/>
     </g>
     <g id="line2d_48">
      <g>
       <use xlink:href="#m28666fa2b1" x="54.295938" y="71.763738" style="stroke: #000000; stroke-width: 0.8"/>
      </g>
     </g>
     <g id="text_25">
      <!-- 3000 -->
      <g transform="translate(21.845938 75.562957) scale(0.1 -0.1)">
       <use xlink:href="#DejaVuSans-33"/>
       <use xlink:href="#DejaVuSans-30" transform="translate(63.623047 0)"/>
       <use xlink:href="#DejaVuSans-30" transform="translate(127.246094 0)"/>
       <use xlink:href="#DejaVuSans-30" transform="translate(190.869141 0)"/>
      </g>
     </g>
    </g>
    <g id="ytick_8">
     <g id="line2d_49">
      <path d="M 54.295938 43.044674 
L 523.015938 43.044674 
" clip-path="url(#p4485e5346a)" style="fill: none; stroke-dasharray: 2.96,1.28; stroke-dashoffset: 0; stroke: #b0b0b0; stroke-opacity: 0.3; stroke-width: 0.8"/>
     </g>
     <g id="line2d_50">
      <g>
       <use xlink:href="#m28666fa2b1" x="54.295938" y="43.044674" style="stroke: #000000; stroke-width: 0.8"/>
      </g>
     </g>
     <g id="text_26">
      <!-- 3500 -->
      <g transform="translate(21.845938 46.843893) scale(0.1 -0.1)">
       <use xlink:href="#DejaVuSans-33"/>
       <use xlink:href="#DejaVuSans-35" transform="translate(63.623047 0)"/>
       <use xlink:href="#DejaVuSans-30" transform="translate(127.246094 0)"/>
       <use xlink:href="#DejaVuSans-30" transform="translate(190.869141 0)"/>
      </g>
     </g>
    </g>
    <g id="text_27">
     <!-- number of coinjoins -->
     <g transform="translate(15.558281 187.636094) rotate(-90) scale(0.11 -0.11)">
      <defs>
       <path id="DejaVuSans-66" d="M 2375 4863 
L 2375 4384 
L 1825 4384 
Q 1516 4384 1395 4259 
Q 1275 4134 1275 3809 
L 1275 3500 
L 2222 3500 
L 2222 3053 
L 1275 3053 
L 1275 0 
L 697 0 
L 697 3053 
L 147 3053 
L 147 3500 
L 697 3500 
L 697 3744 
Q 697 4328 969 4595 
Q 1241 4863 1831 4863 
L 2375 4863 
z
" transform="scale(0.015625)"/>
       <path id="DejaVuSans-63" d="M 3122 3366 
L 3122 2828 
Q 2878 2963 2633 3030 
Q 2388 3097 2138 3097 
Q 1578 3097 1268 2742 
Q 959 2388 959 1747 
Q 959 1106 1268 751 
Q 1578 397 2138 397 
Q 2388 397 2633 464 
Q 2878 531 3122 666 
L 3122 134 
Q 2881 22 2623 -34 
Q 2366 -91 2075 -91 
Q 1284 -91 818 406 
Q 353 903 353 1747 
Q 353 2603 823 3093 
Q 1294 3584 2113 3584 
Q 2378 3584 2631 3529 
Q 2884 3475 3122 3366 
z
" transform="scale(0.015625)"/>
       <path id="DejaVuSans-6a" d="M 603 3500 
L 1178 3500 
L 1178 -63 
Q 1178 -731 923 -1031 
Q 669 -1331 103 -1331 
L -116 -1331 
L -116 -844 
L 38 -844 
Q 366 -844 484 -692 
Q 603 -541 603 -63 
L 603 3500 
z
M 603 4863 
L 1178 4863 
L 1178 4134 
L 603 4134 
L 603 4863 
z
" transform="scale(0.015625)"/>
      </defs>
      <use xlink:href="#DejaVuSans-6e"/>
      <use xlink:href="#DejaVuSans-75" transform="translate(63.378906 0)"/>
      <use xlink:href="#DejaVuSans-6d" transform="translate(126.757812 0)"/>
      <use xlink:href="#DejaVuSans-62" transform="translate(224.169922 0)"/>
      <use xlink:href="#DejaVuSans-65" transform="translate(287.646484 0)"/>
      <use xlink:href="#DejaVuSans-72" transform="translate(349.169922 0)"/>
      <use xlink:href="#DejaVuSans-20" transform="translate(390.283203 0)"/>
      <use xlink:href="#DejaVuSans-6f" transform="translate(422.070312 0)"/>
      <use xlink:href="#DejaVuSans-66" transform="translate(483.251953 0)"/>
      <use xlink:href="#DejaVuSans-20" transform="translate(518.457031 0)"/>
      <use xlink:href="#DejaVuSans-63" transform="translate(550.244141 0)"/>
      <use xlink:href="#DejaVuSans-6f" transform="translate(605.224609 0)"/>
      <use xlink:href="#DejaVuSans-69" transform="translate(666.40625 0)"/>
      <use xlink:href="#DejaVuSans-6e" transform="translate(694.189453 0)"/>
      <use xlink:href="#DejaVuSans-6a" transform="translate(757.568359 0)"/>
      <use xlink:href="#DejaVuSans-6f" transform="translate(785.351562 0)"/>
      <use xlink:href="#DejaVuSans-69" transform="translate(846.533203 0)"/>
      <use xlink:href="#DejaVuSans-6e" transform="translate(874.316406 0)"/>
      <use xlink:href="#DejaVuSans-73" transform="translate(937.695312 0)"/>
     </g>
    </g>
   </g>
   <g id="patch_88">
    <path d="M 54.295938 244.078125 
L 54.295938 22.318125 
" style="fill: none; stroke: #000000; stroke-width: 0.8; stroke-linejoin: miter; stroke-linecap: square"/>
   </g>
   <g id="patch_89">
    <path d="M 54.295938 244.078125 
L 523.015937 244.078125 
" style="fill: none; stroke: #000000; stroke-width: 0.8; stroke-linejoin: miter; stroke-linecap: square"/>
   </g>
   <g id="text_28">
    <!-- Residual anonset by clusterer iteration (v6 -&gt; v7.3) -->
    <g transform="translate(134.374375 16.318125) scale(0.12 -0.12)">
     <defs>
      <path id="DejaVuSans-52" d="M 2841 2188 
Q 3044 2119 3236 1894 
Q 3428 1669 3622 1275 
L 4263 0 
L 3584 0 
L 2988 1197 
Q 2756 1666 2539 1819 
Q 2322 1972 1947 1972 
L 1259 1972 
L 1259 0 
L 628 0 
L 628 4666 
L 2053 4666 
Q 2853 4666 3247 4331 
Q 3641 3997 3641 3322 
Q 3641 2881 3436 2590 
Q 3231 2300 2841 2188 
z
M 1259 4147 
L 1259 2491 
L 2053 2491 
Q 2509 2491 2742 2702 
Q 2975 2913 2975 3322 
Q 2975 3731 2742 3939 
Q 2509 4147 2053 4147 
L 1259 4147 
z
" transform="scale(0.015625)"/>
      <path id="DejaVuSans-76" d="M 191 3500 
L 800 3500 
L 1894 563 
L 2988 3500 
L 3597 3500 
L 2284 0 
L 1503 0 
L 191 3500 
z
" transform="scale(0.015625)"/>
      <path id="DejaVuSans-3e" d="M 678 3150 
L 678 3719 
L 4684 2266 
L 4684 1747 
L 678 294 
L 678 863 
L 3897 2003 
L 678 3150 
z
" transform="scale(0.015625)"/>
      <path id="DejaVuSans-2e" d="M 684 794 
L 1344 794 
L 1344 0 
L 684 0 
L 684 794 
z
" transform="scale(0.015625)"/>
     </defs>
     <use xlink:href="#DejaVuSans-52"/>
     <use xlink:href="#DejaVuSans-65" transform="translate(64.982422 0)"/>
     <use xlink:href="#DejaVuSans-73" transform="translate(126.505859 0)"/>
     <use xlink:href="#DejaVuSans-69" transform="translate(178.605469 0)"/>
     <use xlink:href="#DejaVuSans-64" transform="translate(206.388672 0)"/>
     <use xlink:href="#DejaVuSans-75" transform="translate(269.865234 0)"/>
     <use xlink:href="#DejaVuSans-61" transform="translate(333.244141 0)"/>
     <use xlink:href="#DejaVuSans-6c" transform="translate(394.523438 0)"/>
     <use xlink:href="#DejaVuSans-20" transform="translate(422.306641 0)"/>
     <use xlink:href="#DejaVuSans-61" transform="translate(454.09375 0)"/>
     <use xlink:href="#DejaVuSans-6e" transform="translate(515.373047 0)"/>
     <use xlink:href="#DejaVuSans-6f" transform="translate(578.751953 0)"/>
     <use xlink:href="#DejaVuSans-6e" transform="translate(639.933594 0)"/>
     <use xlink:href="#DejaVuSans-73" transform="translate(703.3125 0)"/>
     <use xlink:href="#DejaVuSans-65" transform="translate(755.412109 0)"/>
     <use xlink:href="#DejaVuSans-74" transform="translate(816.935547 0)"/>
     <use xlink:href="#DejaVuSans-20" transform="translate(856.144531 0)"/>
     <use xlink:href="#DejaVuSans-62" transform="translate(887.931641 0)"/>
     <use xlink:href="#DejaVuSans-79" transform="translate(951.408203 0)"/>
     <use xlink:href="#DejaVuSans-20" transform="translate(1010.587891 0)"/>
     <use xlink:href="#DejaVuSans-63" transform="translate(1042.375 0)"/>
     <use xlink:href="#DejaVuSans-6c" transform="translate(1097.355469 0)"/>
     <use xlink:href="#DejaVuSans-75" transform="translate(1125.138672 0)"/>
     <use xlink:href="#DejaVuSans-73" transform="translate(1188.517578 0)"/>
     <use xlink:href="#DejaVuSans-74" transform="translate(1240.617188 0)"/>
     <use xlink:href="#DejaVuSans-65" transform="translate(1279.826172 0)"/>
     <use xlink:href="#DejaVuSans-72" transform="translate(1341.349609 0)"/>
     <use xlink:href="#DejaVuSans-65" transform="translate(1380.212891 0)"/>
     <use xlink:href="#DejaVuSans-72" transform="translate(1441.736328 0)"/>
     <use xlink:href="#DejaVuSans-20" transform="translate(1482.849609 0)"/>
     <use xlink:href="#DejaVuSans-69" transform="translate(1514.636719 0)"/>
     <use xlink:href="#DejaVuSans-74" transform="translate(1542.419922 0)"/>
     <use xlink:href="#DejaVuSans-65" transform="translate(1581.628906 0)"/>
     <use xlink:href="#DejaVuSans-72" transform="translate(1643.152344 0)"/>
     <use xlink:href="#DejaVuSans-61" transform="translate(1684.265625 0)"/>
     <use xlink:href="#DejaVuSans-74" transform="translate(1745.544922 0)"/>
     <use xlink:href="#DejaVuSans-69" transform="translate(1784.753906 0)"/>
     <use xlink:href="#DejaVuSans-6f" transform="translate(1812.537109 0)"/>
     <use xlink:href="#DejaVuSans-6e" transform="translate(1873.71875 0)"/>
     <use xlink:href="#DejaVuSans-20" transform="translate(1937.097656 0)"/>
     <use xlink:href="#DejaVuSans-28" transform="translate(1968.884766 0)"/>
     <use xlink:href="#DejaVuSans-76" transform="translate(2007.898438 0)"/>
     <use xlink:href="#DejaVuSans-36" transform="translate(2067.078125 0)"/>
     <use xlink:href="#DejaVuSans-20" transform="translate(2130.701172 0)"/>
     <use xlink:href="#DejaVuSans-2d" transform="translate(2162.488281 0)"/>
     <use xlink:href="#DejaVuSans-3e" transform="translate(2198.572266 0)"/>
     <use xlink:href="#DejaVuSans-20" transform="translate(2282.361328 0)"/>
     <use xlink:href="#DejaVuSans-76" transform="translate(2314.148438 0)"/>
     <use xlink:href="#DejaVuSans-37" transform="translate(2373.328125 0)"/>
     <use xlink:href="#DejaVuSans-2e" transform="translate(2436.951172 0)"/>
     <use xlink:href="#DejaVuSans-33" transform="translate(2468.738281 0)"/>
     <use xlink:href="#DejaVuSans-29" transform="translate(2532.361328 0)"/>
    </g>
   </g>
   <g id="legend_1">
    <g id="patch_90">
     <path d="M 371.453125 95.569687 
L 516.715938 95.569687 
Q 518.515938 95.569687 518.515938 93.769687 
L 518.515938 28.618125 
Q 518.515938 26.818125 516.715938 26.818125 
L 371.453125 26.818125 
Q 369.653125 26.818125 369.653125 28.618125 
L 369.653125 93.769687 
Q 369.653125 95.569687 371.453125 95.569687 
z
" style="fill: #ffffff; opacity: 0.95; stroke: #cccccc; stroke-linejoin: miter"/>
    </g>
    <g id="patch_91">
     <path d="M 373.253125 37.256719 
L 391.253125 37.256719 
L 391.253125 30.956719 
L 373.253125 30.956719 
z
" style="fill: #bbbbbb; stroke: #222222; stroke-width: 0.3; stroke-linejoin: miter"/>
    </g>
    <g id="text_29">
     <!-- v6 (mean residual 3.97) -->
     <g transform="translate(398.453125 37.256719) scale(0.09 -0.09)">
      <use xlink:href="#DejaVuSans-76"/>
      <use xlink:href="#DejaVuSans-36" transform="translate(59.179688 0)"/>
      <use xlink:href="#DejaVuSans-20" transform="translate(122.802734 0)"/>
      <use xlink:href="#DejaVuSans-28" transform="translate(154.589844 0)"/>
      <use xlink:href="#DejaVuSans-6d" transform="translate(193.603516 0)"/>
      <use xlink:href="#DejaVuSans-65" transform="translate(291.015625 0)"/>
      <use xlink:href="#DejaVuSans-61" transform="translate(352.539062 0)"/>
      <use xlink:href="#DejaVuSans-6e" transform="translate(413.818359 0)"/>
      <use xlink:href="#DejaVuSans-20" transform="translate(477.197266 0)"/>
      <use xlink:href="#DejaVuSans-72" transform="translate(508.984375 0)"/>
      <use xlink:href="#DejaVuSans-65" transform="translate(547.847656 0)"/>
      <use xlink:href="#DejaVuSans-73" transform="translate(609.371094 0)"/>
      <use xlink:href="#DejaVuSans-69" transform="translate(661.470703 0)"/>
      <use xlink:href="#DejaVuSans-64" transform="translate(689.253906 0)"/>
      <use xlink:href="#DejaVuSans-75" transform="translate(752.730469 0)"/>
      <use xlink:href="#DejaVuSans-61" transform="translate(816.109375 0)"/>
      <use xlink:href="#DejaVuSans-6c" transform="translate(877.388672 0)"/>
      <use xlink:href="#DejaVuSans-20" transform="translate(905.171875 0)"/>
      <use xlink:href="#DejaVuSans-33" transform="translate(936.958984 0)"/>
      <use xlink:href="#DejaVuSans-2e" transform="translate(1000.582031 0)"/>
      <use xlink:href="#DejaVuSans-39" transform="translate(1032.369141 0)"/>
      <use xlink:href="#DejaVuSans-37" transform="translate(1095.992188 0)"/>
      <use xlink:href="#DejaVuSans-29" transform="translate(1159.615234 0)"/>
     </g>
    </g>
    <g id="patch_92">
     <path d="M 373.253125 50.467031 
L 391.253125 50.467031 
L 391.253125 44.167031 
L 373.253125 44.167031 
z
" style="fill: #66ccee; stroke: #222222; stroke-width: 0.3; stroke-linejoin: miter"/>
    </g>
    <g id="text_30">
     <!-- v7 (mean residual 3.72) -->
     <g transform="translate(398.453125 50.467031) scale(0.09 -0.09)">
      <use xlink:href="#DejaVuSans-76"/>
      <use xlink:href="#DejaVuSans-37" transform="translate(59.179688 0)"/>
      <use xlink:href="#DejaVuSans-20" transform="translate(122.802734 0)"/>
      <use xlink:href="#DejaVuSans-28" transform="translate(154.589844 0)"/>
      <use xlink:href="#DejaVuSans-6d" transform="translate(193.603516 0)"/>
      <use xlink:href="#DejaVuSans-65" transform="translate(291.015625 0)"/>
      <use xlink:href="#DejaVuSans-61" transform="translate(352.539062 0)"/>
      <use xlink:href="#DejaVuSans-6e" transform="translate(413.818359 0)"/>
      <use xlink:href="#DejaVuSans-20" transform="translate(477.197266 0)"/>
      <use xlink:href="#DejaVuSans-72" transform="translate(508.984375 0)"/>
      <use xlink:href="#DejaVuSans-65" transform="translate(547.847656 0)"/>
      <use xlink:href="#DejaVuSans-73" transform="translate(609.371094 0)"/>
      <use xlink:href="#DejaVuSans-69" transform="translate(661.470703 0)"/>
      <use xlink:href="#DejaVuSans-64" transform="translate(689.253906 0)"/>
      <use xlink:href="#DejaVuSans-75" transform="translate(752.730469 0)"/>
      <use xlink:href="#DejaVuSans-61" transform="translate(816.109375 0)"/>
      <use xlink:href="#DejaVuSans-6c" transform="translate(877.388672 0)"/>
      <use xlink:href="#DejaVuSans-20" transform="translate(905.171875 0)"/>
      <use xlink:href="#DejaVuSans-33" transform="translate(936.958984 0)"/>
      <use xlink:href="#DejaVuSans-2e" transform="translate(1000.582031 0)"/>
      <use xlink:href="#DejaVuSans-37" transform="translate(1032.369141 0)"/>
      <use xlink:href="#DejaVuSans-32" transform="translate(1095.992188 0)"/>
      <use xlink:href="#DejaVuSans-29" transform="translate(1159.615234 0)"/>
     </g>
    </g>
    <g id="patch_93">
     <path d="M 373.253125 63.677344 
L 391.253125 63.677344 
L 391.253125 57.377344 
L 373.253125 57.377344 
z
" style="fill: #44aa99; stroke: #222222; stroke-width: 0.3; stroke-linejoin: miter"/>
    </g>
    <g id="text_31">
     <!-- v7.1 (mean residual 3.71) -->
     <g transform="translate(398.453125 63.677344) scale(0.09 -0.09)">
      <use xlink:href="#DejaVuSans-76"/>
      <use xlink:href="#DejaVuSans-37" transform="translate(59.179688 0)"/>
      <use xlink:href="#DejaVuSans-2e" transform="translate(122.802734 0)"/>
      <use xlink:href="#DejaVuSans-31" transform="translate(154.589844 0)"/>
      <use xlink:href="#DejaVuSans-20" transform="translate(218.212891 0)"/>
      <use xlink:href="#DejaVuSans-28" transform="translate(250 0)"/>
      <use xlink:href="#DejaVuSans-6d" transform="translate(289.013672 0)"/>
      <use xlink:href="#DejaVuSans-65" transform="translate(386.425781 0)"/>
      <use xlink:href="#DejaVuSans-61" transform="translate(447.949219 0)"/>
      <use xlink:href="#DejaVuSans-6e" transform="translate(509.228516 0)"/>
      <use xlink:href="#DejaVuSans-20" transform="translate(572.607422 0)"/>
      <use xlink:href="#DejaVuSans-72" transform="translate(604.394531 0)"/>
      <use xlink:href="#DejaVuSans-65" transform="translate(643.257812 0)"/>
      <use xlink:href="#DejaVuSans-73" transform="translate(704.78125 0)"/>
      <use xlink:href="#DejaVuSans-69" transform="translate(756.880859 0)"/>
      <use xlink:href="#DejaVuSans-64" transform="translate(784.664062 0)"/>
      <use xlink:href="#DejaVuSans-75" transform="translate(848.140625 0)"/>
      <use xlink:href="#DejaVuSans-61" transform="translate(911.519531 0)"/>
      <use xlink:href="#DejaVuSans-6c" transform="translate(972.798828 0)"/>
      <use xlink:href="#DejaVuSans-20" transform="translate(1000.582031 0)"/>
      <use xlink:href="#DejaVuSans-33" transform="translate(1032.369141 0)"/>
      <use xlink:href="#DejaVuSans-2e" transform="translate(1095.992188 0)"/>
      <use xlink:href="#DejaVuSans-37" transform="translate(1127.779297 0)"/>
      <use xlink:href="#DejaVuSans-31" transform="translate(1191.402344 0)"/>
      <use xlink:href="#DejaVuSans-29" transform="translate(1255.025391 0)"/>
     </g>
    </g>
    <g id="patch_94">
     <path d="M 373.253125 76.887656 
L 391.253125 76.887656 
L 391.253125 70.587656 
L 373.253125 70.587656 
z
" style="fill: #4477aa; stroke: #222222; stroke-width: 0.3; stroke-linejoin: miter"/>
    </g>
    <g id="text_32">
     <!-- v7.2 (mean residual 3.71) -->
     <g transform="translate(398.453125 76.887656) scale(0.09 -0.09)">
      <use xlink:href="#DejaVuSans-76"/>
      <use xlink:href="#DejaVuSans-37" transform="translate(59.179688 0)"/>
      <use xlink:href="#DejaVuSans-2e" transform="translate(122.802734 0)"/>
      <use xlink:href="#DejaVuSans-32" transform="translate(154.589844 0)"/>
      <use xlink:href="#DejaVuSans-20" transform="translate(218.212891 0)"/>
      <use xlink:href="#DejaVuSans-28" transform="translate(250 0)"/>
      <use xlink:href="#DejaVuSans-6d" transform="translate(289.013672 0)"/>
      <use xlink:href="#DejaVuSans-65" transform="translate(386.425781 0)"/>
      <use xlink:href="#DejaVuSans-61" transform="translate(447.949219 0)"/>
      <use xlink:href="#DejaVuSans-6e" transform="translate(509.228516 0)"/>
      <use xlink:href="#DejaVuSans-20" transform="translate(572.607422 0)"/>
      <use xlink:href="#DejaVuSans-72" transform="translate(604.394531 0)"/>
      <use xlink:href="#DejaVuSans-65" transform="translate(643.257812 0)"/>
      <use xlink:href="#DejaVuSans-73" transform="translate(704.78125 0)"/>
      <use xlink:href="#DejaVuSans-69" transform="translate(756.880859 0)"/>
      <use xlink:href="#DejaVuSans-64" transform="translate(784.664062 0)"/>
      <use xlink:href="#DejaVuSans-75" transform="translate(848.140625 0)"/>
      <use xlink:href="#DejaVuSans-61" transform="translate(911.519531 0)"/>
      <use xlink:href="#DejaVuSans-6c" transform="translate(972.798828 0)"/>
      <use xlink:href="#DejaVuSans-20" transform="translate(1000.582031 0)"/>
      <use xlink:href="#DejaVuSans-33" transform="translate(1032.369141 0)"/>
      <use xlink:href="#DejaVuSans-2e" transform="translate(1095.992188 0)"/>
      <use xlink:href="#DejaVuSans-37" transform="translate(1127.779297 0)"/>
      <use xlink:href="#DejaVuSans-31" transform="translate(1191.402344 0)"/>
      <use xlink:href="#DejaVuSans-29" transform="translate(1255.025391 0)"/>
     </g>
    </g>
    <g id="patch_95">
     <path d="M 373.253125 90.097969 
L 391.253125 90.097969 
L 391.253125 83.797969 
L 373.253125 83.797969 
z
" style="fill: #aa3377; stroke: #222222; stroke-width: 0.3; stroke-linejoin: miter"/>
    </g>
    <g id="text_33">
     <!-- v7.3 (mean residual 3.71) -->
     <g transform="translate(398.453125 90.097969) scale(0.09 -0.09)">
      <use xlink:href="#DejaVuSans-76"/>
      <use xlink:href="#DejaVuSans-37" transform="translate(59.179688 0)"/>
      <use xlink:href="#DejaVuSans-2e" transform="translate(122.802734 0)"/>
      <use xlink:href="#DejaVuSans-33" transform="translate(154.589844 0)"/>
      <use xlink:href="#DejaVuSans-20" transform="translate(218.212891 0)"/>
      <use xlink:href="#DejaVuSans-28" transform="translate(250 0)"/>
      <use xlink:href="#DejaVuSans-6d" transform="translate(289.013672 0)"/>
      <use xlink:href="#DejaVuSans-65" transform="translate(386.425781 0)"/>
      <use xlink:href="#DejaVuSans-61" transform="translate(447.949219 0)"/>
      <use xlink:href="#DejaVuSans-6e" transform="translate(509.228516 0)"/>
      <use xlink:href="#DejaVuSans-20" transform="translate(572.607422 0)"/>
      <use xlink:href="#DejaVuSans-72" transform="translate(604.394531 0)"/>
      <use xlink:href="#DejaVuSans-65" transform="translate(643.257812 0)"/>
      <use xlink:href="#DejaVuSans-73" transform="translate(704.78125 0)"/>
      <use xlink:href="#DejaVuSans-69" transform="translate(756.880859 0)"/>
      <use xlink:href="#DejaVuSans-64" transform="translate(784.664062 0)"/>
      <use xlink:href="#DejaVuSans-75" transform="translate(848.140625 0)"/>
      <use xlink:href="#DejaVuSans-61" transform="translate(911.519531 0)"/>
      <use xlink:href="#DejaVuSans-6c" transform="translate(972.798828 0)"/>
      <use xlink:href="#DejaVuSans-20" transform="translate(1000.582031 0)"/>
      <use xlink:href="#DejaVuSans-33" transform="translate(1032.369141 0)"/>
      <use xlink:href="#DejaVuSans-2e" transform="translate(1095.992188 0)"/>
      <use xlink:href="#DejaVuSans-37" transform="translate(1127.779297 0)"/>
      <use xlink:href="#DejaVuSans-31" transform="translate(1191.402344 0)"/>
      <use xlink:href="#DejaVuSans-29" transform="translate(1255.025391 0)"/>
     </g>
    </g>
   </g>
  </g>
 </g>
 <defs>
  <clipPath id="p4485e5346a">
   <rect x="54.295938" y="22.318125" width="468.72" height="221.76"/>
  </clipPath>
 </defs>
</svg>
