<?xml version="1.0" encoding="utf-8" standalone="no"?>
<!DOCTYPE svg PUBLIC "-//W3C//DTD SVG 1.1//EN"
  "http://www.w3.org/Graphics/SVG/1.1/DTD/svg11.dtd">
<svg xmlns:xlink="http://www.w3.org/1999/xlink" width="653.21625pt" height="290.370187pt" viewBox="0 0 653.21625 290.370187" xmlns="http://www.w3.org/2000/svg" version="1.1">
 <metadata>
  <rdf:RDF xmlns:dc="http://purl.org/dc/elements/1.1/" xmlns:cc="http://creativecommons.org/ns#" xmlns:rdf="http://www.w3.org/1999/02/22-rdf-syntax-ns#">
   <cc:Work>
    <dc:type rdf:resource="http://purl.org/dc/dcmitype/StillImage"/>
    <dc:date>2026-05-22T20:08:59.535386</dc:date>
    <dc:format>image/svg+xml</dc:format>
    <dc:creator>
     <cc:Agent>
      <dc:title>Matplotlib v3.10.9, https://matplotlib.org/</dc:title>
     </cc:Agent>
    </dc:creator>
   </cc:Work>
  </rdf:RDF>
 </metadata>
 <defs>
  <style type="text/css">*{stroke-linejoin: round; stroke-linecap: butt}</style>
 </defs>
 <g id="figure_1">
  <g id="patch_1">
   <path d="M 0 290.370187 
L 653.21625 290.370187 
L 653.21625 0 
L 0 0 
z
" style="fill: #ffffff"/>
  </g>
  <g id="axes_1">
   <g id="patch_2">
    <path d="M 71.61267 251.846125 
L 581.60358 251.846125 
L 581.60358 22.318125 
L 71.61267 22.318125 
z
" style="fill: #ffffff"/>
   </g>
   <g id="PathCollection_1">
    <defs>
     <path id="mc65aa07712" d="M 0 4.1833 
C 1.109424 4.1833 2.173559 3.742521 2.95804 2.95804 
C 3.742521 2.173559 4.1833 1.109424 4.1833 0 
C 4.1833 -1.109424 3.742521 -2.173559 2.95804 -2.95804 
C 2.173559 -3.742521 1.109424 -4.1833 0 -4.1833 
C -1.109424 -4.1833 -2.173559 -3.742521 -2.95804 -2.95804 
C -3.742521 -2.173559 -4.1833 -1.109424 -4.1833 0 
C -4.1833 1.109424 -3.742521 2.173559 -2.95804 2.95804 
C -2.173559 3.742521 -1.109424 4.1833 0 4.1833 
z
" style="stroke: #222222; stroke-opacity: 0.85; stroke-width: 0.5"/>
    </defs>
    <g clip-path="url(#pc6c2aca1bd)">
     <use xlink:href="#mc65aa07712" x="416.943862" y="169.020158" style="fill: #aa3377; fill-opacity: 0.85; stroke: #222222; stroke-opacity: 0.85; stroke-width: 0.5"/>
     <use xlink:href="#mc65aa07712" x="360.259921" y="200.958192" style="fill: #aa3377; fill-opacity: 0.85; stroke: #222222; stroke-opacity: 0.85; stroke-width: 0.5"/>
     <use xlink:href="#mc65aa07712" x="442.745113" y="85.981272" style="fill: #aa3377; fill-opacity: 0.85; stroke: #222222; stroke-opacity: 0.85; stroke-width: 0.5"/>
     <use xlink:href="#mc65aa07712" x="402.661489" y="134.952923" style="fill: #aa3377; fill-opacity: 0.85; stroke: #222222; stroke-opacity: 0.85; stroke-width: 0.5"/>
     <use xlink:href="#mc65aa07712" x="391.429329" y="200.958192" style="fill: #aa3377; fill-opacity: 0.85; stroke: #222222; stroke-opacity: 0.85; stroke-width: 0.5"/>
     <use xlink:href="#mc65aa07712" x="362.6073" y="211.604203" style="fill: #aa3377; fill-opacity: 0.85; stroke: #222222; stroke-opacity: 0.85; stroke-width: 0.5"/>
     <use xlink:href="#mc65aa07712" x="326.978122" y="230.767023" style="fill: #aa3377; fill-opacity: 0.85; stroke: #222222; stroke-opacity: 0.85; stroke-width: 0.5"/>
     <use xlink:href="#mc65aa07712" x="409.407823" y="203.087394" style="fill: #aa3377; fill-opacity: 0.85; stroke: #222222; stroke-opacity: 0.85; stroke-width: 0.5"/>
     <use xlink:href="#mc65aa07712" x="268.536155" y="228.637821" style="fill: #aa3377; fill-opacity: 0.85; stroke: #222222; stroke-opacity: 0.85; stroke-width: 0.5"/>
     <use xlink:href="#mc65aa07712" x="352.481094" y="224.379416" style="fill: #aa3377; fill-opacity: 0.85; stroke: #222222; stroke-opacity: 0.85; stroke-width: 0.5"/>
     <use xlink:href="#mc65aa07712" x="320.811969" y="230.767023" style="fill: #aa3377; fill-opacity: 0.85; stroke: #222222; stroke-opacity: 0.85; stroke-width: 0.5"/>
     <use xlink:href="#mc65aa07712" x="268.157024" y="232.896225" style="fill: #aa3377; fill-opacity: 0.85; stroke: #222222; stroke-opacity: 0.85; stroke-width: 0.5"/>
     <use xlink:href="#mc65aa07712" x="242.190496" y="235.025427" style="fill: #aa3377; fill-opacity: 0.85; stroke: #222222; stroke-opacity: 0.85; stroke-width: 0.5"/>
     <use xlink:href="#mc65aa07712" x="396.037478" y="209.475001" style="fill: #aa3377; fill-opacity: 0.85; stroke: #222222; stroke-opacity: 0.85; stroke-width: 0.5"/>
     <use xlink:href="#mc65aa07712" x="320.376336" y="224.379416" style="fill: #aa3377; fill-opacity: 0.85; stroke: #222222; stroke-opacity: 0.85; stroke-width: 0.5"/>
     <use xlink:href="#mc65aa07712" x="203.689812" y="235.025427" style="fill: #aa3377; fill-opacity: 0.85; stroke: #222222; stroke-opacity: 0.85; stroke-width: 0.5"/>
     <use xlink:href="#mc65aa07712" x="182.524301" y="237.15463" style="fill: #aa3377; fill-opacity: 0.85; stroke: #222222; stroke-opacity: 0.85; stroke-width: 0.5"/>
     <use xlink:href="#mc65aa07712" x="94.794075" y="241.413034" style="fill: #aa3377; fill-opacity: 0.85; stroke: #222222; stroke-opacity: 0.85; stroke-width: 0.5"/>
     <use xlink:href="#mc65aa07712" x="125.570424" y="241.413034" style="fill: #aa3377; fill-opacity: 0.85; stroke: #222222; stroke-opacity: 0.85; stroke-width: 0.5"/>
     <use xlink:href="#mc65aa07712" x="379.721392" y="179.66617" style="fill: #aa3377; fill-opacity: 0.85; stroke: #222222; stroke-opacity: 0.85; stroke-width: 0.5"/>
     <use xlink:href="#mc65aa07712" x="470.060695" y="181.795372" style="fill: #aa3377; fill-opacity: 0.85; stroke: #222222; stroke-opacity: 0.85; stroke-width: 0.5"/>
     <use xlink:href="#mc65aa07712" x="457.150596" y="177.536967" style="fill: #aa3377; fill-opacity: 0.85; stroke: #222222; stroke-opacity: 0.85; stroke-width: 0.5"/>
     <use xlink:href="#mc65aa07712" x="304.89266" y="224.379416" style="fill: #aa3377; fill-opacity: 0.85; stroke: #222222; stroke-opacity: 0.85; stroke-width: 0.5"/>
     <use xlink:href="#mc65aa07712" x="558.422175" y="32.751216" style="fill: #aa3377; fill-opacity: 0.85; stroke: #222222; stroke-opacity: 0.85; stroke-width: 0.5"/>
     <use xlink:href="#mc65aa07712" x="486.411939" y="160.503349" style="fill: #aa3377; fill-opacity: 0.85; stroke: #222222; stroke-opacity: 0.85; stroke-width: 0.5"/>
     <use xlink:href="#mc65aa07712" x="325.874698" y="222.250214" style="fill: #aa3377; fill-opacity: 0.85; stroke: #222222; stroke-opacity: 0.85; stroke-width: 0.5"/>
     <use xlink:href="#mc65aa07712" x="272.291785" y="232.896225" style="fill: #aa3377; fill-opacity: 0.85; stroke: #222222; stroke-opacity: 0.85; stroke-width: 0.5"/>
     <use xlink:href="#mc65aa07712" x="353.9026" y="226.508619" style="fill: #aa3377; fill-opacity: 0.85; stroke: #222222; stroke-opacity: 0.85; stroke-width: 0.5"/>
     <use xlink:href="#mc65aa07712" x="420.484768" y="205.216596" style="fill: #aa3377; fill-opacity: 0.85; stroke: #222222; stroke-opacity: 0.85; stroke-width: 0.5"/>
     <use xlink:href="#mc65aa07712" x="453.220527" y="181.795372" style="fill: #aa3377; fill-opacity: 0.85; stroke: #222222; stroke-opacity: 0.85; stroke-width: 0.5"/>
     <use xlink:href="#mc65aa07712" x="415.463139" y="192.441383" style="fill: #aa3377; fill-opacity: 0.85; stroke: #222222; stroke-opacity: 0.85; stroke-width: 0.5"/>
     <use xlink:href="#mc65aa07712" x="305.882263" y="235.025427" style="fill: #aa3377; fill-opacity: 0.85; stroke: #222222; stroke-opacity: 0.85; stroke-width: 0.5"/>
     <use xlink:href="#mc65aa07712" x="164.36957" y="241.413034" style="fill: #aa3377; fill-opacity: 0.85; stroke: #222222; stroke-opacity: 0.85; stroke-width: 0.5"/>
     <use xlink:href="#mc65aa07712" x="210.175732" y="241.413034" style="fill: #aa3377; fill-opacity: 0.85; stroke: #222222; stroke-opacity: 0.85; stroke-width: 0.5"/>
     <use xlink:href="#mc65aa07712" x="336.900843" y="226.508619" style="fill: #aa3377; fill-opacity: 0.85; stroke: #222222; stroke-opacity: 0.85; stroke-width: 0.5"/>
     <use xlink:href="#mc65aa07712" x="394.312213" y="188.182978" style="fill: #aa3377; fill-opacity: 0.85; stroke: #222222; stroke-opacity: 0.85; stroke-width: 0.5"/>
     <use xlink:href="#mc65aa07712" x="342.500994" y="232.896225" style="fill: #aa3377; fill-opacity: 0.85; stroke: #222222; stroke-opacity: 0.85; stroke-width: 0.5"/>
     <use xlink:href="#mc65aa07712" x="157.477223" y="241.413034" style="fill: #aa3377; fill-opacity: 0.85; stroke: #222222; stroke-opacity: 0.85; stroke-width: 0.5"/>
     <use xlink:href="#mc65aa07712" x="430.627393" y="162.632552" style="fill: #aa3377; fill-opacity: 0.85; stroke: #222222; stroke-opacity: 0.85; stroke-width: 0.5"/>
    </g>
   </g>
   <g id="matplotlib.axis_1">
    <g id="xtick_1">
     <g id="line2d_1">
      <path d="M 109.741652 251.846125 
L 109.741652 22.318125 
" clip-path="url(#pc6c2aca1bd)" style="fill: none; stroke: #dddddd; stroke-opacity: 0.6; stroke-width: 0.6; stroke-linecap: square"/>
     </g>
     <g id="line2d_2">
      <defs>
       <path id="md4a32118a8" d="M 0 0 
L 0 3.5 
" style="stroke: #000000; stroke-width: 0.8"/>
      </defs>
      <g>
       <use xlink:href="#md4a32118a8" x="109.741652" y="251.846125" style="stroke: #000000; stroke-width: 0.8"/>
      </g>
     </g>
     <g id="text_1">
      <!-- $\mathdefault{10^{2}}$ -->
      <g transform="translate(100.941652 266.444562) scale(0.1 -0.1)">
       <defs>
        <path id="DejaVuSans-31" d="M 794 531 
L 1825 531 
L 1825 4091 
L 703 3866 
L 703 4441 
L 1819 4666 
L 2450 4666 
L 2450 531 
L 3481 531 
L 3481 0 
L 794 0 
L 794 531 
z
" transform="scale(0.015625)"/>
        <path id="DejaVuSans-30" d="M 2034 4250 
Q 1547 4250 1301 3770 
Q 1056 3291 1056 2328 
Q 1056 1369 1301 889 
Q 1547 409 2034 409 
Q 2525 409 2770 889 
Q 3016 1369 3016 2328 
Q 3016 3291 2770 3770 
Q 2525 4250 2034 4250 
z
M 2034 4750 
Q 2819 4750 3233 4129 
Q 3647 3509 3647 2328 
Q 3647 1150 3233 529 
Q 2819 -91 2034 -91 
Q 1250 -91 836 529 
Q 422 1150 422 2328 
Q 422 3509 836 4129 
Q 1250 4750 2034 4750 
z
" transform="scale(0.015625)"/>
        <path id="DejaVuSans-32" d="M 1228 531 
L 3431 531 
L 3431 0 
L 469 0 
L 469 531 
Q 828 903 1448 1529 
Q 2069 2156 2228 2338 
Q 2531 2678 2651 2914 
Q 2772 3150 2772 3378 
Q 2772 3750 2511 3984 
Q 2250 4219 1831 4219 
Q 1534 4219 1204 4116 
Q 875 4013 500 3803 
L 500 4441 
Q 881 4594 1212 4672 
Q 1544 4750 1819 4750 
Q 2544 4750 2975 4387 
Q 3406 4025 3406 3419 
Q 3406 3131 3298 2873 
Q 3191 2616 2906 2266 
Q 2828 2175 2409 1742 
Q 1991 1309 1228 531 
z
" transform="scale(0.015625)"/>
       </defs>
       <use xlink:href="#DejaVuSans-31" transform="translate(0 0.765625)"/>
       <use xlink:href="#DejaVuSans-30" transform="translate(63.623047 0.765625)"/>
       <use xlink:href="#DejaVuSans-32" transform="translate(128.203125 39.046875) scale(0.7)"/>
      </g>
     </g>
    </g>
    <g id="xtick_2">
     <g id="line2d_3">
      <path d="M 273.076398 251.846125 
L 273.076398 22.318125 
" clip-path="url(#pc6c2aca1bd)" style="fill: none; stroke: #dddddd; stroke-opacity: 0.6; stroke-width: 0.6; stroke-linecap: square"/>
     </g>
     <g id="line2d_4">
      <g>
       <use xlink:href="#md4a32118a8" x="273.076398" y="251.846125" style="stroke: #000000; stroke-width: 0.8"/>
      </g>
     </g>
     <g id="text_2">
      <!-- $\mathdefault{10^{3}}$ -->
      <g transform="translate(264.276398 266.444562) scale(0.1 -0.1)">
       <defs>
        <path id="DejaVuSans-33" d="M 2597 2516 
Q 3050 2419 3304 2112 
Q 3559 1806 3559 1356 
Q 3559 666 3084 287 
Q 2609 -91 1734 -91 
Q 1441 -91 1130 -33 
Q 819 25 488 141 
L 488 750 
Q 750 597 1062 519 
Q 1375 441 1716 441 
Q 2309 441 2620 675 
Q 2931 909 2931 1356 
Q 2931 1769 2642 2001 
Q 2353 2234 1838 2234 
L 1294 2234 
L 1294 2753 
L 1863 2753 
Q 2328 2753 2575 2939 
Q 2822 3125 2822 3475 
Q 2822 3834 2567 4026 
Q 2313 4219 1838 4219 
Q 1578 4219 1281 4162 
Q 984 4106 628 3988 
L 628 4550 
Q 988 4650 1302 4700 
Q 1616 4750 1894 4750 
Q 2613 4750 3031 4423 
Q 3450 4097 3450 3541 
Q 3450 3153 3228 2886 
Q 3006 2619 2597 2516 
z
" transform="scale(0.015625)"/>
       </defs>
       <use xlink:href="#DejaVuSans-31" transform="translate(0 0.765625)"/>
       <use xlink:href="#DejaVuSans-30" transform="translate(63.623047 0.765625)"/>
       <use xlink:href="#DejaVuSans-33" transform="translate(128.203125 39.046875) scale(0.7)"/>
      </g>
     </g>
    </g>
    <g id="xtick_3">
     <g id="line2d_5">
      <path d="M 436.411144 251.846125 
L 436.411144 22.318125 
" clip-path="url(#pc6c2aca1bd)" style="fill: none; stroke: #dddddd; stroke-opacity: 0.6; stroke-width: 0.6; stroke-linecap: square"/>
     </g>
     <g id="line2d_6">
      <g>
       <use xlink:href="#md4a32118a8" x="436.411144" y="251.846125" style="stroke: #000000; stroke-width: 0.8"/>
      </g>
     </g>
     <g id="text_3">
      <!-- $\mathdefault{10^{4}}$ -->
      <g transform="translate(427.611144 266.444562) scale(0.1 -0.1)">
       <defs>
        <path id="DejaVuSans-34" d="M 2419 4116 
L 825 1625 
L 2419 1625 
L 2419 4116 
z
M 2253 4666 
L 3047 4666 
L 3047 1625 
L 3713 1625 
L 3713 1100 
L 3047 1100 
L 3047 0 
L 2419 0 
L 2419 1100 
L 313 1100 
L 313 1709 
L 2253 4666 
z
" transform="scale(0.015625)"/>
       </defs>
       <use xlink:href="#DejaVuSans-31" transform="translate(0 0.684375)"/>
       <use xlink:href="#DejaVuSans-30" transform="translate(63.623047 0.684375)"/>
       <use xlink:href="#DejaVuSans-34" transform="translate(128.203125 38.965625) scale(0.7)"/>
      </g>
     </g>
    </g>
    <g id="xtick_4">
     <g id="line2d_7">
      <defs>
       <path id="m6a9e047324" d="M 0 0 
L 0 2 
" style="stroke: #000000; stroke-width: 0.6"/>
      </defs>
      <g>
       <use xlink:href="#m6a9e047324" x="73.506042" y="251.846125" style="stroke: #000000; stroke-width: 0.6"/>
      </g>
     </g>
    </g>
    <g id="xtick_5">
     <g id="line2d_8">
      <g>
       <use xlink:href="#m6a9e047324" x="84.440779" y="251.846125" style="stroke: #000000; stroke-width: 0.6"/>
      </g>
     </g>
    </g>
    <g id="xtick_6">
     <g id="line2d_9">
      <g>
       <use xlink:href="#m6a9e047324" x="93.912879" y="251.846125" style="stroke: #000000; stroke-width: 0.6"/>
      </g>
     </g>
    </g>
    <g id="xtick_7">
     <g id="line2d_10">
      <g>
       <use xlink:href="#m6a9e047324" x="102.267864" y="251.846125" style="stroke: #000000; stroke-width: 0.6"/>
      </g>
     </g>
    </g>
    <g id="xtick_8">
     <g id="line2d_11">
      <g>
       <use xlink:href="#m6a9e047324" x="158.91031" y="251.846125" style="stroke: #000000; stroke-width: 0.6"/>
      </g>
     </g>
    </g>
    <g id="xtick_9">
     <g id="line2d_12">
      <g>
       <use xlink:href="#m6a9e047324" x="187.672131" y="251.846125" style="stroke: #000000; stroke-width: 0.6"/>
      </g>
     </g>
    </g>
    <g id="xtick_10">
     <g id="line2d_13">
      <g>
       <use xlink:href="#m6a9e047324" x="208.078967" y="251.846125" style="stroke: #000000; stroke-width: 0.6"/>
      </g>
     </g>
    </g>
    <g id="xtick_11">
     <g id="line2d_14">
      <g>
       <use xlink:href="#m6a9e047324" x="223.90774" y="251.846125" style="stroke: #000000; stroke-width: 0.6"/>
      </g>
     </g>
    </g>
    <g id="xtick_12">
     <g id="line2d_15">
      <g>
       <use xlink:href="#m6a9e047324" x="236.840789" y="251.846125" style="stroke: #000000; stroke-width: 0.6"/>
      </g>
     </g>
    </g>
    <g id="xtick_13">
     <g id="line2d_16">
      <g>
       <use xlink:href="#m6a9e047324" x="247.775525" y="251.846125" style="stroke: #000000; stroke-width: 0.6"/>
      </g>
     </g>
    </g>
    <g id="xtick_14">
     <g id="line2d_17">
      <g>
       <use xlink:href="#m6a9e047324" x="257.247625" y="251.846125" style="stroke: #000000; stroke-width: 0.6"/>
      </g>
     </g>
    </g>
    <g id="xtick_15">
     <g id="line2d_18">
      <g>
       <use xlink:href="#m6a9e047324" x="265.60261" y="251.846125" style="stroke: #000000; stroke-width: 0.6"/>
      </g>
     </g>
    </g>
    <g id="xtick_16">
     <g id="line2d_19">
      <g>
       <use xlink:href="#m6a9e047324" x="322.245056" y="251.846125" style="stroke: #000000; stroke-width: 0.6"/>
      </g>
     </g>
    </g>
    <g id="xtick_17">
     <g id="line2d_20">
      <g>
       <use xlink:href="#m6a9e047324" x="351.006877" y="251.846125" style="stroke: #000000; stroke-width: 0.6"/>
      </g>
     </g>
    </g>
    <g id="xtick_18">
     <g id="line2d_21">
      <g>
       <use xlink:href="#m6a9e047324" x="371.413714" y="251.846125" style="stroke: #000000; stroke-width: 0.6"/>
      </g>
     </g>
    </g>
    <g id="xtick_19">
     <g id="line2d_22">
      <g>
       <use xlink:href="#m6a9e047324" x="387.242486" y="251.846125" style="stroke: #000000; stroke-width: 0.6"/>
      </g>
     </g>
    </g>
    <g id="xtick_20">
     <g id="line2d_23">
      <g>
       <use xlink:href="#m6a9e047324" x="400.175535" y="251.846125" style="stroke: #000000; stroke-width: 0.6"/>
      </g>
     </g>
    </g>
    <g id="xtick_21">
     <g id="line2d_24">
      <g>
       <use xlink:href="#m6a9e047324" x="411.110272" y="251.846125" style="stroke: #000000; stroke-width: 0.6"/>
      </g>
     </g>
    </g>
    <g id="xtick_22">
     <g id="line2d_25">
      <g>
       <use xlink:href="#m6a9e047324" x="420.582372" y="251.846125" style="stroke: #000000; stroke-width: 0.6"/>
      </g>
     </g>
    </g>
    <g id="xtick_23">
     <g id="line2d_26">
      <g>
       <use xlink:href="#m6a9e047324" x="428.937356" y="251.846125" style="stroke: #000000; stroke-width: 0.6"/>
      </g>
     </g>
    </g>
    <g id="xtick_24">
     <g id="line2d_27">
      <g>
       <use xlink:href="#m6a9e047324" x="485.579802" y="251.846125" style="stroke: #000000; stroke-width: 0.6"/>
      </g>
     </g>
    </g>
    <g id="xtick_25">
     <g id="line2d_28">
      <g>
       <use xlink:href="#m6a9e047324" x="514.341623" y="251.846125" style="stroke: #000000; stroke-width: 0.6"/>
      </g>
     </g>
    </g>
    <g id="xtick_26">
     <g id="line2d_29">
      <g>
       <use xlink:href="#m6a9e047324" x="534.74846" y="251.846125" style="stroke: #000000; stroke-width: 0.6"/>
      </g>
     </g>
    </g>
    <g id="xtick_27">
     <g id="line2d_30">
      <g>
       <use xlink:href="#m6a9e047324" x="550.577232" y="251.846125" style="stroke: #000000; stroke-width: 0.6"/>
      </g>
     </g>
    </g>
    <g id="xtick_28">
     <g id="line2d_31">
      <g>
       <use xlink:href="#m6a9e047324" x="563.510281" y="251.846125" style="stroke: #000000; stroke-width: 0.6"/>
      </g>
     </g>
    </g>
    <g id="xtick_29">
     <g id="line2d_32">
      <g>
       <use xlink:href="#m6a9e047324" x="574.445018" y="251.846125" style="stroke: #000000; stroke-width: 0.6"/>
      </g>
     </g>
    </g>
    <g id="text_4">
     <!-- change outputs per cluster (log) -->
     <g transform="translate(237.851016 280.882531) scale(0.11 -0.11)">
      <defs>
       <path id="DejaVuSans-63" d="M 3122 3366 
L 3122 2828 
Q 2878 2963 2633 3030 
Q 2388 3097 2138 3097 
Q 1578 3097 1268 2742 
Q 959 2388 959 1747 
Q 959 1106 1268 751 
Q 1578 397 2138 397 
Q 2388 397 2633 464 
Q 2878 531 3122 666 
L 3122 134 
Q 2881 22 2623 -34 
Q 2366 -91 2075 -91 
Q 1284 -91 818 406 
Q 353 903 353 1747 
Q 353 2603 823 3093 
Q 1294 3584 2113 3584 
Q 2378 3584 2631 3529 
Q 2884 3475 3122 3366 
z
" transform="scale(0.015625)"/>
       <path id="DejaVuSans-68" d="M 3513 2113 
L 3513 0 
L 2938 0 
L 2938 2094 
Q 2938 2591 2744 2837 
Q 2550 3084 2163 3084 
Q 1697 3084 1428 2787 
Q 1159 2491 1159 1978 
L 1159 0 
L 581 0 
L 581 4863 
L 1159 4863 
L 1159 2956 
Q 1366 3272 1645 3428 
Q 1925 3584 2291 3584 
Q 2894 3584 3203 3211 
Q 3513 2838 3513 2113 
z
" transform="scale(0.015625)"/>
       <path id="DejaVuSans-61" d="M 2194 1759 
Q 1497 1759 1228 1600 
Q 959 1441 959 1056 
Q 959 750 1161 570 
Q 1363 391 1709 391 
Q 2188 391 2477 730 
Q 2766 1069 2766 1631 
L 2766 1759 
L 2194 1759 
z
M 3341 1997 
L 3341 0 
L 2766 0 
L 2766 531 
Q 2569 213 2275 61 
Q 1981 -91 1556 -91 
Q 1019 -91 701 211 
Q 384 513 384 1019 
Q 384 1609 779 1909 
Q 1175 2209 1959 2209 
L 2766 2209 
L 2766 2266 
Q 2766 2663 2505 2880 
Q 2244 3097 1772 3097 
Q 1472 3097 1187 3025 
Q 903 2953 641 2809 
L 641 3341 
Q 956 3463 1253 3523 
Q 1550 3584 1831 3584 
Q 2591 3584 2966 3190 
Q 3341 2797 3341 1997 
z
" transform="scale(0.015625)"/>
       <path id="DejaVuSans-6e" d="M 3513 2113 
L 3513 0 
L 2938 0 
L 2938 2094 
Q 2938 2591 2744 2837 
Q 2550 3084 2163 3084 
Q 1697 3084 1428 2787 
Q 1159 2491 1159 1978 
L 1159 0 
L 581 0 
L 581 3500 
L 1159 3500 
L 1159 2956 
Q 1366 3272 1645 3428 
Q 1925 3584 2291 3584 
Q 2894 3584 3203 3211 
Q 3513 2838 3513 2113 
z
" transform="scale(0.015625)"/>
       <path id="DejaVuSans-67" d="M 2906 1791 
Q 2906 2416 2648 2759 
Q 2391 3103 1925 3103 
Q 1463 3103 1205 2759 
Q 947 2416 947 1791 
Q 947 1169 1205 825 
Q 1463 481 1925 481 
Q 2391 481 2648 825 
Q 2906 1169 2906 1791 
z
M 3481 434 
Q 3481 -459 3084 -895 
Q 2688 -1331 1869 -1331 
Q 1566 -1331 1297 -1286 
Q 1028 -1241 775 -1147 
L 775 -588 
Q 1028 -725 1275 -790 
Q 1522 -856 1778 -856 
Q 2344 -856 2625 -561 
Q 2906 -266 2906 331 
L 2906 616 
Q 2728 306 2450 153 
Q 2172 0 1784 0 
Q 1141 0 747 490 
Q 353 981 353 1791 
Q 353 2603 747 3093 
Q 1141 3584 1784 3584 
Q 2172 3584 2450 3431 
Q 2728 3278 2906 2969 
L 2906 3500 
L 3481 3500 
L 3481 434 
z
" transform="scale(0.015625)"/>
       <path id="DejaVuSans-65" d="M 3597 1894 
L 3597 1613 
L 953 1613 
Q 991 1019 1311 708 
Q 1631 397 2203 397 
Q 2534 397 2845 478 
Q 3156 559 3463 722 
L 3463 178 
Q 3153 47 2828 -22 
Q 2503 -91 2169 -91 
Q 1331 -91 842 396 
Q 353 884 353 1716 
Q 353 2575 817 3079 
Q 1281 3584 2069 3584 
Q 2775 3584 3186 3129 
Q 3597 2675 3597 1894 
z
M 3022 2063 
Q 3016 2534 2758 2815 
Q 2500 3097 2075 3097 
Q 1594 3097 1305 2825 
Q 1016 2553 972 2059 
L 3022 2063 
z
" transform="scale(0.015625)"/>
       <path id="DejaVuSans-20" transform="scale(0.015625)"/>
       <path id="DejaVuSans-6f" d="M 1959 3097 
Q 1497 3097 1228 2736 
Q 959 2375 959 1747 
Q 959 1119 1226 758 
Q 1494 397 1959 397 
Q 2419 397 2687 759 
Q 2956 1122 2956 1747 
Q 2956 2369 2687 2733 
Q 2419 3097 1959 3097 
z
M 1959 3584 
Q 2709 3584 3137 3096 
Q 3566 2609 3566 1747 
Q 3566 888 3137 398 
Q 2709 -91 1959 -91 
Q 1206 -91 779 398 
Q 353 888 353 1747 
Q 353 2609 779 3096 
Q 1206 3584 1959 3584 
z
" transform="scale(0.015625)"/>
       <path id="DejaVuSans-75" d="M 544 1381 
L 544 3500 
L 1119 3500 
L 1119 1403 
Q 1119 906 1312 657 
Q 1506 409 1894 409 
Q 2359 409 2629 706 
Q 2900 1003 2900 1516 
L 2900 3500 
L 3475 3500 
L 3475 0 
L 2900 0 
L 2900 538 
Q 2691 219 2414 64 
Q 2138 -91 1772 -91 
Q 1169 -91 856 284 
Q 544 659 544 1381 
z
M 1991 3584 
L 1991 3584 
z
" transform="scale(0.015625)"/>
       <path id="DejaVuSans-74" d="M 1172 4494 
L 1172 3500 
L 2356 3500 
L 2356 3053 
L 1172 3053 
L 1172 1153 
Q 1172 725 1289 603 
Q 1406 481 1766 481 
L 2356 481 
L 2356 0 
L 1766 0 
Q 1100 0 847 248 
Q 594 497 594 1153 
L 594 3053 
L 172 3053 
L 172 3500 
L 594 3500 
L 594 4494 
L 1172 4494 
z
" transform="scale(0.015625)"/>
       <path id="DejaVuSans-70" d="M 1159 525 
L 1159 -1331 
L 581 -1331 
L 581 3500 
L 1159 3500 
L 1159 2969 
Q 1341 3281 1617 3432 
Q 1894 3584 2278 3584 
Q 2916 3584 3314 3078 
Q 3713 2572 3713 1747 
Q 3713 922 3314 415 
Q 2916 -91 2278 -91 
Q 1894 -91 1617 61 
Q 1341 213 1159 525 
z
M 3116 1747 
Q 3116 2381 2855 2742 
Q 2594 3103 2138 3103 
Q 1681 3103 1420 2742 
Q 1159 2381 1159 1747 
Q 1159 1113 1420 752 
Q 1681 391 2138 391 
Q 2594 391 2855 752 
Q 3116 1113 3116 1747 
z
" transform="scale(0.015625)"/>
       <path id="DejaVuSans-73" d="M 2834 3397 
L 2834 2853 
Q 2591 2978 2328 3040 
Q 2066 3103 1784 3103 
Q 1356 3103 1142 2972 
Q 928 2841 928 2578 
Q 928 2378 1081 2264 
Q 1234 2150 1697 2047 
L 1894 2003 
Q 2506 1872 2764 1633 
Q 3022 1394 3022 966 
Q 3022 478 2636 193 
Q 2250 -91 1575 -91 
Q 1294 -91 989 -36 
Q 684 19 347 128 
L 347 722 
Q 666 556 975 473 
Q 1284 391 1588 391 
Q 1994 391 2212 530 
Q 2431 669 2431 922 
Q 2431 1156 2273 1281 
Q 2116 1406 1581 1522 
L 1381 1569 
Q 847 1681 609 1914 
Q 372 2147 372 2553 
Q 372 3047 722 3315 
Q 1072 3584 1716 3584 
Q 2034 3584 2315 3537 
Q 2597 3491 2834 3397 
z
" transform="scale(0.015625)"/>
       <path id="DejaVuSans-72" d="M 2631 2963 
Q 2534 3019 2420 3045 
Q 2306 3072 2169 3072 
Q 1681 3072 1420 2755 
Q 1159 2438 1159 1844 
L 1159 0 
L 581 0 
L 581 3500 
L 1159 3500 
L 1159 2956 
Q 1341 3275 1631 3429 
Q 1922 3584 2338 3584 
Q 2397 3584 2469 3576 
Q 2541 3569 2628 3553 
L 2631 2963 
z
" transform="scale(0.015625)"/>
       <path id="DejaVuSans-6c" d="M 603 4863 
L 1178 4863 
L 1178 0 
L 603 0 
L 603 4863 
z
" transform="scale(0.015625)"/>
       <path id="DejaVuSans-28" d="M 1984 4856 
Q 1566 4138 1362 3434 
Q 1159 2731 1159 2009 
Q 1159 1288 1364 580 
Q 1569 -128 1984 -844 
L 1484 -844 
Q 1016 -109 783 600 
Q 550 1309 550 2009 
Q 550 2706 781 3412 
Q 1013 4119 1484 4856 
L 1984 4856 
z
" transform="scale(0.015625)"/>
       <path id="DejaVuSans-29" d="M 513 4856 
L 1013 4856 
Q 1481 4119 1714 3412 
Q 1947 2706 1947 2009 
Q 1947 1309 1714 600 
Q 1481 -109 1013 -844 
L 513 -844 
Q 928 -128 1133 580 
Q 1338 1288 1338 2009 
Q 1338 2731 1133 3434 
Q 928 4138 513 4856 
z
" transform="scale(0.015625)"/>
      </defs>
      <use xlink:href="#DejaVuSans-63"/>
      <use xlink:href="#DejaVuSans-68" transform="translate(54.980469 0)"/>
      <use xlink:href="#DejaVuSans-61" transform="translate(118.359375 0)"/>
      <use xlink:href="#DejaVuSans-6e" transform="translate(179.638672 0)"/>
      <use xlink:href="#DejaVuSans-67" transform="translate(243.017578 0)"/>
      <use xlink:href="#DejaVuSans-65" transform="translate(306.494141 0)"/>
      <use xlink:href="#DejaVuSans-20" transform="translate(368.017578 0)"/>
      <use xlink:href="#DejaVuSans-6f" transform="translate(399.804688 0)"/>
      <use xlink:href="#DejaVuSans-75" transform="translate(460.986328 0)"/>
      <use xlink:href="#DejaVuSans-74" transform="translate(524.365234 0)"/>
      <use xlink:href="#DejaVuSans-70" transform="translate(563.574219 0)"/>
      <use xlink:href="#DejaVuSans-75" transform="translate(627.050781 0)"/>
      <use xlink:href="#DejaVuSans-74" transform="translate(690.429688 0)"/>
      <use xlink:href="#DejaVuSans-73" transform="translate(729.638672 0)"/>
      <use xlink:href="#DejaVuSans-20" transform="translate(781.738281 0)"/>
      <use xlink:href="#DejaVuSans-70" transform="translate(813.525391 0)"/>
      <use xlink:href="#DejaVuSans-65" transform="translate(877.001953 0)"/>
      <use xlink:href="#DejaVuSans-72" transform="translate(938.525391 0)"/>
      <use xlink:href="#DejaVuSans-20" transform="translate(979.638672 0)"/>
      <use xlink:href="#DejaVuSans-63" transform="translate(1011.425781 0)"/>
      <use xlink:href="#DejaVuSans-6c" transform="translate(1066.40625 0)"/>
      <use xlink:href="#DejaVuSans-75" transform="translate(1094.189453 0)"/>
      <use xlink:href="#DejaVuSans-73" transform="translate(1157.568359 0)"/>
      <use xlink:href="#DejaVuSans-74" transform="translate(1209.667969 0)"/>
      <use xlink:href="#DejaVuSans-65" transform="translate(1248.876953 0)"/>
      <use xlink:href="#DejaVuSans-72" transform="translate(1310.400391 0)"/>
      <use xlink:href="#DejaVuSans-20" transform="translate(1351.513672 0)"/>
      <use xlink:href="#DejaVuSans-28" transform="translate(1383.300781 0)"/>
      <use xlink:href="#DejaVuSans-6c" transform="translate(1422.314453 0)"/>
      <use xlink:href="#DejaVuSans-6f" transform="translate(1450.097656 0)"/>
      <use xlink:href="#DejaVuSans-67" transform="translate(1511.279297 0)"/>
      <use xlink:href="#DejaVuSans-29" transform="translate(1574.755859 0)"/>
     </g>
    </g>
   </g>
   <g id="matplotlib.axis_2">
    <g id="ytick_1">
     <g id="line2d_33">
      <path d="M 71.61267 243.542236 
L 581.60358 243.542236 
" clip-path="url(#pc6c2aca1bd)" style="fill: none; stroke: #dddddd; stroke-opacity: 0.6; stroke-width: 0.6; stroke-linecap: square"/>
     </g>
     <g id="line2d_34">
      <defs>
       <path id="m694d43c33e" d="M 0 0 
L -3.5 0 
" style="stroke: #000000; stroke-width: 0.8"/>
      </defs>
      <g>
       <use xlink:href="#m694d43c33e" x="71.61267" y="243.542236" style="stroke: #000000; stroke-width: 0.8"/>
      </g>
     </g>
     <g id="text_5">
      <!-- 0 -->
      <g transform="translate(58.25017 247.341455) scale(0.1 -0.1)">
       <use xlink:href="#DejaVuSans-30"/>
      </g>
     </g>
    </g>
    <g id="ytick_2">
     <g id="line2d_35">
      <path d="M 71.61267 200.958192 
L 581.60358 200.958192 
" clip-path="url(#pc6c2aca1bd)" style="fill: none; stroke: #dddddd; stroke-opacity: 0.6; stroke-width: 0.6; stroke-linecap: square"/>
     </g>
     <g id="line2d_36">
      <g>
       <use xlink:href="#m694d43c33e" x="71.61267" y="200.958192" style="stroke: #000000; stroke-width: 0.8"/>
      </g>
     </g>
     <g id="text_6">
      <!-- 20 -->
      <g transform="translate(51.88767 204.757411) scale(0.1 -0.1)">
       <use xlink:href="#DejaVuSans-32"/>
       <use xlink:href="#DejaVuSans-30" transform="translate(63.623047 0)"/>
      </g>
     </g>
    </g>
    <g id="ytick_3">
     <g id="line2d_37">
      <path d="M 71.61267 158.374147 
L 581.60358 158.374147 
" clip-path="url(#pc6c2aca1bd)" style="fill: none; stroke: #dddddd; stroke-opacity: 0.6; stroke-width: 0.6; stroke-linecap: square"/>
     </g>
     <g id="line2d_38">
      <g>
       <use xlink:href="#m694d43c33e" x="71.61267" y="158.374147" style="stroke: #000000; stroke-width: 0.8"/>
      </g>
     </g>
     <g id="text_7">
      <!-- 40 -->
      <g transform="translate(51.88767 162.173366) scale(0.1 -0.1)">
       <use xlink:href="#DejaVuSans-34"/>
       <use xlink:href="#DejaVuSans-30" transform="translate(63.623047 0)"/>
      </g>
     </g>
    </g>
    <g id="ytick_4">
     <g id="line2d_39">
      <path d="M 71.61267 115.790103 
L 581.60358 115.790103 
" clip-path="url(#pc6c2aca1bd)" style="fill: none; stroke: #dddddd; stroke-opacity: 0.6; stroke-width: 0.6; stroke-linecap: square"/>
     </g>
     <g id="line2d_40">
      <g>
       <use xlink:href="#m694d43c33e" x="71.61267" y="115.790103" style="stroke: #000000; stroke-width: 0.8"/>
      </g>
     </g>
     <g id="text_8">
      <!-- 60 -->
      <g transform="translate(51.88767 119.589321) scale(0.1 -0.1)">
       <defs>
        <path id="DejaVuSans-36" d="M 2113 2584 
Q 1688 2584 1439 2293 
Q 1191 2003 1191 1497 
Q 1191 994 1439 701 
Q 1688 409 2113 409 
Q 2538 409 2786 701 
Q 3034 994 3034 1497 
Q 3034 2003 2786 2293 
Q 2538 2584 2113 2584 
z
M 3366 4563 
L 3366 3988 
Q 3128 4100 2886 4159 
Q 2644 4219 2406 4219 
Q 1781 4219 1451 3797 
Q 1122 3375 1075 2522 
Q 1259 2794 1537 2939 
Q 1816 3084 2150 3084 
Q 2853 3084 3261 2657 
Q 3669 2231 3669 1497 
Q 3669 778 3244 343 
Q 2819 -91 2113 -91 
Q 1303 -91 875 529 
Q 447 1150 447 2328 
Q 447 3434 972 4092 
Q 1497 4750 2381 4750 
Q 2619 4750 2861 4703 
Q 3103 4656 3366 4563 
z
" transform="scale(0.015625)"/>
       </defs>
       <use xlink:href="#DejaVuSans-36"/>
       <use xlink:href="#DejaVuSans-30" transform="translate(63.623047 0)"/>
      </g>
     </g>
    </g>
    <g id="ytick_5">
     <g id="line2d_41">
      <path d="M 71.61267 73.206058 
L 581.60358 73.206058 
" clip-path="url(#pc6c2aca1bd)" style="fill: none; stroke: #dddddd; stroke-opacity: 0.6; stroke-width: 0.6; stroke-linecap: square"/>
     </g>
     <g id="line2d_42">
      <g>
       <use xlink:href="#m694d43c33e" x="71.61267" y="73.206058" style="stroke: #000000; stroke-width: 0.8"/>
      </g>
     </g>
     <g id="text_9">
      <!-- 80 -->
      <g transform="translate(51.88767 77.005277) scale(0.1 -0.1)">
       <defs>
        <path id="DejaVuSans-38" d="M 2034 2216 
Q 1584 2216 1326 1975 
Q 1069 1734 1069 1313 
Q 1069 891 1326 650 
Q 1584 409 2034 409 
Q 2484 409 2743 651 
Q 3003 894 3003 1313 
Q 3003 1734 2745 1975 
Q 2488 2216 2034 2216 
z
M 1403 2484 
Q 997 2584 770 2862 
Q 544 3141 544 3541 
Q 544 4100 942 4425 
Q 1341 4750 2034 4750 
Q 2731 4750 3128 4425 
Q 3525 4100 3525 3541 
Q 3525 3141 3298 2862 
Q 3072 2584 2669 2484 
Q 3125 2378 3379 2068 
Q 3634 1759 3634 1313 
Q 3634 634 3220 271 
Q 2806 -91 2034 -91 
Q 1263 -91 848 271 
Q 434 634 434 1313 
Q 434 1759 690 2068 
Q 947 2378 1403 2484 
z
M 1172 3481 
Q 1172 3119 1398 2916 
Q 1625 2713 2034 2713 
Q 2441 2713 2670 2916 
Q 2900 3119 2900 3481 
Q 2900 3844 2670 4047 
Q 2441 4250 2034 4250 
Q 1625 4250 1398 4047 
Q 1172 3844 1172 3481 
z
" transform="scale(0.015625)"/>
       </defs>
       <use xlink:href="#DejaVuSans-38"/>
       <use xlink:href="#DejaVuSans-30" transform="translate(63.623047 0)"/>
      </g>
     </g>
    </g>
    <g id="ytick_6">
     <g id="line2d_43">
      <path d="M 71.61267 30.622014 
L 581.60358 30.622014 
" clip-path="url(#pc6c2aca1bd)" style="fill: none; stroke: #dddddd; stroke-opacity: 0.6; stroke-width: 0.6; stroke-linecap: square"/>
     </g>
     <g id="line2d_44">
      <g>
       <use xlink:href="#m694d43c33e" x="71.61267" y="30.622014" style="stroke: #000000; stroke-width: 0.8"/>
      </g>
     </g>
     <g id="text_10">
      <!-- 100 -->
      <g transform="translate(45.52517 34.421232) scale(0.1 -0.1)">
       <use xlink:href="#DejaVuSans-31"/>
       <use xlink:href="#DejaVuSans-30" transform="translate(63.623047 0)"/>
       <use xlink:href="#DejaVuSans-30" transform="translate(127.246094 0)"/>
      </g>
     </g>
    </g>
    <g id="text_11">
     <!-- single-cluster CIOH wallets (maker-shaped) -->
     <g transform="translate(39.237514 255.928531) rotate(-90) scale(0.11 -0.11)">
      <defs>
       <path id="DejaVuSans-69" d="M 603 3500 
L 1178 3500 
L 1178 0 
L 603 0 
L 603 3500 
z
M 603 4863 
L 1178 4863 
L 1178 4134 
L 603 4134 
L 603 4863 
z
" transform="scale(0.015625)"/>
       <path id="DejaVuSans-2d" d="M 313 2009 
L 1997 2009 
L 1997 1497 
L 313 1497 
L 313 2009 
z
" transform="scale(0.015625)"/>
       <path id="DejaVuSans-43" d="M 4122 4306 
L 4122 3641 
Q 3803 3938 3442 4084 
Q 3081 4231 2675 4231 
Q 1875 4231 1450 3742 
Q 1025 3253 1025 2328 
Q 1025 1406 1450 917 
Q 1875 428 2675 428 
Q 3081 428 3442 575 
Q 3803 722 4122 1019 
L 4122 359 
Q 3791 134 3420 21 
Q 3050 -91 2638 -91 
Q 1578 -91 968 557 
Q 359 1206 359 2328 
Q 359 3453 968 4101 
Q 1578 4750 2638 4750 
Q 3056 4750 3426 4639 
Q 3797 4528 4122 4306 
z
" transform="scale(0.015625)"/>
       <path id="DejaVuSans-49" d="M 628 4666 
L 1259 4666 
L 1259 0 
L 628 0 
L 628 4666 
z
" transform="scale(0.015625)"/>
       <path id="DejaVuSans-4f" d="M 2522 4238 
Q 1834 4238 1429 3725 
Q 1025 3213 1025 2328 
Q 1025 1447 1429 934 
Q 1834 422 2522 422 
Q 3209 422 3611 934 
Q 4013 1447 4013 2328 
Q 4013 3213 3611 3725 
Q 3209 4238 2522 4238 
z
M 2522 4750 
Q 3503 4750 4090 4092 
Q 4678 3434 4678 2328 
Q 4678 1225 4090 567 
Q 3503 -91 2522 -91 
Q 1538 -91 948 565 
Q 359 1222 359 2328 
Q 359 3434 948 4092 
Q 1538 4750 2522 4750 
z
" transform="scale(0.015625)"/>
       <path id="DejaVuSans-48" d="M 628 4666 
L 1259 4666 
L 1259 2753 
L 3553 2753 
L 3553 4666 
L 4184 4666 
L 4184 0 
L 3553 0 
L 3553 2222 
L 1259 2222 
L 1259 0 
L 628 0 
L 628 4666 
z
" transform="scale(0.015625)"/>
       <path id="DejaVuSans-77" d="M 269 3500 
L 844 3500 
L 1563 769 
L 2278 3500 
L 2956 3500 
L 3675 769 
L 4391 3500 
L 4966 3500 
L 4050 0 
L 3372 0 
L 2619 2869 
L 1863 0 
L 1184 0 
L 269 3500 
z
" transform="scale(0.015625)"/>
       <path id="DejaVuSans-6d" d="M 3328 2828 
Q 3544 3216 3844 3400 
Q 4144 3584 4550 3584 
Q 5097 3584 5394 3201 
Q 5691 2819 5691 2113 
L 5691 0 
L 5113 0 
L 5113 2094 
Q 5113 2597 4934 2840 
Q 4756 3084 4391 3084 
Q 3944 3084 3684 2787 
Q 3425 2491 3425 1978 
L 3425 0 
L 2847 0 
L 2847 2094 
Q 2847 2600 2669 2842 
Q 2491 3084 2119 3084 
Q 1678 3084 1418 2786 
Q 1159 2488 1159 1978 
L 1159 0 
L 581 0 
L 581 3500 
L 1159 3500 
L 1159 2956 
Q 1356 3278 1631 3431 
Q 1906 3584 2284 3584 
Q 2666 3584 2933 3390 
Q 3200 3197 3328 2828 
z
" transform="scale(0.015625)"/>
       <path id="DejaVuSans-6b" d="M 581 4863 
L 1159 4863 
L 1159 1991 
L 2875 3500 
L 3609 3500 
L 1753 1863 
L 3688 0 
L 2938 0 
L 1159 1709 
L 1159 0 
L 581 0 
L 581 4863 
z
" transform="scale(0.015625)"/>
       <path id="DejaVuSans-64" d="M 2906 2969 
L 2906 4863 
L 3481 4863 
L 3481 0 
L 2906 0 
L 2906 525 
Q 2725 213 2448 61 
Q 2172 -91 1784 -91 
Q 1150 -91 751 415 
Q 353 922 353 1747 
Q 353 2572 751 3078 
Q 1150 3584 1784 3584 
Q 2172 3584 2448 3432 
Q 2725 3281 2906 2969 
z
M 947 1747 
Q 947 1113 1208 752 
Q 1469 391 1925 391 
Q 2381 391 2643 752 
Q 2906 1113 2906 1747 
Q 2906 2381 2643 2742 
Q 2381 3103 1925 3103 
Q 1469 3103 1208 2742 
Q 947 2381 947 1747 
z
" transform="scale(0.015625)"/>
      </defs>
      <use xlink:href="#DejaVuSans-73"/>
      <use xlink:href="#DejaVuSans-69" transform="translate(52.099609 0)"/>
      <use xlink:href="#DejaVuSans-6e" transform="translate(79.882812 0)"/>
      <use xlink:href="#DejaVuSans-67" transform="translate(143.261719 0)"/>
      <use xlink:href="#DejaVuSans-6c" transform="translate(206.738281 0)"/>
      <use xlink:href="#DejaVuSans-65" transform="translate(234.521484 0)"/>
      <use xlink:href="#DejaVuSans-2d" transform="translate(296.044922 0)"/>
      <use xlink:href="#DejaVuSans-63" transform="translate(332.128906 0)"/>
      <use xlink:href="#DejaVuSans-6c" transform="translate(387.109375 0)"/>
      <use xlink:href="#DejaVuSans-75" transform="translate(414.892578 0)"/>
      <use xlink:href="#DejaVuSans-73" transform="translate(478.271484 0)"/>
      <use xlink:href="#DejaVuSans-74" transform="translate(530.371094 0)"/>
      <use xlink:href="#DejaVuSans-65" transform="translate(569.580078 0)"/>
      <use xlink:href="#DejaVuSans-72" transform="translate(631.103516 0)"/>
      <use xlink:href="#DejaVuSans-20" transform="translate(672.216797 0)"/>
      <use xlink:href="#DejaVuSans-43" transform="translate(704.003906 0)"/>
      <use xlink:href="#DejaVuSans-49" transform="translate(773.828125 0)"/>
      <use xlink:href="#DejaVuSans-4f" transform="translate(803.320312 0)"/>
      <use xlink:href="#DejaVuSans-48" transform="translate(882.03125 0)"/>
      <use xlink:href="#DejaVuSans-20" transform="translate(957.226562 0)"/>
      <use xlink:href="#DejaVuSans-77" transform="translate(989.013672 0)"/>
      <use xlink:href="#DejaVuSans-61" transform="translate(1070.800781 0)"/>
      <use xlink:href="#DejaVuSans-6c" transform="translate(1132.080078 0)"/>
      <use xlink:href="#DejaVuSans-6c" transform="translate(1159.863281 0)"/>
      <use xlink:href="#DejaVuSans-65" transform="translate(1187.646484 0)"/>
      <use xlink:href="#DejaVuSans-74" transform="translate(1249.169922 0)"/>
      <use xlink:href="#DejaVuSans-73" transform="translate(1288.378906 0)"/>
      <use xlink:href="#DejaVuSans-20" transform="translate(1340.478516 0)"/>
      <use xlink:href="#DejaVuSans-28" transform="translate(1372.265625 0)"/>
      <use xlink:href="#DejaVuSans-6d" transform="translate(1411.279297 0)"/>
      <use xlink:href="#DejaVuSans-61" transform="translate(1508.691406 0)"/>
      <use xlink:href="#DejaVuSans-6b" transform="translate(1569.970703 0)"/>
      <use xlink:href="#DejaVuSans-65" transform="translate(1624.255859 0)"/>
      <use xlink:href="#DejaVuSans-72" transform="translate(1685.779297 0)"/>
      <use xlink:href="#DejaVuSans-2d" transform="translate(1720.517578 0)"/>
      <use xlink:href="#DejaVuSans-73" transform="translate(1756.601562 0)"/>
      <use xlink:href="#DejaVuSans-68" transform="translate(1808.701172 0)"/>
      <use xlink:href="#DejaVuSans-61" transform="translate(1872.080078 0)"/>
      <use xlink:href="#DejaVuSans-70" transform="translate(1933.359375 0)"/>
      <use xlink:href="#DejaVuSans-65" transform="translate(1996.835938 0)"/>
      <use xlink:href="#DejaVuSans-64" transform="translate(2058.359375 0)"/>
      <use xlink:href="#DejaVuSans-29" transform="translate(2121.835938 0)"/>
     </g>
    </g>
   </g>
   <g id="patch_3">
    <path d="M 71.61267 251.846125 
L 71.61267 22.318125 
" style="fill: none; stroke: #444444; stroke-width: 0.8; stroke-linejoin: miter; stroke-linecap: square"/>
   </g>
   <g id="patch_4">
    <path d="M 71.61267 251.846125 
L 581.60358 251.846125 
" style="fill: none; stroke: #444444; stroke-width: 0.8; stroke-linejoin: miter; stroke-linecap: square"/>
   </g>
   <g id="text_12">
    <!-- c27 -->
    <g transform="translate(564.422175 29.751216) scale(0.09 -0.09)">
     <defs>
      <path id="DejaVuSans-Bold-63" d="M 3366 3391 
L 3366 2478 
Q 3138 2634 2908 2709 
Q 2678 2784 2431 2784 
Q 1963 2784 1702 2511 
Q 1441 2238 1441 1747 
Q 1441 1256 1702 982 
Q 1963 709 2431 709 
Q 2694 709 2930 787 
Q 3166 866 3366 1019 
L 3366 103 
Q 3103 6 2833 -42 
Q 2563 -91 2291 -91 
Q 1344 -91 809 395 
Q 275 881 275 1747 
Q 275 2613 809 3098 
Q 1344 3584 2291 3584 
Q 2566 3584 2833 3536 
Q 3100 3488 3366 3391 
z
" transform="scale(0.015625)"/>
      <path id="DejaVuSans-Bold-32" d="M 1844 884 
L 3897 884 
L 3897 0 
L 506 0 
L 506 884 
L 2209 2388 
Q 2438 2594 2547 2791 
Q 2656 2988 2656 3200 
Q 2656 3528 2436 3728 
Q 2216 3928 1850 3928 
Q 1569 3928 1234 3808 
Q 900 3688 519 3450 
L 519 4475 
Q 925 4609 1322 4679 
Q 1719 4750 2100 4750 
Q 2938 4750 3402 4381 
Q 3866 4013 3866 3353 
Q 3866 2972 3669 2642 
Q 3472 2313 2841 1759 
L 1844 884 
z
" transform="scale(0.015625)"/>
      <path id="DejaVuSans-Bold-37" d="M 428 4666 
L 3944 4666 
L 3944 3988 
L 2125 0 
L 953 0 
L 2675 3781 
L 428 3781 
L 428 4666 
z
" transform="scale(0.015625)"/>
     </defs>
     <use xlink:href="#DejaVuSans-Bold-63"/>
     <use xlink:href="#DejaVuSans-Bold-32" transform="translate(59.277344 0)"/>
     <use xlink:href="#DejaVuSans-Bold-37" transform="translate(128.857422 0)"/>
    </g>
   </g>
   <g id="text_13">
    <!-- c2 -->
    <g transform="translate(448.745113 82.981272) scale(0.09 -0.09)">
     <use xlink:href="#DejaVuSans-Bold-63"/>
     <use xlink:href="#DejaVuSans-Bold-32" transform="translate(59.277344 0)"/>
    </g>
   </g>
   <g id="text_14">
    <!-- c3 -->
    <g transform="translate(408.661489 131.952923) scale(0.09 -0.09)">
     <defs>
      <path id="DejaVuSans-Bold-33" d="M 2981 2516 
Q 3453 2394 3698 2092 
Q 3944 1791 3944 1325 
Q 3944 631 3412 270 
Q 2881 -91 1863 -91 
Q 1503 -91 1142 -33 
Q 781 25 428 141 
L 428 1069 
Q 766 900 1098 814 
Q 1431 728 1753 728 
Q 2231 728 2486 893 
Q 2741 1059 2741 1369 
Q 2741 1688 2480 1852 
Q 2219 2016 1709 2016 
L 1228 2016 
L 1228 2791 
L 1734 2791 
Q 2188 2791 2409 2933 
Q 2631 3075 2631 3366 
Q 2631 3634 2415 3781 
Q 2200 3928 1806 3928 
Q 1516 3928 1219 3862 
Q 922 3797 628 3669 
L 628 4550 
Q 984 4650 1334 4700 
Q 1684 4750 2022 4750 
Q 2931 4750 3382 4451 
Q 3834 4153 3834 3553 
Q 3834 3144 3618 2883 
Q 3403 2622 2981 2516 
z
" transform="scale(0.015625)"/>
     </defs>
     <use xlink:href="#DejaVuSans-Bold-63"/>
     <use xlink:href="#DejaVuSans-Bold-33" transform="translate(59.277344 0)"/>
    </g>
   </g>
   <g id="text_15">
    <!-- c28 -->
    <g transform="translate(492.411939 157.503349) scale(0.09 -0.09)">
     <defs>
      <path id="DejaVuSans-Bold-38" d="M 2228 2088 
Q 1891 2088 1709 1903 
Q 1528 1719 1528 1375 
Q 1528 1031 1709 848 
Q 1891 666 2228 666 
Q 2563 666 2741 848 
Q 2919 1031 2919 1375 
Q 2919 1722 2741 1905 
Q 2563 2088 2228 2088 
z
M 1350 2484 
Q 925 2613 709 2878 
Q 494 3144 494 3541 
Q 494 4131 934 4440 
Q 1375 4750 2228 4750 
Q 3075 4750 3515 4442 
Q 3956 4134 3956 3541 
Q 3956 3144 3739 2878 
Q 3522 2613 3097 2484 
Q 3572 2353 3814 2058 
Q 4056 1763 4056 1313 
Q 4056 619 3595 264 
Q 3134 -91 2228 -91 
Q 1319 -91 855 264 
Q 391 619 391 1313 
Q 391 1763 633 2058 
Q 875 2353 1350 2484 
z
M 1631 3419 
Q 1631 3141 1786 2991 
Q 1941 2841 2228 2841 
Q 2509 2841 2662 2991 
Q 2816 3141 2816 3419 
Q 2816 3697 2662 3845 
Q 2509 3994 2228 3994 
Q 1941 3994 1786 3844 
Q 1631 3694 1631 3419 
z
" transform="scale(0.015625)"/>
     </defs>
     <use xlink:href="#DejaVuSans-Bold-63"/>
     <use xlink:href="#DejaVuSans-Bold-32" transform="translate(59.277344 0)"/>
     <use xlink:href="#DejaVuSans-Bold-38" transform="translate(128.857422 0)"/>
    </g>
   </g>
   <g id="text_16">
    <!-- c47 -->
    <g transform="translate(436.627393 159.632552) scale(0.09 -0.09)">
     <defs>
      <path id="DejaVuSans-Bold-34" d="M 2356 3675 
L 1038 1722 
L 2356 1722 
L 2356 3675 
z
M 2156 4666 
L 3494 4666 
L 3494 1722 
L 4159 1722 
L 4159 850 
L 3494 850 
L 3494 0 
L 2356 0 
L 2356 850 
L 288 850 
L 288 1881 
L 2156 4666 
z
" transform="scale(0.015625)"/>
     </defs>
     <use xlink:href="#DejaVuSans-Bold-63"/>
     <use xlink:href="#DejaVuSans-Bold-34" transform="translate(59.277344 0)"/>
     <use xlink:href="#DejaVuSans-Bold-37" transform="translate(128.857422 0)"/>
    </g>
   </g>
   <g id="text_17">
    <!-- c0 -->
    <g transform="translate(422.943862 166.020158) scale(0.09 -0.09)">
     <defs>
      <path id="DejaVuSans-Bold-30" d="M 2944 2338 
Q 2944 3213 2780 3570 
Q 2616 3928 2228 3928 
Q 1841 3928 1675 3570 
Q 1509 3213 1509 2338 
Q 1509 1453 1675 1090 
Q 1841 728 2228 728 
Q 2613 728 2778 1090 
Q 2944 1453 2944 2338 
z
M 4147 2328 
Q 4147 1169 3647 539 
Q 3147 -91 2228 -91 
Q 1306 -91 806 539 
Q 306 1169 306 2328 
Q 306 3491 806 4120 
Q 1306 4750 2228 4750 
Q 3147 4750 3647 4120 
Q 4147 3491 4147 2328 
z
" transform="scale(0.015625)"/>
     </defs>
     <use xlink:href="#DejaVuSans-Bold-63"/>
     <use xlink:href="#DejaVuSans-Bold-30" transform="translate(59.277344 0)"/>
    </g>
   </g>
   <g id="text_18">
    <!-- CIOH entity-count lower bound: at least 720 single-cluster maker wallets observed via multi-input bundles -->
    <g transform="translate(7.2 16.318125) scale(0.12 -0.12)">
     <defs>
      <path id="DejaVuSans-79" d="M 2059 -325 
Q 1816 -950 1584 -1140 
Q 1353 -1331 966 -1331 
L 506 -1331 
L 506 -850 
L 844 -850 
Q 1081 -850 1212 -737 
Q 1344 -625 1503 -206 
L 1606 56 
L 191 3500 
L 800 3500 
L 1894 763 
L 2988 3500 
L 3597 3500 
L 2059 -325 
z
" transform="scale(0.015625)"/>
      <path id="DejaVuSans-62" d="M 3116 1747 
Q 3116 2381 2855 2742 
Q 2594 3103 2138 3103 
Q 1681 3103 1420 2742 
Q 1159 2381 1159 1747 
Q 1159 1113 1420 752 
Q 1681 391 2138 391 
Q 2594 391 2855 752 
Q 3116 1113 3116 1747 
z
M 1159 2969 
Q 1341 3281 1617 3432 
Q 1894 3584 2278 3584 
Q 2916 3584 3314 3078 
Q 3713 2572 3713 1747 
Q 3713 922 3314 415 
Q 2916 -91 2278 -91 
Q 1894 -91 1617 61 
Q 1341 213 1159 525 
L 1159 0 
L 581 0 
L 581 4863 
L 1159 4863 
L 1159 2969 
z
" transform="scale(0.015625)"/>
      <path id="DejaVuSans-3a" d="M 750 794 
L 1409 794 
L 1409 0 
L 750 0 
L 750 794 
z
M 750 3309 
L 1409 3309 
L 1409 2516 
L 750 2516 
L 750 3309 
z
" transform="scale(0.015625)"/>
      <path id="DejaVuSans-37" d="M 525 4666 
L 3525 4666 
L 3525 4397 
L 1831 0 
L 1172 0 
L 2766 4134 
L 525 4134 
L 525 4666 
z
" transform="scale(0.015625)"/>
      <path id="DejaVuSans-76" d="M 191 3500 
L 800 3500 
L 1894 563 
L 2988 3500 
L 3597 3500 
L 2284 0 
L 1503 0 
L 191 3500 
z
" transform="scale(0.015625)"/>
     </defs>
     <use xlink:href="#DejaVuSans-43"/>
     <use xlink:href="#DejaVuSans-49" transform="translate(69.824219 0)"/>
     <use xlink:href="#DejaVuSans-4f" transform="translate(99.316406 0)"/>
     <use xlink:href="#DejaVuSans-48" transform="translate(178.027344 0)"/>
     <use xlink:href="#DejaVuSans-20" transform="translate(253.222656 0)"/>
     <use xlink:href="#DejaVuSans-65" transform="translate(285.009766 0)"/>
     <use xlink:href="#DejaVuSans-6e" transform="translate(346.533203 0)"/>
     <use xlink:href="#DejaVuSans-74" transform="translate(409.912109 0)"/>
     <use xlink:href="#DejaVuSans-69" transform="translate(449.121094 0)"/>
     <use xlink:href="#DejaVuSans-74" transform="translate(476.904297 0)"/>
     <use xlink:href="#DejaVuSans-79" transform="translate(516.113281 0)"/>
     <use xlink:href="#DejaVuSans-2d" transform="translate(573.542969 0)"/>
     <use xlink:href="#DejaVuSans-63" transform="translate(609.626953 0)"/>
     <use xlink:href="#DejaVuSans-6f" transform="translate(664.607422 0)"/>
     <use xlink:href="#DejaVuSans-75" transform="translate(725.789062 0)"/>
     <use xlink:href="#DejaVuSans-6e" transform="translate(789.167969 0)"/>
     <use xlink:href="#DejaVuSans-74" transform="translate(852.546875 0)"/>
     <use xlink:href="#DejaVuSans-20" transform="translate(891.755859 0)"/>
     <use xlink:href="#DejaVuSans-6c" transform="translate(923.542969 0)"/>
     <use xlink:href="#DejaVuSans-6f" transform="translate(951.326172 0)"/>
     <use xlink:href="#DejaVuSans-77" transform="translate(1012.507812 0)"/>
     <use xlink:href="#DejaVuSans-65" transform="translate(1094.294922 0)"/>
     <use xlink:href="#DejaVuSans-72" transform="translate(1155.818359 0)"/>
     <use xlink:href="#DejaVuSans-20" transform="translate(1196.931641 0)"/>
     <use xlink:href="#DejaVuSans-62" transform="translate(1228.71875 0)"/>
     <use xlink:href="#DejaVuSans-6f" transform="translate(1292.195312 0)"/>
     <use xlink:href="#DejaVuSans-75" transform="translate(1353.376953 0)"/>
     <use xlink:href="#DejaVuSans-6e" transform="translate(1416.755859 0)"/>
     <use xlink:href="#DejaVuSans-64" transform="translate(1480.134766 0)"/>
     <use xlink:href="#DejaVuSans-3a" transform="translate(1543.611328 0)"/>
     <use xlink:href="#DejaVuSans-20" transform="translate(1577.302734 0)"/>
     <use xlink:href="#DejaVuSans-61" transform="translate(1609.089844 0)"/>
     <use xlink:href="#DejaVuSans-74" transform="translate(1670.369141 0)"/>
     <use xlink:href="#DejaVuSans-20" transform="translate(1709.578125 0)"/>
     <use xlink:href="#DejaVuSans-6c" transform="translate(1741.365234 0)"/>
     <use xlink:href="#DejaVuSans-65" transform="translate(1769.148438 0)"/>
     <use xlink:href="#DejaVuSans-61" transform="translate(1830.671875 0)"/>
     <use xlink:href="#DejaVuSans-73" transform="translate(1891.951172 0)"/>
     <use xlink:href="#DejaVuSans-74" transform="translate(1944.050781 0)"/>
     <use xlink:href="#DejaVuSans-20" transform="translate(1983.259766 0)"/>
     <use xlink:href="#DejaVuSans-37" transform="translate(2015.046875 0)"/>
     <use xlink:href="#DejaVuSans-32" transform="translate(2078.669922 0)"/>
     <use xlink:href="#DejaVuSans-30" transform="translate(2142.292969 0)"/>
     <use xlink:href="#DejaVuSans-20" transform="translate(2205.916016 0)"/>
     <use xlink:href="#DejaVuSans-73" transform="translate(2237.703125 0)"/>
     <use xlink:href="#DejaVuSans-69" transform="translate(2289.802734 0)"/>
     <use xlink:href="#DejaVuSans-6e" transform="translate(2317.585938 0)"/>
     <use xlink:href="#DejaVuSans-67" transform="translate(2380.964844 0)"/>
     <use xlink:href="#DejaVuSans-6c" transform="translate(2444.441406 0)"/>
     <use xlink:href="#DejaVuSans-65" transform="translate(2472.224609 0)"/>
     <use xlink:href="#DejaVuSans-2d" transform="translate(2533.748047 0)"/>
     <use xlink:href="#DejaVuSans-63" transform="translate(2569.832031 0)"/>
     <use xlink:href="#DejaVuSans-6c" transform="translate(2624.8125 0)"/>
     <use xlink:href="#DejaVuSans-75" transform="translate(2652.595703 0)"/>
     <use xlink:href="#DejaVuSans-73" transform="translate(2715.974609 0)"/>
     <use xlink:href="#DejaVuSans-74" transform="translate(2768.074219 0)"/>
     <use xlink:href="#DejaVuSans-65" transform="translate(2807.283203 0)"/>
     <use xlink:href="#DejaVuSans-72" transform="translate(2868.806641 0)"/>
     <use xlink:href="#DejaVuSans-20" transform="translate(2909.919922 0)"/>
     <use xlink:href="#DejaVuSans-6d" transform="translate(2941.707031 0)"/>
     <use xlink:href="#DejaVuSans-61" transform="translate(3039.119141 0)"/>
     <use xlink:href="#DejaVuSans-6b" transform="translate(3100.398438 0)"/>
     <use xlink:href="#DejaVuSans-65" transform="translate(3154.683594 0)"/>
     <use xlink:href="#DejaVuSans-72" transform="translate(3216.207031 0)"/>
     <use xlink:href="#DejaVuSans-20" transform="translate(3257.320312 0)"/>
     <use xlink:href="#DejaVuSans-77" transform="translate(3289.107422 0)"/>
     <use xlink:href="#DejaVuSans-61" transform="translate(3370.894531 0)"/>
     <use xlink:href="#DejaVuSans-6c" transform="translate(3432.173828 0)"/>
     <use xlink:href="#DejaVuSans-6c" transform="translate(3459.957031 0)"/>
     <use xlink:href="#DejaVuSans-65" transform="translate(3487.740234 0)"/>
     <use xlink:href="#DejaVuSans-74" transform="translate(3549.263672 0)"/>
     <use xlink:href="#DejaVuSans-73" transform="translate(3588.472656 0)"/>
     <use xlink:href="#DejaVuSans-20" transform="translate(3640.572266 0)"/>
     <use xlink:href="#DejaVuSans-6f" transform="translate(3672.359375 0)"/>
     <use xlink:href="#DejaVuSans-62" transform="translate(3733.541016 0)"/>
     <use xlink:href="#DejaVuSans-73" transform="translate(3797.017578 0)"/>
     <use xlink:href="#DejaVuSans-65" transform="translate(3849.117188 0)"/>
     <use xlink:href="#DejaVuSans-72" transform="translate(3910.640625 0)"/>
     <use xlink:href="#DejaVuSans-76" transform="translate(3951.753906 0)"/>
     <use xlink:href="#DejaVuSans-65" transform="translate(4010.933594 0)"/>
     <use xlink:href="#DejaVuSans-64" transform="translate(4072.457031 0)"/>
     <use xlink:href="#DejaVuSans-20" transform="translate(4135.933594 0)"/>
     <use xlink:href="#DejaVuSans-76" transform="translate(4167.720703 0)"/>
     <use xlink:href="#DejaVuSans-69" transform="translate(4226.900391 0)"/>
     <use xlink:href="#DejaVuSans-61" transform="translate(4254.683594 0)"/>
     <use xlink:href="#DejaVuSans-20" transform="translate(4315.962891 0)"/>
     <use xlink:href="#DejaVuSans-6d" transform="translate(4347.75 0)"/>
     <use xlink:href="#DejaVuSans-75" transform="translate(4445.162109 0)"/>
     <use xlink:href="#DejaVuSans-6c" transform="translate(4508.541016 0)"/>
     <use xlink:href="#DejaVuSans-74" transform="translate(4536.324219 0)"/>
     <use xlink:href="#DejaVuSans-69" transform="translate(4575.533203 0)"/>
     <use xlink:href="#DejaVuSans-2d" transform="translate(4603.316406 0)"/>
     <use xlink:href="#DejaVuSans-69" transform="translate(4639.400391 0)"/>
     <use xlink:href="#DejaVuSans-6e" transform="translate(4667.183594 0)"/>
     <use xlink:href="#DejaVuSans-70" transform="translate(4730.5625 0)"/>
     <use xlink:href="#DejaVuSans-75" transform="translate(4794.039062 0)"/>
     <use xlink:href="#DejaVuSans-74" transform="translate(4857.417969 0)"/>
     <use xlink:href="#DejaVuSans-20" transform="translate(4896.626953 0)"/>
     <use xlink:href="#DejaVuSans-62" transform="translate(4928.414062 0)"/>
     <use xlink:href="#DejaVuSans-75" transform="translate(4991.890625 0)"/>
     <use xlink:href="#DejaVuSans-6e" transform="translate(5055.269531 0)"/>
     <use xlink:href="#DejaVuSans-64" transform="translate(5118.648438 0)"/>
     <use xlink:href="#DejaVuSans-6c" transform="translate(5182.125 0)"/>
     <use xlink:href="#DejaVuSans-65" transform="translate(5209.908203 0)"/>
     <use xlink:href="#DejaVuSans-73" transform="translate(5271.431641 0)"/>
    </g>
   </g>
  </g>
 </g>
 <defs>
  <clipPath id="pc6c2aca1bd">
   <rect x="71.61267" y="22.318125" width="509.990909" height="229.528"/>
  </clipPath>
 </defs>
</svg>
