<?xml version="1.0" encoding="utf-8" standalone="no"?>
<!DOCTYPE svg PUBLIC "-//W3C//DTD SVG 1.1//EN"
  "http://www.w3.org/Graphics/SVG/1.1/DTD/svg11.dtd">
<svg xmlns:xlink="http://www.w3.org/1999/xlink" width="792pt" height="331.2pt" viewBox="0 0 792 331.2" xmlns="http://www.w3.org/2000/svg" version="1.1">
 <metadata>
  <rdf:RDF xmlns:dc="http://purl.org/dc/elements/1.1/" xmlns:cc="http://creativecommons.org/ns#" xmlns:rdf="http://www.w3.org/1999/02/22-rdf-syntax-ns#">
   <cc:Work>
    <dc:type rdf:resource="http://purl.org/dc/dcmitype/StillImage"/>
    <dc:date>2026-05-24T10:03:58.024146</dc:date>
    <dc:format>image/svg+xml</dc:format>
    <dc:creator>
     <cc:Agent>
      <dc:title>Matplotlib v3.10.9, https://matplotlib.org/</dc:title>
     </cc:Agent>
    </dc:creator>
   </cc:Work>
  </rdf:RDF>
 </metadata>
 <defs>
  <style type="text/css">*{stroke-linejoin: round; stroke-linecap: butt}</style>
 </defs>
 <g id="figure_1">
  <g id="patch_1">
   <path d="M 0 331.2 
L 792 331.2 
L 792 0 
L 0 0 
z
" style="fill: #ffffff"/>
  </g>
  <g id="axes_1">
   <g id="patch_2">
    <path d="M 99 294.768 
L 394.096154 294.768 
L 394.096154 39.744 
L 99 39.744 
z
" style="fill: #ffffff"/>
   </g>
   <g id="patch_3">
    <path d="M 99 51.336 
L 99.052696 51.336 
L 99.052696 73.049112 
L 99 73.049112 
z
" clip-path="url(#p3dcd43651c)" style="fill: #3b6ea8; stroke: #000000; stroke-linejoin: miter"/>
   </g>
   <g id="patch_4">
    <path d="M 99 86.357148 
L 99 86.357148 
L 99 108.07026 
L 99 108.07026 
z
" clip-path="url(#p3dcd43651c)" style="fill: #3b6ea8; stroke: #000000; stroke-linejoin: miter"/>
   </g>
   <g id="patch_5">
    <path d="M 99 121.378296 
L 99.052696 121.378296 
L 99.052696 143.091408 
L 99 143.091408 
z
" clip-path="url(#p3dcd43651c)" style="fill: #3b6ea8; stroke: #000000; stroke-linejoin: miter"/>
   </g>
   <g id="patch_6">
    <path d="M 99 156.399444 
L 99 156.399444 
L 99 178.112556 
L 99 178.112556 
z
" clip-path="url(#p3dcd43651c)" style="fill: #3b6ea8; stroke: #000000; stroke-linejoin: miter"/>
   </g>
   <g id="patch_7">
    <path d="M 99 191.420592 
L 143.000944 191.420592 
L 143.000944 213.133704 
L 99 213.133704 
z
" clip-path="url(#p3dcd43651c)" style="fill: #b04a3b; stroke: #000000; stroke-linejoin: miter"/>
   </g>
   <g id="patch_8">
    <path d="M 99 226.44174 
L 362.478709 226.44174 
L 362.478709 248.154852 
L 99 248.154852 
z
" clip-path="url(#p3dcd43651c)" style="fill: #b04a3b; stroke: #000000; stroke-linejoin: miter"/>
   </g>
   <g id="patch_9">
    <path d="M 99 261.462888 
L 237.905975 261.462888 
L 237.905975 283.176 
L 99 283.176 
z
" clip-path="url(#p3dcd43651c)" style="fill: #b04a3b; stroke: #000000; stroke-linejoin: miter"/>
   </g>
   <g id="matplotlib.axis_1">
    <g id="xtick_1">
     <g id="line2d_1">
      <path d="M 99 294.768 
L 99 39.744 
" clip-path="url(#p3dcd43651c)" style="fill: none; stroke-dasharray: 0.8,1.32; stroke-dashoffset: 0; stroke: #b0b0b0; stroke-opacity: 0.5; stroke-width: 0.8"/>
     </g>
     <g id="line2d_2">
      <defs>
       <path id="mfb450e5b9d" d="M 0 0 
L 0 3.5 
" style="stroke: #000000; stroke-width: 0.8"/>
      </defs>
      <g>
       <use xlink:href="#mfb450e5b9d" x="99" y="294.768" style="stroke: #000000; stroke-width: 0.8"/>
      </g>
     </g>
     <g id="text_1">
      <!-- 0 -->
      <g transform="translate(95.81875 309.366438) scale(0.1 -0.1)">
       <defs>
        <path id="DejaVuSans-30" d="M 2034 4250 
Q 1547 4250 1301 3770 
Q 1056 3291 1056 2328 
Q 1056 1369 1301 889 
Q 1547 409 2034 409 
Q 2525 409 2770 889 
Q 3016 1369 3016 2328 
Q 3016 3291 2770 3770 
Q 2525 4250 2034 4250 
z
M 2034 4750 
Q 2819 4750 3233 4129 
Q 3647 3509 3647 2328 
Q 3647 1150 3233 529 
Q 2819 -91 2034 -91 
Q 1250 -91 836 529 
Q 422 1150 422 2328 
Q 422 3509 836 4129 
Q 1250 4750 2034 4750 
z
" transform="scale(0.015625)"/>
       </defs>
       <use xlink:href="#DejaVuSans-30"/>
      </g>
     </g>
    </g>
    <g id="xtick_2">
     <g id="line2d_3">
      <path d="M 151.695742 294.768 
L 151.695742 39.744 
" clip-path="url(#p3dcd43651c)" style="fill: none; stroke-dasharray: 0.8,1.32; stroke-dashoffset: 0; stroke: #b0b0b0; stroke-opacity: 0.5; stroke-width: 0.8"/>
     </g>
     <g id="line2d_4">
      <g>
       <use xlink:href="#mfb450e5b9d" x="151.695742" y="294.768" style="stroke: #000000; stroke-width: 0.8"/>
      </g>
     </g>
     <g id="text_2">
      <!-- 1 -->
      <g transform="translate(148.514492 309.366438) scale(0.1 -0.1)">
       <defs>
        <path id="DejaVuSans-31" d="M 794 531 
L 1825 531 
L 1825 4091 
L 703 3866 
L 703 4441 
L 1819 4666 
L 2450 4666 
L 2450 531 
L 3481 531 
L 3481 0 
L 794 0 
L 794 531 
z
" transform="scale(0.015625)"/>
       </defs>
       <use xlink:href="#DejaVuSans-31"/>
      </g>
     </g>
    </g>
    <g id="xtick_3">
     <g id="line2d_5">
      <path d="M 204.391484 294.768 
L 204.391484 39.744 
" clip-path="url(#p3dcd43651c)" style="fill: none; stroke-dasharray: 0.8,1.32; stroke-dashoffset: 0; stroke: #b0b0b0; stroke-opacity: 0.5; stroke-width: 0.8"/>
     </g>
     <g id="line2d_6">
      <g>
       <use xlink:href="#mfb450e5b9d" x="204.391484" y="294.768" style="stroke: #000000; stroke-width: 0.8"/>
      </g>
     </g>
     <g id="text_3">
      <!-- 2 -->
      <g transform="translate(201.210234 309.366438) scale(0.1 -0.1)">
       <defs>
        <path id="DejaVuSans-32" d="M 1228 531 
L 3431 531 
L 3431 0 
L 469 0 
L 469 531 
Q 828 903 1448 1529 
Q 2069 2156 2228 2338 
Q 2531 2678 2651 2914 
Q 2772 3150 2772 3378 
Q 2772 3750 2511 3984 
Q 2250 4219 1831 4219 
Q 1534 4219 1204 4116 
Q 875 4013 500 3803 
L 500 4441 
Q 881 4594 1212 4672 
Q 1544 4750 1819 4750 
Q 2544 4750 2975 4387 
Q 3406 4025 3406 3419 
Q 3406 3131 3298 2873 
Q 3191 2616 2906 2266 
Q 2828 2175 2409 1742 
Q 1991 1309 1228 531 
z
" transform="scale(0.015625)"/>
       </defs>
       <use xlink:href="#DejaVuSans-32"/>
      </g>
     </g>
    </g>
    <g id="xtick_4">
     <g id="line2d_7">
      <path d="M 257.087225 294.768 
L 257.087225 39.744 
" clip-path="url(#p3dcd43651c)" style="fill: none; stroke-dasharray: 0.8,1.32; stroke-dashoffset: 0; stroke: #b0b0b0; stroke-opacity: 0.5; stroke-width: 0.8"/>
     </g>
     <g id="line2d_8">
      <g>
       <use xlink:href="#mfb450e5b9d" x="257.087225" y="294.768" style="stroke: #000000; stroke-width: 0.8"/>
      </g>
     </g>
     <g id="text_4">
      <!-- 3 -->
      <g transform="translate(253.905975 309.366438) scale(0.1 -0.1)">
       <defs>
        <path id="DejaVuSans-33" d="M 2597 2516 
Q 3050 2419 3304 2112 
Q 3559 1806 3559 1356 
Q 3559 666 3084 287 
Q 2609 -91 1734 -91 
Q 1441 -91 1130 -33 
Q 819 25 488 141 
L 488 750 
Q 750 597 1062 519 
Q 1375 441 1716 441 
Q 2309 441 2620 675 
Q 2931 909 2931 1356 
Q 2931 1769 2642 2001 
Q 2353 2234 1838 2234 
L 1294 2234 
L 1294 2753 
L 1863 2753 
Q 2328 2753 2575 2939 
Q 2822 3125 2822 3475 
Q 2822 3834 2567 4026 
Q 2313 4219 1838 4219 
Q 1578 4219 1281 4162 
Q 984 4106 628 3988 
L 628 4550 
Q 988 4650 1302 4700 
Q 1616 4750 1894 4750 
Q 2613 4750 3031 4423 
Q 3450 4097 3450 3541 
Q 3450 3153 3228 2886 
Q 3006 2619 2597 2516 
z
" transform="scale(0.015625)"/>
       </defs>
       <use xlink:href="#DejaVuSans-33"/>
      </g>
     </g>
    </g>
    <g id="xtick_5">
     <g id="line2d_9">
      <path d="M 309.782967 294.768 
L 309.782967 39.744 
" clip-path="url(#p3dcd43651c)" style="fill: none; stroke-dasharray: 0.8,1.32; stroke-dashoffset: 0; stroke: #b0b0b0; stroke-opacity: 0.5; stroke-width: 0.8"/>
     </g>
     <g id="line2d_10">
      <g>
       <use xlink:href="#mfb450e5b9d" x="309.782967" y="294.768" style="stroke: #000000; stroke-width: 0.8"/>
      </g>
     </g>
     <g id="text_5">
      <!-- 4 -->
      <g transform="translate(306.601717 309.366438) scale(0.1 -0.1)">
       <defs>
        <path id="DejaVuSans-34" d="M 2419 4116 
L 825 1625 
L 2419 1625 
L 2419 4116 
z
M 2253 4666 
L 3047 4666 
L 3047 1625 
L 3713 1625 
L 3713 1100 
L 3047 1100 
L 3047 0 
L 2419 0 
L 2419 1100 
L 313 1100 
L 313 1709 
L 2253 4666 
z
" transform="scale(0.015625)"/>
       </defs>
       <use xlink:href="#DejaVuSans-34"/>
      </g>
     </g>
    </g>
    <g id="xtick_6">
     <g id="line2d_11">
      <path d="M 362.478709 294.768 
L 362.478709 39.744 
" clip-path="url(#p3dcd43651c)" style="fill: none; stroke-dasharray: 0.8,1.32; stroke-dashoffset: 0; stroke: #b0b0b0; stroke-opacity: 0.5; stroke-width: 0.8"/>
     </g>
     <g id="line2d_12">
      <g>
       <use xlink:href="#mfb450e5b9d" x="362.478709" y="294.768" style="stroke: #000000; stroke-width: 0.8"/>
      </g>
     </g>
     <g id="text_6">
      <!-- 5 -->
      <g transform="translate(359.297459 309.366438) scale(0.1 -0.1)">
       <defs>
        <path id="DejaVuSans-35" d="M 691 4666 
L 3169 4666 
L 3169 4134 
L 1269 4134 
L 1269 2991 
Q 1406 3038 1543 3061 
Q 1681 3084 1819 3084 
Q 2600 3084 3056 2656 
Q 3513 2228 3513 1497 
Q 3513 744 3044 326 
Q 2575 -91 1722 -91 
Q 1428 -91 1123 -41 
Q 819 9 494 109 
L 494 744 
Q 775 591 1075 516 
Q 1375 441 1709 441 
Q 2250 441 2565 725 
Q 2881 1009 2881 1497 
Q 2881 1984 2565 2268 
Q 2250 2553 1709 2553 
Q 1456 2553 1204 2497 
Q 953 2441 691 2322 
L 691 4666 
z
" transform="scale(0.015625)"/>
       </defs>
       <use xlink:href="#DejaVuSans-35"/>
      </g>
     </g>
    </g>
    <g id="text_7">
     <!-- mean residual anonymity set -->
     <g transform="translate(173.551202 323.044562) scale(0.1 -0.1)">
      <defs>
       <path id="DejaVuSans-6d" d="M 3328 2828 
Q 3544 3216 3844 3400 
Q 4144 3584 4550 3584 
Q 5097 3584 5394 3201 
Q 5691 2819 5691 2113 
L 5691 0 
L 5113 0 
L 5113 2094 
Q 5113 2597 4934 2840 
Q 4756 3084 4391 3084 
Q 3944 3084 3684 2787 
Q 3425 2491 3425 1978 
L 3425 0 
L 2847 0 
L 2847 2094 
Q 2847 2600 2669 2842 
Q 2491 3084 2119 3084 
Q 1678 3084 1418 2786 
Q 1159 2488 1159 1978 
L 1159 0 
L 581 0 
L 581 3500 
L 1159 3500 
L 1159 2956 
Q 1356 3278 1631 3431 
Q 1906 3584 2284 3584 
Q 2666 3584 2933 3390 
Q 3200 3197 3328 2828 
z
" transform="scale(0.015625)"/>
       <path id="DejaVuSans-65" d="M 3597 1894 
L 3597 1613 
L 953 1613 
Q 991 1019 1311 708 
Q 1631 397 2203 397 
Q 2534 397 2845 478 
Q 3156 559 3463 722 
L 3463 178 
Q 3153 47 2828 -22 
Q 2503 -91 2169 -91 
Q 1331 -91 842 396 
Q 353 884 353 1716 
Q 353 2575 817 3079 
Q 1281 3584 2069 3584 
Q 2775 3584 3186 3129 
Q 3597 2675 3597 1894 
z
M 3022 2063 
Q 3016 2534 2758 2815 
Q 2500 3097 2075 3097 
Q 1594 3097 1305 2825 
Q 1016 2553 972 2059 
L 3022 2063 
z
" transform="scale(0.015625)"/>
       <path id="DejaVuSans-61" d="M 2194 1759 
Q 1497 1759 1228 1600 
Q 959 1441 959 1056 
Q 959 750 1161 570 
Q 1363 391 1709 391 
Q 2188 391 2477 730 
Q 2766 1069 2766 1631 
L 2766 1759 
L 2194 1759 
z
M 3341 1997 
L 3341 0 
L 2766 0 
L 2766 531 
Q 2569 213 2275 61 
Q 1981 -91 1556 -91 
Q 1019 -91 701 211 
Q 384 513 384 1019 
Q 384 1609 779 1909 
Q 1175 2209 1959 2209 
L 2766 2209 
L 2766 2266 
Q 2766 2663 2505 2880 
Q 2244 3097 1772 3097 
Q 1472 3097 1187 3025 
Q 903 2953 641 2809 
L 641 3341 
Q 956 3463 1253 3523 
Q 1550 3584 1831 3584 
Q 2591 3584 2966 3190 
Q 3341 2797 3341 1997 
z
" transform="scale(0.015625)"/>
       <path id="DejaVuSans-6e" d="M 3513 2113 
L 3513 0 
L 2938 0 
L 2938 2094 
Q 2938 2591 2744 2837 
Q 2550 3084 2163 3084 
Q 1697 3084 1428 2787 
Q 1159 2491 1159 1978 
L 1159 0 
L 581 0 
L 581 3500 
L 1159 3500 
L 1159 2956 
Q 1366 3272 1645 3428 
Q 1925 3584 2291 3584 
Q 2894 3584 3203 3211 
Q 3513 2838 3513 2113 
z
" transform="scale(0.015625)"/>
       <path id="DejaVuSans-20" transform="scale(0.015625)"/>
       <path id="DejaVuSans-72" d="M 2631 2963 
Q 2534 3019 2420 3045 
Q 2306 3072 2169 3072 
Q 1681 3072 1420 2755 
Q 1159 2438 1159 1844 
L 1159 0 
L 581 0 
L 581 3500 
L 1159 3500 
L 1159 2956 
Q 1341 3275 1631 3429 
Q 1922 3584 2338 3584 
Q 2397 3584 2469 3576 
Q 2541 3569 2628 3553 
L 2631 2963 
z
" transform="scale(0.015625)"/>
       <path id="DejaVuSans-73" d="M 2834 3397 
L 2834 2853 
Q 2591 2978 2328 3040 
Q 2066 3103 1784 3103 
Q 1356 3103 1142 2972 
Q 928 2841 928 2578 
Q 928 2378 1081 2264 
Q 1234 2150 1697 2047 
L 1894 2003 
Q 2506 1872 2764 1633 
Q 3022 1394 3022 966 
Q 3022 478 2636 193 
Q 2250 -91 1575 -91 
Q 1294 -91 989 -36 
Q 684 19 347 128 
L 347 722 
Q 666 556 975 473 
Q 1284 391 1588 391 
Q 1994 391 2212 530 
Q 2431 669 2431 922 
Q 2431 1156 2273 1281 
Q 2116 1406 1581 1522 
L 1381 1569 
Q 847 1681 609 1914 
Q 372 2147 372 2553 
Q 372 3047 722 3315 
Q 1072 3584 1716 3584 
Q 2034 3584 2315 3537 
Q 2597 3491 2834 3397 
z
" transform="scale(0.015625)"/>
       <path id="DejaVuSans-69" d="M 603 3500 
L 1178 3500 
L 1178 0 
L 603 0 
L 603 3500 
z
M 603 4863 
L 1178 4863 
L 1178 4134 
L 603 4134 
L 603 4863 
z
" transform="scale(0.015625)"/>
       <path id="DejaVuSans-64" d="M 2906 2969 
L 2906 4863 
L 3481 4863 
L 3481 0 
L 2906 0 
L 2906 525 
Q 2725 213 2448 61 
Q 2172 -91 1784 -91 
Q 1150 -91 751 415 
Q 353 922 353 1747 
Q 353 2572 751 3078 
Q 1150 3584 1784 3584 
Q 2172 3584 2448 3432 
Q 2725 3281 2906 2969 
z
M 947 1747 
Q 947 1113 1208 752 
Q 1469 391 1925 391 
Q 2381 391 2643 752 
Q 2906 1113 2906 1747 
Q 2906 2381 2643 2742 
Q 2381 3103 1925 3103 
Q 1469 3103 1208 2742 
Q 947 2381 947 1747 
z
" transform="scale(0.015625)"/>
       <path id="DejaVuSans-75" d="M 544 1381 
L 544 3500 
L 1119 3500 
L 1119 1403 
Q 1119 906 1312 657 
Q 1506 409 1894 409 
Q 2359 409 2629 706 
Q 2900 1003 2900 1516 
L 2900 3500 
L 3475 3500 
L 3475 0 
L 2900 0 
L 2900 538 
Q 2691 219 2414 64 
Q 2138 -91 1772 -91 
Q 1169 -91 856 284 
Q 544 659 544 1381 
z
M 1991 3584 
L 1991 3584 
z
" transform="scale(0.015625)"/>
       <path id="DejaVuSans-6c" d="M 603 4863 
L 1178 4863 
L 1178 0 
L 603 0 
L 603 4863 
z
" transform="scale(0.015625)"/>
       <path id="DejaVuSans-6f" d="M 1959 3097 
Q 1497 3097 1228 2736 
Q 959 2375 959 1747 
Q 959 1119 1226 758 
Q 1494 397 1959 397 
Q 2419 397 2687 759 
Q 2956 1122 2956 1747 
Q 2956 2369 2687 2733 
Q 2419 3097 1959 3097 
z
M 1959 3584 
Q 2709 3584 3137 3096 
Q 3566 2609 3566 1747 
Q 3566 888 3137 398 
Q 2709 -91 1959 -91 
Q 1206 -91 779 398 
Q 353 888 353 1747 
Q 353 2609 779 3096 
Q 1206 3584 1959 3584 
z
" transform="scale(0.015625)"/>
       <path id="DejaVuSans-79" d="M 2059 -325 
Q 1816 -950 1584 -1140 
Q 1353 -1331 966 -1331 
L 506 -1331 
L 506 -850 
L 844 -850 
Q 1081 -850 1212 -737 
Q 1344 -625 1503 -206 
L 1606 56 
L 191 3500 
L 800 3500 
L 1894 763 
L 2988 3500 
L 3597 3500 
L 2059 -325 
z
" transform="scale(0.015625)"/>
       <path id="DejaVuSans-74" d="M 1172 4494 
L 1172 3500 
L 2356 3500 
L 2356 3053 
L 1172 3053 
L 1172 1153 
Q 1172 725 1289 603 
Q 1406 481 1766 481 
L 2356 481 
L 2356 0 
L 1766 0 
Q 1100 0 847 248 
Q 594 497 594 1153 
L 594 3053 
L 172 3053 
L 172 3500 
L 594 3500 
L 594 4494 
L 1172 4494 
z
" transform="scale(0.015625)"/>
      </defs>
      <use xlink:href="#DejaVuSans-6d"/>
      <use xlink:href="#DejaVuSans-65" transform="translate(97.412109 0)"/>
      <use xlink:href="#DejaVuSans-61" transform="translate(158.935547 0)"/>
      <use xlink:href="#DejaVuSans-6e" transform="translate(220.214844 0)"/>
      <use xlink:href="#DejaVuSans-20" transform="translate(283.59375 0)"/>
      <use xlink:href="#DejaVuSans-72" transform="translate(315.380859 0)"/>
      <use xlink:href="#DejaVuSans-65" transform="translate(354.244141 0)"/>
      <use xlink:href="#DejaVuSans-73" transform="translate(415.767578 0)"/>
      <use xlink:href="#DejaVuSans-69" transform="translate(467.867188 0)"/>
      <use xlink:href="#DejaVuSans-64" transform="translate(495.650391 0)"/>
      <use xlink:href="#DejaVuSans-75" transform="translate(559.126953 0)"/>
      <use xlink:href="#DejaVuSans-61" transform="translate(622.505859 0)"/>
      <use xlink:href="#DejaVuSans-6c" transform="translate(683.785156 0)"/>
      <use xlink:href="#DejaVuSans-20" transform="translate(711.568359 0)"/>
      <use xlink:href="#DejaVuSans-61" transform="translate(743.355469 0)"/>
      <use xlink:href="#DejaVuSans-6e" transform="translate(804.634766 0)"/>
      <use xlink:href="#DejaVuSans-6f" transform="translate(868.013672 0)"/>
      <use xlink:href="#DejaVuSans-6e" transform="translate(929.195312 0)"/>
      <use xlink:href="#DejaVuSans-79" transform="translate(992.574219 0)"/>
      <use xlink:href="#DejaVuSans-6d" transform="translate(1051.753906 0)"/>
      <use xlink:href="#DejaVuSans-69" transform="translate(1149.166016 0)"/>
      <use xlink:href="#DejaVuSans-74" transform="translate(1176.949219 0)"/>
      <use xlink:href="#DejaVuSans-79" transform="translate(1216.158203 0)"/>
      <use xlink:href="#DejaVuSans-20" transform="translate(1275.337891 0)"/>
      <use xlink:href="#DejaVuSans-73" transform="translate(1307.125 0)"/>
      <use xlink:href="#DejaVuSans-65" transform="translate(1359.224609 0)"/>
      <use xlink:href="#DejaVuSans-74" transform="translate(1420.748047 0)"/>
     </g>
    </g>
   </g>
   <g id="matplotlib.axis_2">
    <g id="ytick_1">
     <g id="line2d_13">
      <defs>
       <path id="mc8b6c78553" d="M 0 0 
L -3.5 0 
" style="stroke: #000000; stroke-width: 0.8"/>
      </defs>
      <g>
       <use xlink:href="#mc8b6c78553" x="99" y="62.192556" style="stroke: #000000; stroke-width: 0.8"/>
      </g>
     </g>
     <g id="text_8">
      <!-- baseline (today's JM) -->
      <g transform="translate(-12.015625 65.991775) scale(0.1 -0.1)">
       <defs>
        <path id="DejaVuSans-62" d="M 3116 1747 
Q 3116 2381 2855 2742 
Q 2594 3103 2138 3103 
Q 1681 3103 1420 2742 
Q 1159 2381 1159 1747 
Q 1159 1113 1420 752 
Q 1681 391 2138 391 
Q 2594 391 2855 752 
Q 3116 1113 3116 1747 
z
M 1159 2969 
Q 1341 3281 1617 3432 
Q 1894 3584 2278 3584 
Q 2916 3584 3314 3078 
Q 3713 2572 3713 1747 
Q 3713 922 3314 415 
Q 2916 -91 2278 -91 
Q 1894 -91 1617 61 
Q 1341 213 1159 525 
L 1159 0 
L 581 0 
L 581 4863 
L 1159 4863 
L 1159 2969 
z
" transform="scale(0.015625)"/>
        <path id="DejaVuSans-28" d="M 1984 4856 
Q 1566 4138 1362 3434 
Q 1159 2731 1159 2009 
Q 1159 1288 1364 580 
Q 1569 -128 1984 -844 
L 1484 -844 
Q 1016 -109 783 600 
Q 550 1309 550 2009 
Q 550 2706 781 3412 
Q 1013 4119 1484 4856 
L 1984 4856 
z
" transform="scale(0.015625)"/>
        <path id="DejaVuSans-27" d="M 1147 4666 
L 1147 2931 
L 616 2931 
L 616 4666 
L 1147 4666 
z
" transform="scale(0.015625)"/>
        <path id="DejaVuSans-4a" d="M 628 4666 
L 1259 4666 
L 1259 325 
Q 1259 -519 939 -900 
Q 619 -1281 -91 -1281 
L -331 -1281 
L -331 -750 
L -134 -750 
Q 284 -750 456 -515 
Q 628 -281 628 325 
L 628 4666 
z
" transform="scale(0.015625)"/>
        <path id="DejaVuSans-4d" d="M 628 4666 
L 1569 4666 
L 2759 1491 
L 3956 4666 
L 4897 4666 
L 4897 0 
L 4281 0 
L 4281 4097 
L 3078 897 
L 2444 897 
L 1241 4097 
L 1241 0 
L 628 0 
L 628 4666 
z
" transform="scale(0.015625)"/>
        <path id="DejaVuSans-29" d="M 513 4856 
L 1013 4856 
Q 1481 4119 1714 3412 
Q 1947 2706 1947 2009 
Q 1947 1309 1714 600 
Q 1481 -109 1013 -844 
L 513 -844 
Q 928 -128 1133 580 
Q 1338 1288 1338 2009 
Q 1338 2731 1133 3434 
Q 928 4138 513 4856 
z
" transform="scale(0.015625)"/>
       </defs>
       <use xlink:href="#DejaVuSans-62"/>
       <use xlink:href="#DejaVuSans-61" transform="translate(63.476562 0)"/>
       <use xlink:href="#DejaVuSans-73" transform="translate(124.755859 0)"/>
       <use xlink:href="#DejaVuSans-65" transform="translate(176.855469 0)"/>
       <use xlink:href="#DejaVuSans-6c" transform="translate(238.378906 0)"/>
       <use xlink:href="#DejaVuSans-69" transform="translate(266.162109 0)"/>
       <use xlink:href="#DejaVuSans-6e" transform="translate(293.945312 0)"/>
       <use xlink:href="#DejaVuSans-65" transform="translate(357.324219 0)"/>
       <use xlink:href="#DejaVuSans-20" transform="translate(418.847656 0)"/>
       <use xlink:href="#DejaVuSans-28" transform="translate(450.634766 0)"/>
       <use xlink:href="#DejaVuSans-74" transform="translate(489.648438 0)"/>
       <use xlink:href="#DejaVuSans-6f" transform="translate(528.857422 0)"/>
       <use xlink:href="#DejaVuSans-64" transform="translate(590.039062 0)"/>
       <use xlink:href="#DejaVuSans-61" transform="translate(653.515625 0)"/>
       <use xlink:href="#DejaVuSans-79" transform="translate(714.794922 0)"/>
       <use xlink:href="#DejaVuSans-27" transform="translate(773.974609 0)"/>
       <use xlink:href="#DejaVuSans-73" transform="translate(801.464844 0)"/>
       <use xlink:href="#DejaVuSans-20" transform="translate(853.564453 0)"/>
       <use xlink:href="#DejaVuSans-4a" transform="translate(885.351562 0)"/>
       <use xlink:href="#DejaVuSans-4d" transform="translate(914.84375 0)"/>
       <use xlink:href="#DejaVuSans-29" transform="translate(1001.123047 0)"/>
      </g>
     </g>
    </g>
    <g id="ytick_2">
     <g id="line2d_14">
      <g>
       <use xlink:href="#mc8b6c78553" x="99" y="97.213704" style="stroke: #000000; stroke-width: 0.8"/>
      </g>
     </g>
     <g id="text_9">
      <!-- + uniform fee -->
      <g transform="translate(22.66875 101.012923) scale(0.1 -0.1)">
       <defs>
        <path id="DejaVuSans-2b" d="M 2944 4013 
L 2944 2272 
L 4684 2272 
L 4684 1741 
L 2944 1741 
L 2944 0 
L 2419 0 
L 2419 1741 
L 678 1741 
L 678 2272 
L 2419 2272 
L 2419 4013 
L 2944 4013 
z
" transform="scale(0.015625)"/>
        <path id="DejaVuSans-66" d="M 2375 4863 
L 2375 4384 
L 1825 4384 
Q 1516 4384 1395 4259 
Q 1275 4134 1275 3809 
L 1275 3500 
L 2222 3500 
L 2222 3053 
L 1275 3053 
L 1275 0 
L 697 0 
L 697 3053 
L 147 3053 
L 147 3500 
L 697 3500 
L 697 3744 
Q 697 4328 969 4595 
Q 1241 4863 1831 4863 
L 2375 4863 
z
" transform="scale(0.015625)"/>
       </defs>
       <use xlink:href="#DejaVuSans-2b"/>
       <use xlink:href="#DejaVuSans-20" transform="translate(83.789062 0)"/>
       <use xlink:href="#DejaVuSans-75" transform="translate(115.576172 0)"/>
       <use xlink:href="#DejaVuSans-6e" transform="translate(178.955078 0)"/>
       <use xlink:href="#DejaVuSans-69" transform="translate(242.333984 0)"/>
       <use xlink:href="#DejaVuSans-66" transform="translate(270.117188 0)"/>
       <use xlink:href="#DejaVuSans-6f" transform="translate(305.322266 0)"/>
       <use xlink:href="#DejaVuSans-72" transform="translate(366.503906 0)"/>
       <use xlink:href="#DejaVuSans-6d" transform="translate(405.867188 0)"/>
       <use xlink:href="#DejaVuSans-20" transform="translate(503.279297 0)"/>
       <use xlink:href="#DejaVuSans-66" transform="translate(535.066406 0)"/>
       <use xlink:href="#DejaVuSans-65" transform="translate(570.271484 0)"/>
       <use xlink:href="#DejaVuSans-65" transform="translate(631.794922 0)"/>
      </g>
     </g>
    </g>
    <g id="ytick_3">
     <g id="line2d_15">
      <g>
       <use xlink:href="#mc8b6c78553" x="99" y="132.234852" style="stroke: #000000; stroke-width: 0.8"/>
      </g>
     </g>
     <g id="text_10">
      <!-- + no change-as-input -->
      <g transform="translate(-16.270313 136.034071) scale(0.1 -0.1)">
       <defs>
        <path id="DejaVuSans-63" d="M 3122 3366 
L 3122 2828 
Q 2878 2963 2633 3030 
Q 2388 3097 2138 3097 
Q 1578 3097 1268 2742 
Q 959 2388 959 1747 
Q 959 1106 1268 751 
Q 1578 397 2138 397 
Q 2388 397 2633 464 
Q 2878 531 3122 666 
L 3122 134 
Q 2881 22 2623 -34 
Q 2366 -91 2075 -91 
Q 1284 -91 818 406 
Q 353 903 353 1747 
Q 353 2603 823 3093 
Q 1294 3584 2113 3584 
Q 2378 3584 2631 3529 
Q 2884 3475 3122 3366 
z
" transform="scale(0.015625)"/>
        <path id="DejaVuSans-68" d="M 3513 2113 
L 3513 0 
L 2938 0 
L 2938 2094 
Q 2938 2591 2744 2837 
Q 2550 3084 2163 3084 
Q 1697 3084 1428 2787 
Q 1159 2491 1159 1978 
L 1159 0 
L 581 0 
L 581 4863 
L 1159 4863 
L 1159 2956 
Q 1366 3272 1645 3428 
Q 1925 3584 2291 3584 
Q 2894 3584 3203 3211 
Q 3513 2838 3513 2113 
z
" transform="scale(0.015625)"/>
        <path id="DejaVuSans-67" d="M 2906 1791 
Q 2906 2416 2648 2759 
Q 2391 3103 1925 3103 
Q 1463 3103 1205 2759 
Q 947 2416 947 1791 
Q 947 1169 1205 825 
Q 1463 481 1925 481 
Q 2391 481 2648 825 
Q 2906 1169 2906 1791 
z
M 3481 434 
Q 3481 -459 3084 -895 
Q 2688 -1331 1869 -1331 
Q 1566 -1331 1297 -1286 
Q 1028 -1241 775 -1147 
L 775 -588 
Q 1028 -725 1275 -790 
Q 1522 -856 1778 -856 
Q 2344 -856 2625 -561 
Q 2906 -266 2906 331 
L 2906 616 
Q 2728 306 2450 153 
Q 2172 0 1784 0 
Q 1141 0 747 490 
Q 353 981 353 1791 
Q 353 2603 747 3093 
Q 1141 3584 1784 3584 
Q 2172 3584 2450 3431 
Q 2728 3278 2906 2969 
L 2906 3500 
L 3481 3500 
L 3481 434 
z
" transform="scale(0.015625)"/>
        <path id="DejaVuSans-2d" d="M 313 2009 
L 1997 2009 
L 1997 1497 
L 313 1497 
L 313 2009 
z
" transform="scale(0.015625)"/>
        <path id="DejaVuSans-70" d="M 1159 525 
L 1159 -1331 
L 581 -1331 
L 581 3500 
L 1159 3500 
L 1159 2969 
Q 1341 3281 1617 3432 
Q 1894 3584 2278 3584 
Q 2916 3584 3314 3078 
Q 3713 2572 3713 1747 
Q 3713 922 3314 415 
Q 2916 -91 2278 -91 
Q 1894 -91 1617 61 
Q 1341 213 1159 525 
z
M 3116 1747 
Q 3116 2381 2855 2742 
Q 2594 3103 2138 3103 
Q 1681 3103 1420 2742 
Q 1159 2381 1159 1747 
Q 1159 1113 1420 752 
Q 1681 391 2138 391 
Q 2594 391 2855 752 
Q 3116 1113 3116 1747 
z
" transform="scale(0.015625)"/>
       </defs>
       <use xlink:href="#DejaVuSans-2b"/>
       <use xlink:href="#DejaVuSans-20" transform="translate(83.789062 0)"/>
       <use xlink:href="#DejaVuSans-6e" transform="translate(115.576172 0)"/>
       <use xlink:href="#DejaVuSans-6f" transform="translate(178.955078 0)"/>
       <use xlink:href="#DejaVuSans-20" transform="translate(240.136719 0)"/>
       <use xlink:href="#DejaVuSans-63" transform="translate(271.923828 0)"/>
       <use xlink:href="#DejaVuSans-68" transform="translate(326.904297 0)"/>
       <use xlink:href="#DejaVuSans-61" transform="translate(390.283203 0)"/>
       <use xlink:href="#DejaVuSans-6e" transform="translate(451.5625 0)"/>
       <use xlink:href="#DejaVuSans-67" transform="translate(514.941406 0)"/>
       <use xlink:href="#DejaVuSans-65" transform="translate(578.417969 0)"/>
       <use xlink:href="#DejaVuSans-2d" transform="translate(639.941406 0)"/>
       <use xlink:href="#DejaVuSans-61" transform="translate(676.025391 0)"/>
       <use xlink:href="#DejaVuSans-73" transform="translate(737.304688 0)"/>
       <use xlink:href="#DejaVuSans-2d" transform="translate(789.404297 0)"/>
       <use xlink:href="#DejaVuSans-69" transform="translate(825.488281 0)"/>
       <use xlink:href="#DejaVuSans-6e" transform="translate(853.271484 0)"/>
       <use xlink:href="#DejaVuSans-70" transform="translate(916.650391 0)"/>
       <use xlink:href="#DejaVuSans-75" transform="translate(980.126953 0)"/>
       <use xlink:href="#DejaVuSans-74" transform="translate(1043.505859 0)"/>
      </g>
     </g>
    </g>
    <g id="ytick_4">
     <g id="line2d_16">
      <g>
       <use xlink:href="#mc8b6c78553" x="99" y="167.256" style="stroke: #000000; stroke-width: 0.8"/>
      </g>
     </g>
     <g id="text_11">
      <!-- + no change-as-input + maker-only CJ -->
      <g transform="translate(-99.989063 171.055219) scale(0.1 -0.1)">
       <defs>
        <path id="DejaVuSans-6b" d="M 581 4863 
L 1159 4863 
L 1159 1991 
L 2875 3500 
L 3609 3500 
L 1753 1863 
L 3688 0 
L 2938 0 
L 1159 1709 
L 1159 0 
L 581 0 
L 581 4863 
z
" transform="scale(0.015625)"/>
        <path id="DejaVuSans-43" d="M 4122 4306 
L 4122 3641 
Q 3803 3938 3442 4084 
Q 3081 4231 2675 4231 
Q 1875 4231 1450 3742 
Q 1025 3253 1025 2328 
Q 1025 1406 1450 917 
Q 1875 428 2675 428 
Q 3081 428 3442 575 
Q 3803 722 4122 1019 
L 4122 359 
Q 3791 134 3420 21 
Q 3050 -91 2638 -91 
Q 1578 -91 968 557 
Q 359 1206 359 2328 
Q 359 3453 968 4101 
Q 1578 4750 2638 4750 
Q 3056 4750 3426 4639 
Q 3797 4528 4122 4306 
z
" transform="scale(0.015625)"/>
       </defs>
       <use xlink:href="#DejaVuSans-2b"/>
       <use xlink:href="#DejaVuSans-20" transform="translate(83.789062 0)"/>
       <use xlink:href="#DejaVuSans-6e" transform="translate(115.576172 0)"/>
       <use xlink:href="#DejaVuSans-6f" transform="translate(178.955078 0)"/>
       <use xlink:href="#DejaVuSans-20" transform="translate(240.136719 0)"/>
       <use xlink:href="#DejaVuSans-63" transform="translate(271.923828 0)"/>
       <use xlink:href="#DejaVuSans-68" transform="translate(326.904297 0)"/>
       <use xlink:href="#DejaVuSans-61" transform="translate(390.283203 0)"/>
       <use xlink:href="#DejaVuSans-6e" transform="translate(451.5625 0)"/>
       <use xlink:href="#DejaVuSans-67" transform="translate(514.941406 0)"/>
       <use xlink:href="#DejaVuSans-65" transform="translate(578.417969 0)"/>
       <use xlink:href="#DejaVuSans-2d" transform="translate(639.941406 0)"/>
       <use xlink:href="#DejaVuSans-61" transform="translate(676.025391 0)"/>
       <use xlink:href="#DejaVuSans-73" transform="translate(737.304688 0)"/>
       <use xlink:href="#DejaVuSans-2d" transform="translate(789.404297 0)"/>
       <use xlink:href="#DejaVuSans-69" transform="translate(825.488281 0)"/>
       <use xlink:href="#DejaVuSans-6e" transform="translate(853.271484 0)"/>
       <use xlink:href="#DejaVuSans-70" transform="translate(916.650391 0)"/>
       <use xlink:href="#DejaVuSans-75" transform="translate(980.126953 0)"/>
       <use xlink:href="#DejaVuSans-74" transform="translate(1043.505859 0)"/>
       <use xlink:href="#DejaVuSans-20" transform="translate(1082.714844 0)"/>
       <use xlink:href="#DejaVuSans-2b" transform="translate(1114.501953 0)"/>
       <use xlink:href="#DejaVuSans-20" transform="translate(1198.291016 0)"/>
       <use xlink:href="#DejaVuSans-6d" transform="translate(1230.078125 0)"/>
       <use xlink:href="#DejaVuSans-61" transform="translate(1327.490234 0)"/>
       <use xlink:href="#DejaVuSans-6b" transform="translate(1388.769531 0)"/>
       <use xlink:href="#DejaVuSans-65" transform="translate(1443.054688 0)"/>
       <use xlink:href="#DejaVuSans-72" transform="translate(1504.578125 0)"/>
       <use xlink:href="#DejaVuSans-2d" transform="translate(1539.316406 0)"/>
       <use xlink:href="#DejaVuSans-6f" transform="translate(1577.275391 0)"/>
       <use xlink:href="#DejaVuSans-6e" transform="translate(1638.457031 0)"/>
       <use xlink:href="#DejaVuSans-6c" transform="translate(1701.835938 0)"/>
       <use xlink:href="#DejaVuSans-79" transform="translate(1729.619141 0)"/>
       <use xlink:href="#DejaVuSans-20" transform="translate(1788.798828 0)"/>
       <use xlink:href="#DejaVuSans-43" transform="translate(1820.585938 0)"/>
       <use xlink:href="#DejaVuSans-4a" transform="translate(1890.410156 0)"/>
      </g>
     </g>
    </g>
    <g id="ytick_5">
     <g id="line2d_17">
      <g>
       <use xlink:href="#mc8b6c78553" x="99" y="202.277148" style="stroke: #000000; stroke-width: 0.8"/>
      </g>
     </g>
     <g id="text_12">
      <!-- + no eq-chain (ZKP proxy) -->
      <g transform="translate(-39.85625 206.076367) scale(0.1 -0.1)">
       <defs>
        <path id="DejaVuSans-71" d="M 947 1747 
Q 947 1113 1208 752 
Q 1469 391 1925 391 
Q 2381 391 2643 752 
Q 2906 1113 2906 1747 
Q 2906 2381 2643 2742 
Q 2381 3103 1925 3103 
Q 1469 3103 1208 2742 
Q 947 2381 947 1747 
z
M 2906 525 
Q 2725 213 2448 61 
Q 2172 -91 1784 -91 
Q 1150 -91 751 415 
Q 353 922 353 1747 
Q 353 2572 751 3078 
Q 1150 3584 1784 3584 
Q 2172 3584 2448 3432 
Q 2725 3281 2906 2969 
L 2906 3500 
L 3481 3500 
L 3481 -1331 
L 2906 -1331 
L 2906 525 
z
" transform="scale(0.015625)"/>
        <path id="DejaVuSans-5a" d="M 359 4666 
L 4025 4666 
L 4025 4184 
L 1075 531 
L 4097 531 
L 4097 0 
L 288 0 
L 288 481 
L 3238 4134 
L 359 4134 
L 359 4666 
z
" transform="scale(0.015625)"/>
        <path id="DejaVuSans-4b" d="M 628 4666 
L 1259 4666 
L 1259 2694 
L 3353 4666 
L 4166 4666 
L 1850 2491 
L 4331 0 
L 3500 0 
L 1259 2247 
L 1259 0 
L 628 0 
L 628 4666 
z
" transform="scale(0.015625)"/>
        <path id="DejaVuSans-50" d="M 1259 4147 
L 1259 2394 
L 2053 2394 
Q 2494 2394 2734 2622 
Q 2975 2850 2975 3272 
Q 2975 3691 2734 3919 
Q 2494 4147 2053 4147 
L 1259 4147 
z
M 628 4666 
L 2053 4666 
Q 2838 4666 3239 4311 
Q 3641 3956 3641 3272 
Q 3641 2581 3239 2228 
Q 2838 1875 2053 1875 
L 1259 1875 
L 1259 0 
L 628 0 
L 628 4666 
z
" transform="scale(0.015625)"/>
        <path id="DejaVuSans-78" d="M 3513 3500 
L 2247 1797 
L 3578 0 
L 2900 0 
L 1881 1375 
L 863 0 
L 184 0 
L 1544 1831 
L 300 3500 
L 978 3500 
L 1906 2253 
L 2834 3500 
L 3513 3500 
z
" transform="scale(0.015625)"/>
       </defs>
       <use xlink:href="#DejaVuSans-2b"/>
       <use xlink:href="#DejaVuSans-20" transform="translate(83.789062 0)"/>
       <use xlink:href="#DejaVuSans-6e" transform="translate(115.576172 0)"/>
       <use xlink:href="#DejaVuSans-6f" transform="translate(178.955078 0)"/>
       <use xlink:href="#DejaVuSans-20" transform="translate(240.136719 0)"/>
       <use xlink:href="#DejaVuSans-65" transform="translate(271.923828 0)"/>
       <use xlink:href="#DejaVuSans-71" transform="translate(333.447266 0)"/>
       <use xlink:href="#DejaVuSans-2d" transform="translate(396.923828 0)"/>
       <use xlink:href="#DejaVuSans-63" transform="translate(433.007812 0)"/>
       <use xlink:href="#DejaVuSans-68" transform="translate(487.988281 0)"/>
       <use xlink:href="#DejaVuSans-61" transform="translate(551.367188 0)"/>
       <use xlink:href="#DejaVuSans-69" transform="translate(612.646484 0)"/>
       <use xlink:href="#DejaVuSans-6e" transform="translate(640.429688 0)"/>
       <use xlink:href="#DejaVuSans-20" transform="translate(703.808594 0)"/>
       <use xlink:href="#DejaVuSans-28" transform="translate(735.595703 0)"/>
       <use xlink:href="#DejaVuSans-5a" transform="translate(774.609375 0)"/>
       <use xlink:href="#DejaVuSans-4b" transform="translate(843.115234 0)"/>
       <use xlink:href="#DejaVuSans-50" transform="translate(908.691406 0)"/>
       <use xlink:href="#DejaVuSans-20" transform="translate(968.994141 0)"/>
       <use xlink:href="#DejaVuSans-70" transform="translate(1000.78125 0)"/>
       <use xlink:href="#DejaVuSans-72" transform="translate(1064.257812 0)"/>
       <use xlink:href="#DejaVuSans-6f" transform="translate(1103.121094 0)"/>
       <use xlink:href="#DejaVuSans-78" transform="translate(1161.177734 0)"/>
       <use xlink:href="#DejaVuSans-79" transform="translate(1220.357422 0)"/>
       <use xlink:href="#DejaVuSans-29" transform="translate(1279.537109 0)"/>
      </g>
     </g>
    </g>
    <g id="ytick_6">
     <g id="line2d_18">
      <g>
       <use xlink:href="#mc8b6c78553" x="99" y="237.298296" style="stroke: #000000; stroke-width: 0.8"/>
      </g>
     </g>
     <g id="text_13">
      <!-- + no change-as-input + no eq-chain -->
      <g transform="translate(-89.829688 241.097515) scale(0.1 -0.1)">
       <use xlink:href="#DejaVuSans-2b"/>
       <use xlink:href="#DejaVuSans-20" transform="translate(83.789062 0)"/>
       <use xlink:href="#DejaVuSans-6e" transform="translate(115.576172 0)"/>
       <use xlink:href="#DejaVuSans-6f" transform="translate(178.955078 0)"/>
       <use xlink:href="#DejaVuSans-20" transform="translate(240.136719 0)"/>
       <use xlink:href="#DejaVuSans-63" transform="translate(271.923828 0)"/>
       <use xlink:href="#DejaVuSans-68" transform="translate(326.904297 0)"/>
       <use xlink:href="#DejaVuSans-61" transform="translate(390.283203 0)"/>
       <use xlink:href="#DejaVuSans-6e" transform="translate(451.5625 0)"/>
       <use xlink:href="#DejaVuSans-67" transform="translate(514.941406 0)"/>
       <use xlink:href="#DejaVuSans-65" transform="translate(578.417969 0)"/>
       <use xlink:href="#DejaVuSans-2d" transform="translate(639.941406 0)"/>
       <use xlink:href="#DejaVuSans-61" transform="translate(676.025391 0)"/>
       <use xlink:href="#DejaVuSans-73" transform="translate(737.304688 0)"/>
       <use xlink:href="#DejaVuSans-2d" transform="translate(789.404297 0)"/>
       <use xlink:href="#DejaVuSans-69" transform="translate(825.488281 0)"/>
       <use xlink:href="#DejaVuSans-6e" transform="translate(853.271484 0)"/>
       <use xlink:href="#DejaVuSans-70" transform="translate(916.650391 0)"/>
       <use xlink:href="#DejaVuSans-75" transform="translate(980.126953 0)"/>
       <use xlink:href="#DejaVuSans-74" transform="translate(1043.505859 0)"/>
       <use xlink:href="#DejaVuSans-20" transform="translate(1082.714844 0)"/>
       <use xlink:href="#DejaVuSans-2b" transform="translate(1114.501953 0)"/>
       <use xlink:href="#DejaVuSans-20" transform="translate(1198.291016 0)"/>
       <use xlink:href="#DejaVuSans-6e" transform="translate(1230.078125 0)"/>
       <use xlink:href="#DejaVuSans-6f" transform="translate(1293.457031 0)"/>
       <use xlink:href="#DejaVuSans-20" transform="translate(1354.638672 0)"/>
       <use xlink:href="#DejaVuSans-65" transform="translate(1386.425781 0)"/>
       <use xlink:href="#DejaVuSans-71" transform="translate(1447.949219 0)"/>
       <use xlink:href="#DejaVuSans-2d" transform="translate(1511.425781 0)"/>
       <use xlink:href="#DejaVuSans-63" transform="translate(1547.509766 0)"/>
       <use xlink:href="#DejaVuSans-68" transform="translate(1602.490234 0)"/>
       <use xlink:href="#DejaVuSans-61" transform="translate(1665.869141 0)"/>
       <use xlink:href="#DejaVuSans-69" transform="translate(1727.148438 0)"/>
       <use xlink:href="#DejaVuSans-6e" transform="translate(1754.931641 0)"/>
      </g>
     </g>
    </g>
    <g id="ytick_7">
     <g id="line2d_19">
      <g>
       <use xlink:href="#mc8b6c78553" x="99" y="272.319444" style="stroke: #000000; stroke-width: 0.8"/>
      </g>
     </g>
     <g id="text_14">
      <!-- + no change-as-input + maker-only CJ + no eq-chain -->
      <g transform="translate(-173.548438 276.118663) scale(0.1 -0.1)">
       <use xlink:href="#DejaVuSans-2b"/>
       <use xlink:href="#DejaVuSans-20" transform="translate(83.789062 0)"/>
       <use xlink:href="#DejaVuSans-6e" transform="translate(115.576172 0)"/>
       <use xlink:href="#DejaVuSans-6f" transform="translate(178.955078 0)"/>
       <use xlink:href="#DejaVuSans-20" transform="translate(240.136719 0)"/>
       <use xlink:href="#DejaVuSans-63" transform="translate(271.923828 0)"/>
       <use xlink:href="#DejaVuSans-68" transform="translate(326.904297 0)"/>
       <use xlink:href="#DejaVuSans-61" transform="translate(390.283203 0)"/>
       <use xlink:href="#DejaVuSans-6e" transform="translate(451.5625 0)"/>
       <use xlink:href="#DejaVuSans-67" transform="translate(514.941406 0)"/>
       <use xlink:href="#DejaVuSans-65" transform="translate(578.417969 0)"/>
       <use xlink:href="#DejaVuSans-2d" transform="translate(639.941406 0)"/>
       <use xlink:href="#DejaVuSans-61" transform="translate(676.025391 0)"/>
       <use xlink:href="#DejaVuSans-73" transform="translate(737.304688 0)"/>
       <use xlink:href="#DejaVuSans-2d" transform="translate(789.404297 0)"/>
       <use xlink:href="#DejaVuSans-69" transform="translate(825.488281 0)"/>
       <use xlink:href="#DejaVuSans-6e" transform="translate(853.271484 0)"/>
       <use xlink:href="#DejaVuSans-70" transform="translate(916.650391 0)"/>
       <use xlink:href="#DejaVuSans-75" transform="translate(980.126953 0)"/>
       <use xlink:href="#DejaVuSans-74" transform="translate(1043.505859 0)"/>
       <use xlink:href="#DejaVuSans-20" transform="translate(1082.714844 0)"/>
       <use xlink:href="#DejaVuSans-2b" transform="translate(1114.501953 0)"/>
       <use xlink:href="#DejaVuSans-20" transform="translate(1198.291016 0)"/>
       <use xlink:href="#DejaVuSans-6d" transform="translate(1230.078125 0)"/>
       <use xlink:href="#DejaVuSans-61" transform="translate(1327.490234 0)"/>
       <use xlink:href="#DejaVuSans-6b" transform="translate(1388.769531 0)"/>
       <use xlink:href="#DejaVuSans-65" transform="translate(1443.054688 0)"/>
       <use xlink:href="#DejaVuSans-72" transform="translate(1504.578125 0)"/>
       <use xlink:href="#DejaVuSans-2d" transform="translate(1539.316406 0)"/>
       <use xlink:href="#DejaVuSans-6f" transform="translate(1577.275391 0)"/>
       <use xlink:href="#DejaVuSans-6e" transform="translate(1638.457031 0)"/>
       <use xlink:href="#DejaVuSans-6c" transform="translate(1701.835938 0)"/>
       <use xlink:href="#DejaVuSans-79" transform="translate(1729.619141 0)"/>
       <use xlink:href="#DejaVuSans-20" transform="translate(1788.798828 0)"/>
       <use xlink:href="#DejaVuSans-43" transform="translate(1820.585938 0)"/>
       <use xlink:href="#DejaVuSans-4a" transform="translate(1890.410156 0)"/>
       <use xlink:href="#DejaVuSans-20" transform="translate(1919.902344 0)"/>
       <use xlink:href="#DejaVuSans-2b" transform="translate(1951.689453 0)"/>
       <use xlink:href="#DejaVuSans-20" transform="translate(2035.478516 0)"/>
       <use xlink:href="#DejaVuSans-6e" transform="translate(2067.265625 0)"/>
       <use xlink:href="#DejaVuSans-6f" transform="translate(2130.644531 0)"/>
       <use xlink:href="#DejaVuSans-20" transform="translate(2191.826172 0)"/>
       <use xlink:href="#DejaVuSans-65" transform="translate(2223.613281 0)"/>
       <use xlink:href="#DejaVuSans-71" transform="translate(2285.136719 0)"/>
       <use xlink:href="#DejaVuSans-2d" transform="translate(2348.613281 0)"/>
       <use xlink:href="#DejaVuSans-63" transform="translate(2384.697266 0)"/>
       <use xlink:href="#DejaVuSans-68" transform="translate(2439.677734 0)"/>
       <use xlink:href="#DejaVuSans-61" transform="translate(2503.056641 0)"/>
       <use xlink:href="#DejaVuSans-69" transform="translate(2564.335938 0)"/>
       <use xlink:href="#DejaVuSans-6e" transform="translate(2592.119141 0)"/>
      </g>
     </g>
    </g>
   </g>
   <g id="line2d_20">
    <path d="M 362.478709 294.768 
L 362.478709 39.744 
" clip-path="url(#p3dcd43651c)" style="fill: none; stroke-dasharray: 1,1.65; stroke-dashoffset: 0; stroke: #000000"/>
   </g>
   <g id="patch_10">
    <path d="M 99 294.768 
L 99 39.744 
" style="fill: none; stroke: #000000; stroke-width: 0.8; stroke-linejoin: miter; stroke-linecap: square"/>
   </g>
   <g id="patch_11">
    <path d="M 394.096154 294.768 
L 394.096154 39.744 
" style="fill: none; stroke: #000000; stroke-width: 0.8; stroke-linejoin: miter; stroke-linecap: square"/>
   </g>
   <g id="patch_12">
    <path d="M 99 294.768 
L 394.096154 294.768 
" style="fill: none; stroke: #000000; stroke-width: 0.8; stroke-linejoin: miter; stroke-linecap: square"/>
   </g>
   <g id="patch_13">
    <path d="M 99 39.744 
L 394.096154 39.744 
" style="fill: none; stroke: #000000; stroke-width: 0.8; stroke-linejoin: miter; stroke-linecap: square"/>
   </g>
   <g id="text_15">
    <!--  full $n_{eq}$ = 5 -->
    <g transform="translate(362.478709 44.517752) scale(0.09 -0.09)">
     <defs>
      <path id="DejaVuSans-Oblique-6e" d="M 3566 2113 
L 3156 0 
L 2578 0 
L 2988 2091 
Q 3016 2238 3031 2350 
Q 3047 2463 3047 2528 
Q 3047 2791 2881 2937 
Q 2716 3084 2419 3084 
Q 1956 3084 1622 2776 
Q 1288 2469 1184 1941 
L 800 0 
L 225 0 
L 903 3500 
L 1478 3500 
L 1363 2950 
Q 1603 3253 1940 3418 
Q 2278 3584 2650 3584 
Q 3113 3584 3367 3334 
Q 3622 3084 3622 2631 
Q 3622 2519 3608 2391 
Q 3594 2263 3566 2113 
z
" transform="scale(0.015625)"/>
      <path id="DejaVuSans-Oblique-65" d="M 3078 2063 
Q 3088 2113 3092 2166 
Q 3097 2219 3097 2272 
Q 3097 2653 2873 2875 
Q 2650 3097 2266 3097 
Q 1838 3097 1509 2826 
Q 1181 2556 1013 2059 
L 3078 2063 
z
M 3578 1613 
L 903 1613 
Q 884 1494 878 1425 
Q 872 1356 872 1306 
Q 872 872 1139 634 
Q 1406 397 1894 397 
Q 2269 397 2603 481 
Q 2938 566 3225 728 
L 3116 159 
Q 2806 34 2476 -28 
Q 2147 -91 1806 -91 
Q 1078 -91 686 257 
Q 294 606 294 1247 
Q 294 1794 489 2264 
Q 684 2734 1063 3103 
Q 1306 3334 1642 3459 
Q 1978 3584 2356 3584 
Q 2950 3584 3301 3228 
Q 3653 2872 3653 2272 
Q 3653 2128 3634 1964 
Q 3616 1800 3578 1613 
z
" transform="scale(0.015625)"/>
      <path id="DejaVuSans-Oblique-71" d="M 2669 525 
Q 2438 222 2123 65 
Q 1809 -91 1428 -91 
Q 897 -91 595 267 
Q 294 625 294 1253 
Q 294 1759 480 2231 
Q 666 2703 1013 3078 
Q 1238 3322 1530 3453 
Q 1822 3584 2144 3584 
Q 2531 3584 2781 3431 
Q 3031 3278 3144 2969 
L 3244 3494 
L 3822 3494 
L 2888 -1319 
L 2309 -1319 
L 2669 525 
z
M 891 1338 
Q 891 875 1084 633 
Q 1278 391 1644 391 
Q 2188 391 2572 911 
Q 2956 1431 2956 2175 
Q 2956 2625 2757 2864 
Q 2559 3103 2188 3103 
Q 1916 3103 1684 2976 
Q 1453 2850 1281 2606 
Q 1100 2350 995 2006 
Q 891 1663 891 1338 
z
" transform="scale(0.015625)"/>
      <path id="DejaVuSans-3d" d="M 678 2906 
L 4684 2906 
L 4684 2381 
L 678 2381 
L 678 2906 
z
M 678 1631 
L 4684 1631 
L 4684 1100 
L 678 1100 
L 678 1631 
z
" transform="scale(0.015625)"/>
     </defs>
     <use xlink:href="#DejaVuSans-20" transform="translate(0 0.015625)"/>
     <use xlink:href="#DejaVuSans-66" transform="translate(31.787109 0.015625)"/>
     <use xlink:href="#DejaVuSans-75" transform="translate(66.992188 0.015625)"/>
     <use xlink:href="#DejaVuSans-6c" transform="translate(130.371094 0.015625)"/>
     <use xlink:href="#DejaVuSans-6c" transform="translate(158.154297 0.015625)"/>
     <use xlink:href="#DejaVuSans-20" transform="translate(185.9375 0.015625)"/>
     <use xlink:href="#DejaVuSans-Oblique-6e" transform="translate(217.724609 0.015625)"/>
     <use xlink:href="#DejaVuSans-Oblique-65" transform="translate(281.103516 -16.390625) scale(0.7)"/>
     <use xlink:href="#DejaVuSans-Oblique-71" transform="translate(324.169922 -16.390625) scale(0.7)"/>
     <use xlink:href="#DejaVuSans-20" transform="translate(371.337891 0.015625)"/>
     <use xlink:href="#DejaVuSans-3d" transform="translate(403.125 0.015625)"/>
     <use xlink:href="#DejaVuSans-20" transform="translate(486.914062 0.015625)"/>
     <use xlink:href="#DejaVuSans-35" transform="translate(518.701172 0.015625)"/>
    </g>
   </g>
   <g id="text_16">
    <!-- 0.00 -->
    <g transform="translate(103.268355 64.400056) scale(0.08 -0.08)">
     <defs>
      <path id="DejaVuSans-2e" d="M 684 794 
L 1344 794 
L 1344 0 
L 684 0 
L 684 794 
z
" transform="scale(0.015625)"/>
     </defs>
     <use xlink:href="#DejaVuSans-30"/>
     <use xlink:href="#DejaVuSans-2e" transform="translate(63.623047 0)"/>
     <use xlink:href="#DejaVuSans-30" transform="translate(95.410156 0)"/>
     <use xlink:href="#DejaVuSans-30" transform="translate(159.033203 0)"/>
    </g>
   </g>
   <g id="text_17">
    <!-- 0.00 -->
    <g transform="translate(103.215659 99.421204) scale(0.08 -0.08)">
     <use xlink:href="#DejaVuSans-30"/>
     <use xlink:href="#DejaVuSans-2e" transform="translate(63.623047 0)"/>
     <use xlink:href="#DejaVuSans-30" transform="translate(95.410156 0)"/>
     <use xlink:href="#DejaVuSans-30" transform="translate(159.033203 0)"/>
    </g>
   </g>
   <g id="text_18">
    <!-- 0.00 -->
    <g transform="translate(103.268355 134.442352) scale(0.08 -0.08)">
     <use xlink:href="#DejaVuSans-30"/>
     <use xlink:href="#DejaVuSans-2e" transform="translate(63.623047 0)"/>
     <use xlink:href="#DejaVuSans-30" transform="translate(95.410156 0)"/>
     <use xlink:href="#DejaVuSans-30" transform="translate(159.033203 0)"/>
    </g>
   </g>
   <g id="text_19">
    <!-- 0.00 -->
    <g transform="translate(103.215659 169.4635) scale(0.08 -0.08)">
     <use xlink:href="#DejaVuSans-30"/>
     <use xlink:href="#DejaVuSans-2e" transform="translate(63.623047 0)"/>
     <use xlink:href="#DejaVuSans-30" transform="translate(95.410156 0)"/>
     <use xlink:href="#DejaVuSans-30" transform="translate(159.033203 0)"/>
    </g>
   </g>
   <g id="text_20">
    <!-- 0.83 -->
    <g transform="translate(147.216604 204.484648) scale(0.08 -0.08)">
     <defs>
      <path id="DejaVuSans-38" d="M 2034 2216 
Q 1584 2216 1326 1975 
Q 1069 1734 1069 1313 
Q 1069 891 1326 650 
Q 1584 409 2034 409 
Q 2484 409 2743 651 
Q 3003 894 3003 1313 
Q 3003 1734 2745 1975 
Q 2488 2216 2034 2216 
z
M 1403 2484 
Q 997 2584 770 2862 
Q 544 3141 544 3541 
Q 544 4100 942 4425 
Q 1341 4750 2034 4750 
Q 2731 4750 3128 4425 
Q 3525 4100 3525 3541 
Q 3525 3141 3298 2862 
Q 3072 2584 2669 2484 
Q 3125 2378 3379 2068 
Q 3634 1759 3634 1313 
Q 3634 634 3220 271 
Q 2806 -91 2034 -91 
Q 1263 -91 848 271 
Q 434 634 434 1313 
Q 434 1759 690 2068 
Q 947 2378 1403 2484 
z
M 1172 3481 
Q 1172 3119 1398 2916 
Q 1625 2713 2034 2713 
Q 2441 2713 2670 2916 
Q 2900 3119 2900 3481 
Q 2900 3844 2670 4047 
Q 2441 4250 2034 4250 
Q 1625 4250 1398 4047 
Q 1172 3844 1172 3481 
z
" transform="scale(0.015625)"/>
     </defs>
     <use xlink:href="#DejaVuSans-30"/>
     <use xlink:href="#DejaVuSans-2e" transform="translate(63.623047 0)"/>
     <use xlink:href="#DejaVuSans-38" transform="translate(95.410156 0)"/>
     <use xlink:href="#DejaVuSans-33" transform="translate(159.033203 0)"/>
    </g>
   </g>
   <g id="text_21">
    <!-- 5.00 -->
    <g transform="translate(366.694368 239.505796) scale(0.08 -0.08)">
     <use xlink:href="#DejaVuSans-35"/>
     <use xlink:href="#DejaVuSans-2e" transform="translate(63.623047 0)"/>
     <use xlink:href="#DejaVuSans-30" transform="translate(95.410156 0)"/>
     <use xlink:href="#DejaVuSans-30" transform="translate(159.033203 0)"/>
    </g>
   </g>
   <g id="text_22">
    <!-- 2.64 -->
    <g transform="translate(242.121635 274.526944) scale(0.08 -0.08)">
     <defs>
      <path id="DejaVuSans-36" d="M 2113 2584 
Q 1688 2584 1439 2293 
Q 1191 2003 1191 1497 
Q 1191 994 1439 701 
Q 1688 409 2113 409 
Q 2538 409 2786 701 
Q 3034 994 3034 1497 
Q 3034 2003 2786 2293 
Q 2538 2584 2113 2584 
z
M 3366 4563 
L 3366 3988 
Q 3128 4100 2886 4159 
Q 2644 4219 2406 4219 
Q 1781 4219 1451 3797 
Q 1122 3375 1075 2522 
Q 1259 2794 1537 2939 
Q 1816 3084 2150 3084 
Q 2853 3084 3261 2657 
Q 3669 2231 3669 1497 
Q 3669 778 3244 343 
Q 2819 -91 2113 -91 
Q 1303 -91 875 529 
Q 447 1150 447 2328 
Q 447 3434 972 4092 
Q 1497 4750 2381 4750 
Q 2619 4750 2861 4703 
Q 3103 4656 3366 4563 
z
" transform="scale(0.015625)"/>
     </defs>
     <use xlink:href="#DejaVuSans-32"/>
     <use xlink:href="#DejaVuSans-2e" transform="translate(63.623047 0)"/>
     <use xlink:href="#DejaVuSans-36" transform="translate(95.410156 0)"/>
     <use xlink:href="#DejaVuSans-34" transform="translate(159.033203 0)"/>
    </g>
   </g>
   <g id="legend_1">
    <g id="patch_14">
     <path d="M 193.918654 290.768 
L 388.496154 290.768 
Q 390.096154 290.768 390.096154 289.168 
L 390.096154 266.483 
Q 390.096154 264.883 388.496154 264.883 
L 193.918654 264.883 
Q 192.318654 264.883 192.318654 266.483 
L 192.318654 289.168 
Q 192.318654 290.768 193.918654 290.768 
z
" style="fill: #ffffff; opacity: 0.95; stroke: #cccccc; stroke-linejoin: miter"/>
    </g>
    <g id="patch_15">
     <path d="M 195.518654 274.16175 
L 211.518654 274.16175 
L 211.518654 268.56175 
L 195.518654 268.56175 
z
" style="fill: #3b6ea8; stroke: #000000; stroke-linejoin: miter"/>
    </g>
    <g id="text_23">
     <!-- deployable today (behavioural / config) -->
     <g transform="translate(217.918654 274.16175) scale(0.08 -0.08)">
      <defs>
       <path id="DejaVuSans-76" d="M 191 3500 
L 800 3500 
L 1894 563 
L 2988 3500 
L 3597 3500 
L 2284 0 
L 1503 0 
L 191 3500 
z
" transform="scale(0.015625)"/>
       <path id="DejaVuSans-2f" d="M 1625 4666 
L 2156 4666 
L 531 -594 
L 0 -594 
L 1625 4666 
z
" transform="scale(0.015625)"/>
      </defs>
      <use xlink:href="#DejaVuSans-64"/>
      <use xlink:href="#DejaVuSans-65" transform="translate(63.476562 0)"/>
      <use xlink:href="#DejaVuSans-70" transform="translate(125 0)"/>
      <use xlink:href="#DejaVuSans-6c" transform="translate(188.476562 0)"/>
      <use xlink:href="#DejaVuSans-6f" transform="translate(216.259766 0)"/>
      <use xlink:href="#DejaVuSans-79" transform="translate(277.441406 0)"/>
      <use xlink:href="#DejaVuSans-61" transform="translate(336.621094 0)"/>
      <use xlink:href="#DejaVuSans-62" transform="translate(397.900391 0)"/>
      <use xlink:href="#DejaVuSans-6c" transform="translate(461.376953 0)"/>
      <use xlink:href="#DejaVuSans-65" transform="translate(489.160156 0)"/>
      <use xlink:href="#DejaVuSans-20" transform="translate(550.683594 0)"/>
      <use xlink:href="#DejaVuSans-74" transform="translate(582.470703 0)"/>
      <use xlink:href="#DejaVuSans-6f" transform="translate(621.679688 0)"/>
      <use xlink:href="#DejaVuSans-64" transform="translate(682.861328 0)"/>
      <use xlink:href="#DejaVuSans-61" transform="translate(746.337891 0)"/>
      <use xlink:href="#DejaVuSans-79" transform="translate(807.617188 0)"/>
      <use xlink:href="#DejaVuSans-20" transform="translate(866.796875 0)"/>
      <use xlink:href="#DejaVuSans-28" transform="translate(898.583984 0)"/>
      <use xlink:href="#DejaVuSans-62" transform="translate(937.597656 0)"/>
      <use xlink:href="#DejaVuSans-65" transform="translate(1001.074219 0)"/>
      <use xlink:href="#DejaVuSans-68" transform="translate(1062.597656 0)"/>
      <use xlink:href="#DejaVuSans-61" transform="translate(1125.976562 0)"/>
      <use xlink:href="#DejaVuSans-76" transform="translate(1187.255859 0)"/>
      <use xlink:href="#DejaVuSans-69" transform="translate(1246.435547 0)"/>
      <use xlink:href="#DejaVuSans-6f" transform="translate(1274.21875 0)"/>
      <use xlink:href="#DejaVuSans-75" transform="translate(1335.400391 0)"/>
      <use xlink:href="#DejaVuSans-72" transform="translate(1398.779297 0)"/>
      <use xlink:href="#DejaVuSans-61" transform="translate(1439.892578 0)"/>
      <use xlink:href="#DejaVuSans-6c" transform="translate(1501.171875 0)"/>
      <use xlink:href="#DejaVuSans-20" transform="translate(1528.955078 0)"/>
      <use xlink:href="#DejaVuSans-2f" transform="translate(1560.742188 0)"/>
      <use xlink:href="#DejaVuSans-20" transform="translate(1594.433594 0)"/>
      <use xlink:href="#DejaVuSans-63" transform="translate(1626.220703 0)"/>
      <use xlink:href="#DejaVuSans-6f" transform="translate(1681.201172 0)"/>
      <use xlink:href="#DejaVuSans-6e" transform="translate(1742.382812 0)"/>
      <use xlink:href="#DejaVuSans-66" transform="translate(1805.761719 0)"/>
      <use xlink:href="#DejaVuSans-69" transform="translate(1840.966797 0)"/>
      <use xlink:href="#DejaVuSans-67" transform="translate(1868.75 0)"/>
      <use xlink:href="#DejaVuSans-29" transform="translate(1932.226562 0)"/>
     </g>
    </g>
    <g id="patch_16">
     <path d="M 195.518654 285.90425 
L 211.518654 285.90425 
L 211.518654 280.30425 
L 195.518654 280.30425 
z
" style="fill: #b04a3b; stroke: #000000; stroke-linejoin: miter"/>
    </g>
    <g id="text_24">
     <!-- requires JMP-0005-class ZKP (no eq-chain) -->
     <g transform="translate(217.918654 285.90425) scale(0.08 -0.08)">
      <use xlink:href="#DejaVuSans-72"/>
      <use xlink:href="#DejaVuSans-65" transform="translate(38.863281 0)"/>
      <use xlink:href="#DejaVuSans-71" transform="translate(100.386719 0)"/>
      <use xlink:href="#DejaVuSans-75" transform="translate(163.863281 0)"/>
      <use xlink:href="#DejaVuSans-69" transform="translate(227.242188 0)"/>
      <use xlink:href="#DejaVuSans-72" transform="translate(255.025391 0)"/>
      <use xlink:href="#DejaVuSans-65" transform="translate(293.888672 0)"/>
      <use xlink:href="#DejaVuSans-73" transform="translate(355.412109 0)"/>
      <use xlink:href="#DejaVuSans-20" transform="translate(407.511719 0)"/>
      <use xlink:href="#DejaVuSans-4a" transform="translate(439.298828 0)"/>
      <use xlink:href="#DejaVuSans-4d" transform="translate(468.791016 0)"/>
      <use xlink:href="#DejaVuSans-50" transform="translate(555.070312 0)"/>
      <use xlink:href="#DejaVuSans-2d" transform="translate(613.123047 0)"/>
      <use xlink:href="#DejaVuSans-30" transform="translate(649.207031 0)"/>
      <use xlink:href="#DejaVuSans-30" transform="translate(712.830078 0)"/>
      <use xlink:href="#DejaVuSans-30" transform="translate(776.453125 0)"/>
      <use xlink:href="#DejaVuSans-35" transform="translate(840.076172 0)"/>
      <use xlink:href="#DejaVuSans-2d" transform="translate(903.699219 0)"/>
      <use xlink:href="#DejaVuSans-63" transform="translate(939.783203 0)"/>
      <use xlink:href="#DejaVuSans-6c" transform="translate(994.763672 0)"/>
      <use xlink:href="#DejaVuSans-61" transform="translate(1022.546875 0)"/>
      <use xlink:href="#DejaVuSans-73" transform="translate(1083.826172 0)"/>
      <use xlink:href="#DejaVuSans-73" transform="translate(1135.925781 0)"/>
      <use xlink:href="#DejaVuSans-20" transform="translate(1188.025391 0)"/>
      <use xlink:href="#DejaVuSans-5a" transform="translate(1219.8125 0)"/>
      <use xlink:href="#DejaVuSans-4b" transform="translate(1288.318359 0)"/>
      <use xlink:href="#DejaVuSans-50" transform="translate(1353.894531 0)"/>
      <use xlink:href="#DejaVuSans-20" transform="translate(1414.197266 0)"/>
      <use xlink:href="#DejaVuSans-28" transform="translate(1445.984375 0)"/>
      <use xlink:href="#DejaVuSans-6e" transform="translate(1484.998047 0)"/>
      <use xlink:href="#DejaVuSans-6f" transform="translate(1548.376953 0)"/>
      <use xlink:href="#DejaVuSans-20" transform="translate(1609.558594 0)"/>
      <use xlink:href="#DejaVuSans-65" transform="translate(1641.345703 0)"/>
      <use xlink:href="#DejaVuSans-71" transform="translate(1702.869141 0)"/>
      <use xlink:href="#DejaVuSans-2d" transform="translate(1766.345703 0)"/>
      <use xlink:href="#DejaVuSans-63" transform="translate(1802.429688 0)"/>
      <use xlink:href="#DejaVuSans-68" transform="translate(1857.410156 0)"/>
      <use xlink:href="#DejaVuSans-61" transform="translate(1920.789062 0)"/>
      <use xlink:href="#DejaVuSans-69" transform="translate(1982.068359 0)"/>
      <use xlink:href="#DejaVuSans-6e" transform="translate(2009.851562 0)"/>
      <use xlink:href="#DejaVuSans-29" transform="translate(2073.230469 0)"/>
     </g>
    </g>
   </g>
  </g>
  <g id="axes_2">
   <g id="patch_17">
    <path d="M 417.703846 294.768 
L 712.8 294.768 
L 712.8 39.744 
L 417.703846 39.744 
z
" style="fill: #ffffff"/>
   </g>
   <g id="patch_18">
    <path d="M 417.703846 51.336 
L 685.973077 51.336 
L 685.973077 73.049112 
L 417.703846 73.049112 
z
" clip-path="url(#p92554315ca)" style="fill: #3b6ea8; stroke: #000000; stroke-linejoin: miter"/>
   </g>
   <g id="patch_19">
    <path d="M 417.703846 86.357148 
L 685.973077 86.357148 
L 685.973077 108.07026 
L 417.703846 108.07026 
z
" clip-path="url(#p92554315ca)" style="fill: #3b6ea8; stroke: #000000; stroke-linejoin: miter"/>
   </g>
   <g id="patch_20">
    <path d="M 417.703846 121.378296 
L 427.683462 121.378296 
L 427.683462 143.091408 
L 417.703846 143.091408 
z
" clip-path="url(#p92554315ca)" style="fill: #3b6ea8; stroke: #000000; stroke-linejoin: miter"/>
   </g>
   <g id="patch_21">
    <path d="M 417.703846 156.399444 
L 685.973077 156.399444 
L 685.973077 178.112556 
L 417.703846 178.112556 
z
" clip-path="url(#p92554315ca)" style="fill: #3b6ea8; stroke: #000000; stroke-linejoin: miter"/>
   </g>
   <g id="patch_22">
    <path d="M 417.703846 191.420592 
L 685.973077 191.420592 
L 685.973077 213.133704 
L 417.703846 213.133704 
z
" clip-path="url(#p92554315ca)" style="fill: #b04a3b; stroke: #000000; stroke-linejoin: miter"/>
   </g>
   <g id="patch_23">
    <path d="M 417.703846 226.44174 
L 427.683462 226.44174 
L 427.683462 248.154852 
L 417.703846 248.154852 
z
" clip-path="url(#p92554315ca)" style="fill: #b04a3b; stroke: #000000; stroke-linejoin: miter"/>
   </g>
   <g id="patch_24">
    <path d="M 417.703846 261.462888 
L 685.973077 261.462888 
L 685.973077 283.176 
L 417.703846 283.176 
z
" clip-path="url(#p92554315ca)" style="fill: #b04a3b; stroke: #000000; stroke-linejoin: miter"/>
   </g>
   <g id="matplotlib.axis_3">
    <g id="xtick_7">
     <g id="line2d_21">
      <path d="M 417.703846 294.768 
L 417.703846 39.744 
" clip-path="url(#p92554315ca)" style="fill: none; stroke-dasharray: 0.8,1.32; stroke-dashoffset: 0; stroke: #b0b0b0; stroke-opacity: 0.5; stroke-width: 0.8"/>
     </g>
     <g id="line2d_22">
      <g>
       <use xlink:href="#mfb450e5b9d" x="417.703846" y="294.768" style="stroke: #000000; stroke-width: 0.8"/>
      </g>
     </g>
     <g id="text_25">
      <!-- 0 -->
      <g transform="translate(414.522596 309.366438) scale(0.1 -0.1)">
       <use xlink:href="#DejaVuSans-30"/>
      </g>
     </g>
    </g>
    <g id="xtick_8">
     <g id="line2d_23">
      <path d="M 471.357692 294.768 
L 471.357692 39.744 
" clip-path="url(#p92554315ca)" style="fill: none; stroke-dasharray: 0.8,1.32; stroke-dashoffset: 0; stroke: #b0b0b0; stroke-opacity: 0.5; stroke-width: 0.8"/>
     </g>
     <g id="line2d_24">
      <g>
       <use xlink:href="#mfb450e5b9d" x="471.357692" y="294.768" style="stroke: #000000; stroke-width: 0.8"/>
      </g>
     </g>
     <g id="text_26">
      <!-- 20 -->
      <g transform="translate(464.995192 309.366438) scale(0.1 -0.1)">
       <use xlink:href="#DejaVuSans-32"/>
       <use xlink:href="#DejaVuSans-30" transform="translate(63.623047 0)"/>
      </g>
     </g>
    </g>
    <g id="xtick_9">
     <g id="line2d_25">
      <path d="M 525.011538 294.768 
L 525.011538 39.744 
" clip-path="url(#p92554315ca)" style="fill: none; stroke-dasharray: 0.8,1.32; stroke-dashoffset: 0; stroke: #b0b0b0; stroke-opacity: 0.5; stroke-width: 0.8"/>
     </g>
     <g id="line2d_26">
      <g>
       <use xlink:href="#mfb450e5b9d" x="525.011538" y="294.768" style="stroke: #000000; stroke-width: 0.8"/>
      </g>
     </g>
     <g id="text_27">
      <!-- 40 -->
      <g transform="translate(518.649038 309.366438) scale(0.1 -0.1)">
       <use xlink:href="#DejaVuSans-34"/>
       <use xlink:href="#DejaVuSans-30" transform="translate(63.623047 0)"/>
      </g>
     </g>
    </g>
    <g id="xtick_10">
     <g id="line2d_27">
      <path d="M 578.665385 294.768 
L 578.665385 39.744 
" clip-path="url(#p92554315ca)" style="fill: none; stroke-dasharray: 0.8,1.32; stroke-dashoffset: 0; stroke: #b0b0b0; stroke-opacity: 0.5; stroke-width: 0.8"/>
     </g>
     <g id="line2d_28">
      <g>
       <use xlink:href="#mfb450e5b9d" x="578.665385" y="294.768" style="stroke: #000000; stroke-width: 0.8"/>
      </g>
     </g>
     <g id="text_28">
      <!-- 60 -->
      <g transform="translate(572.302885 309.366438) scale(0.1 -0.1)">
       <use xlink:href="#DejaVuSans-36"/>
       <use xlink:href="#DejaVuSans-30" transform="translate(63.623047 0)"/>
      </g>
     </g>
    </g>
    <g id="xtick_11">
     <g id="line2d_29">
      <path d="M 632.319231 294.768 
L 632.319231 39.744 
" clip-path="url(#p92554315ca)" style="fill: none; stroke-dasharray: 0.8,1.32; stroke-dashoffset: 0; stroke: #b0b0b0; stroke-opacity: 0.5; stroke-width: 0.8"/>
     </g>
     <g id="line2d_30">
      <g>
       <use xlink:href="#mfb450e5b9d" x="632.319231" y="294.768" style="stroke: #000000; stroke-width: 0.8"/>
      </g>
     </g>
     <g id="text_29">
      <!-- 80 -->
      <g transform="translate(625.956731 309.366438) scale(0.1 -0.1)">
       <use xlink:href="#DejaVuSans-38"/>
       <use xlink:href="#DejaVuSans-30" transform="translate(63.623047 0)"/>
      </g>
     </g>
    </g>
    <g id="xtick_12">
     <g id="line2d_31">
      <path d="M 685.973077 294.768 
L 685.973077 39.744 
" clip-path="url(#p92554315ca)" style="fill: none; stroke-dasharray: 0.8,1.32; stroke-dashoffset: 0; stroke: #b0b0b0; stroke-opacity: 0.5; stroke-width: 0.8"/>
     </g>
     <g id="line2d_32">
      <g>
       <use xlink:href="#mfb450e5b9d" x="685.973077" y="294.768" style="stroke: #000000; stroke-width: 0.8"/>
      </g>
     </g>
     <g id="text_30">
      <!-- 100 -->
      <g transform="translate(676.429327 309.366438) scale(0.1 -0.1)">
       <use xlink:href="#DejaVuSans-31"/>
       <use xlink:href="#DejaVuSans-30" transform="translate(63.623047 0)"/>
       <use xlink:href="#DejaVuSans-30" transform="translate(127.246094 0)"/>
      </g>
     </g>
    </g>
    <g id="text_31">
     <!-- taker CJ throughput (% of demand) -->
     <g transform="translate(477.523798 323.044562) scale(0.1 -0.1)">
      <defs>
       <path id="DejaVuSans-25" d="M 4653 2053 
Q 4381 2053 4226 1822 
Q 4072 1591 4072 1178 
Q 4072 772 4226 539 
Q 4381 306 4653 306 
Q 4919 306 5073 539 
Q 5228 772 5228 1178 
Q 5228 1588 5073 1820 
Q 4919 2053 4653 2053 
z
M 4653 2450 
Q 5147 2450 5437 2106 
Q 5728 1763 5728 1178 
Q 5728 594 5436 251 
Q 5144 -91 4653 -91 
Q 4153 -91 3862 251 
Q 3572 594 3572 1178 
Q 3572 1766 3864 2108 
Q 4156 2450 4653 2450 
z
M 1428 4353 
Q 1159 4353 1004 4120 
Q 850 3888 850 3481 
Q 850 3069 1003 2837 
Q 1156 2606 1428 2606 
Q 1700 2606 1854 2837 
Q 2009 3069 2009 3481 
Q 2009 3884 1853 4118 
Q 1697 4353 1428 4353 
z
M 4250 4750 
L 4750 4750 
L 1831 -91 
L 1331 -91 
L 4250 4750 
z
M 1428 4750 
Q 1922 4750 2215 4408 
Q 2509 4066 2509 3481 
Q 2509 2891 2217 2550 
Q 1925 2209 1428 2209 
Q 931 2209 642 2551 
Q 353 2894 353 3481 
Q 353 4063 643 4406 
Q 934 4750 1428 4750 
z
" transform="scale(0.015625)"/>
      </defs>
      <use xlink:href="#DejaVuSans-74"/>
      <use xlink:href="#DejaVuSans-61" transform="translate(39.208984 0)"/>
      <use xlink:href="#DejaVuSans-6b" transform="translate(100.488281 0)"/>
      <use xlink:href="#DejaVuSans-65" transform="translate(154.773438 0)"/>
      <use xlink:href="#DejaVuSans-72" transform="translate(216.296875 0)"/>
      <use xlink:href="#DejaVuSans-20" transform="translate(257.410156 0)"/>
      <use xlink:href="#DejaVuSans-43" transform="translate(289.197266 0)"/>
      <use xlink:href="#DejaVuSans-4a" transform="translate(359.021484 0)"/>
      <use xlink:href="#DejaVuSans-20" transform="translate(388.513672 0)"/>
      <use xlink:href="#DejaVuSans-74" transform="translate(420.300781 0)"/>
      <use xlink:href="#DejaVuSans-68" transform="translate(459.509766 0)"/>
      <use xlink:href="#DejaVuSans-72" transform="translate(522.888672 0)"/>
      <use xlink:href="#DejaVuSans-6f" transform="translate(561.751953 0)"/>
      <use xlink:href="#DejaVuSans-75" transform="translate(622.933594 0)"/>
      <use xlink:href="#DejaVuSans-67" transform="translate(686.3125 0)"/>
      <use xlink:href="#DejaVuSans-68" transform="translate(749.789062 0)"/>
      <use xlink:href="#DejaVuSans-70" transform="translate(813.167969 0)"/>
      <use xlink:href="#DejaVuSans-75" transform="translate(876.644531 0)"/>
      <use xlink:href="#DejaVuSans-74" transform="translate(940.023438 0)"/>
      <use xlink:href="#DejaVuSans-20" transform="translate(979.232422 0)"/>
      <use xlink:href="#DejaVuSans-28" transform="translate(1011.019531 0)"/>
      <use xlink:href="#DejaVuSans-25" transform="translate(1050.033203 0)"/>
      <use xlink:href="#DejaVuSans-20" transform="translate(1145.052734 0)"/>
      <use xlink:href="#DejaVuSans-6f" transform="translate(1176.839844 0)"/>
      <use xlink:href="#DejaVuSans-66" transform="translate(1238.021484 0)"/>
      <use xlink:href="#DejaVuSans-20" transform="translate(1273.226562 0)"/>
      <use xlink:href="#DejaVuSans-64" transform="translate(1305.013672 0)"/>
      <use xlink:href="#DejaVuSans-65" transform="translate(1368.490234 0)"/>
      <use xlink:href="#DejaVuSans-6d" transform="translate(1430.013672 0)"/>
      <use xlink:href="#DejaVuSans-61" transform="translate(1527.425781 0)"/>
      <use xlink:href="#DejaVuSans-6e" transform="translate(1588.705078 0)"/>
      <use xlink:href="#DejaVuSans-64" transform="translate(1652.083984 0)"/>
      <use xlink:href="#DejaVuSans-29" transform="translate(1715.560547 0)"/>
     </g>
    </g>
   </g>
   <g id="matplotlib.axis_4">
    <g id="ytick_8">
     <g id="line2d_33">
      <g>
       <use xlink:href="#mc8b6c78553" x="417.703846" y="62.192556" style="stroke: #000000; stroke-width: 0.8"/>
      </g>
     </g>
    </g>
    <g id="ytick_9">
     <g id="line2d_34">
      <g>
       <use xlink:href="#mc8b6c78553" x="417.703846" y="97.213704" style="stroke: #000000; stroke-width: 0.8"/>
      </g>
     </g>
    </g>
    <g id="ytick_10">
     <g id="line2d_35">
      <g>
       <use xlink:href="#mc8b6c78553" x="417.703846" y="132.234852" style="stroke: #000000; stroke-width: 0.8"/>
      </g>
     </g>
    </g>
    <g id="ytick_11">
     <g id="line2d_36">
      <g>
       <use xlink:href="#mc8b6c78553" x="417.703846" y="167.256" style="stroke: #000000; stroke-width: 0.8"/>
      </g>
     </g>
    </g>
    <g id="ytick_12">
     <g id="line2d_37">
      <g>
       <use xlink:href="#mc8b6c78553" x="417.703846" y="202.277148" style="stroke: #000000; stroke-width: 0.8"/>
      </g>
     </g>
    </g>
    <g id="ytick_13">
     <g id="line2d_38">
      <g>
       <use xlink:href="#mc8b6c78553" x="417.703846" y="237.298296" style="stroke: #000000; stroke-width: 0.8"/>
      </g>
     </g>
    </g>
    <g id="ytick_14">
     <g id="line2d_39">
      <g>
       <use xlink:href="#mc8b6c78553" x="417.703846" y="272.319444" style="stroke: #000000; stroke-width: 0.8"/>
      </g>
     </g>
    </g>
   </g>
   <g id="line2d_40">
    <path d="M 685.973077 294.768 
L 685.973077 39.744 
" clip-path="url(#p92554315ca)" style="fill: none; stroke-dasharray: 1,1.65; stroke-dashoffset: 0; stroke: #000000"/>
   </g>
   <g id="patch_25">
    <path d="M 417.703846 294.768 
L 417.703846 39.744 
" style="fill: none; stroke: #000000; stroke-width: 0.8; stroke-linejoin: miter; stroke-linecap: square"/>
   </g>
   <g id="patch_26">
    <path d="M 712.8 294.768 
L 712.8 39.744 
" style="fill: none; stroke: #000000; stroke-width: 0.8; stroke-linejoin: miter; stroke-linecap: square"/>
   </g>
   <g id="patch_27">
    <path d="M 417.703846 294.768 
L 712.8 294.768 
" style="fill: none; stroke: #000000; stroke-width: 0.8; stroke-linejoin: miter; stroke-linecap: square"/>
   </g>
   <g id="patch_28">
    <path d="M 417.703846 39.744 
L 712.8 39.744 
" style="fill: none; stroke: #000000; stroke-width: 0.8; stroke-linejoin: miter; stroke-linecap: square"/>
   </g>
   <g id="text_32">
    <!-- 100% -->
    <g transform="translate(689.997115 64.400056) scale(0.08 -0.08)">
     <use xlink:href="#DejaVuSans-31"/>
     <use xlink:href="#DejaVuSans-30" transform="translate(63.623047 0)"/>
     <use xlink:href="#DejaVuSans-30" transform="translate(127.246094 0)"/>
     <use xlink:href="#DejaVuSans-25" transform="translate(190.869141 0)"/>
    </g>
   </g>
   <g id="text_33">
    <!-- 100% -->
    <g transform="translate(689.997115 99.421204) scale(0.08 -0.08)">
     <use xlink:href="#DejaVuSans-31"/>
     <use xlink:href="#DejaVuSans-30" transform="translate(63.623047 0)"/>
     <use xlink:href="#DejaVuSans-30" transform="translate(127.246094 0)"/>
     <use xlink:href="#DejaVuSans-25" transform="translate(190.869141 0)"/>
    </g>
   </g>
   <g id="text_34">
    <!-- 4% -->
    <g transform="translate(431.7075 134.442352) scale(0.08 -0.08)">
     <use xlink:href="#DejaVuSans-34"/>
     <use xlink:href="#DejaVuSans-25" transform="translate(63.623047 0)"/>
    </g>
   </g>
   <g id="text_35">
    <!-- 100% -->
    <g transform="translate(689.997115 169.4635) scale(0.08 -0.08)">
     <use xlink:href="#DejaVuSans-31"/>
     <use xlink:href="#DejaVuSans-30" transform="translate(63.623047 0)"/>
     <use xlink:href="#DejaVuSans-30" transform="translate(127.246094 0)"/>
     <use xlink:href="#DejaVuSans-25" transform="translate(190.869141 0)"/>
    </g>
   </g>
   <g id="text_36">
    <!-- 100% -->
    <g transform="translate(689.997115 204.484648) scale(0.08 -0.08)">
     <use xlink:href="#DejaVuSans-31"/>
     <use xlink:href="#DejaVuSans-30" transform="translate(63.623047 0)"/>
     <use xlink:href="#DejaVuSans-30" transform="translate(127.246094 0)"/>
     <use xlink:href="#DejaVuSans-25" transform="translate(190.869141 0)"/>
    </g>
   </g>
   <g id="text_37">
    <!-- 4% -->
    <g transform="translate(431.7075 239.505796) scale(0.08 -0.08)">
     <use xlink:href="#DejaVuSans-34"/>
     <use xlink:href="#DejaVuSans-25" transform="translate(63.623047 0)"/>
    </g>
   </g>
   <g id="text_38">
    <!-- 100% -->
    <g transform="translate(689.997115 274.526944) scale(0.08 -0.08)">
     <use xlink:href="#DejaVuSans-31"/>
     <use xlink:href="#DejaVuSans-30" transform="translate(63.623047 0)"/>
     <use xlink:href="#DejaVuSans-30" transform="translate(127.246094 0)"/>
     <use xlink:href="#DejaVuSans-25" transform="translate(190.869141 0)"/>
    </g>
   </g>
  </g>
  <g id="text_39">
   <!-- Countermeasure trade-off: per-CJ residual anonset vs taker throughput (100k demanded slots, $n_{eq}=5$, v7 loose gate) -->
   <g transform="translate(71.665 14.984) scale(0.11 -0.11)">
    <defs>
     <path id="DejaVuSans-3a" d="M 750 794 
L 1409 794 
L 1409 0 
L 750 0 
L 750 794 
z
M 750 3309 
L 1409 3309 
L 1409 2516 
L 750 2516 
L 750 3309 
z
" transform="scale(0.015625)"/>
     <path id="DejaVuSans-2c" d="M 750 794 
L 1409 794 
L 1409 256 
L 897 -744 
L 494 -744 
L 750 256 
L 750 794 
z
" transform="scale(0.015625)"/>
     <path id="DejaVuSans-37" d="M 525 4666 
L 3525 4666 
L 3525 4397 
L 1831 0 
L 1172 0 
L 2766 4134 
L 525 4134 
L 525 4666 
z
" transform="scale(0.015625)"/>
    </defs>
    <use xlink:href="#DejaVuSans-43" transform="translate(0 0.015625)"/>
    <use xlink:href="#DejaVuSans-6f" transform="translate(69.824219 0.015625)"/>
    <use xlink:href="#DejaVuSans-75" transform="translate(131.005859 0.015625)"/>
    <use xlink:href="#DejaVuSans-6e" transform="translate(194.384766 0.015625)"/>
    <use xlink:href="#DejaVuSans-74" transform="translate(257.763672 0.015625)"/>
    <use xlink:href="#DejaVuSans-65" transform="translate(296.972656 0.015625)"/>
    <use xlink:href="#DejaVuSans-72" transform="translate(358.496094 0.015625)"/>
    <use xlink:href="#DejaVuSans-6d" transform="translate(399.609375 0.015625)"/>
    <use xlink:href="#DejaVuSans-65" transform="translate(497.021484 0.015625)"/>
    <use xlink:href="#DejaVuSans-61" transform="translate(558.544922 0.015625)"/>
    <use xlink:href="#DejaVuSans-73" transform="translate(619.824219 0.015625)"/>
    <use xlink:href="#DejaVuSans-75" transform="translate(671.923828 0.015625)"/>
    <use xlink:href="#DejaVuSans-72" transform="translate(735.302734 0.015625)"/>
    <use xlink:href="#DejaVuSans-65" transform="translate(776.416016 0.015625)"/>
    <use xlink:href="#DejaVuSans-20" transform="translate(837.939453 0.015625)"/>
    <use xlink:href="#DejaVuSans-74" transform="translate(869.726562 0.015625)"/>
    <use xlink:href="#DejaVuSans-72" transform="translate(908.935547 0.015625)"/>
    <use xlink:href="#DejaVuSans-61" transform="translate(950.048828 0.015625)"/>
    <use xlink:href="#DejaVuSans-64" transform="translate(1011.328125 0.015625)"/>
    <use xlink:href="#DejaVuSans-65" transform="translate(1074.804688 0.015625)"/>
    <use xlink:href="#DejaVuSans-2d" transform="translate(1136.328125 0.015625)"/>
    <use xlink:href="#DejaVuSans-6f" transform="translate(1172.412109 0.015625)"/>
    <use xlink:href="#DejaVuSans-66" transform="translate(1233.59375 0.015625)"/>
    <use xlink:href="#DejaVuSans-66" transform="translate(1268.798828 0.015625)"/>
    <use xlink:href="#DejaVuSans-3a" transform="translate(1304.003906 0.015625)"/>
    <use xlink:href="#DejaVuSans-20" transform="translate(1337.695312 0.015625)"/>
    <use xlink:href="#DejaVuSans-70" transform="translate(1369.482422 0.015625)"/>
    <use xlink:href="#DejaVuSans-65" transform="translate(1432.958984 0.015625)"/>
    <use xlink:href="#DejaVuSans-72" transform="translate(1494.482422 0.015625)"/>
    <use xlink:href="#DejaVuSans-2d" transform="translate(1535.595703 0.015625)"/>
    <use xlink:href="#DejaVuSans-43" transform="translate(1571.679688 0.015625)"/>
    <use xlink:href="#DejaVuSans-4a" transform="translate(1641.503906 0.015625)"/>
    <use xlink:href="#DejaVuSans-20" transform="translate(1670.996094 0.015625)"/>
    <use xlink:href="#DejaVuSans-72" transform="translate(1702.783203 0.015625)"/>
    <use xlink:href="#DejaVuSans-65" transform="translate(1743.896484 0.015625)"/>
    <use xlink:href="#DejaVuSans-73" transform="translate(1805.419922 0.015625)"/>
    <use xlink:href="#DejaVuSans-69" transform="translate(1857.519531 0.015625)"/>
    <use xlink:href="#DejaVuSans-64" transform="translate(1885.302734 0.015625)"/>
    <use xlink:href="#DejaVuSans-75" transform="translate(1948.779297 0.015625)"/>
    <use xlink:href="#DejaVuSans-61" transform="translate(2012.158203 0.015625)"/>
    <use xlink:href="#DejaVuSans-6c" transform="translate(2073.4375 0.015625)"/>
    <use xlink:href="#DejaVuSans-20" transform="translate(2101.220703 0.015625)"/>
    <use xlink:href="#DejaVuSans-61" transform="translate(2133.007812 0.015625)"/>
    <use xlink:href="#DejaVuSans-6e" transform="translate(2194.287109 0.015625)"/>
    <use xlink:href="#DejaVuSans-6f" transform="translate(2257.666016 0.015625)"/>
    <use xlink:href="#DejaVuSans-6e" transform="translate(2318.847656 0.015625)"/>
    <use xlink:href="#DejaVuSans-73" transform="translate(2382.226562 0.015625)"/>
    <use xlink:href="#DejaVuSans-65" transform="translate(2434.326172 0.015625)"/>
    <use xlink:href="#DejaVuSans-74" transform="translate(2495.849609 0.015625)"/>
    <use xlink:href="#DejaVuSans-20" transform="translate(2535.058594 0.015625)"/>
    <use xlink:href="#DejaVuSans-76" transform="translate(2566.845703 0.015625)"/>
    <use xlink:href="#DejaVuSans-73" transform="translate(2626.025391 0.015625)"/>
    <use xlink:href="#DejaVuSans-20" transform="translate(2678.125 0.015625)"/>
    <use xlink:href="#DejaVuSans-74" transform="translate(2709.912109 0.015625)"/>
    <use xlink:href="#DejaVuSans-61" transform="translate(2749.121094 0.015625)"/>
    <use xlink:href="#DejaVuSans-6b" transform="translate(2810.400391 0.015625)"/>
    <use xlink:href="#DejaVuSans-65" transform="translate(2868.310547 0.015625)"/>
    <use xlink:href="#DejaVuSans-72" transform="translate(2929.833984 0.015625)"/>
    <use xlink:href="#DejaVuSans-20" transform="translate(2970.947266 0.015625)"/>
    <use xlink:href="#DejaVuSans-74" transform="translate(3002.734375 0.015625)"/>
    <use xlink:href="#DejaVuSans-68" transform="translate(3041.943359 0.015625)"/>
    <use xlink:href="#DejaVuSans-72" transform="translate(3105.322266 0.015625)"/>
    <use xlink:href="#DejaVuSans-6f" transform="translate(3146.435547 0.015625)"/>
    <use xlink:href="#DejaVuSans-75" transform="translate(3207.617188 0.015625)"/>
    <use xlink:href="#DejaVuSans-67" transform="translate(3270.996094 0.015625)"/>
    <use xlink:href="#DejaVuSans-68" transform="translate(3334.472656 0.015625)"/>
    <use xlink:href="#DejaVuSans-70" transform="translate(3397.851562 0.015625)"/>
    <use xlink:href="#DejaVuSans-75" transform="translate(3461.328125 0.015625)"/>
    <use xlink:href="#DejaVuSans-74" transform="translate(3524.707031 0.015625)"/>
    <use xlink:href="#DejaVuSans-20" transform="translate(3563.916016 0.015625)"/>
    <use xlink:href="#DejaVuSans-28" transform="translate(3595.703125 0.015625)"/>
    <use xlink:href="#DejaVuSans-31" transform="translate(3634.716797 0.015625)"/>
    <use xlink:href="#DejaVuSans-30" transform="translate(3698.339844 0.015625)"/>
    <use xlink:href="#DejaVuSans-30" transform="translate(3761.962891 0.015625)"/>
    <use xlink:href="#DejaVuSans-6b" transform="translate(3825.585938 0.015625)"/>
    <use xlink:href="#DejaVuSans-20" transform="translate(3883.496094 0.015625)"/>
    <use xlink:href="#DejaVuSans-64" transform="translate(3915.283203 0.015625)"/>
    <use xlink:href="#DejaVuSans-65" transform="translate(3978.759766 0.015625)"/>
    <use xlink:href="#DejaVuSans-6d" transform="translate(4040.283203 0.015625)"/>
    <use xlink:href="#DejaVuSans-61" transform="translate(4137.695312 0.015625)"/>
    <use xlink:href="#DejaVuSans-6e" transform="translate(4198.974609 0.015625)"/>
    <use xlink:href="#DejaVuSans-64" transform="translate(4262.353516 0.015625)"/>
    <use xlink:href="#DejaVuSans-65" transform="translate(4325.830078 0.015625)"/>
    <use xlink:href="#DejaVuSans-64" transform="translate(4387.353516 0.015625)"/>
    <use xlink:href="#DejaVuSans-20" transform="translate(4450.830078 0.015625)"/>
    <use xlink:href="#DejaVuSans-73" transform="translate(4482.617188 0.015625)"/>
    <use xlink:href="#DejaVuSans-6c" transform="translate(4534.716797 0.015625)"/>
    <use xlink:href="#DejaVuSans-6f" transform="translate(4562.5 0.015625)"/>
    <use xlink:href="#DejaVuSans-74" transform="translate(4623.681641 0.015625)"/>
    <use xlink:href="#DejaVuSans-73" transform="translate(4662.890625 0.015625)"/>
    <use xlink:href="#DejaVuSans-2c" transform="translate(4714.990234 0.015625)"/>
    <use xlink:href="#DejaVuSans-20" transform="translate(4746.777344 0.015625)"/>
    <use xlink:href="#DejaVuSans-Oblique-6e" transform="translate(4778.564453 0.015625)"/>
    <use xlink:href="#DejaVuSans-Oblique-65" transform="translate(4841.943359 -16.390625) scale(0.7)"/>
    <use xlink:href="#DejaVuSans-Oblique-71" transform="translate(4885.009766 -16.390625) scale(0.7)"/>
    <use xlink:href="#DejaVuSans-3d" transform="translate(4951.660156 0.015625)"/>
    <use xlink:href="#DejaVuSans-35" transform="translate(5054.931641 0.015625)"/>
    <use xlink:href="#DejaVuSans-2c" transform="translate(5118.554688 0.015625)"/>
    <use xlink:href="#DejaVuSans-20" transform="translate(5150.341797 0.015625)"/>
    <use xlink:href="#DejaVuSans-76" transform="translate(5182.128906 0.015625)"/>
    <use xlink:href="#DejaVuSans-37" transform="translate(5241.308594 0.015625)"/>
    <use xlink:href="#DejaVuSans-20" transform="translate(5304.931641 0.015625)"/>
    <use xlink:href="#DejaVuSans-6c" transform="translate(5336.71875 0.015625)"/>
    <use xlink:href="#DejaVuSans-6f" transform="translate(5364.501953 0.015625)"/>
    <use xlink:href="#DejaVuSans-6f" transform="translate(5425.683594 0.015625)"/>
    <use xlink:href="#DejaVuSans-73" transform="translate(5486.865234 0.015625)"/>
    <use xlink:href="#DejaVuSans-65" transform="translate(5538.964844 0.015625)"/>
    <use xlink:href="#DejaVuSans-20" transform="translate(5600.488281 0.015625)"/>
    <use xlink:href="#DejaVuSans-67" transform="translate(5632.275391 0.015625)"/>
    <use xlink:href="#DejaVuSans-61" transform="translate(5695.751953 0.015625)"/>
    <use xlink:href="#DejaVuSans-74" transform="translate(5757.03125 0.015625)"/>
    <use xlink:href="#DejaVuSans-65" transform="translate(5796.240234 0.015625)"/>
    <use xlink:href="#DejaVuSans-29" transform="translate(5857.763672 0.015625)"/>
   </g>
  </g>
 </g>
 <defs>
  <clipPath id="p3dcd43651c">
   <rect x="99" y="39.744" width="295.096154" height="255.024"/>
  </clipPath>
  <clipPath id="p92554315ca">
   <rect x="417.703846" y="39.744" width="295.096154" height="255.024"/>
  </clipPath>
 </defs>
</svg>
