<?xml version="1.0" encoding="utf-8" standalone="no"?>
<!DOCTYPE svg PUBLIC "-//W3C//DTD SVG 1.1//EN"
  "http://www.w3.org/Graphics/SVG/1.1/DTD/svg11.dtd">
<svg xmlns:xlink="http://www.w3.org/1999/xlink" width="663.305845pt" height="308.392812pt" viewBox="0 0 663.305845 308.392812" xmlns="http://www.w3.org/2000/svg" version="1.1">
 <metadata>
  <rdf:RDF xmlns:dc="http://purl.org/dc/elements/1.1/" xmlns:cc="http://creativecommons.org/ns#" xmlns:rdf="http://www.w3.org/1999/02/22-rdf-syntax-ns#">
   <cc:Work>
    <dc:type rdf:resource="http://purl.org/dc/dcmitype/StillImage"/>
    <dc:date>2026-05-22T20:08:59.409963</dc:date>
    <dc:format>image/svg+xml</dc:format>
    <dc:creator>
     <cc:Agent>
      <dc:title>Matplotlib v3.10.9, https://matplotlib.org/</dc:title>
     </cc:Agent>
    </dc:creator>
   </cc:Work>
  </rdf:RDF>
 </metadata>
 <defs>
  <style type="text/css">*{stroke-linejoin: round; stroke-linecap: butt}</style>
 </defs>
 <g id="figure_1">
  <g id="patch_1">
   <path d="M 0 308.392812 
L 663.305845 308.392812 
L 663.305845 0 
L 0 0 
z
" style="fill: #ffffff"/>
  </g>
  <g id="axes_1">
   <g id="patch_2">
    <path d="M 46.445938 264.968125 
L 633.013253 264.968125 
L 633.013253 22.318125 
L 46.445938 22.318125 
z
" style="fill: #ffffff"/>
   </g>
   <g id="patch_3">
    <path d="M 73.108088 158938.639609 
L 80.265713 158938.639609 
L 80.265713 33.34767 
L 73.108088 33.34767 
z
" clip-path="url(#pb56bdd211b)" style="fill: #4477aa; stroke: #222222; stroke-width: 0.4; stroke-linejoin: miter"/>
   </g>
   <g id="patch_4">
    <path d="M 91.002149 158938.639609 
L 98.159773 158938.639609 
L 98.159773 43.093236 
L 91.002149 43.093236 
z
" clip-path="url(#pb56bdd211b)" style="fill: #4477aa; stroke: #222222; stroke-width: 0.4; stroke-linejoin: miter"/>
   </g>
   <g id="patch_5">
    <path d="M 108.89621 158938.639609 
L 116.053834 158938.639609 
L 116.053834 63.035563 
L 108.89621 63.035563 
z
" clip-path="url(#pb56bdd211b)" style="fill: #4477aa; stroke: #222222; stroke-width: 0.4; stroke-linejoin: miter"/>
   </g>
   <g id="patch_6">
    <path d="M 126.790271 158938.639609 
L 133.947895 158938.639609 
L 133.947895 76.020764 
L 126.790271 76.020764 
z
" clip-path="url(#pb56bdd211b)" style="fill: #4477aa; stroke: #222222; stroke-width: 0.4; stroke-linejoin: miter"/>
   </g>
   <g id="patch_7">
    <path d="M 144.684332 158938.639609 
L 151.841956 158938.639609 
L 151.841956 78.66931 
L 144.684332 78.66931 
z
" clip-path="url(#pb56bdd211b)" style="fill: #4477aa; stroke: #222222; stroke-width: 0.4; stroke-linejoin: miter"/>
   </g>
   <g id="patch_8">
    <path d="M 162.578393 158938.639609 
L 169.736017 158938.639609 
L 169.736017 85.029556 
L 162.578393 85.029556 
z
" clip-path="url(#pb56bdd211b)" style="fill: #4477aa; stroke: #222222; stroke-width: 0.4; stroke-linejoin: miter"/>
   </g>
   <g id="patch_9">
    <path d="M 180.472453 158938.639609 
L 187.630078 158938.639609 
L 187.630078 88.05658 
L 180.472453 88.05658 
z
" clip-path="url(#pb56bdd211b)" style="fill: #4477aa; stroke: #222222; stroke-width: 0.4; stroke-linejoin: miter"/>
   </g>
   <g id="patch_10">
    <path d="M 198.366514 158938.639609 
L 205.524139 158938.639609 
L 205.524139 101.701797 
L 198.366514 101.701797 
z
" clip-path="url(#pb56bdd211b)" style="fill: #4477aa; stroke: #222222; stroke-width: 0.4; stroke-linejoin: miter"/>
   </g>
   <g id="patch_11">
    <path d="M 216.260575 158938.639609 
L 223.418199 158938.639609 
L 223.418199 102.651518 
L 216.260575 102.651518 
z
" clip-path="url(#pb56bdd211b)" style="fill: #4477aa; stroke: #222222; stroke-width: 0.4; stroke-linejoin: miter"/>
   </g>
   <g id="patch_12">
    <path d="M 234.154636 158938.639609 
L 241.31226 158938.639609 
L 241.31226 107.60716 
L 234.154636 107.60716 
z
" clip-path="url(#pb56bdd211b)" style="fill: #4477aa; stroke: #222222; stroke-width: 0.4; stroke-linejoin: miter"/>
   </g>
   <g id="patch_13">
    <path d="M 252.048697 158938.639609 
L 259.206321 158938.639609 
L 259.206321 107.60716 
L 252.048697 107.60716 
z
" clip-path="url(#pb56bdd211b)" style="fill: #4477aa; stroke: #222222; stroke-width: 0.4; stroke-linejoin: miter"/>
   </g>
   <g id="patch_14">
    <path d="M 269.942758 158938.639609 
L 277.100382 158938.639609 
L 277.100382 115.205033 
L 269.942758 115.205033 
z
" clip-path="url(#pb56bdd211b)" style="fill: #4477aa; stroke: #222222; stroke-width: 0.4; stroke-linejoin: miter"/>
   </g>
   <g id="patch_15">
    <path d="M 287.836819 158938.639609 
L 294.994443 158938.639609 
L 294.994443 118.736767 
L 287.836819 118.736767 
z
" clip-path="url(#pb56bdd211b)" style="fill: #4477aa; stroke: #222222; stroke-width: 0.4; stroke-linejoin: miter"/>
   </g>
   <g id="patch_16">
    <path d="M 305.730879 158938.639609 
L 312.888504 158938.639609 
L 312.888504 132.0189 
L 305.730879 132.0189 
z
" clip-path="url(#pb56bdd211b)" style="fill: #4477aa; stroke: #222222; stroke-width: 0.4; stroke-linejoin: miter"/>
   </g>
   <g id="patch_17">
    <path d="M 323.62494 158938.639609 
L 330.782565 158938.639609 
L 330.782565 133.499682 
L 323.62494 133.499682 
z
" clip-path="url(#pb56bdd211b)" style="fill: #4477aa; stroke: #222222; stroke-width: 0.4; stroke-linejoin: miter"/>
   </g>
   <g id="patch_18">
    <path d="M 341.519001 158938.639609 
L 348.676626 158938.639609 
L 348.676626 138.143264 
L 341.519001 138.143264 
z
" clip-path="url(#pb56bdd211b)" style="fill: #4477aa; stroke: #222222; stroke-width: 0.4; stroke-linejoin: miter"/>
   </g>
   <g id="patch_19">
    <path d="M 359.413062 158938.639609 
L 366.570686 158938.639609 
L 366.570686 143.12281 
L 359.413062 143.12281 
z
" clip-path="url(#pb56bdd211b)" style="fill: #4477aa; stroke: #222222; stroke-width: 0.4; stroke-linejoin: miter"/>
   </g>
   <g id="patch_20">
    <path d="M 377.307123 158938.639609 
L 384.464747 158938.639609 
L 384.464747 144.866035 
L 377.307123 144.866035 
z
" clip-path="url(#pb56bdd211b)" style="fill: #4477aa; stroke: #222222; stroke-width: 0.4; stroke-linejoin: miter"/>
   </g>
   <g id="patch_21">
    <path d="M 395.201184 158938.639609 
L 402.358808 158938.639609 
L 402.358808 148.490751 
L 395.201184 148.490751 
z
" clip-path="url(#pb56bdd211b)" style="fill: #4477aa; stroke: #222222; stroke-width: 0.4; stroke-linejoin: miter"/>
   </g>
   <g id="patch_22">
    <path d="M 413.095245 158938.639609 
L 420.252869 158938.639609 
L 420.252869 167.681203 
L 413.095245 167.681203 
z
" clip-path="url(#pb56bdd211b)" style="fill: #4477aa; stroke: #222222; stroke-width: 0.4; stroke-linejoin: miter"/>
   </g>
   <g id="patch_23">
    <path d="M 430.989306 158938.639609 
L 438.14693 158938.639609 
L 438.14693 170.18525 
L 430.989306 170.18525 
z
" clip-path="url(#pb56bdd211b)" style="fill: #4477aa; stroke: #222222; stroke-width: 0.4; stroke-linejoin: miter"/>
   </g>
   <g id="patch_24">
    <path d="M 448.883366 158938.639609 
L 456.040991 158938.639609 
L 456.040991 175.484303 
L 448.883366 175.484303 
z
" clip-path="url(#pb56bdd211b)" style="fill: #4477aa; stroke: #222222; stroke-width: 0.4; stroke-linejoin: miter"/>
   </g>
   <g id="patch_25">
    <path d="M 466.777427 158938.639609 
L 473.935052 158938.639609 
L 473.935052 175.484303 
L 466.777427 175.484303 
z
" clip-path="url(#pb56bdd211b)" style="fill: #4477aa; stroke: #222222; stroke-width: 0.4; stroke-linejoin: miter"/>
   </g>
   <g id="patch_26">
    <path d="M 484.671488 158938.639609 
L 491.829112 158938.639609 
L 491.829112 181.225436 
L 484.671488 181.225436 
z
" clip-path="url(#pb56bdd211b)" style="fill: #4477aa; stroke: #222222; stroke-width: 0.4; stroke-linejoin: miter"/>
   </g>
   <g id="patch_27">
    <path d="M 502.565549 158938.639609 
L 509.723173 158938.639609 
L 509.723173 187.48918 
L 502.565549 187.48918 
z
" clip-path="url(#pb56bdd211b)" style="fill: #4477aa; stroke: #222222; stroke-width: 0.4; stroke-linejoin: miter"/>
   </g>
   <g id="patch_28">
    <path d="M 520.45961 158938.639609 
L 527.617234 158938.639609 
L 527.617234 198.103026 
L 520.45961 198.103026 
z
" clip-path="url(#pb56bdd211b)" style="fill: #4477aa; stroke: #222222; stroke-width: 0.4; stroke-linejoin: miter"/>
   </g>
   <g id="patch_29">
    <path d="M 538.353671 158938.639609 
L 545.511295 158938.639609 
L 545.511295 198.103026 
L 538.353671 198.103026 
z
" clip-path="url(#pb56bdd211b)" style="fill: #4477aa; stroke: #222222; stroke-width: 0.4; stroke-linejoin: miter"/>
   </g>
   <g id="patch_30">
    <path d="M 556.247732 158938.639609 
L 563.405356 158938.639609 
L 563.405356 210.656542 
L 556.247732 210.656542 
z
" clip-path="url(#pb56bdd211b)" style="fill: #4477aa; stroke: #222222; stroke-width: 0.4; stroke-linejoin: miter"/>
   </g>
   <g id="patch_31">
    <path d="M 574.141792 158938.639609 
L 581.299417 158938.639609 
L 581.299417 226.020803 
L 574.141792 226.020803 
z
" clip-path="url(#pb56bdd211b)" style="fill: #4477aa; stroke: #222222; stroke-width: 0.4; stroke-linejoin: miter"/>
   </g>
   <g id="patch_32">
    <path d="M 592.035853 158938.639609 
L 599.193478 158938.639609 
L 599.193478 226.020803 
L 592.035853 226.020803 
z
" clip-path="url(#pb56bdd211b)" style="fill: #4477aa; stroke: #222222; stroke-width: 0.4; stroke-linejoin: miter"/>
   </g>
   <g id="patch_33">
    <path d="M 80.265713 158938.639609 
L 87.423337 158938.639609 
L 87.423337 55.888768 
L 80.265713 55.888768 
z
" clip-path="url(#pb56bdd211b)" style="fill: #ee6677; stroke: #222222; stroke-width: 0.4; stroke-linejoin: miter"/>
   </g>
   <g id="patch_34">
    <path d="M 98.159773 158938.639609 
L 105.317398 158938.639609 
L 105.317398 77.997561 
L 98.159773 77.997561 
z
" clip-path="url(#pb56bdd211b)" style="fill: #ee6677; stroke: #222222; stroke-width: 0.4; stroke-linejoin: miter"/>
   </g>
   <g id="patch_35">
    <path d="M 116.053834 158938.639609 
L 123.211459 158938.639609 
L 123.211459 115.205033 
L 116.053834 115.205033 
z
" clip-path="url(#pb56bdd211b)" style="fill: #ee6677; stroke: #222222; stroke-width: 0.4; stroke-linejoin: miter"/>
   </g>
   <g id="patch_36">
    <path d="M 133.947895 158938.639609 
L 141.105519 158938.639609 
L 141.105519 106.587087 
L 133.947895 106.587087 
z
" clip-path="url(#pb56bdd211b)" style="fill: #ee6677; stroke: #222222; stroke-width: 0.4; stroke-linejoin: miter"/>
   </g>
   <g id="patch_37">
    <path d="M 151.841956 158938.639609 
L 158.99958 158938.639609 
L 158.99958 98.928789 
L 151.841956 98.928789 
z
" clip-path="url(#pb56bdd211b)" style="fill: #ee6677; stroke: #222222; stroke-width: 0.4; stroke-linejoin: miter"/>
   </g>
   <g id="patch_38">
    <path d="M 169.736017 158938.639609 
L 176.893641 158938.639609 
L 176.893641 112.947333 
L 169.736017 112.947333 
z
" clip-path="url(#pb56bdd211b)" style="fill: #ee6677; stroke: #222222; stroke-width: 0.4; stroke-linejoin: miter"/>
   </g>
   <g id="patch_39">
    <path d="M 187.630078 158938.639609 
L 194.787702 158938.639609 
L 194.787702 106.587087 
L 187.630078 106.587087 
z
" clip-path="url(#pb56bdd211b)" style="fill: #ee6677; stroke: #222222; stroke-width: 0.4; stroke-linejoin: miter"/>
   </g>
   <g id="patch_40">
    <path d="M 205.524139 158938.639609 
L 212.681763 158938.639609 
L 212.681763 132.0189 
L 205.524139 132.0189 
z
" clip-path="url(#pb56bdd211b)" style="fill: #ee6677; stroke: #222222; stroke-width: 0.4; stroke-linejoin: miter"/>
   </g>
   <g id="patch_41">
    <path d="M 223.418199 158938.639609 
L 230.575824 158938.639609 
L 230.575824 130.569295 
L 223.418199 130.569295 
z
" clip-path="url(#pb56bdd211b)" style="fill: #ee6677; stroke: #222222; stroke-width: 0.4; stroke-linejoin: miter"/>
   </g>
   <g id="patch_42">
    <path d="M 241.31226 158938.639609 
L 248.469885 158938.639609 
L 248.469885 138.143264 
L 241.31226 138.143264 
z
" clip-path="url(#pb56bdd211b)" style="fill: #ee6677; stroke: #222222; stroke-width: 0.4; stroke-linejoin: miter"/>
   </g>
   <g id="patch_43">
    <path d="M 259.206321 158938.639609 
L 266.363946 158938.639609 
L 266.363946 125.058057 
L 259.206321 125.058057 
z
" clip-path="url(#pb56bdd211b)" style="fill: #ee6677; stroke: #222222; stroke-width: 0.4; stroke-linejoin: miter"/>
   </g>
   <g id="patch_44">
    <path d="M 277.100382 158938.639609 
L 284.258006 158938.639609 
L 284.258006 148.490751 
L 277.100382 148.490751 
z
" clip-path="url(#pb56bdd211b)" style="fill: #ee6677; stroke: #222222; stroke-width: 0.4; stroke-linejoin: miter"/>
   </g>
   <g id="patch_45">
    <path d="M 294.994443 158938.639609 
L 302.152067 158938.639609 
L 302.152067 139.763426 
L 294.994443 139.763426 
z
" clip-path="url(#pb56bdd211b)" style="fill: #ee6677; stroke: #222222; stroke-width: 0.4; stroke-linejoin: miter"/>
   </g>
   <g id="patch_46">
    <path d="M 312.888504 158938.639609 
L 320.046128 158938.639609 
L 320.046128 154.312841 
L 312.888504 154.312841 
z
" clip-path="url(#pb56bdd211b)" style="fill: #ee6677; stroke: #222222; stroke-width: 0.4; stroke-linejoin: miter"/>
   </g>
   <g id="patch_47">
    <path d="M 330.782565 158938.639609 
L 337.940189 158938.639609 
L 337.940189 148.490751 
L 330.782565 148.490751 
z
" clip-path="url(#pb56bdd211b)" style="fill: #ee6677; stroke: #222222; stroke-width: 0.4; stroke-linejoin: miter"/>
   </g>
   <g id="patch_48">
    <path d="M 348.676626 158938.639609 
L 355.83425 158938.639609 
L 355.83425 178.295049 
L 348.676626 178.295049 
z
" clip-path="url(#pb56bdd211b)" style="fill: #ee6677; stroke: #222222; stroke-width: 0.4; stroke-linejoin: miter"/>
   </g>
   <g id="patch_49">
    <path d="M 366.570686 158938.639609 
L 373.728311 158938.639609 
L 373.728311 156.368328 
L 366.570686 156.368328 
z
" clip-path="url(#pb56bdd211b)" style="fill: #ee6677; stroke: #222222; stroke-width: 0.4; stroke-linejoin: miter"/>
   </g>
   <g id="patch_50">
    <path d="M 384.464747 158938.639609 
L 391.622372 158938.639609 
L 391.622372 162.930788 
L 384.464747 162.930788 
z
" clip-path="url(#pb56bdd211b)" style="fill: #ee6677; stroke: #222222; stroke-width: 0.4; stroke-linejoin: miter"/>
   </g>
   <g id="patch_51">
    <path d="M 402.358808 158938.639609 
L 409.516433 158938.639609 
L 409.516433 162.930788 
L 402.358808 162.930788 
z
" clip-path="url(#pb56bdd211b)" style="fill: #ee6677; stroke: #222222; stroke-width: 0.4; stroke-linejoin: miter"/>
   </g>
   <g id="patch_52">
    <path d="M 420.252869 158938.639609 
L 427.410493 158938.639609 
L 427.410493 190.848564 
L 420.252869 190.848564 
z
" clip-path="url(#pb56bdd211b)" style="fill: #ee6677; stroke: #222222; stroke-width: 0.4; stroke-linejoin: miter"/>
   </g>
   <g id="patch_53">
    <path d="M 438.14693 158938.639609 
L 445.304554 158938.639609 
L 445.304554 202.038595 
L 438.14693 202.038595 
z
" clip-path="url(#pb56bdd211b)" style="fill: #ee6677; stroke: #222222; stroke-width: 0.4; stroke-linejoin: miter"/>
   </g>
   <g id="patch_54">
    <path d="M 456.040991 158938.639609 
L 463.198615 158938.639609 
L 463.198615 202.038595 
L 456.040991 202.038595 
z
" clip-path="url(#pb56bdd211b)" style="fill: #ee6677; stroke: #222222; stroke-width: 0.4; stroke-linejoin: miter"/>
   </g>
   <g id="patch_55">
    <path d="M 473.935052 158938.639609 
L 481.092676 158938.639609 
L 481.092676 190.848564 
L 473.935052 190.848564 
z
" clip-path="url(#pb56bdd211b)" style="fill: #ee6677; stroke: #222222; stroke-width: 0.4; stroke-linejoin: miter"/>
   </g>
   <g id="patch_56">
    <path d="M 491.829112 158938.639609 
L 498.986737 158938.639609 
L 498.986737 210.656542 
L 491.829112 210.656542 
z
" clip-path="url(#pb56bdd211b)" style="fill: #ee6677; stroke: #222222; stroke-width: 0.4; stroke-linejoin: miter"/>
   </g>
   <g id="patch_57">
    <path d="M 509.723173 158938.639609 
L 516.880798 158938.639609 
L 516.880798 215.406957 
L 509.723173 215.406957 
z
" clip-path="url(#pb56bdd211b)" style="fill: #ee6677; stroke: #222222; stroke-width: 0.4; stroke-linejoin: miter"/>
   </g>
   <g id="patch_58">
    <path d="M 527.617234 158938.639609 
L 534.774859 158938.639609 
L 534.774859 210.656542 
L 527.617234 210.656542 
z
" clip-path="url(#pb56bdd211b)" style="fill: #ee6677; stroke: #222222; stroke-width: 0.4; stroke-linejoin: miter"/>
   </g>
   <g id="patch_59">
    <path d="M 545.511295 158938.639609 
L 552.668919 158938.639609 
L 552.668919 253.93858 
L 545.511295 253.93858 
z
" clip-path="url(#pb56bdd211b)" style="fill: #ee6677; stroke: #222222; stroke-width: 0.4; stroke-linejoin: miter"/>
   </g>
   <g id="patch_60">
    <path d="M 563.405356 158938.639609 
L 570.56298 158938.639609 
L 570.56298 232.011859 
L 563.405356 232.011859 
z
" clip-path="url(#pb56bdd211b)" style="fill: #ee6677; stroke: #222222; stroke-width: 0.4; stroke-linejoin: miter"/>
   </g>
   <g id="patch_61">
    <path d="M 581.299417 158938.639609 
L 588.457041 158938.639609 
L 588.457041 253.93858 
L 581.299417 253.93858 
z
" clip-path="url(#pb56bdd211b)" style="fill: #ee6677; stroke: #222222; stroke-width: 0.4; stroke-linejoin: miter"/>
   </g>
   <g id="patch_62">
    <path d="M 599.193478 158938.639609 
L 606.351102 158938.639609 
L 606.351102 253.93858 
L 599.193478 253.93858 
z
" clip-path="url(#pb56bdd211b)" style="fill: #ee6677; stroke: #222222; stroke-width: 0.4; stroke-linejoin: miter"/>
   </g>
   <g id="matplotlib.axis_1">
    <g id="xtick_1">
     <g id="line2d_1">
      <path d="M 80.265713 264.968125 
L 80.265713 22.318125 
" clip-path="url(#pb56bdd211b)" style="fill: none; stroke: #dddddd; stroke-opacity: 0.6; stroke-width: 0.6; stroke-linecap: square"/>
     </g>
     <g id="line2d_2">
      <defs>
       <path id="m8a9ef8b199" d="M 0 0 
L 0 3.5 
" style="stroke: #000000; stroke-width: 0.8"/>
      </defs>
      <g>
       <use xlink:href="#m8a9ef8b199" x="80.265713" y="264.968125" style="stroke: #000000; stroke-width: 0.8"/>
      </g>
     </g>
     <g id="text_1">
      <!-- c27 -->
      <g transform="translate(82.473213 286.546875) rotate(-90) scale(0.08 -0.08)">
       <defs>
        <path id="DejaVuSans-63" d="M 3122 3366 
L 3122 2828 
Q 2878 2963 2633 3030 
Q 2388 3097 2138 3097 
Q 1578 3097 1268 2742 
Q 959 2388 959 1747 
Q 959 1106 1268 751 
Q 1578 397 2138 397 
Q 2388 397 2633 464 
Q 2878 531 3122 666 
L 3122 134 
Q 2881 22 2623 -34 
Q 2366 -91 2075 -91 
Q 1284 -91 818 406 
Q 353 903 353 1747 
Q 353 2603 823 3093 
Q 1294 3584 2113 3584 
Q 2378 3584 2631 3529 
Q 2884 3475 3122 3366 
z
" transform="scale(0.015625)"/>
        <path id="DejaVuSans-32" d="M 1228 531 
L 3431 531 
L 3431 0 
L 469 0 
L 469 531 
Q 828 903 1448 1529 
Q 2069 2156 2228 2338 
Q 2531 2678 2651 2914 
Q 2772 3150 2772 3378 
Q 2772 3750 2511 3984 
Q 2250 4219 1831 4219 
Q 1534 4219 1204 4116 
Q 875 4013 500 3803 
L 500 4441 
Q 881 4594 1212 4672 
Q 1544 4750 1819 4750 
Q 2544 4750 2975 4387 
Q 3406 4025 3406 3419 
Q 3406 3131 3298 2873 
Q 3191 2616 2906 2266 
Q 2828 2175 2409 1742 
Q 1991 1309 1228 531 
z
" transform="scale(0.015625)"/>
        <path id="DejaVuSans-37" d="M 525 4666 
L 3525 4666 
L 3525 4397 
L 1831 0 
L 1172 0 
L 2766 4134 
L 525 4134 
L 525 4666 
z
" transform="scale(0.015625)"/>
       </defs>
       <use xlink:href="#DejaVuSans-63"/>
       <use xlink:href="#DejaVuSans-32" transform="translate(54.980469 0)"/>
       <use xlink:href="#DejaVuSans-37" transform="translate(118.603516 0)"/>
      </g>
     </g>
    </g>
    <g id="xtick_2">
     <g id="line2d_3">
      <path d="M 98.159773 264.968125 
L 98.159773 22.318125 
" clip-path="url(#pb56bdd211b)" style="fill: none; stroke: #dddddd; stroke-opacity: 0.6; stroke-width: 0.6; stroke-linecap: square"/>
     </g>
     <g id="line2d_4">
      <g>
       <use xlink:href="#m8a9ef8b199" x="98.159773" y="264.968125" style="stroke: #000000; stroke-width: 0.8"/>
      </g>
     </g>
     <g id="text_2">
      <!-- c2 -->
      <g transform="translate(100.367273 281.456875) rotate(-90) scale(0.08 -0.08)">
       <use xlink:href="#DejaVuSans-63"/>
       <use xlink:href="#DejaVuSans-32" transform="translate(54.980469 0)"/>
      </g>
     </g>
    </g>
    <g id="xtick_3">
     <g id="line2d_5">
      <path d="M 116.053834 264.968125 
L 116.053834 22.318125 
" clip-path="url(#pb56bdd211b)" style="fill: none; stroke: #dddddd; stroke-opacity: 0.6; stroke-width: 0.6; stroke-linecap: square"/>
     </g>
     <g id="line2d_6">
      <g>
       <use xlink:href="#m8a9ef8b199" x="116.053834" y="264.968125" style="stroke: #000000; stroke-width: 0.8"/>
      </g>
     </g>
     <g id="text_3">
      <!-- c25 -->
      <g transform="translate(118.261334 286.546875) rotate(-90) scale(0.08 -0.08)">
       <defs>
        <path id="DejaVuSans-35" d="M 691 4666 
L 3169 4666 
L 3169 4134 
L 1269 4134 
L 1269 2991 
Q 1406 3038 1543 3061 
Q 1681 3084 1819 3084 
Q 2600 3084 3056 2656 
Q 3513 2228 3513 1497 
Q 3513 744 3044 326 
Q 2575 -91 1722 -91 
Q 1428 -91 1123 -41 
Q 819 9 494 109 
L 494 744 
Q 775 591 1075 516 
Q 1375 441 1709 441 
Q 2250 441 2565 725 
Q 2881 1009 2881 1497 
Q 2881 1984 2565 2268 
Q 2250 2553 1709 2553 
Q 1456 2553 1204 2497 
Q 953 2441 691 2322 
L 691 4666 
z
" transform="scale(0.015625)"/>
       </defs>
       <use xlink:href="#DejaVuSans-63"/>
       <use xlink:href="#DejaVuSans-32" transform="translate(54.980469 0)"/>
       <use xlink:href="#DejaVuSans-35" transform="translate(118.603516 0)"/>
      </g>
     </g>
    </g>
    <g id="xtick_4">
     <g id="line2d_7">
      <path d="M 133.947895 264.968125 
L 133.947895 22.318125 
" clip-path="url(#pb56bdd211b)" style="fill: none; stroke: #dddddd; stroke-opacity: 0.6; stroke-width: 0.6; stroke-linecap: square"/>
     </g>
     <g id="line2d_8">
      <g>
       <use xlink:href="#m8a9ef8b199" x="133.947895" y="264.968125" style="stroke: #000000; stroke-width: 0.8"/>
      </g>
     </g>
     <g id="text_4">
      <!-- c47 -->
      <g transform="translate(136.155395 286.546875) rotate(-90) scale(0.08 -0.08)">
       <defs>
        <path id="DejaVuSans-34" d="M 2419 4116 
L 825 1625 
L 2419 1625 
L 2419 4116 
z
M 2253 4666 
L 3047 4666 
L 3047 1625 
L 3713 1625 
L 3713 1100 
L 3047 1100 
L 3047 0 
L 2419 0 
L 2419 1100 
L 313 1100 
L 313 1709 
L 2253 4666 
z
" transform="scale(0.015625)"/>
       </defs>
       <use xlink:href="#DejaVuSans-63"/>
       <use xlink:href="#DejaVuSans-34" transform="translate(54.980469 0)"/>
       <use xlink:href="#DejaVuSans-37" transform="translate(118.603516 0)"/>
      </g>
     </g>
    </g>
    <g id="xtick_5">
     <g id="line2d_9">
      <path d="M 151.841956 264.968125 
L 151.841956 22.318125 
" clip-path="url(#pb56bdd211b)" style="fill: none; stroke: #dddddd; stroke-opacity: 0.6; stroke-width: 0.6; stroke-linecap: square"/>
     </g>
     <g id="line2d_10">
      <g>
       <use xlink:href="#m8a9ef8b199" x="151.841956" y="264.968125" style="stroke: #000000; stroke-width: 0.8"/>
      </g>
     </g>
     <g id="text_5">
      <!-- c3 -->
      <g transform="translate(154.049456 281.456875) rotate(-90) scale(0.08 -0.08)">
       <defs>
        <path id="DejaVuSans-33" d="M 2597 2516 
Q 3050 2419 3304 2112 
Q 3559 1806 3559 1356 
Q 3559 666 3084 287 
Q 2609 -91 1734 -91 
Q 1441 -91 1130 -33 
Q 819 25 488 141 
L 488 750 
Q 750 597 1062 519 
Q 1375 441 1716 441 
Q 2309 441 2620 675 
Q 2931 909 2931 1356 
Q 2931 1769 2642 2001 
Q 2353 2234 1838 2234 
L 1294 2234 
L 1294 2753 
L 1863 2753 
Q 2328 2753 2575 2939 
Q 2822 3125 2822 3475 
Q 2822 3834 2567 4026 
Q 2313 4219 1838 4219 
Q 1578 4219 1281 4162 
Q 984 4106 628 3988 
L 628 4550 
Q 988 4650 1302 4700 
Q 1616 4750 1894 4750 
Q 2613 4750 3031 4423 
Q 3450 4097 3450 3541 
Q 3450 3153 3228 2886 
Q 3006 2619 2597 2516 
z
" transform="scale(0.015625)"/>
       </defs>
       <use xlink:href="#DejaVuSans-63"/>
       <use xlink:href="#DejaVuSans-33" transform="translate(54.980469 0)"/>
      </g>
     </g>
    </g>
    <g id="xtick_6">
     <g id="line2d_11">
      <path d="M 169.736017 264.968125 
L 169.736017 22.318125 
" clip-path="url(#pb56bdd211b)" style="fill: none; stroke: #dddddd; stroke-opacity: 0.6; stroke-width: 0.6; stroke-linecap: square"/>
     </g>
     <g id="line2d_12">
      <g>
       <use xlink:href="#m8a9ef8b199" x="169.736017" y="264.968125" style="stroke: #000000; stroke-width: 0.8"/>
      </g>
     </g>
     <g id="text_6">
      <!-- c0 -->
      <g transform="translate(171.943517 281.456875) rotate(-90) scale(0.08 -0.08)">
       <defs>
        <path id="DejaVuSans-30" d="M 2034 4250 
Q 1547 4250 1301 3770 
Q 1056 3291 1056 2328 
Q 1056 1369 1301 889 
Q 1547 409 2034 409 
Q 2525 409 2770 889 
Q 3016 1369 3016 2328 
Q 3016 3291 2770 3770 
Q 2525 4250 2034 4250 
z
M 2034 4750 
Q 2819 4750 3233 4129 
Q 3647 3509 3647 2328 
Q 3647 1150 3233 529 
Q 2819 -91 2034 -91 
Q 1250 -91 836 529 
Q 422 1150 422 2328 
Q 422 3509 836 4129 
Q 1250 4750 2034 4750 
z
" transform="scale(0.015625)"/>
       </defs>
       <use xlink:href="#DejaVuSans-63"/>
       <use xlink:href="#DejaVuSans-30" transform="translate(54.980469 0)"/>
      </g>
     </g>
    </g>
    <g id="xtick_7">
     <g id="line2d_13">
      <path d="M 187.630078 264.968125 
L 187.630078 22.318125 
" clip-path="url(#pb56bdd211b)" style="fill: none; stroke: #dddddd; stroke-opacity: 0.6; stroke-width: 0.6; stroke-linecap: square"/>
     </g>
     <g id="line2d_14">
      <g>
       <use xlink:href="#m8a9ef8b199" x="187.630078" y="264.968125" style="stroke: #000000; stroke-width: 0.8"/>
      </g>
     </g>
     <g id="text_7">
      <!-- c28 -->
      <g transform="translate(189.837578 286.546875) rotate(-90) scale(0.08 -0.08)">
       <defs>
        <path id="DejaVuSans-38" d="M 2034 2216 
Q 1584 2216 1326 1975 
Q 1069 1734 1069 1313 
Q 1069 891 1326 650 
Q 1584 409 2034 409 
Q 2484 409 2743 651 
Q 3003 894 3003 1313 
Q 3003 1734 2745 1975 
Q 2488 2216 2034 2216 
z
M 1403 2484 
Q 997 2584 770 2862 
Q 544 3141 544 3541 
Q 544 4100 942 4425 
Q 1341 4750 2034 4750 
Q 2731 4750 3128 4425 
Q 3525 4100 3525 3541 
Q 3525 3141 3298 2862 
Q 3072 2584 2669 2484 
Q 3125 2378 3379 2068 
Q 3634 1759 3634 1313 
Q 3634 634 3220 271 
Q 2806 -91 2034 -91 
Q 1263 -91 848 271 
Q 434 634 434 1313 
Q 434 1759 690 2068 
Q 947 2378 1403 2484 
z
M 1172 3481 
Q 1172 3119 1398 2916 
Q 1625 2713 2034 2713 
Q 2441 2713 2670 2916 
Q 2900 3119 2900 3481 
Q 2900 3844 2670 4047 
Q 2441 4250 2034 4250 
Q 1625 4250 1398 4047 
Q 1172 3844 1172 3481 
z
" transform="scale(0.015625)"/>
       </defs>
       <use xlink:href="#DejaVuSans-63"/>
       <use xlink:href="#DejaVuSans-32" transform="translate(54.980469 0)"/>
       <use xlink:href="#DejaVuSans-38" transform="translate(118.603516 0)"/>
      </g>
     </g>
    </g>
    <g id="xtick_8">
     <g id="line2d_15">
      <path d="M 205.524139 264.968125 
L 205.524139 22.318125 
" clip-path="url(#pb56bdd211b)" style="fill: none; stroke: #dddddd; stroke-opacity: 0.6; stroke-width: 0.6; stroke-linecap: square"/>
     </g>
     <g id="line2d_16">
      <g>
       <use xlink:href="#m8a9ef8b199" x="205.524139" y="264.968125" style="stroke: #000000; stroke-width: 0.8"/>
      </g>
     </g>
     <g id="text_8">
      <!-- c21 -->
      <g transform="translate(207.731639 286.546875) rotate(-90) scale(0.08 -0.08)">
       <defs>
        <path id="DejaVuSans-31" d="M 794 531 
L 1825 531 
L 1825 4091 
L 703 3866 
L 703 4441 
L 1819 4666 
L 2450 4666 
L 2450 531 
L 3481 531 
L 3481 0 
L 794 0 
L 794 531 
z
" transform="scale(0.015625)"/>
       </defs>
       <use xlink:href="#DejaVuSans-63"/>
       <use xlink:href="#DejaVuSans-32" transform="translate(54.980469 0)"/>
       <use xlink:href="#DejaVuSans-31" transform="translate(118.603516 0)"/>
      </g>
     </g>
    </g>
    <g id="xtick_9">
     <g id="line2d_17">
      <path d="M 223.418199 264.968125 
L 223.418199 22.318125 
" clip-path="url(#pb56bdd211b)" style="fill: none; stroke: #dddddd; stroke-opacity: 0.6; stroke-width: 0.6; stroke-linecap: square"/>
     </g>
     <g id="line2d_18">
      <g>
       <use xlink:href="#m8a9ef8b199" x="223.418199" y="264.968125" style="stroke: #000000; stroke-width: 0.8"/>
      </g>
     </g>
     <g id="text_9">
      <!-- c34 -->
      <g transform="translate(225.625699 286.546875) rotate(-90) scale(0.08 -0.08)">
       <use xlink:href="#DejaVuSans-63"/>
       <use xlink:href="#DejaVuSans-33" transform="translate(54.980469 0)"/>
       <use xlink:href="#DejaVuSans-34" transform="translate(118.603516 0)"/>
      </g>
     </g>
    </g>
    <g id="xtick_10">
     <g id="line2d_19">
      <path d="M 241.31226 264.968125 
L 241.31226 22.318125 
" clip-path="url(#pb56bdd211b)" style="fill: none; stroke: #dddddd; stroke-opacity: 0.6; stroke-width: 0.6; stroke-linecap: square"/>
     </g>
     <g id="line2d_20">
      <g>
       <use xlink:href="#m8a9ef8b199" x="241.31226" y="264.968125" style="stroke: #000000; stroke-width: 0.8"/>
      </g>
     </g>
     <g id="text_10">
      <!-- c35 -->
      <g transform="translate(243.51976 286.546875) rotate(-90) scale(0.08 -0.08)">
       <use xlink:href="#DejaVuSans-63"/>
       <use xlink:href="#DejaVuSans-33" transform="translate(54.980469 0)"/>
       <use xlink:href="#DejaVuSans-35" transform="translate(118.603516 0)"/>
      </g>
     </g>
    </g>
    <g id="xtick_11">
     <g id="line2d_21">
      <path d="M 259.206321 264.968125 
L 259.206321 22.318125 
" clip-path="url(#pb56bdd211b)" style="fill: none; stroke: #dddddd; stroke-opacity: 0.6; stroke-width: 0.6; stroke-linecap: square"/>
     </g>
     <g id="line2d_22">
      <g>
       <use xlink:href="#m8a9ef8b199" x="259.206321" y="264.968125" style="stroke: #000000; stroke-width: 0.8"/>
      </g>
     </g>
     <g id="text_11">
      <!-- c43 -->
      <g transform="translate(261.413821 286.546875) rotate(-90) scale(0.08 -0.08)">
       <use xlink:href="#DejaVuSans-63"/>
       <use xlink:href="#DejaVuSans-34" transform="translate(54.980469 0)"/>
       <use xlink:href="#DejaVuSans-33" transform="translate(118.603516 0)"/>
      </g>
     </g>
    </g>
    <g id="xtick_12">
     <g id="line2d_23">
      <path d="M 277.100382 264.968125 
L 277.100382 22.318125 
" clip-path="url(#pb56bdd211b)" style="fill: none; stroke: #dddddd; stroke-opacity: 0.6; stroke-width: 0.6; stroke-linecap: square"/>
     </g>
     <g id="line2d_24">
      <g>
       <use xlink:href="#m8a9ef8b199" x="277.100382" y="264.968125" style="stroke: #000000; stroke-width: 0.8"/>
      </g>
     </g>
     <g id="text_12">
      <!-- c7 -->
      <g transform="translate(279.307882 281.456875) rotate(-90) scale(0.08 -0.08)">
       <use xlink:href="#DejaVuSans-63"/>
       <use xlink:href="#DejaVuSans-37" transform="translate(54.980469 0)"/>
      </g>
     </g>
    </g>
    <g id="xtick_13">
     <g id="line2d_25">
      <path d="M 294.994443 264.968125 
L 294.994443 22.318125 
" clip-path="url(#pb56bdd211b)" style="fill: none; stroke: #dddddd; stroke-opacity: 0.6; stroke-width: 0.6; stroke-linecap: square"/>
     </g>
     <g id="line2d_26">
      <g>
       <use xlink:href="#m8a9ef8b199" x="294.994443" y="264.968125" style="stroke: #000000; stroke-width: 0.8"/>
      </g>
     </g>
     <g id="text_13">
      <!-- c22 -->
      <g transform="translate(297.201943 286.546875) rotate(-90) scale(0.08 -0.08)">
       <use xlink:href="#DejaVuSans-63"/>
       <use xlink:href="#DejaVuSans-32" transform="translate(54.980469 0)"/>
       <use xlink:href="#DejaVuSans-32" transform="translate(118.603516 0)"/>
      </g>
     </g>
    </g>
    <g id="xtick_14">
     <g id="line2d_27">
      <path d="M 312.888504 264.968125 
L 312.888504 22.318125 
" clip-path="url(#pb56bdd211b)" style="fill: none; stroke: #dddddd; stroke-opacity: 0.6; stroke-width: 0.6; stroke-linecap: square"/>
     </g>
     <g id="line2d_28">
      <g>
       <use xlink:href="#m8a9ef8b199" x="312.888504" y="264.968125" style="stroke: #000000; stroke-width: 0.8"/>
      </g>
     </g>
     <g id="text_14">
      <!-- c32 -->
      <g transform="translate(315.096004 286.546875) rotate(-90) scale(0.08 -0.08)">
       <use xlink:href="#DejaVuSans-63"/>
       <use xlink:href="#DejaVuSans-33" transform="translate(54.980469 0)"/>
       <use xlink:href="#DejaVuSans-32" transform="translate(118.603516 0)"/>
      </g>
     </g>
    </g>
    <g id="xtick_15">
     <g id="line2d_29">
      <path d="M 330.782565 264.968125 
L 330.782565 22.318125 
" clip-path="url(#pb56bdd211b)" style="fill: none; stroke: #dddddd; stroke-opacity: 0.6; stroke-width: 0.6; stroke-linecap: square"/>
     </g>
     <g id="line2d_30">
      <g>
       <use xlink:href="#m8a9ef8b199" x="330.782565" y="264.968125" style="stroke: #000000; stroke-width: 0.8"/>
      </g>
     </g>
     <g id="text_15">
      <!-- c1 -->
      <g transform="translate(332.990065 281.456875) rotate(-90) scale(0.08 -0.08)">
       <use xlink:href="#DejaVuSans-63"/>
       <use xlink:href="#DejaVuSans-31" transform="translate(54.980469 0)"/>
      </g>
     </g>
    </g>
    <g id="xtick_16">
     <g id="line2d_31">
      <path d="M 348.676626 264.968125 
L 348.676626 22.318125 
" clip-path="url(#pb56bdd211b)" style="fill: none; stroke: #dddddd; stroke-opacity: 0.6; stroke-width: 0.6; stroke-linecap: square"/>
     </g>
     <g id="line2d_32">
      <g>
       <use xlink:href="#m8a9ef8b199" x="348.676626" y="264.968125" style="stroke: #000000; stroke-width: 0.8"/>
      </g>
     </g>
     <g id="text_16">
      <!-- c29 -->
      <g transform="translate(350.884126 286.546875) rotate(-90) scale(0.08 -0.08)">
       <defs>
        <path id="DejaVuSans-39" d="M 703 97 
L 703 672 
Q 941 559 1184 500 
Q 1428 441 1663 441 
Q 2288 441 2617 861 
Q 2947 1281 2994 2138 
Q 2813 1869 2534 1725 
Q 2256 1581 1919 1581 
Q 1219 1581 811 2004 
Q 403 2428 403 3163 
Q 403 3881 828 4315 
Q 1253 4750 1959 4750 
Q 2769 4750 3195 4129 
Q 3622 3509 3622 2328 
Q 3622 1225 3098 567 
Q 2575 -91 1691 -91 
Q 1453 -91 1209 -44 
Q 966 3 703 97 
z
M 1959 2075 
Q 2384 2075 2632 2365 
Q 2881 2656 2881 3163 
Q 2881 3666 2632 3958 
Q 2384 4250 1959 4250 
Q 1534 4250 1286 3958 
Q 1038 3666 1038 3163 
Q 1038 2656 1286 2365 
Q 1534 2075 1959 2075 
z
" transform="scale(0.015625)"/>
       </defs>
       <use xlink:href="#DejaVuSans-63"/>
       <use xlink:href="#DejaVuSans-32" transform="translate(54.980469 0)"/>
       <use xlink:href="#DejaVuSans-39" transform="translate(118.603516 0)"/>
      </g>
     </g>
    </g>
    <g id="xtick_17">
     <g id="line2d_33">
      <path d="M 366.570686 264.968125 
L 366.570686 22.318125 
" clip-path="url(#pb56bdd211b)" style="fill: none; stroke: #dddddd; stroke-opacity: 0.6; stroke-width: 0.6; stroke-linecap: square"/>
     </g>
     <g id="line2d_34">
      <g>
       <use xlink:href="#m8a9ef8b199" x="366.570686" y="264.968125" style="stroke: #000000; stroke-width: 0.8"/>
      </g>
     </g>
     <g id="text_17">
      <!-- c13 -->
      <g transform="translate(368.778186 286.546875) rotate(-90) scale(0.08 -0.08)">
       <use xlink:href="#DejaVuSans-63"/>
       <use xlink:href="#DejaVuSans-31" transform="translate(54.980469 0)"/>
       <use xlink:href="#DejaVuSans-33" transform="translate(118.603516 0)"/>
      </g>
     </g>
    </g>
    <g id="xtick_18">
     <g id="line2d_35">
      <path d="M 384.464747 264.968125 
L 384.464747 22.318125 
" clip-path="url(#pb56bdd211b)" style="fill: none; stroke: #dddddd; stroke-opacity: 0.6; stroke-width: 0.6; stroke-linecap: square"/>
     </g>
     <g id="line2d_36">
      <g>
       <use xlink:href="#m8a9ef8b199" x="384.464747" y="264.968125" style="stroke: #000000; stroke-width: 0.8"/>
      </g>
     </g>
     <g id="text_18">
      <!-- c4 -->
      <g transform="translate(386.672247 281.456875) rotate(-90) scale(0.08 -0.08)">
       <use xlink:href="#DejaVuSans-63"/>
       <use xlink:href="#DejaVuSans-34" transform="translate(54.980469 0)"/>
      </g>
     </g>
    </g>
    <g id="xtick_19">
     <g id="line2d_37">
      <path d="M 402.358808 264.968125 
L 402.358808 22.318125 
" clip-path="url(#pb56bdd211b)" style="fill: none; stroke: #dddddd; stroke-opacity: 0.6; stroke-width: 0.6; stroke-linecap: square"/>
     </g>
     <g id="line2d_38">
      <g>
       <use xlink:href="#m8a9ef8b199" x="402.358808" y="264.968125" style="stroke: #000000; stroke-width: 0.8"/>
      </g>
     </g>
     <g id="text_19">
      <!-- c5 -->
      <g transform="translate(404.566308 281.456875) rotate(-90) scale(0.08 -0.08)">
       <use xlink:href="#DejaVuSans-63"/>
       <use xlink:href="#DejaVuSans-35" transform="translate(54.980469 0)"/>
      </g>
     </g>
    </g>
    <g id="xtick_20">
     <g id="line2d_39">
      <path d="M 420.252869 264.968125 
L 420.252869 22.318125 
" clip-path="url(#pb56bdd211b)" style="fill: none; stroke: #dddddd; stroke-opacity: 0.6; stroke-width: 0.6; stroke-linecap: square"/>
     </g>
     <g id="line2d_40">
      <g>
       <use xlink:href="#m8a9ef8b199" x="420.252869" y="264.968125" style="stroke: #000000; stroke-width: 0.8"/>
      </g>
     </g>
     <g id="text_20">
      <!-- c9 -->
      <g transform="translate(422.460369 281.456875) rotate(-90) scale(0.08 -0.08)">
       <use xlink:href="#DejaVuSans-63"/>
       <use xlink:href="#DejaVuSans-39" transform="translate(54.980469 0)"/>
      </g>
     </g>
    </g>
    <g id="xtick_21">
     <g id="line2d_41">
      <path d="M 438.14693 264.968125 
L 438.14693 22.318125 
" clip-path="url(#pb56bdd211b)" style="fill: none; stroke: #dddddd; stroke-opacity: 0.6; stroke-width: 0.6; stroke-linecap: square"/>
     </g>
     <g id="line2d_42">
      <g>
       <use xlink:href="#m8a9ef8b199" x="438.14693" y="264.968125" style="stroke: #000000; stroke-width: 0.8"/>
      </g>
     </g>
     <g id="text_21">
      <!-- c26 -->
      <g transform="translate(440.35443 286.546875) rotate(-90) scale(0.08 -0.08)">
       <defs>
        <path id="DejaVuSans-36" d="M 2113 2584 
Q 1688 2584 1439 2293 
Q 1191 2003 1191 1497 
Q 1191 994 1439 701 
Q 1688 409 2113 409 
Q 2538 409 2786 701 
Q 3034 994 3034 1497 
Q 3034 2003 2786 2293 
Q 2538 2584 2113 2584 
z
M 3366 4563 
L 3366 3988 
Q 3128 4100 2886 4159 
Q 2644 4219 2406 4219 
Q 1781 4219 1451 3797 
Q 1122 3375 1075 2522 
Q 1259 2794 1537 2939 
Q 1816 3084 2150 3084 
Q 2853 3084 3261 2657 
Q 3669 2231 3669 1497 
Q 3669 778 3244 343 
Q 2819 -91 2113 -91 
Q 1303 -91 875 529 
Q 447 1150 447 2328 
Q 447 3434 972 4092 
Q 1497 4750 2381 4750 
Q 2619 4750 2861 4703 
Q 3103 4656 3366 4563 
z
" transform="scale(0.015625)"/>
       </defs>
       <use xlink:href="#DejaVuSans-63"/>
       <use xlink:href="#DejaVuSans-32" transform="translate(54.980469 0)"/>
       <use xlink:href="#DejaVuSans-36" transform="translate(118.603516 0)"/>
      </g>
     </g>
    </g>
    <g id="xtick_22">
     <g id="line2d_43">
      <path d="M 456.040991 264.968125 
L 456.040991 22.318125 
" clip-path="url(#pb56bdd211b)" style="fill: none; stroke: #dddddd; stroke-opacity: 0.6; stroke-width: 0.6; stroke-linecap: square"/>
     </g>
     <g id="line2d_44">
      <g>
       <use xlink:href="#m8a9ef8b199" x="456.040991" y="264.968125" style="stroke: #000000; stroke-width: 0.8"/>
      </g>
     </g>
     <g id="text_22">
      <!-- c31 -->
      <g transform="translate(458.248491 286.546875) rotate(-90) scale(0.08 -0.08)">
       <use xlink:href="#DejaVuSans-63"/>
       <use xlink:href="#DejaVuSans-33" transform="translate(54.980469 0)"/>
       <use xlink:href="#DejaVuSans-31" transform="translate(118.603516 0)"/>
      </g>
     </g>
    </g>
    <g id="xtick_23">
     <g id="line2d_45">
      <path d="M 473.935052 264.968125 
L 473.935052 22.318125 
" clip-path="url(#pb56bdd211b)" style="fill: none; stroke: #dddddd; stroke-opacity: 0.6; stroke-width: 0.6; stroke-linecap: square"/>
     </g>
     <g id="line2d_46">
      <g>
       <use xlink:href="#m8a9ef8b199" x="473.935052" y="264.968125" style="stroke: #000000; stroke-width: 0.8"/>
      </g>
     </g>
     <g id="text_23">
      <!-- c44 -->
      <g transform="translate(476.142552 286.546875) rotate(-90) scale(0.08 -0.08)">
       <use xlink:href="#DejaVuSans-63"/>
       <use xlink:href="#DejaVuSans-34" transform="translate(54.980469 0)"/>
       <use xlink:href="#DejaVuSans-34" transform="translate(118.603516 0)"/>
      </g>
     </g>
    </g>
    <g id="xtick_24">
     <g id="line2d_47">
      <path d="M 491.829112 264.968125 
L 491.829112 22.318125 
" clip-path="url(#pb56bdd211b)" style="fill: none; stroke: #dddddd; stroke-opacity: 0.6; stroke-width: 0.6; stroke-linecap: square"/>
     </g>
     <g id="line2d_48">
      <g>
       <use xlink:href="#m8a9ef8b199" x="491.829112" y="264.968125" style="stroke: #000000; stroke-width: 0.8"/>
      </g>
     </g>
     <g id="text_24">
      <!-- c40 -->
      <g transform="translate(494.036612 286.546875) rotate(-90) scale(0.08 -0.08)">
       <use xlink:href="#DejaVuSans-63"/>
       <use xlink:href="#DejaVuSans-34" transform="translate(54.980469 0)"/>
       <use xlink:href="#DejaVuSans-30" transform="translate(118.603516 0)"/>
      </g>
     </g>
    </g>
    <g id="xtick_25">
     <g id="line2d_49">
      <path d="M 509.723173 264.968125 
L 509.723173 22.318125 
" clip-path="url(#pb56bdd211b)" style="fill: none; stroke: #dddddd; stroke-opacity: 0.6; stroke-width: 0.6; stroke-linecap: square"/>
     </g>
     <g id="line2d_50">
      <g>
       <use xlink:href="#m8a9ef8b199" x="509.723173" y="264.968125" style="stroke: #000000; stroke-width: 0.8"/>
      </g>
     </g>
     <g id="text_25">
      <!-- c6 -->
      <g transform="translate(511.930673 281.456875) rotate(-90) scale(0.08 -0.08)">
       <use xlink:href="#DejaVuSans-63"/>
       <use xlink:href="#DejaVuSans-36" transform="translate(54.980469 0)"/>
      </g>
     </g>
    </g>
    <g id="xtick_26">
     <g id="line2d_51">
      <path d="M 527.617234 264.968125 
L 527.617234 22.318125 
" clip-path="url(#pb56bdd211b)" style="fill: none; stroke: #dddddd; stroke-opacity: 0.6; stroke-width: 0.6; stroke-linecap: square"/>
     </g>
     <g id="line2d_52">
      <g>
       <use xlink:href="#m8a9ef8b199" x="527.617234" y="264.968125" style="stroke: #000000; stroke-width: 0.8"/>
      </g>
     </g>
     <g id="text_26">
      <!-- c14 -->
      <g transform="translate(529.824734 286.546875) rotate(-90) scale(0.08 -0.08)">
       <use xlink:href="#DejaVuSans-63"/>
       <use xlink:href="#DejaVuSans-31" transform="translate(54.980469 0)"/>
       <use xlink:href="#DejaVuSans-34" transform="translate(118.603516 0)"/>
      </g>
     </g>
    </g>
    <g id="xtick_27">
     <g id="line2d_53">
      <path d="M 545.511295 264.968125 
L 545.511295 22.318125 
" clip-path="url(#pb56bdd211b)" style="fill: none; stroke: #dddddd; stroke-opacity: 0.6; stroke-width: 0.6; stroke-linecap: square"/>
     </g>
     <g id="line2d_54">
      <g>
       <use xlink:href="#m8a9ef8b199" x="545.511295" y="264.968125" style="stroke: #000000; stroke-width: 0.8"/>
      </g>
     </g>
     <g id="text_27">
      <!-- c37 -->
      <g transform="translate(547.718795 286.546875) rotate(-90) scale(0.08 -0.08)">
       <use xlink:href="#DejaVuSans-63"/>
       <use xlink:href="#DejaVuSans-33" transform="translate(54.980469 0)"/>
       <use xlink:href="#DejaVuSans-37" transform="translate(118.603516 0)"/>
      </g>
     </g>
    </g>
    <g id="xtick_28">
     <g id="line2d_55">
      <path d="M 563.405356 264.968125 
L 563.405356 22.318125 
" clip-path="url(#pb56bdd211b)" style="fill: none; stroke: #dddddd; stroke-opacity: 0.6; stroke-width: 0.6; stroke-linecap: square"/>
     </g>
     <g id="line2d_56">
      <g>
       <use xlink:href="#m8a9ef8b199" x="563.405356" y="264.968125" style="stroke: #000000; stroke-width: 0.8"/>
      </g>
     </g>
     <g id="text_28">
      <!-- c30 -->
      <g transform="translate(565.612856 286.546875) rotate(-90) scale(0.08 -0.08)">
       <use xlink:href="#DejaVuSans-63"/>
       <use xlink:href="#DejaVuSans-33" transform="translate(54.980469 0)"/>
       <use xlink:href="#DejaVuSans-30" transform="translate(118.603516 0)"/>
      </g>
     </g>
    </g>
    <g id="xtick_29">
     <g id="line2d_57">
      <path d="M 581.299417 264.968125 
L 581.299417 22.318125 
" clip-path="url(#pb56bdd211b)" style="fill: none; stroke: #dddddd; stroke-opacity: 0.6; stroke-width: 0.6; stroke-linecap: square"/>
     </g>
     <g id="line2d_58">
      <g>
       <use xlink:href="#m8a9ef8b199" x="581.299417" y="264.968125" style="stroke: #000000; stroke-width: 0.8"/>
      </g>
     </g>
     <g id="text_29">
      <!-- c11 -->
      <g transform="translate(583.506917 286.546875) rotate(-90) scale(0.08 -0.08)">
       <use xlink:href="#DejaVuSans-63"/>
       <use xlink:href="#DejaVuSans-31" transform="translate(54.980469 0)"/>
       <use xlink:href="#DejaVuSans-31" transform="translate(118.603516 0)"/>
      </g>
     </g>
    </g>
    <g id="xtick_30">
     <g id="line2d_59">
      <path d="M 599.193478 264.968125 
L 599.193478 22.318125 
" clip-path="url(#pb56bdd211b)" style="fill: none; stroke: #dddddd; stroke-opacity: 0.6; stroke-width: 0.6; stroke-linecap: square"/>
     </g>
     <g id="line2d_60">
      <g>
       <use xlink:href="#m8a9ef8b199" x="599.193478" y="264.968125" style="stroke: #000000; stroke-width: 0.8"/>
      </g>
     </g>
     <g id="text_30">
      <!-- c15 -->
      <g transform="translate(601.400978 286.546875) rotate(-90) scale(0.08 -0.08)">
       <use xlink:href="#DejaVuSans-63"/>
       <use xlink:href="#DejaVuSans-31" transform="translate(54.980469 0)"/>
       <use xlink:href="#DejaVuSans-35" transform="translate(118.603516 0)"/>
      </g>
     </g>
    </g>
    <g id="text_31">
     <!-- v5 cluster (sorted by # bundles) -->
     <g transform="translate(250.627876 298.905156) scale(0.11 -0.11)">
      <defs>
       <path id="DejaVuSans-76" d="M 191 3500 
L 800 3500 
L 1894 563 
L 2988 3500 
L 3597 3500 
L 2284 0 
L 1503 0 
L 191 3500 
z
" transform="scale(0.015625)"/>
       <path id="DejaVuSans-20" transform="scale(0.015625)"/>
       <path id="DejaVuSans-6c" d="M 603 4863 
L 1178 4863 
L 1178 0 
L 603 0 
L 603 4863 
z
" transform="scale(0.015625)"/>
       <path id="DejaVuSans-75" d="M 544 1381 
L 544 3500 
L 1119 3500 
L 1119 1403 
Q 1119 906 1312 657 
Q 1506 409 1894 409 
Q 2359 409 2629 706 
Q 2900 1003 2900 1516 
L 2900 3500 
L 3475 3500 
L 3475 0 
L 2900 0 
L 2900 538 
Q 2691 219 2414 64 
Q 2138 -91 1772 -91 
Q 1169 -91 856 284 
Q 544 659 544 1381 
z
M 1991 3584 
L 1991 3584 
z
" transform="scale(0.015625)"/>
       <path id="DejaVuSans-73" d="M 2834 3397 
L 2834 2853 
Q 2591 2978 2328 3040 
Q 2066 3103 1784 3103 
Q 1356 3103 1142 2972 
Q 928 2841 928 2578 
Q 928 2378 1081 2264 
Q 1234 2150 1697 2047 
L 1894 2003 
Q 2506 1872 2764 1633 
Q 3022 1394 3022 966 
Q 3022 478 2636 193 
Q 2250 -91 1575 -91 
Q 1294 -91 989 -36 
Q 684 19 347 128 
L 347 722 
Q 666 556 975 473 
Q 1284 391 1588 391 
Q 1994 391 2212 530 
Q 2431 669 2431 922 
Q 2431 1156 2273 1281 
Q 2116 1406 1581 1522 
L 1381 1569 
Q 847 1681 609 1914 
Q 372 2147 372 2553 
Q 372 3047 722 3315 
Q 1072 3584 1716 3584 
Q 2034 3584 2315 3537 
Q 2597 3491 2834 3397 
z
" transform="scale(0.015625)"/>
       <path id="DejaVuSans-74" d="M 1172 4494 
L 1172 3500 
L 2356 3500 
L 2356 3053 
L 1172 3053 
L 1172 1153 
Q 1172 725 1289 603 
Q 1406 481 1766 481 
L 2356 481 
L 2356 0 
L 1766 0 
Q 1100 0 847 248 
Q 594 497 594 1153 
L 594 3053 
L 172 3053 
L 172 3500 
L 594 3500 
L 594 4494 
L 1172 4494 
z
" transform="scale(0.015625)"/>
       <path id="DejaVuSans-65" d="M 3597 1894 
L 3597 1613 
L 953 1613 
Q 991 1019 1311 708 
Q 1631 397 2203 397 
Q 2534 397 2845 478 
Q 3156 559 3463 722 
L 3463 178 
Q 3153 47 2828 -22 
Q 2503 -91 2169 -91 
Q 1331 -91 842 396 
Q 353 884 353 1716 
Q 353 2575 817 3079 
Q 1281 3584 2069 3584 
Q 2775 3584 3186 3129 
Q 3597 2675 3597 1894 
z
M 3022 2063 
Q 3016 2534 2758 2815 
Q 2500 3097 2075 3097 
Q 1594 3097 1305 2825 
Q 1016 2553 972 2059 
L 3022 2063 
z
" transform="scale(0.015625)"/>
       <path id="DejaVuSans-72" d="M 2631 2963 
Q 2534 3019 2420 3045 
Q 2306 3072 2169 3072 
Q 1681 3072 1420 2755 
Q 1159 2438 1159 1844 
L 1159 0 
L 581 0 
L 581 3500 
L 1159 3500 
L 1159 2956 
Q 1341 3275 1631 3429 
Q 1922 3584 2338 3584 
Q 2397 3584 2469 3576 
Q 2541 3569 2628 3553 
L 2631 2963 
z
" transform="scale(0.015625)"/>
       <path id="DejaVuSans-28" d="M 1984 4856 
Q 1566 4138 1362 3434 
Q 1159 2731 1159 2009 
Q 1159 1288 1364 580 
Q 1569 -128 1984 -844 
L 1484 -844 
Q 1016 -109 783 600 
Q 550 1309 550 2009 
Q 550 2706 781 3412 
Q 1013 4119 1484 4856 
L 1984 4856 
z
" transform="scale(0.015625)"/>
       <path id="DejaVuSans-6f" d="M 1959 3097 
Q 1497 3097 1228 2736 
Q 959 2375 959 1747 
Q 959 1119 1226 758 
Q 1494 397 1959 397 
Q 2419 397 2687 759 
Q 2956 1122 2956 1747 
Q 2956 2369 2687 2733 
Q 2419 3097 1959 3097 
z
M 1959 3584 
Q 2709 3584 3137 3096 
Q 3566 2609 3566 1747 
Q 3566 888 3137 398 
Q 2709 -91 1959 -91 
Q 1206 -91 779 398 
Q 353 888 353 1747 
Q 353 2609 779 3096 
Q 1206 3584 1959 3584 
z
" transform="scale(0.015625)"/>
       <path id="DejaVuSans-64" d="M 2906 2969 
L 2906 4863 
L 3481 4863 
L 3481 0 
L 2906 0 
L 2906 525 
Q 2725 213 2448 61 
Q 2172 -91 1784 -91 
Q 1150 -91 751 415 
Q 353 922 353 1747 
Q 353 2572 751 3078 
Q 1150 3584 1784 3584 
Q 2172 3584 2448 3432 
Q 2725 3281 2906 2969 
z
M 947 1747 
Q 947 1113 1208 752 
Q 1469 391 1925 391 
Q 2381 391 2643 752 
Q 2906 1113 2906 1747 
Q 2906 2381 2643 2742 
Q 2381 3103 1925 3103 
Q 1469 3103 1208 2742 
Q 947 2381 947 1747 
z
" transform="scale(0.015625)"/>
       <path id="DejaVuSans-62" d="M 3116 1747 
Q 3116 2381 2855 2742 
Q 2594 3103 2138 3103 
Q 1681 3103 1420 2742 
Q 1159 2381 1159 1747 
Q 1159 1113 1420 752 
Q 1681 391 2138 391 
Q 2594 391 2855 752 
Q 3116 1113 3116 1747 
z
M 1159 2969 
Q 1341 3281 1617 3432 
Q 1894 3584 2278 3584 
Q 2916 3584 3314 3078 
Q 3713 2572 3713 1747 
Q 3713 922 3314 415 
Q 2916 -91 2278 -91 
Q 1894 -91 1617 61 
Q 1341 213 1159 525 
L 1159 0 
L 581 0 
L 581 4863 
L 1159 4863 
L 1159 2969 
z
" transform="scale(0.015625)"/>
       <path id="DejaVuSans-79" d="M 2059 -325 
Q 1816 -950 1584 -1140 
Q 1353 -1331 966 -1331 
L 506 -1331 
L 506 -850 
L 844 -850 
Q 1081 -850 1212 -737 
Q 1344 -625 1503 -206 
L 1606 56 
L 191 3500 
L 800 3500 
L 1894 763 
L 2988 3500 
L 3597 3500 
L 2059 -325 
z
" transform="scale(0.015625)"/>
       <path id="DejaVuSans-23" d="M 3272 2816 
L 2363 2816 
L 2100 1772 
L 3016 1772 
L 3272 2816 
z
M 2803 4594 
L 2478 3297 
L 3391 3297 
L 3719 4594 
L 4219 4594 
L 3897 3297 
L 4872 3297 
L 4872 2816 
L 3775 2816 
L 3519 1772 
L 4513 1772 
L 4513 1294 
L 3397 1294 
L 3072 0 
L 2572 0 
L 2894 1294 
L 1978 1294 
L 1656 0 
L 1153 0 
L 1478 1294 
L 494 1294 
L 494 1772 
L 1594 1772 
L 1856 2816 
L 850 2816 
L 850 3297 
L 1978 3297 
L 2297 4594 
L 2803 4594 
z
" transform="scale(0.015625)"/>
       <path id="DejaVuSans-6e" d="M 3513 2113 
L 3513 0 
L 2938 0 
L 2938 2094 
Q 2938 2591 2744 2837 
Q 2550 3084 2163 3084 
Q 1697 3084 1428 2787 
Q 1159 2491 1159 1978 
L 1159 0 
L 581 0 
L 581 3500 
L 1159 3500 
L 1159 2956 
Q 1366 3272 1645 3428 
Q 1925 3584 2291 3584 
Q 2894 3584 3203 3211 
Q 3513 2838 3513 2113 
z
" transform="scale(0.015625)"/>
       <path id="DejaVuSans-29" d="M 513 4856 
L 1013 4856 
Q 1481 4119 1714 3412 
Q 1947 2706 1947 2009 
Q 1947 1309 1714 600 
Q 1481 -109 1013 -844 
L 513 -844 
Q 928 -128 1133 580 
Q 1338 1288 1338 2009 
Q 1338 2731 1133 3434 
Q 928 4138 513 4856 
z
" transform="scale(0.015625)"/>
      </defs>
      <use xlink:href="#DejaVuSans-76"/>
      <use xlink:href="#DejaVuSans-35" transform="translate(59.179688 0)"/>
      <use xlink:href="#DejaVuSans-20" transform="translate(122.802734 0)"/>
      <use xlink:href="#DejaVuSans-63" transform="translate(154.589844 0)"/>
      <use xlink:href="#DejaVuSans-6c" transform="translate(209.570312 0)"/>
      <use xlink:href="#DejaVuSans-75" transform="translate(237.353516 0)"/>
      <use xlink:href="#DejaVuSans-73" transform="translate(300.732422 0)"/>
      <use xlink:href="#DejaVuSans-74" transform="translate(352.832031 0)"/>
      <use xlink:href="#DejaVuSans-65" transform="translate(392.041016 0)"/>
      <use xlink:href="#DejaVuSans-72" transform="translate(453.564453 0)"/>
      <use xlink:href="#DejaVuSans-20" transform="translate(494.677734 0)"/>
      <use xlink:href="#DejaVuSans-28" transform="translate(526.464844 0)"/>
      <use xlink:href="#DejaVuSans-73" transform="translate(565.478516 0)"/>
      <use xlink:href="#DejaVuSans-6f" transform="translate(617.578125 0)"/>
      <use xlink:href="#DejaVuSans-72" transform="translate(678.759766 0)"/>
      <use xlink:href="#DejaVuSans-74" transform="translate(719.873047 0)"/>
      <use xlink:href="#DejaVuSans-65" transform="translate(759.082031 0)"/>
      <use xlink:href="#DejaVuSans-64" transform="translate(820.605469 0)"/>
      <use xlink:href="#DejaVuSans-20" transform="translate(884.082031 0)"/>
      <use xlink:href="#DejaVuSans-62" transform="translate(915.869141 0)"/>
      <use xlink:href="#DejaVuSans-79" transform="translate(979.345703 0)"/>
      <use xlink:href="#DejaVuSans-20" transform="translate(1038.525391 0)"/>
      <use xlink:href="#DejaVuSans-23" transform="translate(1070.3125 0)"/>
      <use xlink:href="#DejaVuSans-20" transform="translate(1154.101562 0)"/>
      <use xlink:href="#DejaVuSans-62" transform="translate(1185.888672 0)"/>
      <use xlink:href="#DejaVuSans-75" transform="translate(1249.365234 0)"/>
      <use xlink:href="#DejaVuSans-6e" transform="translate(1312.744141 0)"/>
      <use xlink:href="#DejaVuSans-64" transform="translate(1376.123047 0)"/>
      <use xlink:href="#DejaVuSans-6c" transform="translate(1439.599609 0)"/>
      <use xlink:href="#DejaVuSans-65" transform="translate(1467.382812 0)"/>
      <use xlink:href="#DejaVuSans-73" transform="translate(1528.90625 0)"/>
      <use xlink:href="#DejaVuSans-29" transform="translate(1581.005859 0)"/>
     </g>
    </g>
   </g>
   <g id="matplotlib.axis_2">
    <g id="ytick_1">
     <g id="line2d_61">
      <path d="M 46.445938 238.574318 
L 633.013253 238.574318 
" clip-path="url(#pb56bdd211b)" style="fill: none; stroke: #dddddd; stroke-opacity: 0.6; stroke-width: 0.6; stroke-linecap: square"/>
     </g>
     <g id="line2d_62">
      <defs>
       <path id="m54327adc34" d="M 0 0 
L -3.5 0 
" style="stroke: #000000; stroke-width: 0.8"/>
      </defs>
      <g>
       <use xlink:href="#m54327adc34" x="46.445938" y="238.574318" style="stroke: #000000; stroke-width: 0.8"/>
      </g>
     </g>
     <g id="text_32">
      <!-- $\mathdefault{10^{1}}$ -->
      <g transform="translate(21.845938 242.373537) scale(0.1 -0.1)">
       <use xlink:href="#DejaVuSans-31" transform="translate(0 0.684375)"/>
       <use xlink:href="#DejaVuSans-30" transform="translate(63.623047 0.684375)"/>
       <use xlink:href="#DejaVuSans-31" transform="translate(128.203125 38.965625) scale(0.7)"/>
      </g>
     </g>
    </g>
    <g id="ytick_2">
     <g id="line2d_63">
      <path d="M 46.445938 80.032795 
L 633.013253 80.032795 
" clip-path="url(#pb56bdd211b)" style="fill: none; stroke: #dddddd; stroke-opacity: 0.6; stroke-width: 0.6; stroke-linecap: square"/>
     </g>
     <g id="line2d_64">
      <g>
       <use xlink:href="#m54327adc34" x="46.445938" y="80.032795" style="stroke: #000000; stroke-width: 0.8"/>
      </g>
     </g>
     <g id="text_33">
      <!-- $\mathdefault{10^{2}}$ -->
      <g transform="translate(21.845938 83.832013) scale(0.1 -0.1)">
       <use xlink:href="#DejaVuSans-31" transform="translate(0 0.765625)"/>
       <use xlink:href="#DejaVuSans-30" transform="translate(63.623047 0.765625)"/>
       <use xlink:href="#DejaVuSans-32" transform="translate(128.203125 39.046875) scale(0.7)"/>
      </g>
     </g>
    </g>
    <g id="ytick_3">
     <g id="line2d_65">
      <defs>
       <path id="m280f89f18b" d="M 0 0 
L -2 0 
" style="stroke: #000000; stroke-width: 0.6"/>
      </defs>
      <g>
       <use xlink:href="#m280f89f18b" x="46.445938" y="263.132711" style="stroke: #000000; stroke-width: 0.6"/>
      </g>
     </g>
    </g>
    <g id="ytick_4">
     <g id="line2d_66">
      <g>
       <use xlink:href="#m280f89f18b" x="46.445938" y="253.93858" style="stroke: #000000; stroke-width: 0.6"/>
      </g>
     </g>
    </g>
    <g id="ytick_5">
     <g id="line2d_67">
      <g>
       <use xlink:href="#m280f89f18b" x="46.445938" y="245.828781" style="stroke: #000000; stroke-width: 0.6"/>
      </g>
     </g>
    </g>
    <g id="ytick_6">
     <g id="line2d_68">
      <g>
       <use xlink:href="#m280f89f18b" x="46.445938" y="190.848564" style="stroke: #000000; stroke-width: 0.6"/>
      </g>
     </g>
    </g>
    <g id="ytick_7">
     <g id="line2d_69">
      <g>
       <use xlink:href="#m280f89f18b" x="46.445938" y="162.930788" style="stroke: #000000; stroke-width: 0.6"/>
      </g>
     </g>
    </g>
    <g id="ytick_8">
     <g id="line2d_70">
      <g>
       <use xlink:href="#m280f89f18b" x="46.445938" y="143.12281" style="stroke: #000000; stroke-width: 0.6"/>
      </g>
     </g>
    </g>
    <g id="ytick_9">
     <g id="line2d_71">
      <g>
       <use xlink:href="#m280f89f18b" x="46.445938" y="127.758549" style="stroke: #000000; stroke-width: 0.6"/>
      </g>
     </g>
    </g>
    <g id="ytick_10">
     <g id="line2d_72">
      <g>
       <use xlink:href="#m280f89f18b" x="46.445938" y="115.205033" style="stroke: #000000; stroke-width: 0.6"/>
      </g>
     </g>
    </g>
    <g id="ytick_11">
     <g id="line2d_73">
      <g>
       <use xlink:href="#m280f89f18b" x="46.445938" y="104.591187" style="stroke: #000000; stroke-width: 0.6"/>
      </g>
     </g>
    </g>
    <g id="ytick_12">
     <g id="line2d_74">
      <g>
       <use xlink:href="#m280f89f18b" x="46.445938" y="95.397056" style="stroke: #000000; stroke-width: 0.6"/>
      </g>
     </g>
    </g>
    <g id="ytick_13">
     <g id="line2d_75">
      <g>
       <use xlink:href="#m280f89f18b" x="46.445938" y="87.287257" style="stroke: #000000; stroke-width: 0.6"/>
      </g>
     </g>
    </g>
    <g id="ytick_14">
     <g id="line2d_76">
      <g>
       <use xlink:href="#m280f89f18b" x="46.445938" y="32.30704" style="stroke: #000000; stroke-width: 0.6"/>
      </g>
     </g>
    </g>
    <g id="text_34">
     <!-- count (log) -->
     <g transform="translate(15.558281 173.584609) rotate(-90) scale(0.11 -0.11)">
      <defs>
       <path id="DejaVuSans-67" d="M 2906 1791 
Q 2906 2416 2648 2759 
Q 2391 3103 1925 3103 
Q 1463 3103 1205 2759 
Q 947 2416 947 1791 
Q 947 1169 1205 825 
Q 1463 481 1925 481 
Q 2391 481 2648 825 
Q 2906 1169 2906 1791 
z
M 3481 434 
Q 3481 -459 3084 -895 
Q 2688 -1331 1869 -1331 
Q 1566 -1331 1297 -1286 
Q 1028 -1241 775 -1147 
L 775 -588 
Q 1028 -725 1275 -790 
Q 1522 -856 1778 -856 
Q 2344 -856 2625 -561 
Q 2906 -266 2906 331 
L 2906 616 
Q 2728 306 2450 153 
Q 2172 0 1784 0 
Q 1141 0 747 490 
Q 353 981 353 1791 
Q 353 2603 747 3093 
Q 1141 3584 1784 3584 
Q 2172 3584 2450 3431 
Q 2728 3278 2906 2969 
L 2906 3500 
L 3481 3500 
L 3481 434 
z
" transform="scale(0.015625)"/>
      </defs>
      <use xlink:href="#DejaVuSans-63"/>
      <use xlink:href="#DejaVuSans-6f" transform="translate(54.980469 0)"/>
      <use xlink:href="#DejaVuSans-75" transform="translate(116.162109 0)"/>
      <use xlink:href="#DejaVuSans-6e" transform="translate(179.541016 0)"/>
      <use xlink:href="#DejaVuSans-74" transform="translate(242.919922 0)"/>
      <use xlink:href="#DejaVuSans-20" transform="translate(282.128906 0)"/>
      <use xlink:href="#DejaVuSans-28" transform="translate(313.916016 0)"/>
      <use xlink:href="#DejaVuSans-6c" transform="translate(352.929688 0)"/>
      <use xlink:href="#DejaVuSans-6f" transform="translate(380.712891 0)"/>
      <use xlink:href="#DejaVuSans-67" transform="translate(441.894531 0)"/>
      <use xlink:href="#DejaVuSans-29" transform="translate(505.371094 0)"/>
     </g>
    </g>
   </g>
   <g id="patch_63">
    <path d="M 46.445938 264.968125 
L 46.445938 22.318125 
" style="fill: none; stroke: #444444; stroke-width: 0.8; stroke-linejoin: miter; stroke-linecap: square"/>
   </g>
   <g id="patch_64">
    <path d="M 46.445938 264.968125 
L 633.013253 264.968125 
" style="fill: none; stroke: #444444; stroke-width: 0.8; stroke-linejoin: miter; stroke-linecap: square"/>
   </g>
   <g id="text_35">
    <!-- multi-input maker bundles per cluster (70,605 CJs scanned; 50 wallets contribute bundles to 2+ clusters) -->
    <g transform="translate(23.353345 16.318125) scale(0.12 -0.12)">
     <defs>
      <path id="DejaVuSans-6d" d="M 3328 2828 
Q 3544 3216 3844 3400 
Q 4144 3584 4550 3584 
Q 5097 3584 5394 3201 
Q 5691 2819 5691 2113 
L 5691 0 
L 5113 0 
L 5113 2094 
Q 5113 2597 4934 2840 
Q 4756 3084 4391 3084 
Q 3944 3084 3684 2787 
Q 3425 2491 3425 1978 
L 3425 0 
L 2847 0 
L 2847 2094 
Q 2847 2600 2669 2842 
Q 2491 3084 2119 3084 
Q 1678 3084 1418 2786 
Q 1159 2488 1159 1978 
L 1159 0 
L 581 0 
L 581 3500 
L 1159 3500 
L 1159 2956 
Q 1356 3278 1631 3431 
Q 1906 3584 2284 3584 
Q 2666 3584 2933 3390 
Q 3200 3197 3328 2828 
z
" transform="scale(0.015625)"/>
      <path id="DejaVuSans-69" d="M 603 3500 
L 1178 3500 
L 1178 0 
L 603 0 
L 603 3500 
z
M 603 4863 
L 1178 4863 
L 1178 4134 
L 603 4134 
L 603 4863 
z
" transform="scale(0.015625)"/>
      <path id="DejaVuSans-2d" d="M 313 2009 
L 1997 2009 
L 1997 1497 
L 313 1497 
L 313 2009 
z
" transform="scale(0.015625)"/>
      <path id="DejaVuSans-70" d="M 1159 525 
L 1159 -1331 
L 581 -1331 
L 581 3500 
L 1159 3500 
L 1159 2969 
Q 1341 3281 1617 3432 
Q 1894 3584 2278 3584 
Q 2916 3584 3314 3078 
Q 3713 2572 3713 1747 
Q 3713 922 3314 415 
Q 2916 -91 2278 -91 
Q 1894 -91 1617 61 
Q 1341 213 1159 525 
z
M 3116 1747 
Q 3116 2381 2855 2742 
Q 2594 3103 2138 3103 
Q 1681 3103 1420 2742 
Q 1159 2381 1159 1747 
Q 1159 1113 1420 752 
Q 1681 391 2138 391 
Q 2594 391 2855 752 
Q 3116 1113 3116 1747 
z
" transform="scale(0.015625)"/>
      <path id="DejaVuSans-61" d="M 2194 1759 
Q 1497 1759 1228 1600 
Q 959 1441 959 1056 
Q 959 750 1161 570 
Q 1363 391 1709 391 
Q 2188 391 2477 730 
Q 2766 1069 2766 1631 
L 2766 1759 
L 2194 1759 
z
M 3341 1997 
L 3341 0 
L 2766 0 
L 2766 531 
Q 2569 213 2275 61 
Q 1981 -91 1556 -91 
Q 1019 -91 701 211 
Q 384 513 384 1019 
Q 384 1609 779 1909 
Q 1175 2209 1959 2209 
L 2766 2209 
L 2766 2266 
Q 2766 2663 2505 2880 
Q 2244 3097 1772 3097 
Q 1472 3097 1187 3025 
Q 903 2953 641 2809 
L 641 3341 
Q 956 3463 1253 3523 
Q 1550 3584 1831 3584 
Q 2591 3584 2966 3190 
Q 3341 2797 3341 1997 
z
" transform="scale(0.015625)"/>
      <path id="DejaVuSans-6b" d="M 581 4863 
L 1159 4863 
L 1159 1991 
L 2875 3500 
L 3609 3500 
L 1753 1863 
L 3688 0 
L 2938 0 
L 1159 1709 
L 1159 0 
L 581 0 
L 581 4863 
z
" transform="scale(0.015625)"/>
      <path id="DejaVuSans-2c" d="M 750 794 
L 1409 794 
L 1409 256 
L 897 -744 
L 494 -744 
L 750 256 
L 750 794 
z
" transform="scale(0.015625)"/>
      <path id="DejaVuSans-43" d="M 4122 4306 
L 4122 3641 
Q 3803 3938 3442 4084 
Q 3081 4231 2675 4231 
Q 1875 4231 1450 3742 
Q 1025 3253 1025 2328 
Q 1025 1406 1450 917 
Q 1875 428 2675 428 
Q 3081 428 3442 575 
Q 3803 722 4122 1019 
L 4122 359 
Q 3791 134 3420 21 
Q 3050 -91 2638 -91 
Q 1578 -91 968 557 
Q 359 1206 359 2328 
Q 359 3453 968 4101 
Q 1578 4750 2638 4750 
Q 3056 4750 3426 4639 
Q 3797 4528 4122 4306 
z
" transform="scale(0.015625)"/>
      <path id="DejaVuSans-4a" d="M 628 4666 
L 1259 4666 
L 1259 325 
Q 1259 -519 939 -900 
Q 619 -1281 -91 -1281 
L -331 -1281 
L -331 -750 
L -134 -750 
Q 284 -750 456 -515 
Q 628 -281 628 325 
L 628 4666 
z
" transform="scale(0.015625)"/>
      <path id="DejaVuSans-3b" d="M 750 3309 
L 1409 3309 
L 1409 2516 
L 750 2516 
L 750 3309 
z
M 750 794 
L 1409 794 
L 1409 256 
L 897 -744 
L 494 -744 
L 750 256 
L 750 794 
z
" transform="scale(0.015625)"/>
      <path id="DejaVuSans-77" d="M 269 3500 
L 844 3500 
L 1563 769 
L 2278 3500 
L 2956 3500 
L 3675 769 
L 4391 3500 
L 4966 3500 
L 4050 0 
L 3372 0 
L 2619 2869 
L 1863 0 
L 1184 0 
L 269 3500 
z
" transform="scale(0.015625)"/>
      <path id="DejaVuSans-2b" d="M 2944 4013 
L 2944 2272 
L 4684 2272 
L 4684 1741 
L 2944 1741 
L 2944 0 
L 2419 0 
L 2419 1741 
L 678 1741 
L 678 2272 
L 2419 2272 
L 2419 4013 
L 2944 4013 
z
" transform="scale(0.015625)"/>
     </defs>
     <use xlink:href="#DejaVuSans-6d"/>
     <use xlink:href="#DejaVuSans-75" transform="translate(97.412109 0)"/>
     <use xlink:href="#DejaVuSans-6c" transform="translate(160.791016 0)"/>
     <use xlink:href="#DejaVuSans-74" transform="translate(188.574219 0)"/>
     <use xlink:href="#DejaVuSans-69" transform="translate(227.783203 0)"/>
     <use xlink:href="#DejaVuSans-2d" transform="translate(255.566406 0)"/>
     <use xlink:href="#DejaVuSans-69" transform="translate(291.650391 0)"/>
     <use xlink:href="#DejaVuSans-6e" transform="translate(319.433594 0)"/>
     <use xlink:href="#DejaVuSans-70" transform="translate(382.8125 0)"/>
     <use xlink:href="#DejaVuSans-75" transform="translate(446.289062 0)"/>
     <use xlink:href="#DejaVuSans-74" transform="translate(509.667969 0)"/>
     <use xlink:href="#DejaVuSans-20" transform="translate(548.876953 0)"/>
     <use xlink:href="#DejaVuSans-6d" transform="translate(580.664062 0)"/>
     <use xlink:href="#DejaVuSans-61" transform="translate(678.076172 0)"/>
     <use xlink:href="#DejaVuSans-6b" transform="translate(739.355469 0)"/>
     <use xlink:href="#DejaVuSans-65" transform="translate(793.640625 0)"/>
     <use xlink:href="#DejaVuSans-72" transform="translate(855.164062 0)"/>
     <use xlink:href="#DejaVuSans-20" transform="translate(896.277344 0)"/>
     <use xlink:href="#DejaVuSans-62" transform="translate(928.064453 0)"/>
     <use xlink:href="#DejaVuSans-75" transform="translate(991.541016 0)"/>
     <use xlink:href="#DejaVuSans-6e" transform="translate(1054.919922 0)"/>
     <use xlink:href="#DejaVuSans-64" transform="translate(1118.298828 0)"/>
     <use xlink:href="#DejaVuSans-6c" transform="translate(1181.775391 0)"/>
     <use xlink:href="#DejaVuSans-65" transform="translate(1209.558594 0)"/>
     <use xlink:href="#DejaVuSans-73" transform="translate(1271.082031 0)"/>
     <use xlink:href="#DejaVuSans-20" transform="translate(1323.181641 0)"/>
     <use xlink:href="#DejaVuSans-70" transform="translate(1354.96875 0)"/>
     <use xlink:href="#DejaVuSans-65" transform="translate(1418.445312 0)"/>
     <use xlink:href="#DejaVuSans-72" transform="translate(1479.96875 0)"/>
     <use xlink:href="#DejaVuSans-20" transform="translate(1521.082031 0)"/>
     <use xlink:href="#DejaVuSans-63" transform="translate(1552.869141 0)"/>
     <use xlink:href="#DejaVuSans-6c" transform="translate(1607.849609 0)"/>
     <use xlink:href="#DejaVuSans-75" transform="translate(1635.632812 0)"/>
     <use xlink:href="#DejaVuSans-73" transform="translate(1699.011719 0)"/>
     <use xlink:href="#DejaVuSans-74" transform="translate(1751.111328 0)"/>
     <use xlink:href="#DejaVuSans-65" transform="translate(1790.320312 0)"/>
     <use xlink:href="#DejaVuSans-72" transform="translate(1851.84375 0)"/>
     <use xlink:href="#DejaVuSans-20" transform="translate(1892.957031 0)"/>
     <use xlink:href="#DejaVuSans-28" transform="translate(1924.744141 0)"/>
     <use xlink:href="#DejaVuSans-37" transform="translate(1963.757812 0)"/>
     <use xlink:href="#DejaVuSans-30" transform="translate(2027.380859 0)"/>
     <use xlink:href="#DejaVuSans-2c" transform="translate(2091.003906 0)"/>
     <use xlink:href="#DejaVuSans-36" transform="translate(2122.791016 0)"/>
     <use xlink:href="#DejaVuSans-30" transform="translate(2186.414062 0)"/>
     <use xlink:href="#DejaVuSans-35" transform="translate(2250.037109 0)"/>
     <use xlink:href="#DejaVuSans-20" transform="translate(2313.660156 0)"/>
     <use xlink:href="#DejaVuSans-43" transform="translate(2345.447266 0)"/>
     <use xlink:href="#DejaVuSans-4a" transform="translate(2415.271484 0)"/>
     <use xlink:href="#DejaVuSans-73" transform="translate(2444.763672 0)"/>
     <use xlink:href="#DejaVuSans-20" transform="translate(2496.863281 0)"/>
     <use xlink:href="#DejaVuSans-73" transform="translate(2528.650391 0)"/>
     <use xlink:href="#DejaVuSans-63" transform="translate(2580.75 0)"/>
     <use xlink:href="#DejaVuSans-61" transform="translate(2635.730469 0)"/>
     <use xlink:href="#DejaVuSans-6e" transform="translate(2697.009766 0)"/>
     <use xlink:href="#DejaVuSans-6e" transform="translate(2760.388672 0)"/>
     <use xlink:href="#DejaVuSans-65" transform="translate(2823.767578 0)"/>
     <use xlink:href="#DejaVuSans-64" transform="translate(2885.291016 0)"/>
     <use xlink:href="#DejaVuSans-3b" transform="translate(2948.767578 0)"/>
     <use xlink:href="#DejaVuSans-20" transform="translate(2982.458984 0)"/>
     <use xlink:href="#DejaVuSans-35" transform="translate(3014.246094 0)"/>
     <use xlink:href="#DejaVuSans-30" transform="translate(3077.869141 0)"/>
     <use xlink:href="#DejaVuSans-20" transform="translate(3141.492188 0)"/>
     <use xlink:href="#DejaVuSans-77" transform="translate(3173.279297 0)"/>
     <use xlink:href="#DejaVuSans-61" transform="translate(3255.066406 0)"/>
     <use xlink:href="#DejaVuSans-6c" transform="translate(3316.345703 0)"/>
     <use xlink:href="#DejaVuSans-6c" transform="translate(3344.128906 0)"/>
     <use xlink:href="#DejaVuSans-65" transform="translate(3371.912109 0)"/>
     <use xlink:href="#DejaVuSans-74" transform="translate(3433.435547 0)"/>
     <use xlink:href="#DejaVuSans-73" transform="translate(3472.644531 0)"/>
     <use xlink:href="#DejaVuSans-20" transform="translate(3524.744141 0)"/>
     <use xlink:href="#DejaVuSans-63" transform="translate(3556.53125 0)"/>
     <use xlink:href="#DejaVuSans-6f" transform="translate(3611.511719 0)"/>
     <use xlink:href="#DejaVuSans-6e" transform="translate(3672.693359 0)"/>
     <use xlink:href="#DejaVuSans-74" transform="translate(3736.072266 0)"/>
     <use xlink:href="#DejaVuSans-72" transform="translate(3775.28125 0)"/>
     <use xlink:href="#DejaVuSans-69" transform="translate(3816.394531 0)"/>
     <use xlink:href="#DejaVuSans-62" transform="translate(3844.177734 0)"/>
     <use xlink:href="#DejaVuSans-75" transform="translate(3907.654297 0)"/>
     <use xlink:href="#DejaVuSans-74" transform="translate(3971.033203 0)"/>
     <use xlink:href="#DejaVuSans-65" transform="translate(4010.242188 0)"/>
     <use xlink:href="#DejaVuSans-20" transform="translate(4071.765625 0)"/>
     <use xlink:href="#DejaVuSans-62" transform="translate(4103.552734 0)"/>
     <use xlink:href="#DejaVuSans-75" transform="translate(4167.029297 0)"/>
     <use xlink:href="#DejaVuSans-6e" transform="translate(4230.408203 0)"/>
     <use xlink:href="#DejaVuSans-64" transform="translate(4293.787109 0)"/>
     <use xlink:href="#DejaVuSans-6c" transform="translate(4357.263672 0)"/>
     <use xlink:href="#DejaVuSans-65" transform="translate(4385.046875 0)"/>
     <use xlink:href="#DejaVuSans-73" transform="translate(4446.570312 0)"/>
     <use xlink:href="#DejaVuSans-20" transform="translate(4498.669922 0)"/>
     <use xlink:href="#DejaVuSans-74" transform="translate(4530.457031 0)"/>
     <use xlink:href="#DejaVuSans-6f" transform="translate(4569.666016 0)"/>
     <use xlink:href="#DejaVuSans-20" transform="translate(4630.847656 0)"/>
     <use xlink:href="#DejaVuSans-32" transform="translate(4662.634766 0)"/>
     <use xlink:href="#DejaVuSans-2b" transform="translate(4726.257812 0)"/>
     <use xlink:href="#DejaVuSans-20" transform="translate(4810.046875 0)"/>
     <use xlink:href="#DejaVuSans-63" transform="translate(4841.833984 0)"/>
     <use xlink:href="#DejaVuSans-6c" transform="translate(4896.814453 0)"/>
     <use xlink:href="#DejaVuSans-75" transform="translate(4924.597656 0)"/>
     <use xlink:href="#DejaVuSans-73" transform="translate(4987.976562 0)"/>
     <use xlink:href="#DejaVuSans-74" transform="translate(5040.076172 0)"/>
     <use xlink:href="#DejaVuSans-65" transform="translate(5079.285156 0)"/>
     <use xlink:href="#DejaVuSans-72" transform="translate(5140.808594 0)"/>
     <use xlink:href="#DejaVuSans-73" transform="translate(5181.921875 0)"/>
     <use xlink:href="#DejaVuSans-29" transform="translate(5234.021484 0)"/>
    </g>
   </g>
   <g id="legend_1">
    <g id="patch_65">
     <path d="M 506.457784 37.256719 
L 524.457784 37.256719 
L 524.457784 30.956719 
L 506.457784 30.956719 
z
" style="fill: #4477aa; stroke: #222222; stroke-width: 0.4; stroke-linejoin: miter"/>
    </g>
    <g id="text_36">
     <!-- multi-input bundles -->
     <g transform="translate(531.657784 37.256719) scale(0.09 -0.09)">
      <use xlink:href="#DejaVuSans-6d"/>
      <use xlink:href="#DejaVuSans-75" transform="translate(97.412109 0)"/>
      <use xlink:href="#DejaVuSans-6c" transform="translate(160.791016 0)"/>
      <use xlink:href="#DejaVuSans-74" transform="translate(188.574219 0)"/>
      <use xlink:href="#DejaVuSans-69" transform="translate(227.783203 0)"/>
      <use xlink:href="#DejaVuSans-2d" transform="translate(255.566406 0)"/>
      <use xlink:href="#DejaVuSans-69" transform="translate(291.650391 0)"/>
      <use xlink:href="#DejaVuSans-6e" transform="translate(319.433594 0)"/>
      <use xlink:href="#DejaVuSans-70" transform="translate(382.8125 0)"/>
      <use xlink:href="#DejaVuSans-75" transform="translate(446.289062 0)"/>
      <use xlink:href="#DejaVuSans-74" transform="translate(509.667969 0)"/>
      <use xlink:href="#DejaVuSans-20" transform="translate(548.876953 0)"/>
      <use xlink:href="#DejaVuSans-62" transform="translate(580.664062 0)"/>
      <use xlink:href="#DejaVuSans-75" transform="translate(644.140625 0)"/>
      <use xlink:href="#DejaVuSans-6e" transform="translate(707.519531 0)"/>
      <use xlink:href="#DejaVuSans-64" transform="translate(770.898438 0)"/>
      <use xlink:href="#DejaVuSans-6c" transform="translate(834.375 0)"/>
      <use xlink:href="#DejaVuSans-65" transform="translate(862.158203 0)"/>
      <use xlink:href="#DejaVuSans-73" transform="translate(923.681641 0)"/>
     </g>
    </g>
    <g id="patch_66">
     <path d="M 506.457784 50.467031 
L 524.457784 50.467031 
L 524.457784 44.167031 
L 506.457784 44.167031 
z
" style="fill: #ee6677; stroke: #222222; stroke-width: 0.4; stroke-linejoin: miter"/>
    </g>
    <g id="text_37">
     <!-- distinct CIOH wallets -->
     <g transform="translate(531.657784 50.467031) scale(0.09 -0.09)">
      <defs>
       <path id="DejaVuSans-49" d="M 628 4666 
L 1259 4666 
L 1259 0 
L 628 0 
L 628 4666 
z
" transform="scale(0.015625)"/>
       <path id="DejaVuSans-4f" d="M 2522 4238 
Q 1834 4238 1429 3725 
Q 1025 3213 1025 2328 
Q 1025 1447 1429 934 
Q 1834 422 2522 422 
Q 3209 422 3611 934 
Q 4013 1447 4013 2328 
Q 4013 3213 3611 3725 
Q 3209 4238 2522 4238 
z
M 2522 4750 
Q 3503 4750 4090 4092 
Q 4678 3434 4678 2328 
Q 4678 1225 4090 567 
Q 3503 -91 2522 -91 
Q 1538 -91 948 565 
Q 359 1222 359 2328 
Q 359 3434 948 4092 
Q 1538 4750 2522 4750 
z
" transform="scale(0.015625)"/>
       <path id="DejaVuSans-48" d="M 628 4666 
L 1259 4666 
L 1259 2753 
L 3553 2753 
L 3553 4666 
L 4184 4666 
L 4184 0 
L 3553 0 
L 3553 2222 
L 1259 2222 
L 1259 0 
L 628 0 
L 628 4666 
z
" transform="scale(0.015625)"/>
      </defs>
      <use xlink:href="#DejaVuSans-64"/>
      <use xlink:href="#DejaVuSans-69" transform="translate(63.476562 0)"/>
      <use xlink:href="#DejaVuSans-73" transform="translate(91.259766 0)"/>
      <use xlink:href="#DejaVuSans-74" transform="translate(143.359375 0)"/>
      <use xlink:href="#DejaVuSans-69" transform="translate(182.568359 0)"/>
      <use xlink:href="#DejaVuSans-6e" transform="translate(210.351562 0)"/>
      <use xlink:href="#DejaVuSans-63" transform="translate(273.730469 0)"/>
      <use xlink:href="#DejaVuSans-74" transform="translate(328.710938 0)"/>
      <use xlink:href="#DejaVuSans-20" transform="translate(367.919922 0)"/>
      <use xlink:href="#DejaVuSans-43" transform="translate(399.707031 0)"/>
      <use xlink:href="#DejaVuSans-49" transform="translate(469.53125 0)"/>
      <use xlink:href="#DejaVuSans-4f" transform="translate(499.023438 0)"/>
      <use xlink:href="#DejaVuSans-48" transform="translate(577.734375 0)"/>
      <use xlink:href="#DejaVuSans-20" transform="translate(652.929688 0)"/>
      <use xlink:href="#DejaVuSans-77" transform="translate(684.716797 0)"/>
      <use xlink:href="#DejaVuSans-61" transform="translate(766.503906 0)"/>
      <use xlink:href="#DejaVuSans-6c" transform="translate(827.783203 0)"/>
      <use xlink:href="#DejaVuSans-6c" transform="translate(855.566406 0)"/>
      <use xlink:href="#DejaVuSans-65" transform="translate(883.349609 0)"/>
      <use xlink:href="#DejaVuSans-74" transform="translate(944.873047 0)"/>
      <use xlink:href="#DejaVuSans-73" transform="translate(984.082031 0)"/>
     </g>
    </g>
   </g>
  </g>
 </g>
 <defs>
  <clipPath id="pb56bdd211b">
   <rect x="46.445938" y="22.318125" width="586.567315" height="242.65"/>
  </clipPath>
 </defs>
</svg>
