<?xml version="1.0" encoding="utf-8" standalone="no"?>
<!DOCTYPE svg PUBLIC "-//W3C//DTD SVG 1.1//EN"
  "http://www.w3.org/Graphics/SVG/1.1/DTD/svg11.dtd">
<svg xmlns:xlink="http://www.w3.org/1999/xlink" width="432pt" height="259.2pt" viewBox="0 0 432 259.2" xmlns="http://www.w3.org/2000/svg" version="1.1">
 <metadata>
  <rdf:RDF xmlns:dc="http://purl.org/dc/elements/1.1/" xmlns:cc="http://creativecommons.org/ns#" xmlns:rdf="http://www.w3.org/1999/02/22-rdf-syntax-ns#">
   <cc:Work>
    <dc:type rdf:resource="http://purl.org/dc/dcmitype/StillImage"/>
    <dc:date>2026-05-26T16:06:30.607224</dc:date>
    <dc:format>image/svg+xml</dc:format>
    <dc:creator>
     <cc:Agent>
      <dc:title>Matplotlib v3.10.9, https://matplotlib.org/</dc:title>
     </cc:Agent>
    </dc:creator>
   </cc:Work>
  </rdf:RDF>
 </metadata>
 <defs>
  <style type="text/css">*{stroke-linejoin: round; stroke-linecap: butt}</style>
 </defs>
 <g id="figure_1">
  <g id="patch_1">
   <path d="M 0 259.2 
L 432 259.2 
L 432 0 
L 0 0 
z
" style="fill: #ffffff"/>
  </g>
  <g id="axes_1">
   <g id="patch_2">
    <path d="M 44.57 217.24 
L 421.2 217.24 
L 421.2 41.856 
L 44.57 41.856 
z
" style="fill: #ffffff"/>
   </g>
   <g id="matplotlib.axis_1">
    <g id="xtick_1">
     <g id="line2d_1">
      <path d="M 61.689545 217.24 
L 61.689545 41.856 
" clip-path="url(#p65a1997724)" style="fill: none; stroke: #b0b0b0; stroke-opacity: 0.3; stroke-width: 0.8; stroke-linecap: square"/>
     </g>
     <g id="line2d_2">
      <defs>
       <path id="m8a6045c4d9" d="M 0 0 
L 0 3.5 
" style="stroke: #000000; stroke-width: 0.8"/>
      </defs>
      <g>
       <use xlink:href="#m8a6045c4d9" x="61.689545" y="217.24" style="stroke: #000000; stroke-width: 0.8"/>
      </g>
     </g>
     <g id="text_1">
      <!-- 0 -->
      <g transform="translate(58.508295 231.838437) scale(0.1 -0.1)">
       <defs>
        <path id="DejaVuSans-30" d="M 2034 4250 
Q 1547 4250 1301 3770 
Q 1056 3291 1056 2328 
Q 1056 1369 1301 889 
Q 1547 409 2034 409 
Q 2525 409 2770 889 
Q 3016 1369 3016 2328 
Q 3016 3291 2770 3770 
Q 2525 4250 2034 4250 
z
M 2034 4750 
Q 2819 4750 3233 4129 
Q 3647 3509 3647 2328 
Q 3647 1150 3233 529 
Q 2819 -91 2034 -91 
Q 1250 -91 836 529 
Q 422 1150 422 2328 
Q 422 3509 836 4129 
Q 1250 4750 2034 4750 
z
" transform="scale(0.015625)"/>
       </defs>
       <use xlink:href="#DejaVuSans-30"/>
      </g>
     </g>
    </g>
    <g id="xtick_2">
     <g id="line2d_3">
      <path d="M 118.754697 217.24 
L 118.754697 41.856 
" clip-path="url(#p65a1997724)" style="fill: none; stroke: #b0b0b0; stroke-opacity: 0.3; stroke-width: 0.8; stroke-linecap: square"/>
     </g>
     <g id="line2d_4">
      <g>
       <use xlink:href="#m8a6045c4d9" x="118.754697" y="217.24" style="stroke: #000000; stroke-width: 0.8"/>
      </g>
     </g>
     <g id="text_2">
      <!-- 5 -->
      <g transform="translate(115.573447 231.838437) scale(0.1 -0.1)">
       <defs>
        <path id="DejaVuSans-35" d="M 691 4666 
L 3169 4666 
L 3169 4134 
L 1269 4134 
L 1269 2991 
Q 1406 3038 1543 3061 
Q 1681 3084 1819 3084 
Q 2600 3084 3056 2656 
Q 3513 2228 3513 1497 
Q 3513 744 3044 326 
Q 2575 -91 1722 -91 
Q 1428 -91 1123 -41 
Q 819 9 494 109 
L 494 744 
Q 775 591 1075 516 
Q 1375 441 1709 441 
Q 2250 441 2565 725 
Q 2881 1009 2881 1497 
Q 2881 1984 2565 2268 
Q 2250 2553 1709 2553 
Q 1456 2553 1204 2497 
Q 953 2441 691 2322 
L 691 4666 
z
" transform="scale(0.015625)"/>
       </defs>
       <use xlink:href="#DejaVuSans-35"/>
      </g>
     </g>
    </g>
    <g id="xtick_3">
     <g id="line2d_5">
      <path d="M 175.819848 217.24 
L 175.819848 41.856 
" clip-path="url(#p65a1997724)" style="fill: none; stroke: #b0b0b0; stroke-opacity: 0.3; stroke-width: 0.8; stroke-linecap: square"/>
     </g>
     <g id="line2d_6">
      <g>
       <use xlink:href="#m8a6045c4d9" x="175.819848" y="217.24" style="stroke: #000000; stroke-width: 0.8"/>
      </g>
     </g>
     <g id="text_3">
      <!-- 10 -->
      <g transform="translate(169.457348 231.838437) scale(0.1 -0.1)">
       <defs>
        <path id="DejaVuSans-31" d="M 794 531 
L 1825 531 
L 1825 4091 
L 703 3866 
L 703 4441 
L 1819 4666 
L 2450 4666 
L 2450 531 
L 3481 531 
L 3481 0 
L 794 0 
L 794 531 
z
" transform="scale(0.015625)"/>
       </defs>
       <use xlink:href="#DejaVuSans-31"/>
       <use xlink:href="#DejaVuSans-30" transform="translate(63.623047 0)"/>
      </g>
     </g>
    </g>
    <g id="xtick_4">
     <g id="line2d_7">
      <path d="M 232.885 217.24 
L 232.885 41.856 
" clip-path="url(#p65a1997724)" style="fill: none; stroke: #b0b0b0; stroke-opacity: 0.3; stroke-width: 0.8; stroke-linecap: square"/>
     </g>
     <g id="line2d_8">
      <g>
       <use xlink:href="#m8a6045c4d9" x="232.885" y="217.24" style="stroke: #000000; stroke-width: 0.8"/>
      </g>
     </g>
     <g id="text_4">
      <!-- 15 -->
      <g transform="translate(226.5225 231.838437) scale(0.1 -0.1)">
       <use xlink:href="#DejaVuSans-31"/>
       <use xlink:href="#DejaVuSans-35" transform="translate(63.623047 0)"/>
      </g>
     </g>
    </g>
    <g id="xtick_5">
     <g id="line2d_9">
      <path d="M 289.950152 217.24 
L 289.950152 41.856 
" clip-path="url(#p65a1997724)" style="fill: none; stroke: #b0b0b0; stroke-opacity: 0.3; stroke-width: 0.8; stroke-linecap: square"/>
     </g>
     <g id="line2d_10">
      <g>
       <use xlink:href="#m8a6045c4d9" x="289.950152" y="217.24" style="stroke: #000000; stroke-width: 0.8"/>
      </g>
     </g>
     <g id="text_5">
      <!-- 20 -->
      <g transform="translate(283.587652 231.838437) scale(0.1 -0.1)">
       <defs>
        <path id="DejaVuSans-32" d="M 1228 531 
L 3431 531 
L 3431 0 
L 469 0 
L 469 531 
Q 828 903 1448 1529 
Q 2069 2156 2228 2338 
Q 2531 2678 2651 2914 
Q 2772 3150 2772 3378 
Q 2772 3750 2511 3984 
Q 2250 4219 1831 4219 
Q 1534 4219 1204 4116 
Q 875 4013 500 3803 
L 500 4441 
Q 881 4594 1212 4672 
Q 1544 4750 1819 4750 
Q 2544 4750 2975 4387 
Q 3406 4025 3406 3419 
Q 3406 3131 3298 2873 
Q 3191 2616 2906 2266 
Q 2828 2175 2409 1742 
Q 1991 1309 1228 531 
z
" transform="scale(0.015625)"/>
       </defs>
       <use xlink:href="#DejaVuSans-32"/>
       <use xlink:href="#DejaVuSans-30" transform="translate(63.623047 0)"/>
      </g>
     </g>
    </g>
    <g id="xtick_6">
     <g id="line2d_11">
      <path d="M 347.015303 217.24 
L 347.015303 41.856 
" clip-path="url(#p65a1997724)" style="fill: none; stroke: #b0b0b0; stroke-opacity: 0.3; stroke-width: 0.8; stroke-linecap: square"/>
     </g>
     <g id="line2d_12">
      <g>
       <use xlink:href="#m8a6045c4d9" x="347.015303" y="217.24" style="stroke: #000000; stroke-width: 0.8"/>
      </g>
     </g>
     <g id="text_6">
      <!-- 25 -->
      <g transform="translate(340.652803 231.838437) scale(0.1 -0.1)">
       <use xlink:href="#DejaVuSans-32"/>
       <use xlink:href="#DejaVuSans-35" transform="translate(63.623047 0)"/>
      </g>
     </g>
    </g>
    <g id="xtick_7">
     <g id="line2d_13">
      <path d="M 404.080455 217.24 
L 404.080455 41.856 
" clip-path="url(#p65a1997724)" style="fill: none; stroke: #b0b0b0; stroke-opacity: 0.3; stroke-width: 0.8; stroke-linecap: square"/>
     </g>
     <g id="line2d_14">
      <g>
       <use xlink:href="#m8a6045c4d9" x="404.080455" y="217.24" style="stroke: #000000; stroke-width: 0.8"/>
      </g>
     </g>
     <g id="text_7">
      <!-- 30 -->
      <g transform="translate(397.717955 231.838437) scale(0.1 -0.1)">
       <defs>
        <path id="DejaVuSans-33" d="M 2597 2516 
Q 3050 2419 3304 2112 
Q 3559 1806 3559 1356 
Q 3559 666 3084 287 
Q 2609 -91 1734 -91 
Q 1441 -91 1130 -33 
Q 819 25 488 141 
L 488 750 
Q 750 597 1062 519 
Q 1375 441 1716 441 
Q 2309 441 2620 675 
Q 2931 909 2931 1356 
Q 2931 1769 2642 2001 
Q 2353 2234 1838 2234 
L 1294 2234 
L 1294 2753 
L 1863 2753 
Q 2328 2753 2575 2939 
Q 2822 3125 2822 3475 
Q 2822 3834 2567 4026 
Q 2313 4219 1838 4219 
Q 1578 4219 1281 4162 
Q 984 4106 628 3988 
L 628 4550 
Q 988 4650 1302 4700 
Q 1616 4750 1894 4750 
Q 2613 4750 3031 4423 
Q 3450 4097 3450 3541 
Q 3450 3153 3228 2886 
Q 3006 2619 2597 2516 
z
" transform="scale(0.015625)"/>
       </defs>
       <use xlink:href="#DejaVuSans-33"/>
       <use xlink:href="#DejaVuSans-30" transform="translate(63.623047 0)"/>
      </g>
     </g>
    </g>
    <g id="text_8">
     <!-- tolerance band (percent) -->
     <g transform="translate(170.476406 245.516562) scale(0.1 -0.1)">
      <defs>
       <path id="DejaVuSans-74" d="M 1172 4494 
L 1172 3500 
L 2356 3500 
L 2356 3053 
L 1172 3053 
L 1172 1153 
Q 1172 725 1289 603 
Q 1406 481 1766 481 
L 2356 481 
L 2356 0 
L 1766 0 
Q 1100 0 847 248 
Q 594 497 594 1153 
L 594 3053 
L 172 3053 
L 172 3500 
L 594 3500 
L 594 4494 
L 1172 4494 
z
" transform="scale(0.015625)"/>
       <path id="DejaVuSans-6f" d="M 1959 3097 
Q 1497 3097 1228 2736 
Q 959 2375 959 1747 
Q 959 1119 1226 758 
Q 1494 397 1959 397 
Q 2419 397 2687 759 
Q 2956 1122 2956 1747 
Q 2956 2369 2687 2733 
Q 2419 3097 1959 3097 
z
M 1959 3584 
Q 2709 3584 3137 3096 
Q 3566 2609 3566 1747 
Q 3566 888 3137 398 
Q 2709 -91 1959 -91 
Q 1206 -91 779 398 
Q 353 888 353 1747 
Q 353 2609 779 3096 
Q 1206 3584 1959 3584 
z
" transform="scale(0.015625)"/>
       <path id="DejaVuSans-6c" d="M 603 4863 
L 1178 4863 
L 1178 0 
L 603 0 
L 603 4863 
z
" transform="scale(0.015625)"/>
       <path id="DejaVuSans-65" d="M 3597 1894 
L 3597 1613 
L 953 1613 
Q 991 1019 1311 708 
Q 1631 397 2203 397 
Q 2534 397 2845 478 
Q 3156 559 3463 722 
L 3463 178 
Q 3153 47 2828 -22 
Q 2503 -91 2169 -91 
Q 1331 -91 842 396 
Q 353 884 353 1716 
Q 353 2575 817 3079 
Q 1281 3584 2069 3584 
Q 2775 3584 3186 3129 
Q 3597 2675 3597 1894 
z
M 3022 2063 
Q 3016 2534 2758 2815 
Q 2500 3097 2075 3097 
Q 1594 3097 1305 2825 
Q 1016 2553 972 2059 
L 3022 2063 
z
" transform="scale(0.015625)"/>
       <path id="DejaVuSans-72" d="M 2631 2963 
Q 2534 3019 2420 3045 
Q 2306 3072 2169 3072 
Q 1681 3072 1420 2755 
Q 1159 2438 1159 1844 
L 1159 0 
L 581 0 
L 581 3500 
L 1159 3500 
L 1159 2956 
Q 1341 3275 1631 3429 
Q 1922 3584 2338 3584 
Q 2397 3584 2469 3576 
Q 2541 3569 2628 3553 
L 2631 2963 
z
" transform="scale(0.015625)"/>
       <path id="DejaVuSans-61" d="M 2194 1759 
Q 1497 1759 1228 1600 
Q 959 1441 959 1056 
Q 959 750 1161 570 
Q 1363 391 1709 391 
Q 2188 391 2477 730 
Q 2766 1069 2766 1631 
L 2766 1759 
L 2194 1759 
z
M 3341 1997 
L 3341 0 
L 2766 0 
L 2766 531 
Q 2569 213 2275 61 
Q 1981 -91 1556 -91 
Q 1019 -91 701 211 
Q 384 513 384 1019 
Q 384 1609 779 1909 
Q 1175 2209 1959 2209 
L 2766 2209 
L 2766 2266 
Q 2766 2663 2505 2880 
Q 2244 3097 1772 3097 
Q 1472 3097 1187 3025 
Q 903 2953 641 2809 
L 641 3341 
Q 956 3463 1253 3523 
Q 1550 3584 1831 3584 
Q 2591 3584 2966 3190 
Q 3341 2797 3341 1997 
z
" transform="scale(0.015625)"/>
       <path id="DejaVuSans-6e" d="M 3513 2113 
L 3513 0 
L 2938 0 
L 2938 2094 
Q 2938 2591 2744 2837 
Q 2550 3084 2163 3084 
Q 1697 3084 1428 2787 
Q 1159 2491 1159 1978 
L 1159 0 
L 581 0 
L 581 3500 
L 1159 3500 
L 1159 2956 
Q 1366 3272 1645 3428 
Q 1925 3584 2291 3584 
Q 2894 3584 3203 3211 
Q 3513 2838 3513 2113 
z
" transform="scale(0.015625)"/>
       <path id="DejaVuSans-63" d="M 3122 3366 
L 3122 2828 
Q 2878 2963 2633 3030 
Q 2388 3097 2138 3097 
Q 1578 3097 1268 2742 
Q 959 2388 959 1747 
Q 959 1106 1268 751 
Q 1578 397 2138 397 
Q 2388 397 2633 464 
Q 2878 531 3122 666 
L 3122 134 
Q 2881 22 2623 -34 
Q 2366 -91 2075 -91 
Q 1284 -91 818 406 
Q 353 903 353 1747 
Q 353 2603 823 3093 
Q 1294 3584 2113 3584 
Q 2378 3584 2631 3529 
Q 2884 3475 3122 3366 
z
" transform="scale(0.015625)"/>
       <path id="DejaVuSans-20" transform="scale(0.015625)"/>
       <path id="DejaVuSans-62" d="M 3116 1747 
Q 3116 2381 2855 2742 
Q 2594 3103 2138 3103 
Q 1681 3103 1420 2742 
Q 1159 2381 1159 1747 
Q 1159 1113 1420 752 
Q 1681 391 2138 391 
Q 2594 391 2855 752 
Q 3116 1113 3116 1747 
z
M 1159 2969 
Q 1341 3281 1617 3432 
Q 1894 3584 2278 3584 
Q 2916 3584 3314 3078 
Q 3713 2572 3713 1747 
Q 3713 922 3314 415 
Q 2916 -91 2278 -91 
Q 1894 -91 1617 61 
Q 1341 213 1159 525 
L 1159 0 
L 581 0 
L 581 4863 
L 1159 4863 
L 1159 2969 
z
" transform="scale(0.015625)"/>
       <path id="DejaVuSans-64" d="M 2906 2969 
L 2906 4863 
L 3481 4863 
L 3481 0 
L 2906 0 
L 2906 525 
Q 2725 213 2448 61 
Q 2172 -91 1784 -91 
Q 1150 -91 751 415 
Q 353 922 353 1747 
Q 353 2572 751 3078 
Q 1150 3584 1784 3584 
Q 2172 3584 2448 3432 
Q 2725 3281 2906 2969 
z
M 947 1747 
Q 947 1113 1208 752 
Q 1469 391 1925 391 
Q 2381 391 2643 752 
Q 2906 1113 2906 1747 
Q 2906 2381 2643 2742 
Q 2381 3103 1925 3103 
Q 1469 3103 1208 2742 
Q 947 2381 947 1747 
z
" transform="scale(0.015625)"/>
       <path id="DejaVuSans-28" d="M 1984 4856 
Q 1566 4138 1362 3434 
Q 1159 2731 1159 2009 
Q 1159 1288 1364 580 
Q 1569 -128 1984 -844 
L 1484 -844 
Q 1016 -109 783 600 
Q 550 1309 550 2009 
Q 550 2706 781 3412 
Q 1013 4119 1484 4856 
L 1984 4856 
z
" transform="scale(0.015625)"/>
       <path id="DejaVuSans-70" d="M 1159 525 
L 1159 -1331 
L 581 -1331 
L 581 3500 
L 1159 3500 
L 1159 2969 
Q 1341 3281 1617 3432 
Q 1894 3584 2278 3584 
Q 2916 3584 3314 3078 
Q 3713 2572 3713 1747 
Q 3713 922 3314 415 
Q 2916 -91 2278 -91 
Q 1894 -91 1617 61 
Q 1341 213 1159 525 
z
M 3116 1747 
Q 3116 2381 2855 2742 
Q 2594 3103 2138 3103 
Q 1681 3103 1420 2742 
Q 1159 2381 1159 1747 
Q 1159 1113 1420 752 
Q 1681 391 2138 391 
Q 2594 391 2855 752 
Q 3116 1113 3116 1747 
z
" transform="scale(0.015625)"/>
       <path id="DejaVuSans-29" d="M 513 4856 
L 1013 4856 
Q 1481 4119 1714 3412 
Q 1947 2706 1947 2009 
Q 1947 1309 1714 600 
Q 1481 -109 1013 -844 
L 513 -844 
Q 928 -128 1133 580 
Q 1338 1288 1338 2009 
Q 1338 2731 1133 3434 
Q 928 4138 513 4856 
z
" transform="scale(0.015625)"/>
      </defs>
      <use xlink:href="#DejaVuSans-74"/>
      <use xlink:href="#DejaVuSans-6f" transform="translate(39.208984 0)"/>
      <use xlink:href="#DejaVuSans-6c" transform="translate(100.390625 0)"/>
      <use xlink:href="#DejaVuSans-65" transform="translate(128.173828 0)"/>
      <use xlink:href="#DejaVuSans-72" transform="translate(189.697266 0)"/>
      <use xlink:href="#DejaVuSans-61" transform="translate(230.810547 0)"/>
      <use xlink:href="#DejaVuSans-6e" transform="translate(292.089844 0)"/>
      <use xlink:href="#DejaVuSans-63" transform="translate(355.46875 0)"/>
      <use xlink:href="#DejaVuSans-65" transform="translate(410.449219 0)"/>
      <use xlink:href="#DejaVuSans-20" transform="translate(471.972656 0)"/>
      <use xlink:href="#DejaVuSans-62" transform="translate(503.759766 0)"/>
      <use xlink:href="#DejaVuSans-61" transform="translate(567.236328 0)"/>
      <use xlink:href="#DejaVuSans-6e" transform="translate(628.515625 0)"/>
      <use xlink:href="#DejaVuSans-64" transform="translate(691.894531 0)"/>
      <use xlink:href="#DejaVuSans-20" transform="translate(755.371094 0)"/>
      <use xlink:href="#DejaVuSans-28" transform="translate(787.158203 0)"/>
      <use xlink:href="#DejaVuSans-70" transform="translate(826.171875 0)"/>
      <use xlink:href="#DejaVuSans-65" transform="translate(889.648438 0)"/>
      <use xlink:href="#DejaVuSans-72" transform="translate(951.171875 0)"/>
      <use xlink:href="#DejaVuSans-63" transform="translate(990.035156 0)"/>
      <use xlink:href="#DejaVuSans-65" transform="translate(1045.015625 0)"/>
      <use xlink:href="#DejaVuSans-6e" transform="translate(1106.539062 0)"/>
      <use xlink:href="#DejaVuSans-74" transform="translate(1169.917969 0)"/>
      <use xlink:href="#DejaVuSans-29" transform="translate(1209.126953 0)"/>
     </g>
    </g>
   </g>
   <g id="matplotlib.axis_2">
    <g id="ytick_1">
     <g id="line2d_15">
      <path d="M 44.57 209.268 
L 421.2 209.268 
" clip-path="url(#p65a1997724)" style="fill: none; stroke: #b0b0b0; stroke-opacity: 0.3; stroke-width: 0.8; stroke-linecap: square"/>
     </g>
     <g id="line2d_16">
      <defs>
       <path id="me88aa7e45a" d="M 0 0 
L -3.5 0 
" style="stroke: #000000; stroke-width: 0.8"/>
      </defs>
      <g>
       <use xlink:href="#me88aa7e45a" x="44.57" y="209.268" style="stroke: #000000; stroke-width: 0.8"/>
      </g>
     </g>
     <g id="text_9">
      <!-- 0 -->
      <g transform="translate(31.2075 213.067219) scale(0.1 -0.1)">
       <use xlink:href="#DejaVuSans-30"/>
      </g>
     </g>
    </g>
    <g id="ytick_2">
     <g id="line2d_17">
      <path d="M 44.57 185.110969 
L 421.2 185.110969 
" clip-path="url(#p65a1997724)" style="fill: none; stroke: #b0b0b0; stroke-opacity: 0.3; stroke-width: 0.8; stroke-linecap: square"/>
     </g>
     <g id="line2d_18">
      <g>
       <use xlink:href="#me88aa7e45a" x="44.57" y="185.110969" style="stroke: #000000; stroke-width: 0.8"/>
      </g>
     </g>
     <g id="text_10">
      <!-- 5 -->
      <g transform="translate(31.2075 188.910187) scale(0.1 -0.1)">
       <use xlink:href="#DejaVuSans-35"/>
      </g>
     </g>
    </g>
    <g id="ytick_3">
     <g id="line2d_19">
      <path d="M 44.57 160.953937 
L 421.2 160.953937 
" clip-path="url(#p65a1997724)" style="fill: none; stroke: #b0b0b0; stroke-opacity: 0.3; stroke-width: 0.8; stroke-linecap: square"/>
     </g>
     <g id="line2d_20">
      <g>
       <use xlink:href="#me88aa7e45a" x="44.57" y="160.953937" style="stroke: #000000; stroke-width: 0.8"/>
      </g>
     </g>
     <g id="text_11">
      <!-- 10 -->
      <g transform="translate(24.845 164.753156) scale(0.1 -0.1)">
       <use xlink:href="#DejaVuSans-31"/>
       <use xlink:href="#DejaVuSans-30" transform="translate(63.623047 0)"/>
      </g>
     </g>
    </g>
    <g id="ytick_4">
     <g id="line2d_21">
      <path d="M 44.57 136.796906 
L 421.2 136.796906 
" clip-path="url(#p65a1997724)" style="fill: none; stroke: #b0b0b0; stroke-opacity: 0.3; stroke-width: 0.8; stroke-linecap: square"/>
     </g>
     <g id="line2d_22">
      <g>
       <use xlink:href="#me88aa7e45a" x="44.57" y="136.796906" style="stroke: #000000; stroke-width: 0.8"/>
      </g>
     </g>
     <g id="text_12">
      <!-- 15 -->
      <g transform="translate(24.845 140.596125) scale(0.1 -0.1)">
       <use xlink:href="#DejaVuSans-31"/>
       <use xlink:href="#DejaVuSans-35" transform="translate(63.623047 0)"/>
      </g>
     </g>
    </g>
    <g id="ytick_5">
     <g id="line2d_23">
      <path d="M 44.57 112.639875 
L 421.2 112.639875 
" clip-path="url(#p65a1997724)" style="fill: none; stroke: #b0b0b0; stroke-opacity: 0.3; stroke-width: 0.8; stroke-linecap: square"/>
     </g>
     <g id="line2d_24">
      <g>
       <use xlink:href="#me88aa7e45a" x="44.57" y="112.639875" style="stroke: #000000; stroke-width: 0.8"/>
      </g>
     </g>
     <g id="text_13">
      <!-- 20 -->
      <g transform="translate(24.845 116.439093) scale(0.1 -0.1)">
       <use xlink:href="#DejaVuSans-32"/>
       <use xlink:href="#DejaVuSans-30" transform="translate(63.623047 0)"/>
      </g>
     </g>
    </g>
    <g id="ytick_6">
     <g id="line2d_25">
      <path d="M 44.57 88.482843 
L 421.2 88.482843 
" clip-path="url(#p65a1997724)" style="fill: none; stroke: #b0b0b0; stroke-opacity: 0.3; stroke-width: 0.8; stroke-linecap: square"/>
     </g>
     <g id="line2d_26">
      <g>
       <use xlink:href="#me88aa7e45a" x="44.57" y="88.482843" style="stroke: #000000; stroke-width: 0.8"/>
      </g>
     </g>
     <g id="text_14">
      <!-- 25 -->
      <g transform="translate(24.845 92.282062) scale(0.1 -0.1)">
       <use xlink:href="#DejaVuSans-32"/>
       <use xlink:href="#DejaVuSans-35" transform="translate(63.623047 0)"/>
      </g>
     </g>
    </g>
    <g id="ytick_7">
     <g id="line2d_27">
      <path d="M 44.57 64.325812 
L 421.2 64.325812 
" clip-path="url(#p65a1997724)" style="fill: none; stroke: #b0b0b0; stroke-opacity: 0.3; stroke-width: 0.8; stroke-linecap: square"/>
     </g>
     <g id="line2d_28">
      <g>
       <use xlink:href="#me88aa7e45a" x="44.57" y="64.325812" style="stroke: #000000; stroke-width: 0.8"/>
      </g>
     </g>
     <g id="text_15">
      <!-- 30 -->
      <g transform="translate(24.845 68.125031) scale(0.1 -0.1)">
       <use xlink:href="#DejaVuSans-33"/>
       <use xlink:href="#DejaVuSans-30" transform="translate(63.623047 0)"/>
      </g>
     </g>
    </g>
    <g id="text_16">
     <!-- attribution rate (percent of cross-CJ reuses) -->
     <g transform="translate(18.765313 238.073781) rotate(-90) scale(0.1 -0.1)">
      <defs>
       <path id="DejaVuSans-69" d="M 603 3500 
L 1178 3500 
L 1178 0 
L 603 0 
L 603 3500 
z
M 603 4863 
L 1178 4863 
L 1178 4134 
L 603 4134 
L 603 4863 
z
" transform="scale(0.015625)"/>
       <path id="DejaVuSans-75" d="M 544 1381 
L 544 3500 
L 1119 3500 
L 1119 1403 
Q 1119 906 1312 657 
Q 1506 409 1894 409 
Q 2359 409 2629 706 
Q 2900 1003 2900 1516 
L 2900 3500 
L 3475 3500 
L 3475 0 
L 2900 0 
L 2900 538 
Q 2691 219 2414 64 
Q 2138 -91 1772 -91 
Q 1169 -91 856 284 
Q 544 659 544 1381 
z
M 1991 3584 
L 1991 3584 
z
" transform="scale(0.015625)"/>
       <path id="DejaVuSans-66" d="M 2375 4863 
L 2375 4384 
L 1825 4384 
Q 1516 4384 1395 4259 
Q 1275 4134 1275 3809 
L 1275 3500 
L 2222 3500 
L 2222 3053 
L 1275 3053 
L 1275 0 
L 697 0 
L 697 3053 
L 147 3053 
L 147 3500 
L 697 3500 
L 697 3744 
Q 697 4328 969 4595 
Q 1241 4863 1831 4863 
L 2375 4863 
z
" transform="scale(0.015625)"/>
       <path id="DejaVuSans-73" d="M 2834 3397 
L 2834 2853 
Q 2591 2978 2328 3040 
Q 2066 3103 1784 3103 
Q 1356 3103 1142 2972 
Q 928 2841 928 2578 
Q 928 2378 1081 2264 
Q 1234 2150 1697 2047 
L 1894 2003 
Q 2506 1872 2764 1633 
Q 3022 1394 3022 966 
Q 3022 478 2636 193 
Q 2250 -91 1575 -91 
Q 1294 -91 989 -36 
Q 684 19 347 128 
L 347 722 
Q 666 556 975 473 
Q 1284 391 1588 391 
Q 1994 391 2212 530 
Q 2431 669 2431 922 
Q 2431 1156 2273 1281 
Q 2116 1406 1581 1522 
L 1381 1569 
Q 847 1681 609 1914 
Q 372 2147 372 2553 
Q 372 3047 722 3315 
Q 1072 3584 1716 3584 
Q 2034 3584 2315 3537 
Q 2597 3491 2834 3397 
z
" transform="scale(0.015625)"/>
       <path id="DejaVuSans-2d" d="M 313 2009 
L 1997 2009 
L 1997 1497 
L 313 1497 
L 313 2009 
z
" transform="scale(0.015625)"/>
       <path id="DejaVuSans-43" d="M 4122 4306 
L 4122 3641 
Q 3803 3938 3442 4084 
Q 3081 4231 2675 4231 
Q 1875 4231 1450 3742 
Q 1025 3253 1025 2328 
Q 1025 1406 1450 917 
Q 1875 428 2675 428 
Q 3081 428 3442 575 
Q 3803 722 4122 1019 
L 4122 359 
Q 3791 134 3420 21 
Q 3050 -91 2638 -91 
Q 1578 -91 968 557 
Q 359 1206 359 2328 
Q 359 3453 968 4101 
Q 1578 4750 2638 4750 
Q 3056 4750 3426 4639 
Q 3797 4528 4122 4306 
z
" transform="scale(0.015625)"/>
       <path id="DejaVuSans-4a" d="M 628 4666 
L 1259 4666 
L 1259 325 
Q 1259 -519 939 -900 
Q 619 -1281 -91 -1281 
L -331 -1281 
L -331 -750 
L -134 -750 
Q 284 -750 456 -515 
Q 628 -281 628 325 
L 628 4666 
z
" transform="scale(0.015625)"/>
      </defs>
      <use xlink:href="#DejaVuSans-61"/>
      <use xlink:href="#DejaVuSans-74" transform="translate(61.279297 0)"/>
      <use xlink:href="#DejaVuSans-74" transform="translate(100.488281 0)"/>
      <use xlink:href="#DejaVuSans-72" transform="translate(139.697266 0)"/>
      <use xlink:href="#DejaVuSans-69" transform="translate(180.810547 0)"/>
      <use xlink:href="#DejaVuSans-62" transform="translate(208.59375 0)"/>
      <use xlink:href="#DejaVuSans-75" transform="translate(272.070312 0)"/>
      <use xlink:href="#DejaVuSans-74" transform="translate(335.449219 0)"/>
      <use xlink:href="#DejaVuSans-69" transform="translate(374.658203 0)"/>
      <use xlink:href="#DejaVuSans-6f" transform="translate(402.441406 0)"/>
      <use xlink:href="#DejaVuSans-6e" transform="translate(463.623047 0)"/>
      <use xlink:href="#DejaVuSans-20" transform="translate(527.001953 0)"/>
      <use xlink:href="#DejaVuSans-72" transform="translate(558.789062 0)"/>
      <use xlink:href="#DejaVuSans-61" transform="translate(599.902344 0)"/>
      <use xlink:href="#DejaVuSans-74" transform="translate(661.181641 0)"/>
      <use xlink:href="#DejaVuSans-65" transform="translate(700.390625 0)"/>
      <use xlink:href="#DejaVuSans-20" transform="translate(761.914062 0)"/>
      <use xlink:href="#DejaVuSans-28" transform="translate(793.701172 0)"/>
      <use xlink:href="#DejaVuSans-70" transform="translate(832.714844 0)"/>
      <use xlink:href="#DejaVuSans-65" transform="translate(896.191406 0)"/>
      <use xlink:href="#DejaVuSans-72" transform="translate(957.714844 0)"/>
      <use xlink:href="#DejaVuSans-63" transform="translate(996.578125 0)"/>
      <use xlink:href="#DejaVuSans-65" transform="translate(1051.558594 0)"/>
      <use xlink:href="#DejaVuSans-6e" transform="translate(1113.082031 0)"/>
      <use xlink:href="#DejaVuSans-74" transform="translate(1176.460938 0)"/>
      <use xlink:href="#DejaVuSans-20" transform="translate(1215.669922 0)"/>
      <use xlink:href="#DejaVuSans-6f" transform="translate(1247.457031 0)"/>
      <use xlink:href="#DejaVuSans-66" transform="translate(1308.638672 0)"/>
      <use xlink:href="#DejaVuSans-20" transform="translate(1343.84375 0)"/>
      <use xlink:href="#DejaVuSans-63" transform="translate(1375.630859 0)"/>
      <use xlink:href="#DejaVuSans-72" transform="translate(1430.611328 0)"/>
      <use xlink:href="#DejaVuSans-6f" transform="translate(1469.474609 0)"/>
      <use xlink:href="#DejaVuSans-73" transform="translate(1530.65625 0)"/>
      <use xlink:href="#DejaVuSans-73" transform="translate(1582.755859 0)"/>
      <use xlink:href="#DejaVuSans-2d" transform="translate(1634.855469 0)"/>
      <use xlink:href="#DejaVuSans-43" transform="translate(1670.939453 0)"/>
      <use xlink:href="#DejaVuSans-4a" transform="translate(1740.763672 0)"/>
      <use xlink:href="#DejaVuSans-20" transform="translate(1770.255859 0)"/>
      <use xlink:href="#DejaVuSans-72" transform="translate(1802.042969 0)"/>
      <use xlink:href="#DejaVuSans-65" transform="translate(1840.90625 0)"/>
      <use xlink:href="#DejaVuSans-75" transform="translate(1902.429688 0)"/>
      <use xlink:href="#DejaVuSans-73" transform="translate(1965.808594 0)"/>
      <use xlink:href="#DejaVuSans-65" transform="translate(2017.908203 0)"/>
      <use xlink:href="#DejaVuSans-73" transform="translate(2079.431641 0)"/>
      <use xlink:href="#DejaVuSans-29" transform="translate(2131.53125 0)"/>
     </g>
    </g>
   </g>
   <g id="line2d_29">
    <path d="M 61.689545 92.854344 
L 118.754697 49.828 
L 175.819848 51.414915 
L 232.885 55.157638 
L 289.950152 65.008485 
L 347.015303 72.853232 
L 404.080455 81.506408 
" clip-path="url(#p65a1997724)" style="fill: none; stroke: #1f77b4; stroke-width: 1.5; stroke-linecap: square"/>
    <defs>
     <path id="m1057bc12dc" d="M 0 3 
C 0.795609 3 1.55874 2.683901 2.12132 2.12132 
C 2.683901 1.55874 3 0.795609 3 0 
C 3 -0.795609 2.683901 -1.55874 2.12132 -2.12132 
C 1.55874 -2.683901 0.795609 -3 0 -3 
C -0.795609 -3 -1.55874 -2.683901 -2.12132 -2.12132 
C -2.683901 -1.55874 -3 -0.795609 -3 0 
C -3 0.795609 -2.683901 1.55874 -2.12132 2.12132 
C -1.55874 2.683901 -0.795609 3 0 3 
z
" style="stroke: #1f77b4"/>
    </defs>
    <g clip-path="url(#p65a1997724)">
     <use xlink:href="#m1057bc12dc" x="61.689545" y="92.854344" style="fill: #1f77b4; stroke: #1f77b4"/>
     <use xlink:href="#m1057bc12dc" x="118.754697" y="49.828" style="fill: #1f77b4; stroke: #1f77b4"/>
     <use xlink:href="#m1057bc12dc" x="175.819848" y="51.414915" style="fill: #1f77b4; stroke: #1f77b4"/>
     <use xlink:href="#m1057bc12dc" x="232.885" y="55.157638" style="fill: #1f77b4; stroke: #1f77b4"/>
     <use xlink:href="#m1057bc12dc" x="289.950152" y="65.008485" style="fill: #1f77b4; stroke: #1f77b4"/>
     <use xlink:href="#m1057bc12dc" x="347.015303" y="72.853232" style="fill: #1f77b4; stroke: #1f77b4"/>
     <use xlink:href="#m1057bc12dc" x="404.080455" y="81.506408" style="fill: #1f77b4; stroke: #1f77b4"/>
    </g>
   </g>
   <g id="line2d_30">
    <path d="M 61.689545 202.56104 
L 118.754697 183.158764 
L 175.819848 177.70936 
L 232.885 177.559651 
L 289.950152 176.960815 
L 347.015303 177.020699 
L 404.080455 179.326216 
" clip-path="url(#p65a1997724)" style="fill: none; stroke: #ff7f0e; stroke-width: 1.5; stroke-linecap: square"/>
    <defs>
     <path id="ma1ad7a8c5f" d="M 0 3 
C 0.795609 3 1.55874 2.683901 2.12132 2.12132 
C 2.683901 1.55874 3 0.795609 3 0 
C 3 -0.795609 2.683901 -1.55874 2.12132 -2.12132 
C 1.55874 -2.683901 0.795609 -3 0 -3 
C -0.795609 -3 -1.55874 -2.683901 -2.12132 -2.12132 
C -2.683901 -1.55874 -3 -0.795609 -3 0 
C -3 0.795609 -2.683901 1.55874 -2.12132 2.12132 
C -1.55874 2.683901 -0.795609 3 0 3 
z
" style="stroke: #ff7f0e"/>
    </defs>
    <g clip-path="url(#p65a1997724)">
     <use xlink:href="#ma1ad7a8c5f" x="61.689545" y="202.56104" style="fill: #ff7f0e; stroke: #ff7f0e"/>
     <use xlink:href="#ma1ad7a8c5f" x="118.754697" y="183.158764" style="fill: #ff7f0e; stroke: #ff7f0e"/>
     <use xlink:href="#ma1ad7a8c5f" x="175.819848" y="177.70936" style="fill: #ff7f0e; stroke: #ff7f0e"/>
     <use xlink:href="#ma1ad7a8c5f" x="232.885" y="177.559651" style="fill: #ff7f0e; stroke: #ff7f0e"/>
     <use xlink:href="#ma1ad7a8c5f" x="289.950152" y="176.960815" style="fill: #ff7f0e; stroke: #ff7f0e"/>
     <use xlink:href="#ma1ad7a8c5f" x="347.015303" y="177.020699" style="fill: #ff7f0e; stroke: #ff7f0e"/>
     <use xlink:href="#ma1ad7a8c5f" x="404.080455" y="179.326216" style="fill: #ff7f0e; stroke: #ff7f0e"/>
    </g>
   </g>
   <g id="line2d_31">
    <path d="M 61.689545 209.268 
L 118.754697 209.268 
L 175.819848 209.268 
L 232.885 209.268 
L 289.950152 209.268 
L 347.015303 209.268 
L 404.080455 209.268 
" clip-path="url(#p65a1997724)" style="fill: none; stroke: #2ca02c; stroke-width: 1.5; stroke-linecap: square"/>
    <defs>
     <path id="m1145eb077a" d="M 0 3 
C 0.795609 3 1.55874 2.683901 2.12132 2.12132 
C 2.683901 1.55874 3 0.795609 3 0 
C 3 -0.795609 2.683901 -1.55874 2.12132 -2.12132 
C 1.55874 -2.683901 0.795609 -3 0 -3 
C -0.795609 -3 -1.55874 -2.683901 -2.12132 -2.12132 
C -2.683901 -1.55874 -3 -0.795609 -3 0 
C -3 0.795609 -2.683901 1.55874 -2.12132 2.12132 
C -1.55874 2.683901 -0.795609 3 0 3 
z
" style="stroke: #2ca02c"/>
    </defs>
    <g clip-path="url(#p65a1997724)">
     <use xlink:href="#m1145eb077a" x="61.689545" y="209.268" style="fill: #2ca02c; stroke: #2ca02c"/>
     <use xlink:href="#m1145eb077a" x="118.754697" y="209.268" style="fill: #2ca02c; stroke: #2ca02c"/>
     <use xlink:href="#m1145eb077a" x="175.819848" y="209.268" style="fill: #2ca02c; stroke: #2ca02c"/>
     <use xlink:href="#m1145eb077a" x="232.885" y="209.268" style="fill: #2ca02c; stroke: #2ca02c"/>
     <use xlink:href="#m1145eb077a" x="289.950152" y="209.268" style="fill: #2ca02c; stroke: #2ca02c"/>
     <use xlink:href="#m1145eb077a" x="347.015303" y="209.268" style="fill: #2ca02c; stroke: #2ca02c"/>
     <use xlink:href="#m1145eb077a" x="404.080455" y="209.268" style="fill: #2ca02c; stroke: #2ca02c"/>
    </g>
   </g>
   <g id="patch_3">
    <path d="M 44.57 217.24 
L 44.57 41.856 
" style="fill: none; stroke: #000000; stroke-width: 0.8; stroke-linejoin: miter; stroke-linecap: square"/>
   </g>
   <g id="patch_4">
    <path d="M 421.2 217.24 
L 421.2 41.856 
" style="fill: none; stroke: #000000; stroke-width: 0.8; stroke-linejoin: miter; stroke-linecap: square"/>
   </g>
   <g id="patch_5">
    <path d="M 44.57 217.24 
L 421.2 217.24 
" style="fill: none; stroke: #000000; stroke-width: 0.8; stroke-linejoin: miter; stroke-linecap: square"/>
   </g>
   <g id="patch_6">
    <path d="M 44.57 41.856 
L 421.2 41.856 
" style="fill: none; stroke: #000000; stroke-width: 0.8; stroke-linejoin: miter; stroke-linecap: square"/>
   </g>
   <g id="text_17">
    <!-- v7 attribution rate vs tolerance band, 1y mainnet corpus -->
    <g transform="translate(62.074375 22.418625) scale(0.12 -0.12)">
     <defs>
      <path id="DejaVuSans-76" d="M 191 3500 
L 800 3500 
L 1894 563 
L 2988 3500 
L 3597 3500 
L 2284 0 
L 1503 0 
L 191 3500 
z
" transform="scale(0.015625)"/>
      <path id="DejaVuSans-37" d="M 525 4666 
L 3525 4666 
L 3525 4397 
L 1831 0 
L 1172 0 
L 2766 4134 
L 525 4134 
L 525 4666 
z
" transform="scale(0.015625)"/>
      <path id="DejaVuSans-2c" d="M 750 794 
L 1409 794 
L 1409 256 
L 897 -744 
L 494 -744 
L 750 256 
L 750 794 
z
" transform="scale(0.015625)"/>
      <path id="DejaVuSans-79" d="M 2059 -325 
Q 1816 -950 1584 -1140 
Q 1353 -1331 966 -1331 
L 506 -1331 
L 506 -850 
L 844 -850 
Q 1081 -850 1212 -737 
Q 1344 -625 1503 -206 
L 1606 56 
L 191 3500 
L 800 3500 
L 1894 763 
L 2988 3500 
L 3597 3500 
L 2059 -325 
z
" transform="scale(0.015625)"/>
      <path id="DejaVuSans-6d" d="M 3328 2828 
Q 3544 3216 3844 3400 
Q 4144 3584 4550 3584 
Q 5097 3584 5394 3201 
Q 5691 2819 5691 2113 
L 5691 0 
L 5113 0 
L 5113 2094 
Q 5113 2597 4934 2840 
Q 4756 3084 4391 3084 
Q 3944 3084 3684 2787 
Q 3425 2491 3425 1978 
L 3425 0 
L 2847 0 
L 2847 2094 
Q 2847 2600 2669 2842 
Q 2491 3084 2119 3084 
Q 1678 3084 1418 2786 
Q 1159 2488 1159 1978 
L 1159 0 
L 581 0 
L 581 3500 
L 1159 3500 
L 1159 2956 
Q 1356 3278 1631 3431 
Q 1906 3584 2284 3584 
Q 2666 3584 2933 3390 
Q 3200 3197 3328 2828 
z
" transform="scale(0.015625)"/>
     </defs>
     <use xlink:href="#DejaVuSans-76"/>
     <use xlink:href="#DejaVuSans-37" transform="translate(59.179688 0)"/>
     <use xlink:href="#DejaVuSans-20" transform="translate(122.802734 0)"/>
     <use xlink:href="#DejaVuSans-61" transform="translate(154.589844 0)"/>
     <use xlink:href="#DejaVuSans-74" transform="translate(215.869141 0)"/>
     <use xlink:href="#DejaVuSans-74" transform="translate(255.078125 0)"/>
     <use xlink:href="#DejaVuSans-72" transform="translate(294.287109 0)"/>
     <use xlink:href="#DejaVuSans-69" transform="translate(335.400391 0)"/>
     <use xlink:href="#DejaVuSans-62" transform="translate(363.183594 0)"/>
     <use xlink:href="#DejaVuSans-75" transform="translate(426.660156 0)"/>
     <use xlink:href="#DejaVuSans-74" transform="translate(490.039062 0)"/>
     <use xlink:href="#DejaVuSans-69" transform="translate(529.248047 0)"/>
     <use xlink:href="#DejaVuSans-6f" transform="translate(557.03125 0)"/>
     <use xlink:href="#DejaVuSans-6e" transform="translate(618.212891 0)"/>
     <use xlink:href="#DejaVuSans-20" transform="translate(681.591797 0)"/>
     <use xlink:href="#DejaVuSans-72" transform="translate(713.378906 0)"/>
     <use xlink:href="#DejaVuSans-61" transform="translate(754.492188 0)"/>
     <use xlink:href="#DejaVuSans-74" transform="translate(815.771484 0)"/>
     <use xlink:href="#DejaVuSans-65" transform="translate(854.980469 0)"/>
     <use xlink:href="#DejaVuSans-20" transform="translate(916.503906 0)"/>
     <use xlink:href="#DejaVuSans-76" transform="translate(948.291016 0)"/>
     <use xlink:href="#DejaVuSans-73" transform="translate(1007.470703 0)"/>
     <use xlink:href="#DejaVuSans-20" transform="translate(1059.570312 0)"/>
     <use xlink:href="#DejaVuSans-74" transform="translate(1091.357422 0)"/>
     <use xlink:href="#DejaVuSans-6f" transform="translate(1130.566406 0)"/>
     <use xlink:href="#DejaVuSans-6c" transform="translate(1191.748047 0)"/>
     <use xlink:href="#DejaVuSans-65" transform="translate(1219.53125 0)"/>
     <use xlink:href="#DejaVuSans-72" transform="translate(1281.054688 0)"/>
     <use xlink:href="#DejaVuSans-61" transform="translate(1322.167969 0)"/>
     <use xlink:href="#DejaVuSans-6e" transform="translate(1383.447266 0)"/>
     <use xlink:href="#DejaVuSans-63" transform="translate(1446.826172 0)"/>
     <use xlink:href="#DejaVuSans-65" transform="translate(1501.806641 0)"/>
     <use xlink:href="#DejaVuSans-20" transform="translate(1563.330078 0)"/>
     <use xlink:href="#DejaVuSans-62" transform="translate(1595.117188 0)"/>
     <use xlink:href="#DejaVuSans-61" transform="translate(1658.59375 0)"/>
     <use xlink:href="#DejaVuSans-6e" transform="translate(1719.873047 0)"/>
     <use xlink:href="#DejaVuSans-64" transform="translate(1783.251953 0)"/>
     <use xlink:href="#DejaVuSans-2c" transform="translate(1846.728516 0)"/>
     <use xlink:href="#DejaVuSans-20" transform="translate(1878.515625 0)"/>
     <use xlink:href="#DejaVuSans-31" transform="translate(1910.302734 0)"/>
     <use xlink:href="#DejaVuSans-79" transform="translate(1973.925781 0)"/>
     <use xlink:href="#DejaVuSans-20" transform="translate(2033.105469 0)"/>
     <use xlink:href="#DejaVuSans-6d" transform="translate(2064.892578 0)"/>
     <use xlink:href="#DejaVuSans-61" transform="translate(2162.304688 0)"/>
     <use xlink:href="#DejaVuSans-69" transform="translate(2223.583984 0)"/>
     <use xlink:href="#DejaVuSans-6e" transform="translate(2251.367188 0)"/>
     <use xlink:href="#DejaVuSans-6e" transform="translate(2314.746094 0)"/>
     <use xlink:href="#DejaVuSans-65" transform="translate(2378.125 0)"/>
     <use xlink:href="#DejaVuSans-74" transform="translate(2439.648438 0)"/>
     <use xlink:href="#DejaVuSans-20" transform="translate(2478.857422 0)"/>
     <use xlink:href="#DejaVuSans-63" transform="translate(2510.644531 0)"/>
     <use xlink:href="#DejaVuSans-6f" transform="translate(2565.625 0)"/>
     <use xlink:href="#DejaVuSans-72" transform="translate(2626.806641 0)"/>
     <use xlink:href="#DejaVuSans-70" transform="translate(2667.919922 0)"/>
     <use xlink:href="#DejaVuSans-75" transform="translate(2731.396484 0)"/>
     <use xlink:href="#DejaVuSans-73" transform="translate(2794.775391 0)"/>
    </g>
    <!-- (denominator: 16,136 cross-CJ equal-output reuses) -->
    <g transform="translate(77.049063 35.856) scale(0.12 -0.12)">
     <defs>
      <path id="DejaVuSans-3a" d="M 750 794 
L 1409 794 
L 1409 0 
L 750 0 
L 750 794 
z
M 750 3309 
L 1409 3309 
L 1409 2516 
L 750 2516 
L 750 3309 
z
" transform="scale(0.015625)"/>
      <path id="DejaVuSans-36" d="M 2113 2584 
Q 1688 2584 1439 2293 
Q 1191 2003 1191 1497 
Q 1191 994 1439 701 
Q 1688 409 2113 409 
Q 2538 409 2786 701 
Q 3034 994 3034 1497 
Q 3034 2003 2786 2293 
Q 2538 2584 2113 2584 
z
M 3366 4563 
L 3366 3988 
Q 3128 4100 2886 4159 
Q 2644 4219 2406 4219 
Q 1781 4219 1451 3797 
Q 1122 3375 1075 2522 
Q 1259 2794 1537 2939 
Q 1816 3084 2150 3084 
Q 2853 3084 3261 2657 
Q 3669 2231 3669 1497 
Q 3669 778 3244 343 
Q 2819 -91 2113 -91 
Q 1303 -91 875 529 
Q 447 1150 447 2328 
Q 447 3434 972 4092 
Q 1497 4750 2381 4750 
Q 2619 4750 2861 4703 
Q 3103 4656 3366 4563 
z
" transform="scale(0.015625)"/>
      <path id="DejaVuSans-71" d="M 947 1747 
Q 947 1113 1208 752 
Q 1469 391 1925 391 
Q 2381 391 2643 752 
Q 2906 1113 2906 1747 
Q 2906 2381 2643 2742 
Q 2381 3103 1925 3103 
Q 1469 3103 1208 2742 
Q 947 2381 947 1747 
z
M 2906 525 
Q 2725 213 2448 61 
Q 2172 -91 1784 -91 
Q 1150 -91 751 415 
Q 353 922 353 1747 
Q 353 2572 751 3078 
Q 1150 3584 1784 3584 
Q 2172 3584 2448 3432 
Q 2725 3281 2906 2969 
L 2906 3500 
L 3481 3500 
L 3481 -1331 
L 2906 -1331 
L 2906 525 
z
" transform="scale(0.015625)"/>
     </defs>
     <use xlink:href="#DejaVuSans-28"/>
     <use xlink:href="#DejaVuSans-64" transform="translate(39.013672 0)"/>
     <use xlink:href="#DejaVuSans-65" transform="translate(102.490234 0)"/>
     <use xlink:href="#DejaVuSans-6e" transform="translate(164.013672 0)"/>
     <use xlink:href="#DejaVuSans-6f" transform="translate(227.392578 0)"/>
     <use xlink:href="#DejaVuSans-6d" transform="translate(288.574219 0)"/>
     <use xlink:href="#DejaVuSans-69" transform="translate(385.986328 0)"/>
     <use xlink:href="#DejaVuSans-6e" transform="translate(413.769531 0)"/>
     <use xlink:href="#DejaVuSans-61" transform="translate(477.148438 0)"/>
     <use xlink:href="#DejaVuSans-74" transform="translate(538.427734 0)"/>
     <use xlink:href="#DejaVuSans-6f" transform="translate(577.636719 0)"/>
     <use xlink:href="#DejaVuSans-72" transform="translate(638.818359 0)"/>
     <use xlink:href="#DejaVuSans-3a" transform="translate(678.181641 0)"/>
     <use xlink:href="#DejaVuSans-20" transform="translate(711.873047 0)"/>
     <use xlink:href="#DejaVuSans-31" transform="translate(743.660156 0)"/>
     <use xlink:href="#DejaVuSans-36" transform="translate(807.283203 0)"/>
     <use xlink:href="#DejaVuSans-2c" transform="translate(870.90625 0)"/>
     <use xlink:href="#DejaVuSans-31" transform="translate(902.693359 0)"/>
     <use xlink:href="#DejaVuSans-33" transform="translate(966.316406 0)"/>
     <use xlink:href="#DejaVuSans-36" transform="translate(1029.939453 0)"/>
     <use xlink:href="#DejaVuSans-20" transform="translate(1093.5625 0)"/>
     <use xlink:href="#DejaVuSans-63" transform="translate(1125.349609 0)"/>
     <use xlink:href="#DejaVuSans-72" transform="translate(1180.330078 0)"/>
     <use xlink:href="#DejaVuSans-6f" transform="translate(1219.193359 0)"/>
     <use xlink:href="#DejaVuSans-73" transform="translate(1280.375 0)"/>
     <use xlink:href="#DejaVuSans-73" transform="translate(1332.474609 0)"/>
     <use xlink:href="#DejaVuSans-2d" transform="translate(1384.574219 0)"/>
     <use xlink:href="#DejaVuSans-43" transform="translate(1420.658203 0)"/>
     <use xlink:href="#DejaVuSans-4a" transform="translate(1490.482422 0)"/>
     <use xlink:href="#DejaVuSans-20" transform="translate(1519.974609 0)"/>
     <use xlink:href="#DejaVuSans-65" transform="translate(1551.761719 0)"/>
     <use xlink:href="#DejaVuSans-71" transform="translate(1613.285156 0)"/>
     <use xlink:href="#DejaVuSans-75" transform="translate(1676.761719 0)"/>
     <use xlink:href="#DejaVuSans-61" transform="translate(1740.140625 0)"/>
     <use xlink:href="#DejaVuSans-6c" transform="translate(1801.419922 0)"/>
     <use xlink:href="#DejaVuSans-2d" transform="translate(1829.203125 0)"/>
     <use xlink:href="#DejaVuSans-6f" transform="translate(1867.162109 0)"/>
     <use xlink:href="#DejaVuSans-75" transform="translate(1928.34375 0)"/>
     <use xlink:href="#DejaVuSans-74" transform="translate(1991.722656 0)"/>
     <use xlink:href="#DejaVuSans-70" transform="translate(2030.931641 0)"/>
     <use xlink:href="#DejaVuSans-75" transform="translate(2094.408203 0)"/>
     <use xlink:href="#DejaVuSans-74" transform="translate(2157.787109 0)"/>
     <use xlink:href="#DejaVuSans-20" transform="translate(2196.996094 0)"/>
     <use xlink:href="#DejaVuSans-72" transform="translate(2228.783203 0)"/>
     <use xlink:href="#DejaVuSans-65" transform="translate(2267.646484 0)"/>
     <use xlink:href="#DejaVuSans-75" transform="translate(2329.169922 0)"/>
     <use xlink:href="#DejaVuSans-73" transform="translate(2392.548828 0)"/>
     <use xlink:href="#DejaVuSans-65" transform="translate(2444.648438 0)"/>
     <use xlink:href="#DejaVuSans-73" transform="translate(2506.171875 0)"/>
     <use xlink:href="#DejaVuSans-29" transform="translate(2558.271484 0)"/>
    </g>
   </g>
   <g id="legend_1">
    <g id="patch_7">
     <path d="M 332.78125 83.4835 
L 415.6 83.4835 
Q 417.2 83.4835 417.2 81.8835 
L 417.2 47.456 
Q 417.2 45.856 415.6 45.856 
L 332.78125 45.856 
Q 331.18125 45.856 331.18125 47.456 
L 331.18125 81.8835 
Q 331.18125 83.4835 332.78125 83.4835 
z
" style="fill: #ffffff; opacity: 0.8; stroke: #cccccc; stroke-linejoin: miter"/>
    </g>
    <g id="line2d_32">
     <path d="M 334.38125 52.33475 
L 342.38125 52.33475 
L 350.38125 52.33475 
" style="fill: none; stroke: #1f77b4; stroke-width: 1.5; stroke-linecap: square"/>
     <g>
      <use xlink:href="#m1057bc12dc" x="342.38125" y="52.33475" style="fill: #1f77b4; stroke: #1f77b4"/>
     </g>
    </g>
    <g id="text_18">
     <!-- loose -->
     <g transform="translate(356.78125 55.13475) scale(0.08 -0.08)">
      <use xlink:href="#DejaVuSans-6c"/>
      <use xlink:href="#DejaVuSans-6f" transform="translate(27.783203 0)"/>
      <use xlink:href="#DejaVuSans-6f" transform="translate(88.964844 0)"/>
      <use xlink:href="#DejaVuSans-73" transform="translate(150.146484 0)"/>
      <use xlink:href="#DejaVuSans-65" transform="translate(202.246094 0)"/>
     </g>
    </g>
    <g id="line2d_33">
     <path d="M 334.38125 64.07725 
L 342.38125 64.07725 
L 350.38125 64.07725 
" style="fill: none; stroke: #ff7f0e; stroke-width: 1.5; stroke-linecap: square"/>
     <g>
      <use xlink:href="#ma1ad7a8c5f" x="342.38125" y="64.07725" style="fill: #ff7f0e; stroke: #ff7f0e"/>
     </g>
    </g>
    <g id="text_19">
     <!-- strict -->
     <g transform="translate(356.78125 66.87725) scale(0.08 -0.08)">
      <use xlink:href="#DejaVuSans-73"/>
      <use xlink:href="#DejaVuSans-74" transform="translate(52.099609 0)"/>
      <use xlink:href="#DejaVuSans-72" transform="translate(91.308594 0)"/>
      <use xlink:href="#DejaVuSans-69" transform="translate(132.421875 0)"/>
      <use xlink:href="#DejaVuSans-63" transform="translate(160.205078 0)"/>
      <use xlink:href="#DejaVuSans-74" transform="translate(215.185547 0)"/>
     </g>
    </g>
    <g id="line2d_34">
     <path d="M 334.38125 75.81975 
L 342.38125 75.81975 
L 350.38125 75.81975 
" style="fill: none; stroke: #2ca02c; stroke-width: 1.5; stroke-linecap: square"/>
     <g>
      <use xlink:href="#m1145eb077a" x="342.38125" y="75.81975" style="fill: #2ca02c; stroke: #2ca02c"/>
     </g>
    </g>
    <g id="text_20">
     <!-- corpus-unique -->
     <g transform="translate(356.78125 78.61975) scale(0.08 -0.08)">
      <use xlink:href="#DejaVuSans-63"/>
      <use xlink:href="#DejaVuSans-6f" transform="translate(54.980469 0)"/>
      <use xlink:href="#DejaVuSans-72" transform="translate(116.162109 0)"/>
      <use xlink:href="#DejaVuSans-70" transform="translate(157.275391 0)"/>
      <use xlink:href="#DejaVuSans-75" transform="translate(220.751953 0)"/>
      <use xlink:href="#DejaVuSans-73" transform="translate(284.130859 0)"/>
      <use xlink:href="#DejaVuSans-2d" transform="translate(336.230469 0)"/>
      <use xlink:href="#DejaVuSans-75" transform="translate(372.314453 0)"/>
      <use xlink:href="#DejaVuSans-6e" transform="translate(435.693359 0)"/>
      <use xlink:href="#DejaVuSans-69" transform="translate(499.072266 0)"/>
      <use xlink:href="#DejaVuSans-71" transform="translate(526.855469 0)"/>
      <use xlink:href="#DejaVuSans-75" transform="translate(590.332031 0)"/>
      <use xlink:href="#DejaVuSans-65" transform="translate(653.710938 0)"/>
     </g>
    </g>
   </g>
  </g>
 </g>
 <defs>
  <clipPath id="p65a1997724">
   <rect x="44.57" y="41.856" width="376.63" height="175.384"/>
  </clipPath>
 </defs>
</svg>
